G75*
%MOIN*%
%OFA0B0*%
%FSLAX25Y25*%
%IPPOS*%
%LPD*%
%AMOC8*
5,1,8,0,0,1.08239X$1,22.5*
%
%ADD10C,0.00000*%
%ADD11C,0.06000*%
%ADD12R,0.05150X0.05150*%
%ADD13C,0.05150*%
%ADD14OC8,0.06000*%
%ADD15C,0.02400*%
%ADD16C,0.03600*%
%ADD17C,0.04000*%
D10*
X0001000Y0001226D02*
X0001000Y0190202D01*
X0315961Y0190202D01*
X0315961Y0001226D01*
X0001000Y0001226D01*
X0006906Y0011069D02*
X0006908Y0011194D01*
X0006914Y0011319D01*
X0006924Y0011443D01*
X0006938Y0011567D01*
X0006955Y0011691D01*
X0006977Y0011814D01*
X0007003Y0011936D01*
X0007032Y0012058D01*
X0007065Y0012178D01*
X0007103Y0012297D01*
X0007143Y0012416D01*
X0007188Y0012532D01*
X0007236Y0012647D01*
X0007288Y0012761D01*
X0007344Y0012873D01*
X0007403Y0012983D01*
X0007465Y0013091D01*
X0007531Y0013198D01*
X0007600Y0013302D01*
X0007673Y0013403D01*
X0007748Y0013503D01*
X0007827Y0013600D01*
X0007909Y0013694D01*
X0007994Y0013786D01*
X0008081Y0013875D01*
X0008172Y0013961D01*
X0008265Y0014044D01*
X0008361Y0014125D01*
X0008459Y0014202D01*
X0008559Y0014276D01*
X0008662Y0014347D01*
X0008767Y0014414D01*
X0008875Y0014479D01*
X0008984Y0014539D01*
X0009095Y0014597D01*
X0009208Y0014650D01*
X0009322Y0014700D01*
X0009438Y0014747D01*
X0009555Y0014789D01*
X0009674Y0014828D01*
X0009794Y0014864D01*
X0009915Y0014895D01*
X0010037Y0014923D01*
X0010159Y0014946D01*
X0010283Y0014966D01*
X0010407Y0014982D01*
X0010531Y0014994D01*
X0010656Y0015002D01*
X0010781Y0015006D01*
X0010905Y0015006D01*
X0011030Y0015002D01*
X0011155Y0014994D01*
X0011279Y0014982D01*
X0011403Y0014966D01*
X0011527Y0014946D01*
X0011649Y0014923D01*
X0011771Y0014895D01*
X0011892Y0014864D01*
X0012012Y0014828D01*
X0012131Y0014789D01*
X0012248Y0014747D01*
X0012364Y0014700D01*
X0012478Y0014650D01*
X0012591Y0014597D01*
X0012702Y0014539D01*
X0012812Y0014479D01*
X0012919Y0014414D01*
X0013024Y0014347D01*
X0013127Y0014276D01*
X0013227Y0014202D01*
X0013325Y0014125D01*
X0013421Y0014044D01*
X0013514Y0013961D01*
X0013605Y0013875D01*
X0013692Y0013786D01*
X0013777Y0013694D01*
X0013859Y0013600D01*
X0013938Y0013503D01*
X0014013Y0013403D01*
X0014086Y0013302D01*
X0014155Y0013198D01*
X0014221Y0013091D01*
X0014283Y0012983D01*
X0014342Y0012873D01*
X0014398Y0012761D01*
X0014450Y0012647D01*
X0014498Y0012532D01*
X0014543Y0012416D01*
X0014583Y0012297D01*
X0014621Y0012178D01*
X0014654Y0012058D01*
X0014683Y0011936D01*
X0014709Y0011814D01*
X0014731Y0011691D01*
X0014748Y0011567D01*
X0014762Y0011443D01*
X0014772Y0011319D01*
X0014778Y0011194D01*
X0014780Y0011069D01*
X0014778Y0010944D01*
X0014772Y0010819D01*
X0014762Y0010695D01*
X0014748Y0010571D01*
X0014731Y0010447D01*
X0014709Y0010324D01*
X0014683Y0010202D01*
X0014654Y0010080D01*
X0014621Y0009960D01*
X0014583Y0009841D01*
X0014543Y0009722D01*
X0014498Y0009606D01*
X0014450Y0009491D01*
X0014398Y0009377D01*
X0014342Y0009265D01*
X0014283Y0009155D01*
X0014221Y0009047D01*
X0014155Y0008940D01*
X0014086Y0008836D01*
X0014013Y0008735D01*
X0013938Y0008635D01*
X0013859Y0008538D01*
X0013777Y0008444D01*
X0013692Y0008352D01*
X0013605Y0008263D01*
X0013514Y0008177D01*
X0013421Y0008094D01*
X0013325Y0008013D01*
X0013227Y0007936D01*
X0013127Y0007862D01*
X0013024Y0007791D01*
X0012919Y0007724D01*
X0012811Y0007659D01*
X0012702Y0007599D01*
X0012591Y0007541D01*
X0012478Y0007488D01*
X0012364Y0007438D01*
X0012248Y0007391D01*
X0012131Y0007349D01*
X0012012Y0007310D01*
X0011892Y0007274D01*
X0011771Y0007243D01*
X0011649Y0007215D01*
X0011527Y0007192D01*
X0011403Y0007172D01*
X0011279Y0007156D01*
X0011155Y0007144D01*
X0011030Y0007136D01*
X0010905Y0007132D01*
X0010781Y0007132D01*
X0010656Y0007136D01*
X0010531Y0007144D01*
X0010407Y0007156D01*
X0010283Y0007172D01*
X0010159Y0007192D01*
X0010037Y0007215D01*
X0009915Y0007243D01*
X0009794Y0007274D01*
X0009674Y0007310D01*
X0009555Y0007349D01*
X0009438Y0007391D01*
X0009322Y0007438D01*
X0009208Y0007488D01*
X0009095Y0007541D01*
X0008984Y0007599D01*
X0008874Y0007659D01*
X0008767Y0007724D01*
X0008662Y0007791D01*
X0008559Y0007862D01*
X0008459Y0007936D01*
X0008361Y0008013D01*
X0008265Y0008094D01*
X0008172Y0008177D01*
X0008081Y0008263D01*
X0007994Y0008352D01*
X0007909Y0008444D01*
X0007827Y0008538D01*
X0007748Y0008635D01*
X0007673Y0008735D01*
X0007600Y0008836D01*
X0007531Y0008940D01*
X0007465Y0009047D01*
X0007403Y0009155D01*
X0007344Y0009265D01*
X0007288Y0009377D01*
X0007236Y0009491D01*
X0007188Y0009606D01*
X0007143Y0009722D01*
X0007103Y0009841D01*
X0007065Y0009960D01*
X0007032Y0010080D01*
X0007003Y0010202D01*
X0006977Y0010324D01*
X0006955Y0010447D01*
X0006938Y0010571D01*
X0006924Y0010695D01*
X0006914Y0010819D01*
X0006908Y0010944D01*
X0006906Y0011069D01*
X0302181Y0180360D02*
X0302183Y0180485D01*
X0302189Y0180610D01*
X0302199Y0180734D01*
X0302213Y0180858D01*
X0302230Y0180982D01*
X0302252Y0181105D01*
X0302278Y0181227D01*
X0302307Y0181349D01*
X0302340Y0181469D01*
X0302378Y0181588D01*
X0302418Y0181707D01*
X0302463Y0181823D01*
X0302511Y0181938D01*
X0302563Y0182052D01*
X0302619Y0182164D01*
X0302678Y0182274D01*
X0302740Y0182382D01*
X0302806Y0182489D01*
X0302875Y0182593D01*
X0302948Y0182694D01*
X0303023Y0182794D01*
X0303102Y0182891D01*
X0303184Y0182985D01*
X0303269Y0183077D01*
X0303356Y0183166D01*
X0303447Y0183252D01*
X0303540Y0183335D01*
X0303636Y0183416D01*
X0303734Y0183493D01*
X0303834Y0183567D01*
X0303937Y0183638D01*
X0304042Y0183705D01*
X0304150Y0183770D01*
X0304259Y0183830D01*
X0304370Y0183888D01*
X0304483Y0183941D01*
X0304597Y0183991D01*
X0304713Y0184038D01*
X0304830Y0184080D01*
X0304949Y0184119D01*
X0305069Y0184155D01*
X0305190Y0184186D01*
X0305312Y0184214D01*
X0305434Y0184237D01*
X0305558Y0184257D01*
X0305682Y0184273D01*
X0305806Y0184285D01*
X0305931Y0184293D01*
X0306056Y0184297D01*
X0306180Y0184297D01*
X0306305Y0184293D01*
X0306430Y0184285D01*
X0306554Y0184273D01*
X0306678Y0184257D01*
X0306802Y0184237D01*
X0306924Y0184214D01*
X0307046Y0184186D01*
X0307167Y0184155D01*
X0307287Y0184119D01*
X0307406Y0184080D01*
X0307523Y0184038D01*
X0307639Y0183991D01*
X0307753Y0183941D01*
X0307866Y0183888D01*
X0307977Y0183830D01*
X0308087Y0183770D01*
X0308194Y0183705D01*
X0308299Y0183638D01*
X0308402Y0183567D01*
X0308502Y0183493D01*
X0308600Y0183416D01*
X0308696Y0183335D01*
X0308789Y0183252D01*
X0308880Y0183166D01*
X0308967Y0183077D01*
X0309052Y0182985D01*
X0309134Y0182891D01*
X0309213Y0182794D01*
X0309288Y0182694D01*
X0309361Y0182593D01*
X0309430Y0182489D01*
X0309496Y0182382D01*
X0309558Y0182274D01*
X0309617Y0182164D01*
X0309673Y0182052D01*
X0309725Y0181938D01*
X0309773Y0181823D01*
X0309818Y0181707D01*
X0309858Y0181588D01*
X0309896Y0181469D01*
X0309929Y0181349D01*
X0309958Y0181227D01*
X0309984Y0181105D01*
X0310006Y0180982D01*
X0310023Y0180858D01*
X0310037Y0180734D01*
X0310047Y0180610D01*
X0310053Y0180485D01*
X0310055Y0180360D01*
X0310053Y0180235D01*
X0310047Y0180110D01*
X0310037Y0179986D01*
X0310023Y0179862D01*
X0310006Y0179738D01*
X0309984Y0179615D01*
X0309958Y0179493D01*
X0309929Y0179371D01*
X0309896Y0179251D01*
X0309858Y0179132D01*
X0309818Y0179013D01*
X0309773Y0178897D01*
X0309725Y0178782D01*
X0309673Y0178668D01*
X0309617Y0178556D01*
X0309558Y0178446D01*
X0309496Y0178338D01*
X0309430Y0178231D01*
X0309361Y0178127D01*
X0309288Y0178026D01*
X0309213Y0177926D01*
X0309134Y0177829D01*
X0309052Y0177735D01*
X0308967Y0177643D01*
X0308880Y0177554D01*
X0308789Y0177468D01*
X0308696Y0177385D01*
X0308600Y0177304D01*
X0308502Y0177227D01*
X0308402Y0177153D01*
X0308299Y0177082D01*
X0308194Y0177015D01*
X0308086Y0176950D01*
X0307977Y0176890D01*
X0307866Y0176832D01*
X0307753Y0176779D01*
X0307639Y0176729D01*
X0307523Y0176682D01*
X0307406Y0176640D01*
X0307287Y0176601D01*
X0307167Y0176565D01*
X0307046Y0176534D01*
X0306924Y0176506D01*
X0306802Y0176483D01*
X0306678Y0176463D01*
X0306554Y0176447D01*
X0306430Y0176435D01*
X0306305Y0176427D01*
X0306180Y0176423D01*
X0306056Y0176423D01*
X0305931Y0176427D01*
X0305806Y0176435D01*
X0305682Y0176447D01*
X0305558Y0176463D01*
X0305434Y0176483D01*
X0305312Y0176506D01*
X0305190Y0176534D01*
X0305069Y0176565D01*
X0304949Y0176601D01*
X0304830Y0176640D01*
X0304713Y0176682D01*
X0304597Y0176729D01*
X0304483Y0176779D01*
X0304370Y0176832D01*
X0304259Y0176890D01*
X0304149Y0176950D01*
X0304042Y0177015D01*
X0303937Y0177082D01*
X0303834Y0177153D01*
X0303734Y0177227D01*
X0303636Y0177304D01*
X0303540Y0177385D01*
X0303447Y0177468D01*
X0303356Y0177554D01*
X0303269Y0177643D01*
X0303184Y0177735D01*
X0303102Y0177829D01*
X0303023Y0177926D01*
X0302948Y0178026D01*
X0302875Y0178127D01*
X0302806Y0178231D01*
X0302740Y0178338D01*
X0302678Y0178446D01*
X0302619Y0178556D01*
X0302563Y0178668D01*
X0302511Y0178782D01*
X0302463Y0178897D01*
X0302418Y0179013D01*
X0302378Y0179132D01*
X0302340Y0179251D01*
X0302307Y0179371D01*
X0302278Y0179493D01*
X0302252Y0179615D01*
X0302230Y0179738D01*
X0302213Y0179862D01*
X0302199Y0179986D01*
X0302189Y0180110D01*
X0302183Y0180235D01*
X0302181Y0180360D01*
D11*
X0293461Y0179328D02*
X0293461Y0185328D01*
X0283461Y0185328D02*
X0283461Y0179328D01*
X0273461Y0179328D02*
X0273461Y0185328D01*
X0263461Y0185328D02*
X0263461Y0179328D01*
X0253461Y0179328D02*
X0253461Y0185328D01*
X0243461Y0185328D02*
X0243461Y0179328D01*
X0233461Y0179328D02*
X0233461Y0185328D01*
X0223461Y0185328D02*
X0223461Y0179328D01*
X0213461Y0179328D02*
X0213461Y0185328D01*
X0203461Y0185328D02*
X0203461Y0179328D01*
X0193461Y0179328D02*
X0193461Y0185328D01*
X0183461Y0185328D02*
X0183461Y0179328D01*
X0173461Y0179328D02*
X0173461Y0185328D01*
X0163461Y0185328D02*
X0163461Y0179328D01*
X0153461Y0179328D02*
X0153461Y0185328D01*
X0143461Y0185328D02*
X0143461Y0179328D01*
X0133461Y0179328D02*
X0133461Y0185328D01*
X0123461Y0185328D02*
X0123461Y0179328D01*
X0019000Y0166226D02*
X0013000Y0166226D01*
X0013000Y0156226D02*
X0019000Y0156226D01*
X0019000Y0146226D02*
X0013000Y0146226D01*
X0013000Y0136226D02*
X0019000Y0136226D01*
X0019000Y0126226D02*
X0013000Y0126226D01*
X0013000Y0081226D02*
X0019000Y0081226D01*
X0019000Y0071226D02*
X0013000Y0071226D01*
X0013000Y0061226D02*
X0019000Y0061226D01*
X0019000Y0051226D02*
X0013000Y0051226D01*
X0086000Y0024226D02*
X0086000Y0018226D01*
X0096000Y0018226D02*
X0096000Y0024226D01*
X0123461Y0012100D02*
X0123461Y0006100D01*
X0133461Y0006100D02*
X0133461Y0012100D01*
X0143461Y0012100D02*
X0143461Y0006100D01*
X0153461Y0006100D02*
X0153461Y0012100D01*
X0163461Y0012100D02*
X0163461Y0006100D01*
X0173461Y0006100D02*
X0173461Y0012100D01*
X0183461Y0012100D02*
X0183461Y0006100D01*
X0193461Y0006100D02*
X0193461Y0012100D01*
X0203461Y0012100D02*
X0203461Y0006100D01*
X0213461Y0006100D02*
X0213461Y0012100D01*
X0223461Y0012100D02*
X0223461Y0006100D01*
X0233461Y0006100D02*
X0233461Y0012100D01*
X0243461Y0012100D02*
X0243461Y0006100D01*
X0253461Y0006100D02*
X0253461Y0012100D01*
X0263461Y0012100D02*
X0263461Y0006100D01*
X0273461Y0006100D02*
X0273461Y0012100D01*
X0283461Y0012100D02*
X0283461Y0006100D01*
X0293461Y0006100D02*
X0293461Y0012100D01*
D12*
X0281000Y0083037D03*
X0251000Y0083037D03*
X0211000Y0083037D03*
X0166000Y0083037D03*
X0126000Y0083037D03*
X0126000Y0133037D03*
X0166000Y0133037D03*
X0211000Y0133037D03*
X0251000Y0133037D03*
X0281000Y0133037D03*
D13*
X0281000Y0125163D03*
X0281000Y0117289D03*
X0281000Y0109415D03*
X0251000Y0109415D03*
X0251000Y0117289D03*
X0251000Y0125163D03*
X0211000Y0125163D03*
X0211000Y0117289D03*
X0211000Y0109415D03*
X0166000Y0109415D03*
X0166000Y0117289D03*
X0166000Y0125163D03*
X0126000Y0125163D03*
X0126000Y0117289D03*
X0126000Y0109415D03*
X0126000Y0075163D03*
X0126000Y0067289D03*
X0126000Y0059415D03*
X0166000Y0059415D03*
X0166000Y0067289D03*
X0166000Y0075163D03*
X0211000Y0075163D03*
X0211000Y0067289D03*
X0211000Y0059415D03*
X0251000Y0059415D03*
X0251000Y0067289D03*
X0251000Y0075163D03*
X0281000Y0075163D03*
X0281000Y0067289D03*
X0281000Y0059415D03*
D14*
X0061000Y0021226D03*
X0031000Y0021226D03*
D15*
X0016000Y0071226D02*
X0015300Y0071626D01*
X0013100Y0071626D01*
X0006500Y0078226D01*
X0006500Y0128826D01*
X0013100Y0135426D01*
X0015300Y0135426D01*
X0016000Y0136226D01*
X0016400Y0135426D01*
X0113200Y0135426D01*
X0123100Y0125526D01*
X0125300Y0125526D01*
X0126000Y0125163D01*
X0126400Y0125526D01*
X0166000Y0125526D01*
X0166000Y0125163D01*
X0167100Y0125526D01*
X0210000Y0125526D01*
X0211000Y0125163D01*
X0211100Y0125526D01*
X0234200Y0125526D01*
X0234200Y0181626D01*
X0233461Y0182328D01*
X0251000Y0133037D02*
X0251800Y0133226D01*
X0280400Y0133226D01*
X0281000Y0133037D01*
X0280400Y0125526D02*
X0281000Y0125163D01*
X0280400Y0125526D02*
X0251800Y0125526D01*
X0251000Y0125163D01*
X0250700Y0125526D01*
X0234200Y0125526D01*
X0211000Y0133037D02*
X0210000Y0133226D01*
X0167100Y0133226D01*
X0166000Y0133037D01*
X0166000Y0133226D01*
X0126400Y0133226D01*
X0126000Y0133037D01*
X0125300Y0133226D01*
X0113200Y0145326D01*
X0016400Y0145326D01*
X0016000Y0146226D01*
X0126000Y0083037D02*
X0126400Y0083726D01*
X0166000Y0083726D01*
X0166000Y0083037D01*
X0167100Y0083726D01*
X0210000Y0083726D01*
X0211000Y0083037D01*
X0211100Y0083726D01*
X0250700Y0083726D01*
X0251000Y0083037D01*
X0251800Y0083726D01*
X0273800Y0083726D01*
X0273800Y0010026D01*
X0273461Y0009100D01*
X0283461Y0009100D02*
X0283700Y0010026D01*
X0283700Y0052926D01*
X0287000Y0056226D01*
X0287000Y0070526D01*
X0281500Y0076026D01*
X0281000Y0075163D01*
X0281000Y0083037D02*
X0280400Y0083726D01*
X0273800Y0083726D01*
X0250700Y0076026D02*
X0251000Y0075163D01*
X0250700Y0076026D02*
X0211100Y0076026D01*
X0211000Y0075163D01*
X0210000Y0076026D01*
X0167100Y0076026D01*
X0166000Y0075163D01*
X0166000Y0076026D01*
X0126400Y0076026D01*
X0126000Y0075163D01*
D16*
X0118700Y0072726D02*
X0124200Y0067226D01*
X0126000Y0067289D01*
X0126400Y0068326D01*
X0134100Y0068326D01*
X0134100Y0010026D01*
X0133461Y0009100D01*
X0123461Y0009100D02*
X0123100Y0010026D01*
X0123100Y0052926D01*
X0117600Y0058426D01*
X0117600Y0065026D01*
X0118700Y0072726D02*
X0118700Y0111226D01*
X0124200Y0116726D01*
X0125300Y0116726D01*
X0126000Y0117289D01*
X0112100Y0102426D02*
X0026300Y0102426D01*
X0026300Y0058426D01*
X0019700Y0051826D01*
X0016400Y0051826D01*
X0016000Y0051226D01*
X0026300Y0102426D02*
X0026300Y0115626D01*
X0016400Y0125526D01*
X0016000Y0126226D01*
X0134100Y0068326D02*
X0166000Y0068326D01*
X0166000Y0067289D01*
X0211000Y0067289D02*
X0211100Y0068326D01*
X0250700Y0068326D01*
X0251000Y0067289D01*
X0210000Y0117826D02*
X0194600Y0102426D01*
X0210000Y0117826D02*
X0211000Y0117289D01*
X0211100Y0117826D01*
X0250700Y0117826D01*
X0251000Y0117289D01*
X0251800Y0117826D01*
X0280400Y0117826D01*
X0281000Y0117289D01*
X0282600Y0116726D01*
X0292500Y0126626D01*
X0292500Y0181626D01*
X0293461Y0182328D01*
D17*
X0194600Y0102426D03*
X0117600Y0065026D03*
X0112100Y0102426D03*
M02*
