%
M48
M72
T01C0.02400
T02C0.03150
T03C0.04000
T04C0.07874
%
T01
X152800Y19926
T02
X166000Y59415
X166000Y67289
X166000Y75163
X166000Y83037
X126000Y83037
X126000Y75163
X126000Y67289
X126000Y59415
X126000Y109415
X126000Y117289
X126000Y125163
X126000Y133037
X166000Y133037
X166000Y125163
X166000Y117289
X166000Y109415
X211000Y109415
X211000Y117289
X211000Y125163
X211000Y133037
X251000Y133037
X251000Y125163
X251000Y117289
X251000Y109415
X281000Y109415
X281000Y117289
X281000Y125163
X281000Y133037
X281000Y83037
X281000Y75163
X281000Y67289
X281000Y59415
X251000Y59415
X251000Y67289
X251000Y75163
X251000Y83037
X211000Y83037
X211000Y75163
X211000Y67289
X211000Y59415
T03
X213461Y9100
X223461Y9100
X233461Y9100
X243461Y9100
X253461Y9100
X263461Y9100
X273461Y9100
X283461Y9100
X293461Y9100
X203461Y9100
X193461Y9100
X183461Y9100
X173461Y9100
X163461Y9100
X153461Y9100
X143461Y9100
X133461Y9100
X123461Y9100
X96000Y21226
X86000Y21226
X61000Y21226
X31000Y21226
X16000Y51226
X16000Y61226
X16000Y71226
X16000Y81226
X16000Y126226
X16000Y136226
X16000Y146226
X16000Y156226
X16000Y166226
X123461Y182328
X133461Y182328
X143461Y182328
X153461Y182328
X163461Y182328
X173461Y182328
X183461Y182328
X193461Y182328
X203461Y182328
X213461Y182328
X223461Y182328
X233461Y182328
X243461Y182328
X253461Y182328
X263461Y182328
X273461Y182328
X283461Y182328
X293461Y182328
T04
X10843Y11069
X306118Y180360
M30
