G75*
%MOIN*%
%OFA0B0*%
%FSLAX25Y25*%
%IPPOS*%
%LPD*%
%AMOC8*
5,1,8,0,0,1.08239X$1,22.5*
%
%ADD10C,0.00000*%
%ADD11C,0.06000*%
%ADD12R,0.05150X0.05150*%
%ADD13C,0.05150*%
%ADD14OC8,0.06000*%
%ADD15C,0.02400*%
%ADD16C,0.03600*%
%ADD17C,0.01600*%
%ADD18C,0.04000*%
D10*
X0001000Y0001226D02*
X0001000Y0190202D01*
X0315961Y0190202D01*
X0315961Y0001226D01*
X0001000Y0001226D01*
X0006906Y0011069D02*
X0006908Y0011194D01*
X0006914Y0011319D01*
X0006924Y0011443D01*
X0006938Y0011567D01*
X0006955Y0011691D01*
X0006977Y0011814D01*
X0007003Y0011936D01*
X0007032Y0012058D01*
X0007065Y0012178D01*
X0007103Y0012297D01*
X0007143Y0012416D01*
X0007188Y0012532D01*
X0007236Y0012647D01*
X0007288Y0012761D01*
X0007344Y0012873D01*
X0007403Y0012983D01*
X0007465Y0013091D01*
X0007531Y0013198D01*
X0007600Y0013302D01*
X0007673Y0013403D01*
X0007748Y0013503D01*
X0007827Y0013600D01*
X0007909Y0013694D01*
X0007994Y0013786D01*
X0008081Y0013875D01*
X0008172Y0013961D01*
X0008265Y0014044D01*
X0008361Y0014125D01*
X0008459Y0014202D01*
X0008559Y0014276D01*
X0008662Y0014347D01*
X0008767Y0014414D01*
X0008875Y0014479D01*
X0008984Y0014539D01*
X0009095Y0014597D01*
X0009208Y0014650D01*
X0009322Y0014700D01*
X0009438Y0014747D01*
X0009555Y0014789D01*
X0009674Y0014828D01*
X0009794Y0014864D01*
X0009915Y0014895D01*
X0010037Y0014923D01*
X0010159Y0014946D01*
X0010283Y0014966D01*
X0010407Y0014982D01*
X0010531Y0014994D01*
X0010656Y0015002D01*
X0010781Y0015006D01*
X0010905Y0015006D01*
X0011030Y0015002D01*
X0011155Y0014994D01*
X0011279Y0014982D01*
X0011403Y0014966D01*
X0011527Y0014946D01*
X0011649Y0014923D01*
X0011771Y0014895D01*
X0011892Y0014864D01*
X0012012Y0014828D01*
X0012131Y0014789D01*
X0012248Y0014747D01*
X0012364Y0014700D01*
X0012478Y0014650D01*
X0012591Y0014597D01*
X0012702Y0014539D01*
X0012812Y0014479D01*
X0012919Y0014414D01*
X0013024Y0014347D01*
X0013127Y0014276D01*
X0013227Y0014202D01*
X0013325Y0014125D01*
X0013421Y0014044D01*
X0013514Y0013961D01*
X0013605Y0013875D01*
X0013692Y0013786D01*
X0013777Y0013694D01*
X0013859Y0013600D01*
X0013938Y0013503D01*
X0014013Y0013403D01*
X0014086Y0013302D01*
X0014155Y0013198D01*
X0014221Y0013091D01*
X0014283Y0012983D01*
X0014342Y0012873D01*
X0014398Y0012761D01*
X0014450Y0012647D01*
X0014498Y0012532D01*
X0014543Y0012416D01*
X0014583Y0012297D01*
X0014621Y0012178D01*
X0014654Y0012058D01*
X0014683Y0011936D01*
X0014709Y0011814D01*
X0014731Y0011691D01*
X0014748Y0011567D01*
X0014762Y0011443D01*
X0014772Y0011319D01*
X0014778Y0011194D01*
X0014780Y0011069D01*
X0014778Y0010944D01*
X0014772Y0010819D01*
X0014762Y0010695D01*
X0014748Y0010571D01*
X0014731Y0010447D01*
X0014709Y0010324D01*
X0014683Y0010202D01*
X0014654Y0010080D01*
X0014621Y0009960D01*
X0014583Y0009841D01*
X0014543Y0009722D01*
X0014498Y0009606D01*
X0014450Y0009491D01*
X0014398Y0009377D01*
X0014342Y0009265D01*
X0014283Y0009155D01*
X0014221Y0009047D01*
X0014155Y0008940D01*
X0014086Y0008836D01*
X0014013Y0008735D01*
X0013938Y0008635D01*
X0013859Y0008538D01*
X0013777Y0008444D01*
X0013692Y0008352D01*
X0013605Y0008263D01*
X0013514Y0008177D01*
X0013421Y0008094D01*
X0013325Y0008013D01*
X0013227Y0007936D01*
X0013127Y0007862D01*
X0013024Y0007791D01*
X0012919Y0007724D01*
X0012811Y0007659D01*
X0012702Y0007599D01*
X0012591Y0007541D01*
X0012478Y0007488D01*
X0012364Y0007438D01*
X0012248Y0007391D01*
X0012131Y0007349D01*
X0012012Y0007310D01*
X0011892Y0007274D01*
X0011771Y0007243D01*
X0011649Y0007215D01*
X0011527Y0007192D01*
X0011403Y0007172D01*
X0011279Y0007156D01*
X0011155Y0007144D01*
X0011030Y0007136D01*
X0010905Y0007132D01*
X0010781Y0007132D01*
X0010656Y0007136D01*
X0010531Y0007144D01*
X0010407Y0007156D01*
X0010283Y0007172D01*
X0010159Y0007192D01*
X0010037Y0007215D01*
X0009915Y0007243D01*
X0009794Y0007274D01*
X0009674Y0007310D01*
X0009555Y0007349D01*
X0009438Y0007391D01*
X0009322Y0007438D01*
X0009208Y0007488D01*
X0009095Y0007541D01*
X0008984Y0007599D01*
X0008874Y0007659D01*
X0008767Y0007724D01*
X0008662Y0007791D01*
X0008559Y0007862D01*
X0008459Y0007936D01*
X0008361Y0008013D01*
X0008265Y0008094D01*
X0008172Y0008177D01*
X0008081Y0008263D01*
X0007994Y0008352D01*
X0007909Y0008444D01*
X0007827Y0008538D01*
X0007748Y0008635D01*
X0007673Y0008735D01*
X0007600Y0008836D01*
X0007531Y0008940D01*
X0007465Y0009047D01*
X0007403Y0009155D01*
X0007344Y0009265D01*
X0007288Y0009377D01*
X0007236Y0009491D01*
X0007188Y0009606D01*
X0007143Y0009722D01*
X0007103Y0009841D01*
X0007065Y0009960D01*
X0007032Y0010080D01*
X0007003Y0010202D01*
X0006977Y0010324D01*
X0006955Y0010447D01*
X0006938Y0010571D01*
X0006924Y0010695D01*
X0006914Y0010819D01*
X0006908Y0010944D01*
X0006906Y0011069D01*
X0302181Y0180360D02*
X0302183Y0180485D01*
X0302189Y0180610D01*
X0302199Y0180734D01*
X0302213Y0180858D01*
X0302230Y0180982D01*
X0302252Y0181105D01*
X0302278Y0181227D01*
X0302307Y0181349D01*
X0302340Y0181469D01*
X0302378Y0181588D01*
X0302418Y0181707D01*
X0302463Y0181823D01*
X0302511Y0181938D01*
X0302563Y0182052D01*
X0302619Y0182164D01*
X0302678Y0182274D01*
X0302740Y0182382D01*
X0302806Y0182489D01*
X0302875Y0182593D01*
X0302948Y0182694D01*
X0303023Y0182794D01*
X0303102Y0182891D01*
X0303184Y0182985D01*
X0303269Y0183077D01*
X0303356Y0183166D01*
X0303447Y0183252D01*
X0303540Y0183335D01*
X0303636Y0183416D01*
X0303734Y0183493D01*
X0303834Y0183567D01*
X0303937Y0183638D01*
X0304042Y0183705D01*
X0304150Y0183770D01*
X0304259Y0183830D01*
X0304370Y0183888D01*
X0304483Y0183941D01*
X0304597Y0183991D01*
X0304713Y0184038D01*
X0304830Y0184080D01*
X0304949Y0184119D01*
X0305069Y0184155D01*
X0305190Y0184186D01*
X0305312Y0184214D01*
X0305434Y0184237D01*
X0305558Y0184257D01*
X0305682Y0184273D01*
X0305806Y0184285D01*
X0305931Y0184293D01*
X0306056Y0184297D01*
X0306180Y0184297D01*
X0306305Y0184293D01*
X0306430Y0184285D01*
X0306554Y0184273D01*
X0306678Y0184257D01*
X0306802Y0184237D01*
X0306924Y0184214D01*
X0307046Y0184186D01*
X0307167Y0184155D01*
X0307287Y0184119D01*
X0307406Y0184080D01*
X0307523Y0184038D01*
X0307639Y0183991D01*
X0307753Y0183941D01*
X0307866Y0183888D01*
X0307977Y0183830D01*
X0308087Y0183770D01*
X0308194Y0183705D01*
X0308299Y0183638D01*
X0308402Y0183567D01*
X0308502Y0183493D01*
X0308600Y0183416D01*
X0308696Y0183335D01*
X0308789Y0183252D01*
X0308880Y0183166D01*
X0308967Y0183077D01*
X0309052Y0182985D01*
X0309134Y0182891D01*
X0309213Y0182794D01*
X0309288Y0182694D01*
X0309361Y0182593D01*
X0309430Y0182489D01*
X0309496Y0182382D01*
X0309558Y0182274D01*
X0309617Y0182164D01*
X0309673Y0182052D01*
X0309725Y0181938D01*
X0309773Y0181823D01*
X0309818Y0181707D01*
X0309858Y0181588D01*
X0309896Y0181469D01*
X0309929Y0181349D01*
X0309958Y0181227D01*
X0309984Y0181105D01*
X0310006Y0180982D01*
X0310023Y0180858D01*
X0310037Y0180734D01*
X0310047Y0180610D01*
X0310053Y0180485D01*
X0310055Y0180360D01*
X0310053Y0180235D01*
X0310047Y0180110D01*
X0310037Y0179986D01*
X0310023Y0179862D01*
X0310006Y0179738D01*
X0309984Y0179615D01*
X0309958Y0179493D01*
X0309929Y0179371D01*
X0309896Y0179251D01*
X0309858Y0179132D01*
X0309818Y0179013D01*
X0309773Y0178897D01*
X0309725Y0178782D01*
X0309673Y0178668D01*
X0309617Y0178556D01*
X0309558Y0178446D01*
X0309496Y0178338D01*
X0309430Y0178231D01*
X0309361Y0178127D01*
X0309288Y0178026D01*
X0309213Y0177926D01*
X0309134Y0177829D01*
X0309052Y0177735D01*
X0308967Y0177643D01*
X0308880Y0177554D01*
X0308789Y0177468D01*
X0308696Y0177385D01*
X0308600Y0177304D01*
X0308502Y0177227D01*
X0308402Y0177153D01*
X0308299Y0177082D01*
X0308194Y0177015D01*
X0308086Y0176950D01*
X0307977Y0176890D01*
X0307866Y0176832D01*
X0307753Y0176779D01*
X0307639Y0176729D01*
X0307523Y0176682D01*
X0307406Y0176640D01*
X0307287Y0176601D01*
X0307167Y0176565D01*
X0307046Y0176534D01*
X0306924Y0176506D01*
X0306802Y0176483D01*
X0306678Y0176463D01*
X0306554Y0176447D01*
X0306430Y0176435D01*
X0306305Y0176427D01*
X0306180Y0176423D01*
X0306056Y0176423D01*
X0305931Y0176427D01*
X0305806Y0176435D01*
X0305682Y0176447D01*
X0305558Y0176463D01*
X0305434Y0176483D01*
X0305312Y0176506D01*
X0305190Y0176534D01*
X0305069Y0176565D01*
X0304949Y0176601D01*
X0304830Y0176640D01*
X0304713Y0176682D01*
X0304597Y0176729D01*
X0304483Y0176779D01*
X0304370Y0176832D01*
X0304259Y0176890D01*
X0304149Y0176950D01*
X0304042Y0177015D01*
X0303937Y0177082D01*
X0303834Y0177153D01*
X0303734Y0177227D01*
X0303636Y0177304D01*
X0303540Y0177385D01*
X0303447Y0177468D01*
X0303356Y0177554D01*
X0303269Y0177643D01*
X0303184Y0177735D01*
X0303102Y0177829D01*
X0303023Y0177926D01*
X0302948Y0178026D01*
X0302875Y0178127D01*
X0302806Y0178231D01*
X0302740Y0178338D01*
X0302678Y0178446D01*
X0302619Y0178556D01*
X0302563Y0178668D01*
X0302511Y0178782D01*
X0302463Y0178897D01*
X0302418Y0179013D01*
X0302378Y0179132D01*
X0302340Y0179251D01*
X0302307Y0179371D01*
X0302278Y0179493D01*
X0302252Y0179615D01*
X0302230Y0179738D01*
X0302213Y0179862D01*
X0302199Y0179986D01*
X0302189Y0180110D01*
X0302183Y0180235D01*
X0302181Y0180360D01*
D11*
X0293461Y0179328D02*
X0293461Y0185328D01*
X0283461Y0185328D02*
X0283461Y0179328D01*
X0273461Y0179328D02*
X0273461Y0185328D01*
X0263461Y0185328D02*
X0263461Y0179328D01*
X0253461Y0179328D02*
X0253461Y0185328D01*
X0243461Y0185328D02*
X0243461Y0179328D01*
X0233461Y0179328D02*
X0233461Y0185328D01*
X0223461Y0185328D02*
X0223461Y0179328D01*
X0213461Y0179328D02*
X0213461Y0185328D01*
X0203461Y0185328D02*
X0203461Y0179328D01*
X0193461Y0179328D02*
X0193461Y0185328D01*
X0183461Y0185328D02*
X0183461Y0179328D01*
X0173461Y0179328D02*
X0173461Y0185328D01*
X0163461Y0185328D02*
X0163461Y0179328D01*
X0153461Y0179328D02*
X0153461Y0185328D01*
X0143461Y0185328D02*
X0143461Y0179328D01*
X0133461Y0179328D02*
X0133461Y0185328D01*
X0123461Y0185328D02*
X0123461Y0179328D01*
X0019000Y0166226D02*
X0013000Y0166226D01*
X0013000Y0156226D02*
X0019000Y0156226D01*
X0019000Y0146226D02*
X0013000Y0146226D01*
X0013000Y0136226D02*
X0019000Y0136226D01*
X0019000Y0126226D02*
X0013000Y0126226D01*
X0013000Y0081226D02*
X0019000Y0081226D01*
X0019000Y0071226D02*
X0013000Y0071226D01*
X0013000Y0061226D02*
X0019000Y0061226D01*
X0019000Y0051226D02*
X0013000Y0051226D01*
X0086000Y0024226D02*
X0086000Y0018226D01*
X0096000Y0018226D02*
X0096000Y0024226D01*
X0123461Y0012100D02*
X0123461Y0006100D01*
X0133461Y0006100D02*
X0133461Y0012100D01*
X0143461Y0012100D02*
X0143461Y0006100D01*
X0153461Y0006100D02*
X0153461Y0012100D01*
X0163461Y0012100D02*
X0163461Y0006100D01*
X0173461Y0006100D02*
X0173461Y0012100D01*
X0183461Y0012100D02*
X0183461Y0006100D01*
X0193461Y0006100D02*
X0193461Y0012100D01*
X0203461Y0012100D02*
X0203461Y0006100D01*
X0213461Y0006100D02*
X0213461Y0012100D01*
X0223461Y0012100D02*
X0223461Y0006100D01*
X0233461Y0006100D02*
X0233461Y0012100D01*
X0243461Y0012100D02*
X0243461Y0006100D01*
X0253461Y0006100D02*
X0253461Y0012100D01*
X0263461Y0012100D02*
X0263461Y0006100D01*
X0273461Y0006100D02*
X0273461Y0012100D01*
X0283461Y0012100D02*
X0283461Y0006100D01*
X0293461Y0006100D02*
X0293461Y0012100D01*
D12*
X0281000Y0083037D03*
X0251000Y0083037D03*
X0211000Y0083037D03*
X0166000Y0083037D03*
X0126000Y0083037D03*
X0126000Y0133037D03*
X0166000Y0133037D03*
X0211000Y0133037D03*
X0251000Y0133037D03*
X0281000Y0133037D03*
D13*
X0281000Y0125163D03*
X0281000Y0117289D03*
X0281000Y0109415D03*
X0251000Y0109415D03*
X0251000Y0117289D03*
X0251000Y0125163D03*
X0211000Y0125163D03*
X0211000Y0117289D03*
X0211000Y0109415D03*
X0166000Y0109415D03*
X0166000Y0117289D03*
X0166000Y0125163D03*
X0126000Y0125163D03*
X0126000Y0117289D03*
X0126000Y0109415D03*
X0126000Y0075163D03*
X0126000Y0067289D03*
X0126000Y0059415D03*
X0166000Y0059415D03*
X0166000Y0067289D03*
X0166000Y0075163D03*
X0211000Y0075163D03*
X0211000Y0067289D03*
X0211000Y0059415D03*
X0251000Y0059415D03*
X0251000Y0067289D03*
X0251000Y0075163D03*
X0281000Y0075163D03*
X0281000Y0067289D03*
X0281000Y0059415D03*
D14*
X0061000Y0021226D03*
X0031000Y0021226D03*
D15*
X0061000Y0021226D02*
X0061500Y0021026D01*
X0071400Y0011126D01*
X0097800Y0011126D01*
X0105500Y0018826D01*
X0195700Y0018826D01*
X0200100Y0014426D01*
X0200100Y0013326D01*
X0203400Y0010026D01*
X0203461Y0009100D01*
X0210000Y0013326D02*
X0210000Y0014426D01*
X0201200Y0023226D01*
X0097800Y0023226D01*
X0096700Y0022126D01*
X0096000Y0021226D01*
X0016000Y0061226D02*
X0015300Y0061726D01*
X0013100Y0061726D01*
X0006500Y0068326D01*
X0006500Y0138726D01*
X0013100Y0145326D01*
X0015300Y0145326D01*
X0016000Y0146226D01*
X0211000Y0133037D02*
X0211100Y0133226D01*
X0223200Y0133226D01*
X0223200Y0181626D01*
X0223461Y0182328D01*
X0223200Y0133226D02*
X0250700Y0133226D01*
X0251000Y0133037D01*
X0251800Y0076026D02*
X0251000Y0075163D01*
X0251800Y0076026D02*
X0280400Y0076026D01*
X0281000Y0075163D01*
X0213300Y0010026D02*
X0210000Y0013326D01*
X0213300Y0010026D02*
X0213461Y0009100D01*
D16*
X0292500Y0010026D02*
X0293461Y0009100D01*
X0292500Y0010026D02*
X0292500Y0048526D01*
X0282600Y0058426D01*
X0281000Y0059415D01*
X0280400Y0059526D01*
X0252900Y0059526D01*
X0251000Y0059415D01*
X0250700Y0059526D01*
X0230900Y0059526D01*
X0230900Y0110126D01*
X0211100Y0110126D01*
X0211000Y0109415D01*
X0210000Y0110126D01*
X0167100Y0110126D01*
X0166000Y0109415D01*
X0166000Y0110126D01*
X0133000Y0110126D01*
X0133000Y0137626D01*
X0124200Y0146426D01*
X0124200Y0181626D01*
X0123461Y0182328D01*
X0026300Y0159626D02*
X0026300Y0087026D01*
X0020800Y0081526D01*
X0016000Y0081226D01*
X0016400Y0080426D01*
X0019700Y0080426D01*
X0030700Y0069426D01*
X0030700Y0023226D01*
X0031000Y0021226D01*
X0031800Y0022126D01*
X0051600Y0022126D01*
X0058200Y0028726D01*
X0079100Y0028726D01*
X0085700Y0022126D01*
X0086000Y0021226D01*
X0085700Y0024326D01*
X0120900Y0059526D01*
X0124200Y0059526D01*
X0126000Y0059415D01*
X0126400Y0059526D01*
X0166000Y0059526D01*
X0166000Y0059415D01*
X0167100Y0059526D01*
X0210000Y0059526D01*
X0211000Y0059415D01*
X0211100Y0059526D01*
X0230900Y0059526D01*
X0211000Y0067289D02*
X0210000Y0068326D01*
X0207800Y0068326D01*
X0185800Y0090326D01*
X0122000Y0090326D01*
X0117600Y0085926D01*
X0117600Y0065026D01*
X0112100Y0102426D02*
X0194600Y0102426D01*
X0230900Y0110126D02*
X0250700Y0110126D01*
X0251000Y0109415D01*
X0251800Y0110126D01*
X0280400Y0110126D01*
X0281000Y0109415D01*
X0280400Y0068326D02*
X0251800Y0068326D01*
X0251000Y0067289D01*
X0280400Y0068326D02*
X0281000Y0067289D01*
X0133000Y0110126D02*
X0126400Y0110126D01*
X0126000Y0109415D01*
X0026300Y0159626D02*
X0019700Y0166226D01*
X0016000Y0166226D01*
D17*
X0016200Y0166426D02*
X0015800Y0166426D01*
X0015800Y0171026D01*
X0012622Y0171026D01*
X0011876Y0170908D01*
X0011157Y0170674D01*
X0010484Y0170331D01*
X0009873Y0169887D01*
X0009339Y0169353D01*
X0008895Y0168742D01*
X0008552Y0168069D01*
X0008318Y0167350D01*
X0008200Y0166604D01*
X0008200Y0166426D01*
X0015800Y0166426D01*
X0015800Y0166026D01*
X0008200Y0166026D01*
X0008200Y0165848D01*
X0008318Y0165102D01*
X0008552Y0164383D01*
X0008895Y0163710D01*
X0009339Y0163099D01*
X0009873Y0162565D01*
X0010484Y0162121D01*
X0011157Y0161778D01*
X0011208Y0161761D01*
X0009715Y0161143D01*
X0008083Y0159511D01*
X0007200Y0157380D01*
X0007200Y0155072D01*
X0008083Y0152941D01*
X0009715Y0151309D01*
X0009915Y0151226D01*
X0009715Y0151143D01*
X0008083Y0149511D01*
X0007200Y0147380D01*
X0007200Y0145083D01*
X0005800Y0143683D01*
X0005800Y0185402D01*
X0118661Y0185402D01*
X0118661Y0182528D01*
X0123261Y0182528D01*
X0123261Y0182128D01*
X0123661Y0182128D01*
X0123661Y0174528D01*
X0123838Y0174528D01*
X0124585Y0174647D01*
X0125303Y0174880D01*
X0125976Y0175223D01*
X0126588Y0175667D01*
X0127122Y0176201D01*
X0127566Y0176813D01*
X0127909Y0177486D01*
X0127925Y0177536D01*
X0128544Y0176043D01*
X0130175Y0174411D01*
X0132307Y0173528D01*
X0134614Y0173528D01*
X0136746Y0174411D01*
X0138378Y0176043D01*
X0138461Y0176243D01*
X0138544Y0176043D01*
X0140175Y0174411D01*
X0142307Y0173528D01*
X0144614Y0173528D01*
X0146746Y0174411D01*
X0148378Y0176043D01*
X0148461Y0176243D01*
X0148544Y0176043D01*
X0150175Y0174411D01*
X0152307Y0173528D01*
X0154614Y0173528D01*
X0156746Y0174411D01*
X0158378Y0176043D01*
X0158461Y0176243D01*
X0158544Y0176043D01*
X0160175Y0174411D01*
X0162307Y0173528D01*
X0164614Y0173528D01*
X0166746Y0174411D01*
X0168378Y0176043D01*
X0168461Y0176243D01*
X0168544Y0176043D01*
X0170175Y0174411D01*
X0172307Y0173528D01*
X0174614Y0173528D01*
X0176746Y0174411D01*
X0178378Y0176043D01*
X0178461Y0176243D01*
X0178544Y0176043D01*
X0180175Y0174411D01*
X0182307Y0173528D01*
X0184614Y0173528D01*
X0186746Y0174411D01*
X0188378Y0176043D01*
X0188461Y0176243D01*
X0188544Y0176043D01*
X0190175Y0174411D01*
X0192307Y0173528D01*
X0194614Y0173528D01*
X0196746Y0174411D01*
X0198378Y0176043D01*
X0198461Y0176243D01*
X0198544Y0176043D01*
X0200175Y0174411D01*
X0202307Y0173528D01*
X0204614Y0173528D01*
X0206746Y0174411D01*
X0208378Y0176043D01*
X0208461Y0176243D01*
X0208544Y0176043D01*
X0210175Y0174411D01*
X0212307Y0173528D01*
X0214614Y0173528D01*
X0216746Y0174411D01*
X0218378Y0176043D01*
X0218461Y0176243D01*
X0218544Y0176043D01*
X0219200Y0175387D01*
X0219200Y0137226D01*
X0215920Y0137226D01*
X0215161Y0137986D01*
X0214132Y0138412D01*
X0207868Y0138412D01*
X0206839Y0137986D01*
X0206051Y0137198D01*
X0205625Y0136169D01*
X0205625Y0129905D01*
X0206051Y0128876D01*
X0206582Y0128346D01*
X0206443Y0128208D01*
X0205625Y0126232D01*
X0205625Y0124094D01*
X0206443Y0122118D01*
X0207336Y0121226D01*
X0206443Y0120334D01*
X0205625Y0118358D01*
X0205625Y0116220D01*
X0206443Y0114244D01*
X0207955Y0112732D01*
X0208079Y0112681D01*
X0207663Y0112265D01*
X0207258Y0111708D01*
X0206946Y0111094D01*
X0206733Y0110439D01*
X0206625Y0109759D01*
X0206625Y0109415D01*
X0211000Y0109415D01*
X0215375Y0109415D01*
X0215375Y0109759D01*
X0215267Y0110439D01*
X0215054Y0111094D01*
X0214742Y0111708D01*
X0214337Y0112265D01*
X0213921Y0112681D01*
X0214045Y0112732D01*
X0215557Y0114244D01*
X0216375Y0116220D01*
X0216375Y0118358D01*
X0215557Y0120334D01*
X0214664Y0121226D01*
X0215557Y0122118D01*
X0216375Y0124094D01*
X0216375Y0126232D01*
X0215557Y0128208D01*
X0215418Y0128346D01*
X0215949Y0128876D01*
X0216093Y0129226D01*
X0245907Y0129226D01*
X0246051Y0128876D01*
X0246582Y0128346D01*
X0246443Y0128208D01*
X0245625Y0126232D01*
X0245625Y0124094D01*
X0246443Y0122118D01*
X0247336Y0121226D01*
X0246443Y0120334D01*
X0245625Y0118358D01*
X0245625Y0116220D01*
X0246443Y0114244D01*
X0247955Y0112732D01*
X0248079Y0112681D01*
X0247663Y0112265D01*
X0247258Y0111708D01*
X0246946Y0111094D01*
X0246733Y0110439D01*
X0246625Y0109759D01*
X0246625Y0109415D01*
X0251000Y0109415D01*
X0255375Y0109415D01*
X0255375Y0109759D01*
X0255267Y0110439D01*
X0255054Y0111094D01*
X0254742Y0111708D01*
X0254337Y0112265D01*
X0253921Y0112681D01*
X0254045Y0112732D01*
X0255557Y0114244D01*
X0256375Y0116220D01*
X0256375Y0118358D01*
X0255557Y0120334D01*
X0254664Y0121226D01*
X0255557Y0122118D01*
X0256375Y0124094D01*
X0256375Y0126232D01*
X0255557Y0128208D01*
X0255418Y0128346D01*
X0255949Y0128876D01*
X0256375Y0129905D01*
X0256375Y0136169D01*
X0255949Y0137198D01*
X0255161Y0137986D01*
X0254132Y0138412D01*
X0247868Y0138412D01*
X0246839Y0137986D01*
X0246080Y0137226D01*
X0227200Y0137226D01*
X0227200Y0174865D01*
X0228378Y0176043D01*
X0228461Y0176243D01*
X0228544Y0176043D01*
X0230175Y0174411D01*
X0232307Y0173528D01*
X0234614Y0173528D01*
X0236746Y0174411D01*
X0238378Y0176043D01*
X0238461Y0176243D01*
X0238544Y0176043D01*
X0240175Y0174411D01*
X0242307Y0173528D01*
X0244614Y0173528D01*
X0246746Y0174411D01*
X0248378Y0176043D01*
X0248461Y0176243D01*
X0248544Y0176043D01*
X0250175Y0174411D01*
X0252307Y0173528D01*
X0254614Y0173528D01*
X0256746Y0174411D01*
X0258378Y0176043D01*
X0258461Y0176243D01*
X0258544Y0176043D01*
X0260175Y0174411D01*
X0262307Y0173528D01*
X0264614Y0173528D01*
X0266746Y0174411D01*
X0268378Y0176043D01*
X0268461Y0176243D01*
X0268544Y0176043D01*
X0270175Y0174411D01*
X0272307Y0173528D01*
X0274614Y0173528D01*
X0276746Y0174411D01*
X0278378Y0176043D01*
X0278461Y0176243D01*
X0278544Y0176043D01*
X0280175Y0174411D01*
X0282307Y0173528D01*
X0284614Y0173528D01*
X0286746Y0174411D01*
X0288378Y0176043D01*
X0288461Y0176243D01*
X0288544Y0176043D01*
X0290175Y0174411D01*
X0292307Y0173528D01*
X0294614Y0173528D01*
X0296746Y0174411D01*
X0298378Y0176043D01*
X0298413Y0176130D01*
X0298711Y0175411D01*
X0301169Y0172953D01*
X0304380Y0171623D01*
X0307856Y0171623D01*
X0311067Y0172953D01*
X0311161Y0173046D01*
X0311161Y0006026D01*
X0298261Y0006026D01*
X0298261Y0008900D01*
X0293661Y0008900D01*
X0293661Y0009300D01*
X0298261Y0009300D01*
X0298261Y0012478D01*
X0298142Y0013224D01*
X0297909Y0013943D01*
X0297566Y0014616D01*
X0297122Y0015227D01*
X0296588Y0015761D01*
X0295976Y0016205D01*
X0295303Y0016548D01*
X0294585Y0016782D01*
X0293838Y0016900D01*
X0293661Y0016900D01*
X0293661Y0009300D01*
X0293261Y0009300D01*
X0293261Y0016900D01*
X0293083Y0016900D01*
X0292337Y0016782D01*
X0291618Y0016548D01*
X0290945Y0016205D01*
X0290334Y0015761D01*
X0289799Y0015227D01*
X0289355Y0014616D01*
X0289012Y0013943D01*
X0288996Y0013892D01*
X0288378Y0015385D01*
X0286746Y0017017D01*
X0284614Y0017900D01*
X0282307Y0017900D01*
X0280175Y0017017D01*
X0278544Y0015385D01*
X0278461Y0015185D01*
X0278378Y0015385D01*
X0276746Y0017017D01*
X0274614Y0017900D01*
X0272307Y0017900D01*
X0270175Y0017017D01*
X0268544Y0015385D01*
X0268461Y0015185D01*
X0268378Y0015385D01*
X0266746Y0017017D01*
X0264614Y0017900D01*
X0262307Y0017900D01*
X0260175Y0017017D01*
X0258544Y0015385D01*
X0258461Y0015185D01*
X0258378Y0015385D01*
X0256746Y0017017D01*
X0254614Y0017900D01*
X0252307Y0017900D01*
X0250175Y0017017D01*
X0248544Y0015385D01*
X0248461Y0015185D01*
X0248378Y0015385D01*
X0246746Y0017017D01*
X0244614Y0017900D01*
X0242307Y0017900D01*
X0240175Y0017017D01*
X0238544Y0015385D01*
X0238461Y0015185D01*
X0238378Y0015385D01*
X0236746Y0017017D01*
X0234614Y0017900D01*
X0232307Y0017900D01*
X0230175Y0017017D01*
X0228544Y0015385D01*
X0228461Y0015185D01*
X0228378Y0015385D01*
X0226746Y0017017D01*
X0224614Y0017900D01*
X0222307Y0017900D01*
X0220175Y0017017D01*
X0218544Y0015385D01*
X0218461Y0015185D01*
X0218378Y0015385D01*
X0216746Y0017017D01*
X0214614Y0017900D01*
X0212307Y0017900D01*
X0212219Y0017864D01*
X0204591Y0025492D01*
X0203466Y0026617D01*
X0201996Y0027226D01*
X0101035Y0027226D01*
X0100917Y0027511D01*
X0099285Y0029143D01*
X0097154Y0030026D01*
X0094846Y0030026D01*
X0092715Y0029143D01*
X0091083Y0027511D01*
X0090465Y0026018D01*
X0090448Y0026069D01*
X0090105Y0026742D01*
X0089661Y0027353D01*
X0089127Y0027887D01*
X0088516Y0028331D01*
X0087843Y0028674D01*
X0087124Y0028908D01*
X0086378Y0029026D01*
X0086200Y0029026D01*
X0086200Y0021426D01*
X0085800Y0021426D01*
X0085800Y0029026D01*
X0085622Y0029026D01*
X0084876Y0028908D01*
X0084157Y0028674D01*
X0083484Y0028331D01*
X0082873Y0027887D01*
X0082339Y0027353D01*
X0081895Y0026742D01*
X0081552Y0026069D01*
X0081318Y0025350D01*
X0081200Y0024604D01*
X0081200Y0021426D01*
X0085800Y0021426D01*
X0085800Y0021026D01*
X0081200Y0021026D01*
X0081200Y0017848D01*
X0081318Y0017102D01*
X0081552Y0016383D01*
X0081895Y0015710D01*
X0082319Y0015126D01*
X0073057Y0015126D01*
X0066800Y0021383D01*
X0066800Y0023628D01*
X0063402Y0027026D01*
X0058598Y0027026D01*
X0055200Y0023628D01*
X0055200Y0018824D01*
X0058598Y0015426D01*
X0061443Y0015426D01*
X0069134Y0007735D01*
X0070604Y0007126D01*
X0098596Y0007126D01*
X0100066Y0007735D01*
X0101191Y0008860D01*
X0107157Y0014826D01*
X0118312Y0014826D01*
X0117661Y0013254D01*
X0117661Y0006026D01*
X0018156Y0006026D01*
X0018249Y0006119D01*
X0019580Y0009331D01*
X0019580Y0012806D01*
X0018249Y0016018D01*
X0015792Y0018475D01*
X0012580Y0019805D01*
X0009105Y0019805D01*
X0005893Y0018475D01*
X0005800Y0018382D01*
X0005800Y0063369D01*
X0007200Y0061969D01*
X0007200Y0060072D01*
X0008083Y0057941D01*
X0009715Y0056309D01*
X0009915Y0056226D01*
X0009715Y0056143D01*
X0008083Y0054511D01*
X0007200Y0052380D01*
X0007200Y0050072D01*
X0008083Y0047941D01*
X0009715Y0046309D01*
X0011846Y0045426D01*
X0020154Y0045426D01*
X0022285Y0046309D01*
X0023917Y0047941D01*
X0024800Y0050072D01*
X0024800Y0052380D01*
X0023917Y0054511D01*
X0022285Y0056143D01*
X0022085Y0056226D01*
X0022285Y0056309D01*
X0023917Y0057941D01*
X0024800Y0060072D01*
X0024800Y0062380D01*
X0023917Y0064511D01*
X0022285Y0066143D01*
X0022085Y0066226D01*
X0022285Y0066309D01*
X0023917Y0067941D01*
X0024800Y0070072D01*
X0024800Y0072380D01*
X0023917Y0074511D01*
X0022285Y0076143D01*
X0020792Y0076761D01*
X0020843Y0076778D01*
X0021516Y0077121D01*
X0022127Y0077565D01*
X0022661Y0078099D01*
X0023105Y0078710D01*
X0023448Y0079383D01*
X0023682Y0080102D01*
X0023800Y0080848D01*
X0023800Y0081026D01*
X0016200Y0081026D01*
X0016200Y0081426D01*
X0015800Y0081426D01*
X0015800Y0086026D01*
X0012622Y0086026D01*
X0011876Y0085908D01*
X0011157Y0085674D01*
X0010500Y0085339D01*
X0010500Y0120984D01*
X0011846Y0120426D01*
X0020154Y0120426D01*
X0022285Y0121309D01*
X0023917Y0122941D01*
X0024800Y0125072D01*
X0024800Y0127380D01*
X0023917Y0129511D01*
X0022285Y0131143D01*
X0022085Y0131226D01*
X0022285Y0131309D01*
X0023917Y0132941D01*
X0024800Y0135072D01*
X0024800Y0137380D01*
X0023917Y0139511D01*
X0022285Y0141143D01*
X0022085Y0141226D01*
X0022285Y0141309D01*
X0023917Y0142941D01*
X0024800Y0145072D01*
X0024800Y0147380D01*
X0023917Y0149511D01*
X0022285Y0151143D01*
X0022085Y0151226D01*
X0022285Y0151309D01*
X0023917Y0152941D01*
X0024800Y0155072D01*
X0024800Y0157380D01*
X0023917Y0159511D01*
X0022285Y0161143D01*
X0020792Y0161761D01*
X0020843Y0161778D01*
X0021516Y0162121D01*
X0022127Y0162565D01*
X0022661Y0163099D01*
X0023105Y0163710D01*
X0023448Y0164383D01*
X0023682Y0165102D01*
X0023800Y0165848D01*
X0023800Y0166026D01*
X0016200Y0166026D01*
X0016200Y0166426D01*
X0016200Y0171026D01*
X0019378Y0171026D01*
X0020124Y0170908D01*
X0020843Y0170674D01*
X0021516Y0170331D01*
X0022127Y0169887D01*
X0022661Y0169353D01*
X0023105Y0168742D01*
X0023448Y0168069D01*
X0023682Y0167350D01*
X0023800Y0166604D01*
X0023800Y0166426D01*
X0016200Y0166426D01*
X0016200Y0167471D02*
X0015800Y0167471D01*
X0015800Y0169070D02*
X0016200Y0169070D01*
X0016200Y0170668D02*
X0015800Y0170668D01*
X0011145Y0170668D02*
X0005800Y0170668D01*
X0005800Y0169070D02*
X0009133Y0169070D01*
X0008358Y0167471D02*
X0005800Y0167471D01*
X0005800Y0165873D02*
X0008200Y0165873D01*
X0008607Y0164274D02*
X0005800Y0164274D01*
X0005800Y0162676D02*
X0009762Y0162676D01*
X0009649Y0161077D02*
X0005800Y0161077D01*
X0005800Y0159479D02*
X0008069Y0159479D01*
X0007407Y0157880D02*
X0005800Y0157880D01*
X0005800Y0156282D02*
X0007200Y0156282D01*
X0007361Y0154683D02*
X0005800Y0154683D01*
X0005800Y0153085D02*
X0008023Y0153085D01*
X0009537Y0151486D02*
X0005800Y0151486D01*
X0005800Y0149888D02*
X0008459Y0149888D01*
X0007577Y0148289D02*
X0005800Y0148289D01*
X0005800Y0146691D02*
X0007200Y0146691D01*
X0007200Y0145092D02*
X0005800Y0145092D01*
X0022871Y0141895D02*
X0219200Y0141895D01*
X0219200Y0143493D02*
X0024146Y0143493D01*
X0024800Y0145092D02*
X0219200Y0145092D01*
X0219200Y0146691D02*
X0024800Y0146691D01*
X0024423Y0148289D02*
X0219200Y0148289D01*
X0219200Y0149888D02*
X0023541Y0149888D01*
X0022462Y0151486D02*
X0219200Y0151486D01*
X0219200Y0153085D02*
X0023977Y0153085D01*
X0024639Y0154683D02*
X0219200Y0154683D01*
X0219200Y0156282D02*
X0024800Y0156282D01*
X0024593Y0157880D02*
X0219200Y0157880D01*
X0219200Y0159479D02*
X0023931Y0159479D01*
X0022351Y0161077D02*
X0219200Y0161077D01*
X0219200Y0162676D02*
X0022238Y0162676D01*
X0023393Y0164274D02*
X0219200Y0164274D01*
X0219200Y0165873D02*
X0023800Y0165873D01*
X0023642Y0167471D02*
X0219200Y0167471D01*
X0219200Y0169070D02*
X0022867Y0169070D01*
X0020855Y0170668D02*
X0219200Y0170668D01*
X0219200Y0172267D02*
X0005800Y0172267D01*
X0005800Y0173865D02*
X0131494Y0173865D01*
X0129123Y0175464D02*
X0126308Y0175464D01*
X0127693Y0177062D02*
X0128121Y0177062D01*
X0123661Y0177062D02*
X0123261Y0177062D01*
X0123261Y0175464D02*
X0123661Y0175464D01*
X0123261Y0174528D02*
X0123261Y0182128D01*
X0118661Y0182128D01*
X0118661Y0178951D01*
X0118779Y0178204D01*
X0119012Y0177486D01*
X0119355Y0176813D01*
X0119799Y0176201D01*
X0120334Y0175667D01*
X0120945Y0175223D01*
X0121618Y0174880D01*
X0122337Y0174647D01*
X0123083Y0174528D01*
X0123261Y0174528D01*
X0120614Y0175464D02*
X0005800Y0175464D01*
X0005800Y0177062D02*
X0119228Y0177062D01*
X0118707Y0178661D02*
X0005800Y0178661D01*
X0005800Y0180259D02*
X0118661Y0180259D01*
X0118661Y0181858D02*
X0005800Y0181858D01*
X0005800Y0183456D02*
X0118661Y0183456D01*
X0118661Y0185055D02*
X0005800Y0185055D01*
X0023132Y0140296D02*
X0219200Y0140296D01*
X0219200Y0138698D02*
X0024254Y0138698D01*
X0024800Y0137099D02*
X0121011Y0137099D01*
X0121051Y0137198D02*
X0120625Y0136169D01*
X0120625Y0129905D01*
X0121051Y0128876D01*
X0121582Y0128346D01*
X0121443Y0128208D01*
X0120625Y0126232D01*
X0120625Y0124094D01*
X0121443Y0122118D01*
X0122336Y0121226D01*
X0121443Y0120334D01*
X0120625Y0118358D01*
X0120625Y0116220D01*
X0121443Y0114244D01*
X0122955Y0112732D01*
X0123079Y0112681D01*
X0122663Y0112265D01*
X0122258Y0111708D01*
X0121946Y0111094D01*
X0121733Y0110439D01*
X0121625Y0109759D01*
X0121625Y0109415D01*
X0126000Y0109415D01*
X0130375Y0109415D01*
X0130375Y0109759D01*
X0130267Y0110439D01*
X0130054Y0111094D01*
X0129742Y0111708D01*
X0129337Y0112265D01*
X0128921Y0112681D01*
X0129045Y0112732D01*
X0130557Y0114244D01*
X0131375Y0116220D01*
X0131375Y0118358D01*
X0130557Y0120334D01*
X0129664Y0121226D01*
X0130557Y0122118D01*
X0131375Y0124094D01*
X0131375Y0126232D01*
X0130557Y0128208D01*
X0130418Y0128346D01*
X0130949Y0128876D01*
X0131375Y0129905D01*
X0131375Y0136169D01*
X0130949Y0137198D01*
X0130161Y0137986D01*
X0129132Y0138412D01*
X0122868Y0138412D01*
X0121839Y0137986D01*
X0121051Y0137198D01*
X0120625Y0135501D02*
X0024800Y0135501D01*
X0024315Y0133902D02*
X0120625Y0133902D01*
X0120625Y0132304D02*
X0023280Y0132304D01*
X0022723Y0130705D02*
X0120625Y0130705D01*
X0120956Y0129107D02*
X0024085Y0129107D01*
X0024747Y0127508D02*
X0121154Y0127508D01*
X0120625Y0125910D02*
X0024800Y0125910D01*
X0024485Y0124311D02*
X0120625Y0124311D01*
X0121197Y0122713D02*
X0023689Y0122713D01*
X0021816Y0121114D02*
X0122224Y0121114D01*
X0121105Y0119516D02*
X0010500Y0119516D01*
X0010500Y0117917D02*
X0120625Y0117917D01*
X0120625Y0116319D02*
X0010500Y0116319D01*
X0010500Y0114720D02*
X0121246Y0114720D01*
X0122566Y0113122D02*
X0010500Y0113122D01*
X0010500Y0111523D02*
X0122164Y0111523D01*
X0121651Y0109925D02*
X0010500Y0109925D01*
X0010500Y0108326D02*
X0121754Y0108326D01*
X0121733Y0108391D02*
X0121946Y0107736D01*
X0122258Y0107122D01*
X0122328Y0107026D01*
X0113538Y0107026D01*
X0113055Y0107226D01*
X0111145Y0107226D01*
X0109381Y0106495D01*
X0108031Y0105145D01*
X0107300Y0103381D01*
X0107300Y0101471D01*
X0108031Y0099707D01*
X0109381Y0098357D01*
X0111145Y0097626D01*
X0113055Y0097626D01*
X0113538Y0097826D01*
X0193162Y0097826D01*
X0193645Y0097626D01*
X0195555Y0097626D01*
X0197319Y0098357D01*
X0198669Y0099707D01*
X0199400Y0101471D01*
X0199400Y0103381D01*
X0198669Y0105145D01*
X0197319Y0106495D01*
X0195555Y0107226D01*
X0193645Y0107226D01*
X0193162Y0107026D01*
X0169672Y0107026D01*
X0169742Y0107122D01*
X0170054Y0107736D01*
X0170267Y0108391D01*
X0170375Y0109071D01*
X0170375Y0109415D01*
X0170375Y0109759D01*
X0170267Y0110439D01*
X0170054Y0111094D01*
X0169742Y0111708D01*
X0169337Y0112265D01*
X0168921Y0112681D01*
X0169045Y0112732D01*
X0170557Y0114244D01*
X0171375Y0116220D01*
X0171375Y0118358D01*
X0170557Y0120334D01*
X0169664Y0121226D01*
X0170557Y0122118D01*
X0171375Y0124094D01*
X0171375Y0126232D01*
X0170557Y0128208D01*
X0170418Y0128346D01*
X0170949Y0128876D01*
X0171375Y0129905D01*
X0171375Y0136169D01*
X0170949Y0137198D01*
X0170161Y0137986D01*
X0169132Y0138412D01*
X0162868Y0138412D01*
X0161839Y0137986D01*
X0161051Y0137198D01*
X0160625Y0136169D01*
X0160625Y0129905D01*
X0161051Y0128876D01*
X0161582Y0128346D01*
X0161443Y0128208D01*
X0160625Y0126232D01*
X0160625Y0124094D01*
X0161443Y0122118D01*
X0162336Y0121226D01*
X0161443Y0120334D01*
X0160625Y0118358D01*
X0160625Y0116220D01*
X0161443Y0114244D01*
X0162955Y0112732D01*
X0163079Y0112681D01*
X0162663Y0112265D01*
X0162258Y0111708D01*
X0161946Y0111094D01*
X0161733Y0110439D01*
X0161625Y0109759D01*
X0161625Y0109415D01*
X0166000Y0109415D01*
X0166000Y0109415D01*
X0166000Y0111914D01*
X0166000Y0111914D01*
X0166000Y0109415D01*
X0170375Y0109415D01*
X0166000Y0109415D01*
X0166000Y0109415D01*
X0166000Y0109415D01*
X0161625Y0109415D01*
X0161625Y0109071D01*
X0161733Y0108391D01*
X0161946Y0107736D01*
X0162258Y0107122D01*
X0162328Y0107026D01*
X0129672Y0107026D01*
X0129742Y0107122D01*
X0130054Y0107736D01*
X0130267Y0108391D01*
X0130375Y0109071D01*
X0130375Y0109415D01*
X0126000Y0109415D01*
X0126000Y0109415D01*
X0126000Y0109415D01*
X0121625Y0109415D01*
X0121625Y0109071D01*
X0121733Y0108391D01*
X0129836Y0111523D02*
X0162164Y0111523D01*
X0162566Y0113122D02*
X0129434Y0113122D01*
X0130754Y0114720D02*
X0161246Y0114720D01*
X0160625Y0116319D02*
X0131375Y0116319D01*
X0131375Y0117917D02*
X0160625Y0117917D01*
X0161105Y0119516D02*
X0130895Y0119516D01*
X0129776Y0121114D02*
X0162224Y0121114D01*
X0161197Y0122713D02*
X0130803Y0122713D01*
X0131375Y0124311D02*
X0160625Y0124311D01*
X0160625Y0125910D02*
X0131375Y0125910D01*
X0130846Y0127508D02*
X0161154Y0127508D01*
X0160956Y0129107D02*
X0131044Y0129107D01*
X0131375Y0130705D02*
X0160625Y0130705D01*
X0160625Y0132304D02*
X0131375Y0132304D01*
X0131375Y0133902D02*
X0160625Y0133902D01*
X0160625Y0135501D02*
X0131375Y0135501D01*
X0130989Y0137099D02*
X0161011Y0137099D01*
X0170989Y0137099D02*
X0206011Y0137099D01*
X0205625Y0135501D02*
X0171375Y0135501D01*
X0171375Y0133902D02*
X0205625Y0133902D01*
X0205625Y0132304D02*
X0171375Y0132304D01*
X0171375Y0130705D02*
X0205625Y0130705D01*
X0205956Y0129107D02*
X0171044Y0129107D01*
X0170846Y0127508D02*
X0206154Y0127508D01*
X0205625Y0125910D02*
X0171375Y0125910D01*
X0171375Y0124311D02*
X0205625Y0124311D01*
X0206197Y0122713D02*
X0170803Y0122713D01*
X0169776Y0121114D02*
X0207224Y0121114D01*
X0206105Y0119516D02*
X0170895Y0119516D01*
X0171375Y0117917D02*
X0205625Y0117917D01*
X0205625Y0116319D02*
X0171375Y0116319D01*
X0170754Y0114720D02*
X0206246Y0114720D01*
X0207566Y0113122D02*
X0169434Y0113122D01*
X0169836Y0111523D02*
X0207164Y0111523D01*
X0206651Y0109925D02*
X0170349Y0109925D01*
X0170246Y0108326D02*
X0206754Y0108326D01*
X0206733Y0108391D02*
X0206946Y0107736D01*
X0207258Y0107122D01*
X0207663Y0106565D01*
X0208150Y0106078D01*
X0208707Y0105673D01*
X0209321Y0105361D01*
X0209976Y0105148D01*
X0210656Y0105040D01*
X0211000Y0105040D01*
X0211344Y0105040D01*
X0212024Y0105148D01*
X0212679Y0105361D01*
X0213293Y0105673D01*
X0213850Y0106078D01*
X0214337Y0106565D01*
X0214742Y0107122D01*
X0215054Y0107736D01*
X0215267Y0108391D01*
X0215375Y0109071D01*
X0215375Y0109415D01*
X0211000Y0109415D01*
X0211000Y0109415D01*
X0211000Y0109415D01*
X0211000Y0105040D01*
X0211000Y0109415D01*
X0211000Y0109415D01*
X0206625Y0109415D01*
X0206625Y0109071D01*
X0206733Y0108391D01*
X0207545Y0106728D02*
X0196758Y0106728D01*
X0198676Y0105129D02*
X0210093Y0105129D01*
X0211000Y0105129D02*
X0211000Y0105129D01*
X0211907Y0105129D02*
X0250093Y0105129D01*
X0249976Y0105148D02*
X0250656Y0105040D01*
X0251000Y0105040D01*
X0251344Y0105040D01*
X0252024Y0105148D01*
X0252679Y0105361D01*
X0253293Y0105673D01*
X0253850Y0106078D01*
X0254337Y0106565D01*
X0254742Y0107122D01*
X0255054Y0107736D01*
X0255267Y0108391D01*
X0255375Y0109071D01*
X0255375Y0109415D01*
X0251000Y0109415D01*
X0251000Y0109415D01*
X0251000Y0109415D01*
X0251000Y0105040D01*
X0251000Y0109415D01*
X0251000Y0109415D01*
X0246625Y0109415D01*
X0246625Y0109071D01*
X0246733Y0108391D01*
X0246946Y0107736D01*
X0247258Y0107122D01*
X0247663Y0106565D01*
X0248150Y0106078D01*
X0248707Y0105673D01*
X0249321Y0105361D01*
X0249976Y0105148D01*
X0251000Y0105129D02*
X0251000Y0105129D01*
X0251907Y0105129D02*
X0280093Y0105129D01*
X0279976Y0105148D02*
X0280656Y0105040D01*
X0281000Y0105040D01*
X0281344Y0105040D01*
X0282024Y0105148D01*
X0282679Y0105361D01*
X0283293Y0105673D01*
X0283850Y0106078D01*
X0284337Y0106565D01*
X0284742Y0107122D01*
X0285054Y0107736D01*
X0285267Y0108391D01*
X0285375Y0109071D01*
X0285375Y0109415D01*
X0285375Y0109759D01*
X0285267Y0110439D01*
X0285054Y0111094D01*
X0284742Y0111708D01*
X0284337Y0112265D01*
X0283921Y0112681D01*
X0284045Y0112732D01*
X0285557Y0114244D01*
X0286375Y0116220D01*
X0286375Y0118358D01*
X0285557Y0120334D01*
X0284664Y0121226D01*
X0285557Y0122118D01*
X0286375Y0124094D01*
X0286375Y0126232D01*
X0285557Y0128208D01*
X0285418Y0128346D01*
X0285949Y0128876D01*
X0286375Y0129905D01*
X0286375Y0136169D01*
X0285949Y0137198D01*
X0285161Y0137986D01*
X0284132Y0138412D01*
X0277868Y0138412D01*
X0276839Y0137986D01*
X0276051Y0137198D01*
X0275625Y0136169D01*
X0275625Y0129905D01*
X0276051Y0128876D01*
X0276582Y0128346D01*
X0276443Y0128208D01*
X0275625Y0126232D01*
X0275625Y0124094D01*
X0276443Y0122118D01*
X0277336Y0121226D01*
X0276443Y0120334D01*
X0275625Y0118358D01*
X0275625Y0116220D01*
X0276443Y0114244D01*
X0277955Y0112732D01*
X0278079Y0112681D01*
X0277663Y0112265D01*
X0277258Y0111708D01*
X0276946Y0111094D01*
X0276733Y0110439D01*
X0276625Y0109759D01*
X0276625Y0109415D01*
X0281000Y0109415D01*
X0285375Y0109415D01*
X0281000Y0109415D01*
X0281000Y0109415D01*
X0281000Y0109415D01*
X0276625Y0109415D01*
X0276625Y0109071D01*
X0276733Y0108391D01*
X0276946Y0107736D01*
X0277258Y0107122D01*
X0277663Y0106565D01*
X0278150Y0106078D01*
X0278707Y0105673D01*
X0279321Y0105361D01*
X0279976Y0105148D01*
X0281000Y0105129D02*
X0281000Y0105129D01*
X0281000Y0105040D02*
X0281000Y0109415D01*
X0281000Y0109415D01*
X0281000Y0105040D01*
X0281907Y0105129D02*
X0311161Y0105129D01*
X0311161Y0103531D02*
X0199338Y0103531D01*
X0199400Y0101932D02*
X0311161Y0101932D01*
X0311161Y0100334D02*
X0198929Y0100334D01*
X0197697Y0098735D02*
X0311161Y0098735D01*
X0311161Y0097137D02*
X0010500Y0097137D01*
X0010500Y0098735D02*
X0109003Y0098735D01*
X0107771Y0100334D02*
X0010500Y0100334D01*
X0010500Y0101932D02*
X0107300Y0101932D01*
X0107362Y0103531D02*
X0010500Y0103531D01*
X0010500Y0105129D02*
X0108024Y0105129D01*
X0109942Y0106728D02*
X0010500Y0106728D01*
X0010500Y0095538D02*
X0311161Y0095538D01*
X0311161Y0093940D02*
X0188692Y0093940D01*
X0188406Y0094226D02*
X0186715Y0094926D01*
X0121085Y0094926D01*
X0119394Y0094226D01*
X0118100Y0092932D01*
X0113700Y0088532D01*
X0113000Y0086841D01*
X0113000Y0066464D01*
X0112800Y0065981D01*
X0112800Y0064071D01*
X0113531Y0062307D01*
X0114881Y0060957D01*
X0116645Y0060226D01*
X0118555Y0060226D01*
X0120319Y0060957D01*
X0121669Y0062307D01*
X0122171Y0063517D01*
X0122955Y0062732D01*
X0123079Y0062681D01*
X0122663Y0062265D01*
X0122258Y0061708D01*
X0121946Y0061094D01*
X0121733Y0060439D01*
X0121625Y0059759D01*
X0121625Y0059415D01*
X0126000Y0059415D01*
X0130375Y0059415D01*
X0130375Y0059759D01*
X0130267Y0060439D01*
X0130054Y0061094D01*
X0129742Y0061708D01*
X0129337Y0062265D01*
X0128921Y0062681D01*
X0129045Y0062732D01*
X0130557Y0064244D01*
X0131375Y0066220D01*
X0131375Y0068358D01*
X0130557Y0070334D01*
X0129664Y0071226D01*
X0130557Y0072118D01*
X0131375Y0074094D01*
X0131375Y0076232D01*
X0130557Y0078208D01*
X0130418Y0078346D01*
X0130949Y0078876D01*
X0131375Y0079905D01*
X0131375Y0085726D01*
X0160625Y0085726D01*
X0160625Y0079905D01*
X0161051Y0078876D01*
X0161582Y0078346D01*
X0161443Y0078208D01*
X0160625Y0076232D01*
X0160625Y0074094D01*
X0161443Y0072118D01*
X0162336Y0071226D01*
X0161443Y0070334D01*
X0160625Y0068358D01*
X0160625Y0066220D01*
X0161443Y0064244D01*
X0162955Y0062732D01*
X0163079Y0062681D01*
X0162663Y0062265D01*
X0162258Y0061708D01*
X0161946Y0061094D01*
X0161733Y0060439D01*
X0161625Y0059759D01*
X0161625Y0059415D01*
X0166000Y0059415D01*
X0166000Y0059415D01*
X0166000Y0061914D01*
X0166000Y0061914D01*
X0166000Y0059415D01*
X0170375Y0059415D01*
X0170375Y0059759D01*
X0170267Y0060439D01*
X0170054Y0061094D01*
X0169742Y0061708D01*
X0169337Y0062265D01*
X0168921Y0062681D01*
X0169045Y0062732D01*
X0170557Y0064244D01*
X0171375Y0066220D01*
X0171375Y0068358D01*
X0170557Y0070334D01*
X0169664Y0071226D01*
X0170557Y0072118D01*
X0171375Y0074094D01*
X0171375Y0076232D01*
X0170557Y0078208D01*
X0170418Y0078346D01*
X0170949Y0078876D01*
X0171375Y0079905D01*
X0171375Y0085726D01*
X0183895Y0085726D01*
X0203900Y0065720D01*
X0205194Y0064426D01*
X0206885Y0063726D01*
X0206962Y0063726D01*
X0207955Y0062732D01*
X0208079Y0062681D01*
X0207663Y0062265D01*
X0207258Y0061708D01*
X0206946Y0061094D01*
X0206733Y0060439D01*
X0206625Y0059759D01*
X0206625Y0059415D01*
X0211000Y0059415D01*
X0215375Y0059415D01*
X0215375Y0059759D01*
X0215267Y0060439D01*
X0215054Y0061094D01*
X0214742Y0061708D01*
X0214337Y0062265D01*
X0213921Y0062681D01*
X0214045Y0062732D01*
X0215557Y0064244D01*
X0216375Y0066220D01*
X0216375Y0068358D01*
X0215557Y0070334D01*
X0214664Y0071226D01*
X0215557Y0072118D01*
X0216375Y0074094D01*
X0216375Y0076232D01*
X0215557Y0078208D01*
X0215418Y0078346D01*
X0215949Y0078876D01*
X0216375Y0079905D01*
X0216375Y0086169D01*
X0215949Y0087198D01*
X0215161Y0087986D01*
X0214132Y0088412D01*
X0207868Y0088412D01*
X0206839Y0087986D01*
X0206051Y0087198D01*
X0205625Y0086169D01*
X0205625Y0079905D01*
X0206051Y0078876D01*
X0206582Y0078346D01*
X0206443Y0078208D01*
X0205852Y0076779D01*
X0188406Y0094226D01*
X0190290Y0092341D02*
X0311161Y0092341D01*
X0311161Y0090743D02*
X0191889Y0090743D01*
X0193487Y0089144D02*
X0311161Y0089144D01*
X0311161Y0087546D02*
X0285601Y0087546D01*
X0285949Y0087198D02*
X0285161Y0087986D01*
X0284132Y0088412D01*
X0277868Y0088412D01*
X0276839Y0087986D01*
X0276051Y0087198D01*
X0275625Y0086169D01*
X0275625Y0080026D01*
X0256375Y0080026D01*
X0256375Y0086169D01*
X0255949Y0087198D01*
X0255161Y0087986D01*
X0254132Y0088412D01*
X0247868Y0088412D01*
X0246839Y0087986D01*
X0246051Y0087198D01*
X0245625Y0086169D01*
X0245625Y0079905D01*
X0246051Y0078876D01*
X0246582Y0078346D01*
X0246443Y0078208D01*
X0245625Y0076232D01*
X0245625Y0074094D01*
X0246443Y0072118D01*
X0247336Y0071226D01*
X0246443Y0070334D01*
X0245625Y0068358D01*
X0245625Y0066220D01*
X0246443Y0064244D01*
X0247955Y0062732D01*
X0248079Y0062681D01*
X0247663Y0062265D01*
X0247258Y0061708D01*
X0246946Y0061094D01*
X0246733Y0060439D01*
X0246625Y0059759D01*
X0246625Y0059415D01*
X0251000Y0059415D01*
X0255375Y0059415D01*
X0255375Y0059759D01*
X0255267Y0060439D01*
X0255054Y0061094D01*
X0254742Y0061708D01*
X0254337Y0062265D01*
X0253921Y0062681D01*
X0254045Y0062732D01*
X0255038Y0063726D01*
X0276962Y0063726D01*
X0277955Y0062732D01*
X0278079Y0062681D01*
X0277663Y0062265D01*
X0277258Y0061708D01*
X0276946Y0061094D01*
X0276733Y0060439D01*
X0276625Y0059759D01*
X0276625Y0059415D01*
X0281000Y0059415D01*
X0285375Y0059415D01*
X0285375Y0059759D01*
X0285267Y0060439D01*
X0285054Y0061094D01*
X0284742Y0061708D01*
X0284337Y0062265D01*
X0283921Y0062681D01*
X0284045Y0062732D01*
X0285557Y0064244D01*
X0286375Y0066220D01*
X0286375Y0068358D01*
X0285557Y0070334D01*
X0284664Y0071226D01*
X0285557Y0072118D01*
X0286375Y0074094D01*
X0286375Y0076232D01*
X0285557Y0078208D01*
X0285418Y0078346D01*
X0285949Y0078876D01*
X0286375Y0079905D01*
X0286375Y0086169D01*
X0285949Y0087198D01*
X0286375Y0085947D02*
X0311161Y0085947D01*
X0311161Y0084349D02*
X0286375Y0084349D01*
X0286375Y0082750D02*
X0311161Y0082750D01*
X0311161Y0081152D02*
X0286375Y0081152D01*
X0286229Y0079553D02*
X0311161Y0079553D01*
X0311161Y0077955D02*
X0285661Y0077955D01*
X0286323Y0076356D02*
X0311161Y0076356D01*
X0311161Y0074758D02*
X0286375Y0074758D01*
X0285988Y0073159D02*
X0311161Y0073159D01*
X0311161Y0071560D02*
X0284999Y0071560D01*
X0285710Y0069962D02*
X0311161Y0069962D01*
X0311161Y0068363D02*
X0286373Y0068363D01*
X0286375Y0066765D02*
X0311161Y0066765D01*
X0311161Y0065166D02*
X0285938Y0065166D01*
X0284880Y0063568D02*
X0311161Y0063568D01*
X0311161Y0061969D02*
X0284552Y0061969D01*
X0285278Y0060371D02*
X0311161Y0060371D01*
X0311161Y0058772D02*
X0285328Y0058772D01*
X0285375Y0059071D02*
X0285375Y0059415D01*
X0281000Y0059415D01*
X0281000Y0059415D01*
X0281000Y0059415D01*
X0276625Y0059415D01*
X0276625Y0059071D01*
X0276733Y0058391D01*
X0276946Y0057736D01*
X0277258Y0057122D01*
X0277663Y0056565D01*
X0278150Y0056078D01*
X0278707Y0055673D01*
X0279321Y0055361D01*
X0279976Y0055148D01*
X0280656Y0055040D01*
X0281000Y0055040D01*
X0281344Y0055040D01*
X0282024Y0055148D01*
X0282679Y0055361D01*
X0283293Y0055673D01*
X0283850Y0056078D01*
X0284337Y0056565D01*
X0284742Y0057122D01*
X0285054Y0057736D01*
X0285267Y0058391D01*
X0285375Y0059071D01*
X0284768Y0057174D02*
X0311161Y0057174D01*
X0311161Y0055575D02*
X0283101Y0055575D01*
X0281000Y0055575D02*
X0281000Y0055575D01*
X0281000Y0055040D02*
X0281000Y0059415D01*
X0281000Y0059415D01*
X0281000Y0055040D01*
X0281000Y0057174D02*
X0281000Y0057174D01*
X0281000Y0058772D02*
X0281000Y0058772D01*
X0278899Y0055575D02*
X0253101Y0055575D01*
X0253293Y0055673D02*
X0253850Y0056078D01*
X0254337Y0056565D01*
X0254742Y0057122D01*
X0255054Y0057736D01*
X0255267Y0058391D01*
X0255375Y0059071D01*
X0255375Y0059415D01*
X0251000Y0059415D01*
X0251000Y0059415D01*
X0251000Y0059415D01*
X0251000Y0055040D01*
X0251344Y0055040D01*
X0252024Y0055148D01*
X0252679Y0055361D01*
X0253293Y0055673D01*
X0254768Y0057174D02*
X0277232Y0057174D01*
X0276672Y0058772D02*
X0255328Y0058772D01*
X0255278Y0060371D02*
X0276722Y0060371D01*
X0277448Y0061969D02*
X0254552Y0061969D01*
X0254880Y0063568D02*
X0277120Y0063568D01*
X0251000Y0059415D02*
X0251000Y0059415D01*
X0246625Y0059415D01*
X0246625Y0059071D01*
X0246733Y0058391D01*
X0246946Y0057736D01*
X0247258Y0057122D01*
X0247663Y0056565D01*
X0248150Y0056078D01*
X0248707Y0055673D01*
X0249321Y0055361D01*
X0249976Y0055148D01*
X0250656Y0055040D01*
X0251000Y0055040D01*
X0251000Y0059415D01*
X0251000Y0058772D02*
X0251000Y0058772D01*
X0251000Y0057174D02*
X0251000Y0057174D01*
X0251000Y0055575D02*
X0251000Y0055575D01*
X0248899Y0055575D02*
X0213101Y0055575D01*
X0213293Y0055673D02*
X0213850Y0056078D01*
X0214337Y0056565D01*
X0214742Y0057122D01*
X0215054Y0057736D01*
X0215267Y0058391D01*
X0215375Y0059071D01*
X0215375Y0059415D01*
X0211000Y0059415D01*
X0211000Y0059415D01*
X0211000Y0059415D01*
X0206625Y0059415D01*
X0206625Y0059071D01*
X0206733Y0058391D01*
X0206946Y0057736D01*
X0207258Y0057122D01*
X0207663Y0056565D01*
X0208150Y0056078D01*
X0208707Y0055673D01*
X0209321Y0055361D01*
X0209976Y0055148D01*
X0210656Y0055040D01*
X0211000Y0055040D01*
X0211344Y0055040D01*
X0212024Y0055148D01*
X0212679Y0055361D01*
X0213293Y0055673D01*
X0214768Y0057174D02*
X0247232Y0057174D01*
X0246672Y0058772D02*
X0215328Y0058772D01*
X0215278Y0060371D02*
X0246722Y0060371D01*
X0247448Y0061969D02*
X0214552Y0061969D01*
X0214880Y0063568D02*
X0247120Y0063568D01*
X0246062Y0065166D02*
X0215938Y0065166D01*
X0216375Y0066765D02*
X0245625Y0066765D01*
X0245627Y0068363D02*
X0216373Y0068363D01*
X0215710Y0069962D02*
X0246290Y0069962D01*
X0247001Y0071560D02*
X0214999Y0071560D01*
X0215988Y0073159D02*
X0246012Y0073159D01*
X0245625Y0074758D02*
X0216375Y0074758D01*
X0216323Y0076356D02*
X0245677Y0076356D01*
X0246339Y0077955D02*
X0215661Y0077955D01*
X0216229Y0079553D02*
X0245771Y0079553D01*
X0245625Y0081152D02*
X0216375Y0081152D01*
X0216375Y0082750D02*
X0245625Y0082750D01*
X0245625Y0084349D02*
X0216375Y0084349D01*
X0216375Y0085947D02*
X0245625Y0085947D01*
X0246399Y0087546D02*
X0215601Y0087546D01*
X0206399Y0087546D02*
X0195086Y0087546D01*
X0196684Y0085947D02*
X0205625Y0085947D01*
X0205625Y0084349D02*
X0198283Y0084349D01*
X0199881Y0082750D02*
X0205625Y0082750D01*
X0205625Y0081152D02*
X0201480Y0081152D01*
X0203078Y0079553D02*
X0205771Y0079553D01*
X0206339Y0077955D02*
X0204677Y0077955D01*
X0198060Y0071560D02*
X0169999Y0071560D01*
X0170710Y0069962D02*
X0199659Y0069962D01*
X0201257Y0068363D02*
X0171373Y0068363D01*
X0171375Y0066765D02*
X0202856Y0066765D01*
X0204454Y0065166D02*
X0170938Y0065166D01*
X0169880Y0063568D02*
X0207120Y0063568D01*
X0207448Y0061969D02*
X0169552Y0061969D01*
X0170278Y0060371D02*
X0206722Y0060371D01*
X0206672Y0058772D02*
X0170328Y0058772D01*
X0170375Y0059071D02*
X0170375Y0059415D01*
X0166000Y0059415D01*
X0166000Y0059415D01*
X0166000Y0059415D01*
X0166000Y0055040D01*
X0166344Y0055040D01*
X0167024Y0055148D01*
X0167679Y0055361D01*
X0168293Y0055673D01*
X0168850Y0056078D01*
X0169337Y0056565D01*
X0169742Y0057122D01*
X0170054Y0057736D01*
X0170267Y0058391D01*
X0170375Y0059071D01*
X0169768Y0057174D02*
X0207232Y0057174D01*
X0208899Y0055575D02*
X0168101Y0055575D01*
X0166000Y0055575D02*
X0166000Y0055575D01*
X0166000Y0055040D02*
X0166000Y0059415D01*
X0166000Y0059415D01*
X0161625Y0059415D01*
X0161625Y0059071D01*
X0161733Y0058391D01*
X0161946Y0057736D01*
X0162258Y0057122D01*
X0162663Y0056565D01*
X0163150Y0056078D01*
X0163707Y0055673D01*
X0164321Y0055361D01*
X0164976Y0055148D01*
X0165656Y0055040D01*
X0166000Y0055040D01*
X0166000Y0057174D02*
X0166000Y0057174D01*
X0166000Y0058772D02*
X0166000Y0058772D01*
X0166000Y0060371D02*
X0166000Y0060371D01*
X0162448Y0061969D02*
X0129552Y0061969D01*
X0129880Y0063568D02*
X0162120Y0063568D01*
X0161062Y0065166D02*
X0130938Y0065166D01*
X0131375Y0066765D02*
X0160625Y0066765D01*
X0160627Y0068363D02*
X0131373Y0068363D01*
X0130710Y0069962D02*
X0161290Y0069962D01*
X0162001Y0071560D02*
X0129999Y0071560D01*
X0130988Y0073159D02*
X0161012Y0073159D01*
X0160625Y0074758D02*
X0131375Y0074758D01*
X0131323Y0076356D02*
X0160677Y0076356D01*
X0161339Y0077955D02*
X0130661Y0077955D01*
X0131229Y0079553D02*
X0160771Y0079553D01*
X0160625Y0081152D02*
X0131375Y0081152D01*
X0131375Y0082750D02*
X0160625Y0082750D01*
X0160625Y0084349D02*
X0131375Y0084349D01*
X0117510Y0092341D02*
X0010500Y0092341D01*
X0010500Y0090743D02*
X0115911Y0090743D01*
X0114313Y0089144D02*
X0010500Y0089144D01*
X0010500Y0087546D02*
X0113292Y0087546D01*
X0113000Y0085947D02*
X0019876Y0085947D01*
X0020124Y0085908D02*
X0019378Y0086026D01*
X0016200Y0086026D01*
X0016200Y0081426D01*
X0023800Y0081426D01*
X0023800Y0081604D01*
X0023682Y0082350D01*
X0023448Y0083069D01*
X0023105Y0083742D01*
X0022661Y0084353D01*
X0022127Y0084887D01*
X0021516Y0085331D01*
X0020843Y0085674D01*
X0020124Y0085908D01*
X0022664Y0084349D02*
X0113000Y0084349D01*
X0113000Y0082750D02*
X0023552Y0082750D01*
X0023503Y0079553D02*
X0113000Y0079553D01*
X0113000Y0077955D02*
X0022517Y0077955D01*
X0021771Y0076356D02*
X0113000Y0076356D01*
X0113000Y0074758D02*
X0023671Y0074758D01*
X0024477Y0073159D02*
X0113000Y0073159D01*
X0113000Y0071560D02*
X0024800Y0071560D01*
X0024754Y0069962D02*
X0113000Y0069962D01*
X0113000Y0068363D02*
X0024092Y0068363D01*
X0022741Y0066765D02*
X0113000Y0066765D01*
X0112800Y0065166D02*
X0023262Y0065166D01*
X0024308Y0063568D02*
X0113008Y0063568D01*
X0113868Y0061969D02*
X0024800Y0061969D01*
X0024800Y0060371D02*
X0116295Y0060371D01*
X0118905Y0060371D02*
X0121722Y0060371D01*
X0121625Y0059415D02*
X0121625Y0059071D01*
X0121733Y0058391D01*
X0121946Y0057736D01*
X0122258Y0057122D01*
X0122663Y0056565D01*
X0123150Y0056078D01*
X0123707Y0055673D01*
X0124321Y0055361D01*
X0124976Y0055148D01*
X0125656Y0055040D01*
X0126000Y0055040D01*
X0126344Y0055040D01*
X0127024Y0055148D01*
X0127679Y0055361D01*
X0128293Y0055673D01*
X0128850Y0056078D01*
X0129337Y0056565D01*
X0129742Y0057122D01*
X0130054Y0057736D01*
X0130267Y0058391D01*
X0130375Y0059071D01*
X0130375Y0059415D01*
X0126000Y0059415D01*
X0126000Y0059415D01*
X0126000Y0059415D01*
X0126000Y0055040D01*
X0126000Y0059415D01*
X0126000Y0059415D01*
X0121625Y0059415D01*
X0121672Y0058772D02*
X0024262Y0058772D01*
X0023150Y0057174D02*
X0122232Y0057174D01*
X0123899Y0055575D02*
X0022853Y0055575D01*
X0024138Y0053977D02*
X0311161Y0053977D01*
X0311161Y0052378D02*
X0024800Y0052378D01*
X0024800Y0050780D02*
X0311161Y0050780D01*
X0311161Y0049181D02*
X0024431Y0049181D01*
X0023559Y0047583D02*
X0311161Y0047583D01*
X0311161Y0045984D02*
X0021502Y0045984D01*
X0010498Y0045984D02*
X0005800Y0045984D01*
X0005800Y0044386D02*
X0311161Y0044386D01*
X0311161Y0042787D02*
X0005800Y0042787D01*
X0005800Y0041189D02*
X0311161Y0041189D01*
X0311161Y0039590D02*
X0005800Y0039590D01*
X0005800Y0037992D02*
X0311161Y0037992D01*
X0311161Y0036393D02*
X0005800Y0036393D01*
X0005800Y0034795D02*
X0311161Y0034795D01*
X0311161Y0033196D02*
X0005800Y0033196D01*
X0005800Y0031598D02*
X0311161Y0031598D01*
X0311161Y0029999D02*
X0097218Y0029999D01*
X0094782Y0029999D02*
X0005800Y0029999D01*
X0005800Y0028401D02*
X0083620Y0028401D01*
X0085800Y0028401D02*
X0086200Y0028401D01*
X0086200Y0026802D02*
X0085800Y0026802D01*
X0085800Y0025204D02*
X0086200Y0025204D01*
X0086200Y0023605D02*
X0085800Y0023605D01*
X0085800Y0022007D02*
X0086200Y0022007D01*
X0081200Y0022007D02*
X0066800Y0022007D01*
X0066800Y0023605D02*
X0081200Y0023605D01*
X0081295Y0025204D02*
X0065225Y0025204D01*
X0063626Y0026802D02*
X0081939Y0026802D01*
X0088380Y0028401D02*
X0091972Y0028401D01*
X0090789Y0026802D02*
X0090061Y0026802D01*
X0100028Y0028401D02*
X0311161Y0028401D01*
X0311161Y0026802D02*
X0203019Y0026802D01*
X0204879Y0025204D02*
X0311161Y0025204D01*
X0311161Y0023605D02*
X0206478Y0023605D01*
X0208076Y0022007D02*
X0311161Y0022007D01*
X0311161Y0020408D02*
X0209675Y0020408D01*
X0211273Y0018810D02*
X0311161Y0018810D01*
X0311161Y0017211D02*
X0286277Y0017211D01*
X0288150Y0015613D02*
X0290185Y0015613D01*
X0289049Y0014014D02*
X0288946Y0014014D01*
X0293261Y0014014D02*
X0293661Y0014014D01*
X0293661Y0012416D02*
X0293261Y0012416D01*
X0293261Y0010817D02*
X0293661Y0010817D01*
X0293661Y0009219D02*
X0311161Y0009219D01*
X0311161Y0010817D02*
X0298261Y0010817D01*
X0298261Y0012416D02*
X0311161Y0012416D01*
X0311161Y0014014D02*
X0297873Y0014014D01*
X0296736Y0015613D02*
X0311161Y0015613D01*
X0311161Y0007620D02*
X0298261Y0007620D01*
X0293661Y0015613D02*
X0293261Y0015613D01*
X0280644Y0017211D02*
X0276277Y0017211D01*
X0278150Y0015613D02*
X0278771Y0015613D01*
X0270644Y0017211D02*
X0266277Y0017211D01*
X0268150Y0015613D02*
X0268771Y0015613D01*
X0260644Y0017211D02*
X0256277Y0017211D01*
X0258150Y0015613D02*
X0258771Y0015613D01*
X0250644Y0017211D02*
X0246277Y0017211D01*
X0248150Y0015613D02*
X0248771Y0015613D01*
X0240644Y0017211D02*
X0236277Y0017211D01*
X0238150Y0015613D02*
X0238771Y0015613D01*
X0230644Y0017211D02*
X0226277Y0017211D01*
X0228150Y0015613D02*
X0228771Y0015613D01*
X0220644Y0017211D02*
X0216277Y0017211D01*
X0218150Y0015613D02*
X0218771Y0015613D01*
X0211000Y0055040D02*
X0211000Y0059415D01*
X0211000Y0059415D01*
X0211000Y0055040D01*
X0211000Y0055575D02*
X0211000Y0055575D01*
X0211000Y0057174D02*
X0211000Y0057174D01*
X0211000Y0058772D02*
X0211000Y0058772D01*
X0196462Y0073159D02*
X0170988Y0073159D01*
X0171375Y0074758D02*
X0194863Y0074758D01*
X0193265Y0076356D02*
X0171323Y0076356D01*
X0170661Y0077955D02*
X0191666Y0077955D01*
X0190068Y0079553D02*
X0171229Y0079553D01*
X0171375Y0081152D02*
X0188469Y0081152D01*
X0186871Y0082750D02*
X0171375Y0082750D01*
X0171375Y0084349D02*
X0185272Y0084349D01*
X0211000Y0106728D02*
X0211000Y0106728D01*
X0211000Y0108326D02*
X0211000Y0108326D01*
X0214455Y0106728D02*
X0247545Y0106728D01*
X0246754Y0108326D02*
X0215246Y0108326D01*
X0215349Y0109925D02*
X0246651Y0109925D01*
X0247164Y0111523D02*
X0214836Y0111523D01*
X0214434Y0113122D02*
X0247566Y0113122D01*
X0246246Y0114720D02*
X0215754Y0114720D01*
X0216375Y0116319D02*
X0245625Y0116319D01*
X0245625Y0117917D02*
X0216375Y0117917D01*
X0215895Y0119516D02*
X0246105Y0119516D01*
X0247224Y0121114D02*
X0214776Y0121114D01*
X0215803Y0122713D02*
X0246197Y0122713D01*
X0245625Y0124311D02*
X0216375Y0124311D01*
X0216375Y0125910D02*
X0245625Y0125910D01*
X0246154Y0127508D02*
X0215846Y0127508D01*
X0216044Y0129107D02*
X0245956Y0129107D01*
X0255846Y0127508D02*
X0276154Y0127508D01*
X0275956Y0129107D02*
X0256044Y0129107D01*
X0256375Y0130705D02*
X0275625Y0130705D01*
X0275625Y0132304D02*
X0256375Y0132304D01*
X0256375Y0133902D02*
X0275625Y0133902D01*
X0275625Y0135501D02*
X0256375Y0135501D01*
X0255989Y0137099D02*
X0276011Y0137099D01*
X0285989Y0137099D02*
X0311161Y0137099D01*
X0311161Y0135501D02*
X0286375Y0135501D01*
X0286375Y0133902D02*
X0311161Y0133902D01*
X0311161Y0132304D02*
X0286375Y0132304D01*
X0286375Y0130705D02*
X0311161Y0130705D01*
X0311161Y0129107D02*
X0286044Y0129107D01*
X0285846Y0127508D02*
X0311161Y0127508D01*
X0311161Y0125910D02*
X0286375Y0125910D01*
X0286375Y0124311D02*
X0311161Y0124311D01*
X0311161Y0122713D02*
X0285803Y0122713D01*
X0284776Y0121114D02*
X0311161Y0121114D01*
X0311161Y0119516D02*
X0285895Y0119516D01*
X0286375Y0117917D02*
X0311161Y0117917D01*
X0311161Y0116319D02*
X0286375Y0116319D01*
X0285754Y0114720D02*
X0311161Y0114720D01*
X0311161Y0113122D02*
X0284434Y0113122D01*
X0284836Y0111523D02*
X0311161Y0111523D01*
X0311161Y0109925D02*
X0285349Y0109925D01*
X0285246Y0108326D02*
X0311161Y0108326D01*
X0311161Y0106728D02*
X0284455Y0106728D01*
X0281000Y0106728D02*
X0281000Y0106728D01*
X0281000Y0108326D02*
X0281000Y0108326D01*
X0277545Y0106728D02*
X0254455Y0106728D01*
X0255246Y0108326D02*
X0276754Y0108326D01*
X0276651Y0109925D02*
X0255349Y0109925D01*
X0254836Y0111523D02*
X0277164Y0111523D01*
X0277566Y0113122D02*
X0254434Y0113122D01*
X0255754Y0114720D02*
X0276246Y0114720D01*
X0275625Y0116319D02*
X0256375Y0116319D01*
X0256375Y0117917D02*
X0275625Y0117917D01*
X0276105Y0119516D02*
X0255895Y0119516D01*
X0254776Y0121114D02*
X0277224Y0121114D01*
X0276197Y0122713D02*
X0255803Y0122713D01*
X0256375Y0124311D02*
X0275625Y0124311D01*
X0275625Y0125910D02*
X0256375Y0125910D01*
X0251000Y0108326D02*
X0251000Y0108326D01*
X0251000Y0106728D02*
X0251000Y0106728D01*
X0255601Y0087546D02*
X0276399Y0087546D01*
X0275625Y0085947D02*
X0256375Y0085947D01*
X0256375Y0084349D02*
X0275625Y0084349D01*
X0275625Y0082750D02*
X0256375Y0082750D01*
X0256375Y0081152D02*
X0275625Y0081152D01*
X0311161Y0138698D02*
X0227200Y0138698D01*
X0227200Y0140296D02*
X0311161Y0140296D01*
X0311161Y0141895D02*
X0227200Y0141895D01*
X0227200Y0143493D02*
X0311161Y0143493D01*
X0311161Y0145092D02*
X0227200Y0145092D01*
X0227200Y0146691D02*
X0311161Y0146691D01*
X0311161Y0148289D02*
X0227200Y0148289D01*
X0227200Y0149888D02*
X0311161Y0149888D01*
X0311161Y0151486D02*
X0227200Y0151486D01*
X0227200Y0153085D02*
X0311161Y0153085D01*
X0311161Y0154683D02*
X0227200Y0154683D01*
X0227200Y0156282D02*
X0311161Y0156282D01*
X0311161Y0157880D02*
X0227200Y0157880D01*
X0227200Y0159479D02*
X0311161Y0159479D01*
X0311161Y0161077D02*
X0227200Y0161077D01*
X0227200Y0162676D02*
X0311161Y0162676D01*
X0311161Y0164274D02*
X0227200Y0164274D01*
X0227200Y0165873D02*
X0311161Y0165873D01*
X0311161Y0167471D02*
X0227200Y0167471D01*
X0227200Y0169070D02*
X0311161Y0169070D01*
X0311161Y0170668D02*
X0227200Y0170668D01*
X0227200Y0172267D02*
X0302826Y0172267D01*
X0300257Y0173865D02*
X0295428Y0173865D01*
X0297798Y0175464D02*
X0298689Y0175464D01*
X0291494Y0173865D02*
X0285428Y0173865D01*
X0287798Y0175464D02*
X0289123Y0175464D01*
X0281494Y0173865D02*
X0275428Y0173865D01*
X0277798Y0175464D02*
X0279123Y0175464D01*
X0271494Y0173865D02*
X0265428Y0173865D01*
X0267798Y0175464D02*
X0269123Y0175464D01*
X0261494Y0173865D02*
X0255428Y0173865D01*
X0257798Y0175464D02*
X0259123Y0175464D01*
X0251494Y0173865D02*
X0245428Y0173865D01*
X0247798Y0175464D02*
X0249123Y0175464D01*
X0241494Y0173865D02*
X0235428Y0173865D01*
X0237798Y0175464D02*
X0239123Y0175464D01*
X0231494Y0173865D02*
X0227200Y0173865D01*
X0227798Y0175464D02*
X0229123Y0175464D01*
X0219123Y0175464D02*
X0217798Y0175464D01*
X0219200Y0173865D02*
X0215428Y0173865D01*
X0211494Y0173865D02*
X0205428Y0173865D01*
X0207798Y0175464D02*
X0209123Y0175464D01*
X0201494Y0173865D02*
X0195428Y0173865D01*
X0197798Y0175464D02*
X0199123Y0175464D01*
X0191494Y0173865D02*
X0185428Y0173865D01*
X0187798Y0175464D02*
X0189123Y0175464D01*
X0181494Y0173865D02*
X0175428Y0173865D01*
X0177798Y0175464D02*
X0179123Y0175464D01*
X0171494Y0173865D02*
X0165428Y0173865D01*
X0167798Y0175464D02*
X0169123Y0175464D01*
X0161494Y0173865D02*
X0155428Y0173865D01*
X0157798Y0175464D02*
X0159123Y0175464D01*
X0151494Y0173865D02*
X0145428Y0173865D01*
X0147798Y0175464D02*
X0149123Y0175464D01*
X0141494Y0173865D02*
X0135428Y0173865D01*
X0137798Y0175464D02*
X0139123Y0175464D01*
X0123661Y0178661D02*
X0123261Y0178661D01*
X0123261Y0180259D02*
X0123661Y0180259D01*
X0123661Y0181858D02*
X0123261Y0181858D01*
X0166000Y0111523D02*
X0166000Y0111523D01*
X0166000Y0109925D02*
X0166000Y0109925D01*
X0161651Y0109925D02*
X0130349Y0109925D01*
X0130246Y0108326D02*
X0161754Y0108326D01*
X0119108Y0093940D02*
X0010500Y0093940D01*
X0010500Y0085947D02*
X0012124Y0085947D01*
X0015800Y0085947D02*
X0016200Y0085947D01*
X0016200Y0084349D02*
X0015800Y0084349D01*
X0015800Y0082750D02*
X0016200Y0082750D01*
X0016200Y0081152D02*
X0113000Y0081152D01*
X0121332Y0061969D02*
X0122448Y0061969D01*
X0126000Y0058772D02*
X0126000Y0058772D01*
X0126000Y0057174D02*
X0126000Y0057174D01*
X0126000Y0055575D02*
X0126000Y0055575D01*
X0128101Y0055575D02*
X0163899Y0055575D01*
X0162232Y0057174D02*
X0129768Y0057174D01*
X0130328Y0058772D02*
X0161672Y0058772D01*
X0161722Y0060371D02*
X0130278Y0060371D01*
X0081200Y0020408D02*
X0067775Y0020408D01*
X0069373Y0018810D02*
X0081200Y0018810D01*
X0081301Y0017211D02*
X0070972Y0017211D01*
X0072570Y0015613D02*
X0081966Y0015613D01*
X0067651Y0009219D02*
X0019533Y0009219D01*
X0019580Y0010817D02*
X0066052Y0010817D01*
X0064454Y0012416D02*
X0019580Y0012416D01*
X0019079Y0014014D02*
X0062855Y0014014D01*
X0058411Y0015613D02*
X0018417Y0015613D01*
X0017056Y0017211D02*
X0028227Y0017211D01*
X0029012Y0016426D02*
X0030800Y0016426D01*
X0030800Y0021026D01*
X0026200Y0021026D01*
X0026200Y0019238D01*
X0029012Y0016426D01*
X0030800Y0017211D02*
X0031200Y0017211D01*
X0031200Y0016426D02*
X0032988Y0016426D01*
X0035800Y0019238D01*
X0035800Y0021026D01*
X0031200Y0021026D01*
X0031200Y0021426D01*
X0030800Y0021426D01*
X0030800Y0026026D01*
X0029012Y0026026D01*
X0026200Y0023214D01*
X0026200Y0021426D01*
X0030800Y0021426D01*
X0030800Y0021026D01*
X0031200Y0021026D01*
X0031200Y0016426D01*
X0031200Y0018810D02*
X0030800Y0018810D01*
X0030800Y0020408D02*
X0031200Y0020408D01*
X0031200Y0021426D02*
X0035800Y0021426D01*
X0035800Y0023214D01*
X0032988Y0026026D01*
X0031200Y0026026D01*
X0031200Y0021426D01*
X0031200Y0022007D02*
X0030800Y0022007D01*
X0030800Y0023605D02*
X0031200Y0023605D01*
X0031200Y0025204D02*
X0030800Y0025204D01*
X0028189Y0025204D02*
X0005800Y0025204D01*
X0005800Y0026802D02*
X0058374Y0026802D01*
X0056775Y0025204D02*
X0033811Y0025204D01*
X0035409Y0023605D02*
X0055200Y0023605D01*
X0055200Y0022007D02*
X0035800Y0022007D01*
X0035800Y0020408D02*
X0055200Y0020408D01*
X0055214Y0018810D02*
X0035372Y0018810D01*
X0033773Y0017211D02*
X0056812Y0017211D01*
X0069412Y0007620D02*
X0018871Y0007620D01*
X0014985Y0018810D02*
X0026628Y0018810D01*
X0026200Y0020408D02*
X0005800Y0020408D01*
X0005800Y0018810D02*
X0006700Y0018810D01*
X0005800Y0022007D02*
X0026200Y0022007D01*
X0026591Y0023605D02*
X0005800Y0023605D01*
X0005800Y0047583D02*
X0008441Y0047583D01*
X0007569Y0049181D02*
X0005800Y0049181D01*
X0005800Y0050780D02*
X0007200Y0050780D01*
X0007200Y0052378D02*
X0005800Y0052378D01*
X0005800Y0053977D02*
X0007862Y0053977D01*
X0009147Y0055575D02*
X0005800Y0055575D01*
X0005800Y0057174D02*
X0008850Y0057174D01*
X0007738Y0058772D02*
X0005800Y0058772D01*
X0005800Y0060371D02*
X0007200Y0060371D01*
X0007200Y0061969D02*
X0005800Y0061969D01*
X0099788Y0007620D02*
X0117661Y0007620D01*
X0117661Y0009219D02*
X0101549Y0009219D01*
X0103148Y0010817D02*
X0117661Y0010817D01*
X0117661Y0012416D02*
X0104746Y0012416D01*
X0106345Y0014014D02*
X0117976Y0014014D01*
X0309410Y0172267D02*
X0311161Y0172267D01*
D18*
X0194600Y0102426D03*
X0117600Y0065026D03*
X0112100Y0102426D03*
M02*
