G75*
%MOIN*%
%OFA0B0*%
%FSLAX25Y25*%
%IPPOS*%
%LPD*%
%AMOC8*
5,1,8,0,0,1.08239X$1,22.5*
%
%ADD10C,0.00000*%
%ADD11C,0.00300*%
%ADD12C,0.00600*%
D10*
X0001202Y0006000D02*
X0006202Y0001000D01*
X0185202Y0001000D01*
X0190202Y0006000D01*
X0190202Y0016750D01*
X0190204Y0016818D01*
X0190209Y0016885D01*
X0190218Y0016952D01*
X0190231Y0017019D01*
X0190248Y0017084D01*
X0190267Y0017149D01*
X0190291Y0017213D01*
X0190318Y0017275D01*
X0190348Y0017336D01*
X0190381Y0017394D01*
X0190417Y0017451D01*
X0190457Y0017506D01*
X0190499Y0017559D01*
X0190545Y0017610D01*
X0190592Y0017657D01*
X0190643Y0017703D01*
X0190696Y0017745D01*
X0190751Y0017785D01*
X0190808Y0017821D01*
X0190866Y0017854D01*
X0190927Y0017884D01*
X0190989Y0017911D01*
X0191053Y0017935D01*
X0191118Y0017954D01*
X0191183Y0017971D01*
X0191250Y0017984D01*
X0191317Y0017993D01*
X0191384Y0017998D01*
X0191452Y0018000D01*
X0194952Y0018000D01*
X0195020Y0017998D01*
X0195087Y0017993D01*
X0195154Y0017984D01*
X0195221Y0017971D01*
X0195286Y0017954D01*
X0195351Y0017935D01*
X0195415Y0017911D01*
X0195477Y0017884D01*
X0195538Y0017854D01*
X0195596Y0017821D01*
X0195653Y0017785D01*
X0195708Y0017745D01*
X0195761Y0017703D01*
X0195812Y0017657D01*
X0195859Y0017610D01*
X0195905Y0017559D01*
X0195947Y0017506D01*
X0195987Y0017451D01*
X0196023Y0017394D01*
X0196056Y0017336D01*
X0196086Y0017275D01*
X0196113Y0017213D01*
X0196137Y0017149D01*
X0196156Y0017084D01*
X0196173Y0017019D01*
X0196186Y0016952D01*
X0196195Y0016885D01*
X0196200Y0016818D01*
X0196202Y0016750D01*
X0196202Y0006000D01*
X0201202Y0001000D01*
X0380202Y0001000D01*
X0385202Y0006000D01*
X0385202Y0310962D01*
X0380203Y0315962D01*
X0201203Y0315999D01*
X0196202Y0310999D01*
X0196202Y0027250D01*
X0196200Y0027182D01*
X0196195Y0027115D01*
X0196186Y0027048D01*
X0196173Y0026981D01*
X0196156Y0026916D01*
X0196137Y0026851D01*
X0196113Y0026787D01*
X0196086Y0026725D01*
X0196056Y0026664D01*
X0196023Y0026606D01*
X0195987Y0026549D01*
X0195947Y0026494D01*
X0195905Y0026441D01*
X0195859Y0026390D01*
X0195812Y0026343D01*
X0195761Y0026297D01*
X0195708Y0026255D01*
X0195653Y0026215D01*
X0195596Y0026179D01*
X0195538Y0026146D01*
X0195477Y0026116D01*
X0195415Y0026089D01*
X0195351Y0026065D01*
X0195286Y0026046D01*
X0195221Y0026029D01*
X0195154Y0026016D01*
X0195087Y0026007D01*
X0195020Y0026002D01*
X0194952Y0026000D01*
X0191452Y0026000D01*
X0191384Y0026002D01*
X0191317Y0026007D01*
X0191250Y0026016D01*
X0191183Y0026029D01*
X0191118Y0026046D01*
X0191053Y0026065D01*
X0190989Y0026089D01*
X0190927Y0026116D01*
X0190866Y0026146D01*
X0190808Y0026179D01*
X0190751Y0026215D01*
X0190696Y0026255D01*
X0190643Y0026297D01*
X0190592Y0026343D01*
X0190545Y0026390D01*
X0190499Y0026441D01*
X0190457Y0026494D01*
X0190417Y0026549D01*
X0190381Y0026606D01*
X0190348Y0026664D01*
X0190318Y0026725D01*
X0190291Y0026787D01*
X0190267Y0026851D01*
X0190248Y0026916D01*
X0190231Y0026981D01*
X0190218Y0027048D01*
X0190209Y0027115D01*
X0190204Y0027182D01*
X0190202Y0027250D01*
X0190202Y0310962D01*
X0185203Y0315962D01*
X0006203Y0315999D01*
X0001202Y0310999D01*
X0001202Y0006000D01*
X0176423Y0010843D02*
X0176425Y0010968D01*
X0176431Y0011093D01*
X0176441Y0011217D01*
X0176455Y0011341D01*
X0176472Y0011465D01*
X0176494Y0011588D01*
X0176520Y0011710D01*
X0176549Y0011832D01*
X0176582Y0011952D01*
X0176620Y0012071D01*
X0176660Y0012190D01*
X0176705Y0012306D01*
X0176753Y0012421D01*
X0176805Y0012535D01*
X0176861Y0012647D01*
X0176920Y0012757D01*
X0176982Y0012865D01*
X0177048Y0012972D01*
X0177117Y0013076D01*
X0177190Y0013177D01*
X0177265Y0013277D01*
X0177344Y0013374D01*
X0177426Y0013468D01*
X0177511Y0013560D01*
X0177598Y0013649D01*
X0177689Y0013735D01*
X0177782Y0013818D01*
X0177878Y0013899D01*
X0177976Y0013976D01*
X0178076Y0014050D01*
X0178179Y0014121D01*
X0178284Y0014188D01*
X0178392Y0014253D01*
X0178501Y0014313D01*
X0178612Y0014371D01*
X0178725Y0014424D01*
X0178839Y0014474D01*
X0178955Y0014521D01*
X0179072Y0014563D01*
X0179191Y0014602D01*
X0179311Y0014638D01*
X0179432Y0014669D01*
X0179554Y0014697D01*
X0179676Y0014720D01*
X0179800Y0014740D01*
X0179924Y0014756D01*
X0180048Y0014768D01*
X0180173Y0014776D01*
X0180298Y0014780D01*
X0180422Y0014780D01*
X0180547Y0014776D01*
X0180672Y0014768D01*
X0180796Y0014756D01*
X0180920Y0014740D01*
X0181044Y0014720D01*
X0181166Y0014697D01*
X0181288Y0014669D01*
X0181409Y0014638D01*
X0181529Y0014602D01*
X0181648Y0014563D01*
X0181765Y0014521D01*
X0181881Y0014474D01*
X0181995Y0014424D01*
X0182108Y0014371D01*
X0182219Y0014313D01*
X0182329Y0014253D01*
X0182436Y0014188D01*
X0182541Y0014121D01*
X0182644Y0014050D01*
X0182744Y0013976D01*
X0182842Y0013899D01*
X0182938Y0013818D01*
X0183031Y0013735D01*
X0183122Y0013649D01*
X0183209Y0013560D01*
X0183294Y0013468D01*
X0183376Y0013374D01*
X0183455Y0013277D01*
X0183530Y0013177D01*
X0183603Y0013076D01*
X0183672Y0012972D01*
X0183738Y0012865D01*
X0183800Y0012757D01*
X0183859Y0012647D01*
X0183915Y0012535D01*
X0183967Y0012421D01*
X0184015Y0012306D01*
X0184060Y0012190D01*
X0184100Y0012071D01*
X0184138Y0011952D01*
X0184171Y0011832D01*
X0184200Y0011710D01*
X0184226Y0011588D01*
X0184248Y0011465D01*
X0184265Y0011341D01*
X0184279Y0011217D01*
X0184289Y0011093D01*
X0184295Y0010968D01*
X0184297Y0010843D01*
X0184295Y0010718D01*
X0184289Y0010593D01*
X0184279Y0010469D01*
X0184265Y0010345D01*
X0184248Y0010221D01*
X0184226Y0010098D01*
X0184200Y0009976D01*
X0184171Y0009854D01*
X0184138Y0009734D01*
X0184100Y0009615D01*
X0184060Y0009496D01*
X0184015Y0009380D01*
X0183967Y0009265D01*
X0183915Y0009151D01*
X0183859Y0009039D01*
X0183800Y0008929D01*
X0183738Y0008821D01*
X0183672Y0008714D01*
X0183603Y0008610D01*
X0183530Y0008509D01*
X0183455Y0008409D01*
X0183376Y0008312D01*
X0183294Y0008218D01*
X0183209Y0008126D01*
X0183122Y0008037D01*
X0183031Y0007951D01*
X0182938Y0007868D01*
X0182842Y0007787D01*
X0182744Y0007710D01*
X0182644Y0007636D01*
X0182541Y0007565D01*
X0182436Y0007498D01*
X0182328Y0007433D01*
X0182219Y0007373D01*
X0182108Y0007315D01*
X0181995Y0007262D01*
X0181881Y0007212D01*
X0181765Y0007165D01*
X0181648Y0007123D01*
X0181529Y0007084D01*
X0181409Y0007048D01*
X0181288Y0007017D01*
X0181166Y0006989D01*
X0181044Y0006966D01*
X0180920Y0006946D01*
X0180796Y0006930D01*
X0180672Y0006918D01*
X0180547Y0006910D01*
X0180422Y0006906D01*
X0180298Y0006906D01*
X0180173Y0006910D01*
X0180048Y0006918D01*
X0179924Y0006930D01*
X0179800Y0006946D01*
X0179676Y0006966D01*
X0179554Y0006989D01*
X0179432Y0007017D01*
X0179311Y0007048D01*
X0179191Y0007084D01*
X0179072Y0007123D01*
X0178955Y0007165D01*
X0178839Y0007212D01*
X0178725Y0007262D01*
X0178612Y0007315D01*
X0178501Y0007373D01*
X0178391Y0007433D01*
X0178284Y0007498D01*
X0178179Y0007565D01*
X0178076Y0007636D01*
X0177976Y0007710D01*
X0177878Y0007787D01*
X0177782Y0007868D01*
X0177689Y0007951D01*
X0177598Y0008037D01*
X0177511Y0008126D01*
X0177426Y0008218D01*
X0177344Y0008312D01*
X0177265Y0008409D01*
X0177190Y0008509D01*
X0177117Y0008610D01*
X0177048Y0008714D01*
X0176982Y0008821D01*
X0176920Y0008929D01*
X0176861Y0009039D01*
X0176805Y0009151D01*
X0176753Y0009265D01*
X0176705Y0009380D01*
X0176660Y0009496D01*
X0176620Y0009615D01*
X0176582Y0009734D01*
X0176549Y0009854D01*
X0176520Y0009976D01*
X0176494Y0010098D01*
X0176472Y0010221D01*
X0176455Y0010345D01*
X0176441Y0010469D01*
X0176431Y0010593D01*
X0176425Y0010718D01*
X0176423Y0010843D01*
X0371423Y0010843D02*
X0371425Y0010968D01*
X0371431Y0011093D01*
X0371441Y0011217D01*
X0371455Y0011341D01*
X0371472Y0011465D01*
X0371494Y0011588D01*
X0371520Y0011710D01*
X0371549Y0011832D01*
X0371582Y0011952D01*
X0371620Y0012071D01*
X0371660Y0012190D01*
X0371705Y0012306D01*
X0371753Y0012421D01*
X0371805Y0012535D01*
X0371861Y0012647D01*
X0371920Y0012757D01*
X0371982Y0012865D01*
X0372048Y0012972D01*
X0372117Y0013076D01*
X0372190Y0013177D01*
X0372265Y0013277D01*
X0372344Y0013374D01*
X0372426Y0013468D01*
X0372511Y0013560D01*
X0372598Y0013649D01*
X0372689Y0013735D01*
X0372782Y0013818D01*
X0372878Y0013899D01*
X0372976Y0013976D01*
X0373076Y0014050D01*
X0373179Y0014121D01*
X0373284Y0014188D01*
X0373392Y0014253D01*
X0373501Y0014313D01*
X0373612Y0014371D01*
X0373725Y0014424D01*
X0373839Y0014474D01*
X0373955Y0014521D01*
X0374072Y0014563D01*
X0374191Y0014602D01*
X0374311Y0014638D01*
X0374432Y0014669D01*
X0374554Y0014697D01*
X0374676Y0014720D01*
X0374800Y0014740D01*
X0374924Y0014756D01*
X0375048Y0014768D01*
X0375173Y0014776D01*
X0375298Y0014780D01*
X0375422Y0014780D01*
X0375547Y0014776D01*
X0375672Y0014768D01*
X0375796Y0014756D01*
X0375920Y0014740D01*
X0376044Y0014720D01*
X0376166Y0014697D01*
X0376288Y0014669D01*
X0376409Y0014638D01*
X0376529Y0014602D01*
X0376648Y0014563D01*
X0376765Y0014521D01*
X0376881Y0014474D01*
X0376995Y0014424D01*
X0377108Y0014371D01*
X0377219Y0014313D01*
X0377329Y0014253D01*
X0377436Y0014188D01*
X0377541Y0014121D01*
X0377644Y0014050D01*
X0377744Y0013976D01*
X0377842Y0013899D01*
X0377938Y0013818D01*
X0378031Y0013735D01*
X0378122Y0013649D01*
X0378209Y0013560D01*
X0378294Y0013468D01*
X0378376Y0013374D01*
X0378455Y0013277D01*
X0378530Y0013177D01*
X0378603Y0013076D01*
X0378672Y0012972D01*
X0378738Y0012865D01*
X0378800Y0012757D01*
X0378859Y0012647D01*
X0378915Y0012535D01*
X0378967Y0012421D01*
X0379015Y0012306D01*
X0379060Y0012190D01*
X0379100Y0012071D01*
X0379138Y0011952D01*
X0379171Y0011832D01*
X0379200Y0011710D01*
X0379226Y0011588D01*
X0379248Y0011465D01*
X0379265Y0011341D01*
X0379279Y0011217D01*
X0379289Y0011093D01*
X0379295Y0010968D01*
X0379297Y0010843D01*
X0379295Y0010718D01*
X0379289Y0010593D01*
X0379279Y0010469D01*
X0379265Y0010345D01*
X0379248Y0010221D01*
X0379226Y0010098D01*
X0379200Y0009976D01*
X0379171Y0009854D01*
X0379138Y0009734D01*
X0379100Y0009615D01*
X0379060Y0009496D01*
X0379015Y0009380D01*
X0378967Y0009265D01*
X0378915Y0009151D01*
X0378859Y0009039D01*
X0378800Y0008929D01*
X0378738Y0008821D01*
X0378672Y0008714D01*
X0378603Y0008610D01*
X0378530Y0008509D01*
X0378455Y0008409D01*
X0378376Y0008312D01*
X0378294Y0008218D01*
X0378209Y0008126D01*
X0378122Y0008037D01*
X0378031Y0007951D01*
X0377938Y0007868D01*
X0377842Y0007787D01*
X0377744Y0007710D01*
X0377644Y0007636D01*
X0377541Y0007565D01*
X0377436Y0007498D01*
X0377328Y0007433D01*
X0377219Y0007373D01*
X0377108Y0007315D01*
X0376995Y0007262D01*
X0376881Y0007212D01*
X0376765Y0007165D01*
X0376648Y0007123D01*
X0376529Y0007084D01*
X0376409Y0007048D01*
X0376288Y0007017D01*
X0376166Y0006989D01*
X0376044Y0006966D01*
X0375920Y0006946D01*
X0375796Y0006930D01*
X0375672Y0006918D01*
X0375547Y0006910D01*
X0375422Y0006906D01*
X0375298Y0006906D01*
X0375173Y0006910D01*
X0375048Y0006918D01*
X0374924Y0006930D01*
X0374800Y0006946D01*
X0374676Y0006966D01*
X0374554Y0006989D01*
X0374432Y0007017D01*
X0374311Y0007048D01*
X0374191Y0007084D01*
X0374072Y0007123D01*
X0373955Y0007165D01*
X0373839Y0007212D01*
X0373725Y0007262D01*
X0373612Y0007315D01*
X0373501Y0007373D01*
X0373391Y0007433D01*
X0373284Y0007498D01*
X0373179Y0007565D01*
X0373076Y0007636D01*
X0372976Y0007710D01*
X0372878Y0007787D01*
X0372782Y0007868D01*
X0372689Y0007951D01*
X0372598Y0008037D01*
X0372511Y0008126D01*
X0372426Y0008218D01*
X0372344Y0008312D01*
X0372265Y0008409D01*
X0372190Y0008509D01*
X0372117Y0008610D01*
X0372048Y0008714D01*
X0371982Y0008821D01*
X0371920Y0008929D01*
X0371861Y0009039D01*
X0371805Y0009151D01*
X0371753Y0009265D01*
X0371705Y0009380D01*
X0371660Y0009496D01*
X0371620Y0009615D01*
X0371582Y0009734D01*
X0371549Y0009854D01*
X0371520Y0009976D01*
X0371494Y0010098D01*
X0371472Y0010221D01*
X0371455Y0010345D01*
X0371441Y0010469D01*
X0371431Y0010593D01*
X0371425Y0010718D01*
X0371423Y0010843D01*
X0202132Y0306118D02*
X0202134Y0306243D01*
X0202140Y0306368D01*
X0202150Y0306492D01*
X0202164Y0306616D01*
X0202181Y0306740D01*
X0202203Y0306863D01*
X0202229Y0306985D01*
X0202258Y0307107D01*
X0202291Y0307227D01*
X0202329Y0307346D01*
X0202369Y0307465D01*
X0202414Y0307581D01*
X0202462Y0307696D01*
X0202514Y0307810D01*
X0202570Y0307922D01*
X0202629Y0308032D01*
X0202691Y0308140D01*
X0202757Y0308247D01*
X0202826Y0308351D01*
X0202899Y0308452D01*
X0202974Y0308552D01*
X0203053Y0308649D01*
X0203135Y0308743D01*
X0203220Y0308835D01*
X0203307Y0308924D01*
X0203398Y0309010D01*
X0203491Y0309093D01*
X0203587Y0309174D01*
X0203685Y0309251D01*
X0203785Y0309325D01*
X0203888Y0309396D01*
X0203993Y0309463D01*
X0204101Y0309528D01*
X0204210Y0309588D01*
X0204321Y0309646D01*
X0204434Y0309699D01*
X0204548Y0309749D01*
X0204664Y0309796D01*
X0204781Y0309838D01*
X0204900Y0309877D01*
X0205020Y0309913D01*
X0205141Y0309944D01*
X0205263Y0309972D01*
X0205385Y0309995D01*
X0205509Y0310015D01*
X0205633Y0310031D01*
X0205757Y0310043D01*
X0205882Y0310051D01*
X0206007Y0310055D01*
X0206131Y0310055D01*
X0206256Y0310051D01*
X0206381Y0310043D01*
X0206505Y0310031D01*
X0206629Y0310015D01*
X0206753Y0309995D01*
X0206875Y0309972D01*
X0206997Y0309944D01*
X0207118Y0309913D01*
X0207238Y0309877D01*
X0207357Y0309838D01*
X0207474Y0309796D01*
X0207590Y0309749D01*
X0207704Y0309699D01*
X0207817Y0309646D01*
X0207928Y0309588D01*
X0208038Y0309528D01*
X0208145Y0309463D01*
X0208250Y0309396D01*
X0208353Y0309325D01*
X0208453Y0309251D01*
X0208551Y0309174D01*
X0208647Y0309093D01*
X0208740Y0309010D01*
X0208831Y0308924D01*
X0208918Y0308835D01*
X0209003Y0308743D01*
X0209085Y0308649D01*
X0209164Y0308552D01*
X0209239Y0308452D01*
X0209312Y0308351D01*
X0209381Y0308247D01*
X0209447Y0308140D01*
X0209509Y0308032D01*
X0209568Y0307922D01*
X0209624Y0307810D01*
X0209676Y0307696D01*
X0209724Y0307581D01*
X0209769Y0307465D01*
X0209809Y0307346D01*
X0209847Y0307227D01*
X0209880Y0307107D01*
X0209909Y0306985D01*
X0209935Y0306863D01*
X0209957Y0306740D01*
X0209974Y0306616D01*
X0209988Y0306492D01*
X0209998Y0306368D01*
X0210004Y0306243D01*
X0210006Y0306118D01*
X0210004Y0305993D01*
X0209998Y0305868D01*
X0209988Y0305744D01*
X0209974Y0305620D01*
X0209957Y0305496D01*
X0209935Y0305373D01*
X0209909Y0305251D01*
X0209880Y0305129D01*
X0209847Y0305009D01*
X0209809Y0304890D01*
X0209769Y0304771D01*
X0209724Y0304655D01*
X0209676Y0304540D01*
X0209624Y0304426D01*
X0209568Y0304314D01*
X0209509Y0304204D01*
X0209447Y0304096D01*
X0209381Y0303989D01*
X0209312Y0303885D01*
X0209239Y0303784D01*
X0209164Y0303684D01*
X0209085Y0303587D01*
X0209003Y0303493D01*
X0208918Y0303401D01*
X0208831Y0303312D01*
X0208740Y0303226D01*
X0208647Y0303143D01*
X0208551Y0303062D01*
X0208453Y0302985D01*
X0208353Y0302911D01*
X0208250Y0302840D01*
X0208145Y0302773D01*
X0208037Y0302708D01*
X0207928Y0302648D01*
X0207817Y0302590D01*
X0207704Y0302537D01*
X0207590Y0302487D01*
X0207474Y0302440D01*
X0207357Y0302398D01*
X0207238Y0302359D01*
X0207118Y0302323D01*
X0206997Y0302292D01*
X0206875Y0302264D01*
X0206753Y0302241D01*
X0206629Y0302221D01*
X0206505Y0302205D01*
X0206381Y0302193D01*
X0206256Y0302185D01*
X0206131Y0302181D01*
X0206007Y0302181D01*
X0205882Y0302185D01*
X0205757Y0302193D01*
X0205633Y0302205D01*
X0205509Y0302221D01*
X0205385Y0302241D01*
X0205263Y0302264D01*
X0205141Y0302292D01*
X0205020Y0302323D01*
X0204900Y0302359D01*
X0204781Y0302398D01*
X0204664Y0302440D01*
X0204548Y0302487D01*
X0204434Y0302537D01*
X0204321Y0302590D01*
X0204210Y0302648D01*
X0204100Y0302708D01*
X0203993Y0302773D01*
X0203888Y0302840D01*
X0203785Y0302911D01*
X0203685Y0302985D01*
X0203587Y0303062D01*
X0203491Y0303143D01*
X0203398Y0303226D01*
X0203307Y0303312D01*
X0203220Y0303401D01*
X0203135Y0303493D01*
X0203053Y0303587D01*
X0202974Y0303684D01*
X0202899Y0303784D01*
X0202826Y0303885D01*
X0202757Y0303989D01*
X0202691Y0304096D01*
X0202629Y0304204D01*
X0202570Y0304314D01*
X0202514Y0304426D01*
X0202462Y0304540D01*
X0202414Y0304655D01*
X0202369Y0304771D01*
X0202329Y0304890D01*
X0202291Y0305009D01*
X0202258Y0305129D01*
X0202229Y0305251D01*
X0202203Y0305373D01*
X0202181Y0305496D01*
X0202164Y0305620D01*
X0202150Y0305744D01*
X0202140Y0305868D01*
X0202134Y0305993D01*
X0202132Y0306118D01*
X0007132Y0306118D02*
X0007134Y0306243D01*
X0007140Y0306368D01*
X0007150Y0306492D01*
X0007164Y0306616D01*
X0007181Y0306740D01*
X0007203Y0306863D01*
X0007229Y0306985D01*
X0007258Y0307107D01*
X0007291Y0307227D01*
X0007329Y0307346D01*
X0007369Y0307465D01*
X0007414Y0307581D01*
X0007462Y0307696D01*
X0007514Y0307810D01*
X0007570Y0307922D01*
X0007629Y0308032D01*
X0007691Y0308140D01*
X0007757Y0308247D01*
X0007826Y0308351D01*
X0007899Y0308452D01*
X0007974Y0308552D01*
X0008053Y0308649D01*
X0008135Y0308743D01*
X0008220Y0308835D01*
X0008307Y0308924D01*
X0008398Y0309010D01*
X0008491Y0309093D01*
X0008587Y0309174D01*
X0008685Y0309251D01*
X0008785Y0309325D01*
X0008888Y0309396D01*
X0008993Y0309463D01*
X0009101Y0309528D01*
X0009210Y0309588D01*
X0009321Y0309646D01*
X0009434Y0309699D01*
X0009548Y0309749D01*
X0009664Y0309796D01*
X0009781Y0309838D01*
X0009900Y0309877D01*
X0010020Y0309913D01*
X0010141Y0309944D01*
X0010263Y0309972D01*
X0010385Y0309995D01*
X0010509Y0310015D01*
X0010633Y0310031D01*
X0010757Y0310043D01*
X0010882Y0310051D01*
X0011007Y0310055D01*
X0011131Y0310055D01*
X0011256Y0310051D01*
X0011381Y0310043D01*
X0011505Y0310031D01*
X0011629Y0310015D01*
X0011753Y0309995D01*
X0011875Y0309972D01*
X0011997Y0309944D01*
X0012118Y0309913D01*
X0012238Y0309877D01*
X0012357Y0309838D01*
X0012474Y0309796D01*
X0012590Y0309749D01*
X0012704Y0309699D01*
X0012817Y0309646D01*
X0012928Y0309588D01*
X0013038Y0309528D01*
X0013145Y0309463D01*
X0013250Y0309396D01*
X0013353Y0309325D01*
X0013453Y0309251D01*
X0013551Y0309174D01*
X0013647Y0309093D01*
X0013740Y0309010D01*
X0013831Y0308924D01*
X0013918Y0308835D01*
X0014003Y0308743D01*
X0014085Y0308649D01*
X0014164Y0308552D01*
X0014239Y0308452D01*
X0014312Y0308351D01*
X0014381Y0308247D01*
X0014447Y0308140D01*
X0014509Y0308032D01*
X0014568Y0307922D01*
X0014624Y0307810D01*
X0014676Y0307696D01*
X0014724Y0307581D01*
X0014769Y0307465D01*
X0014809Y0307346D01*
X0014847Y0307227D01*
X0014880Y0307107D01*
X0014909Y0306985D01*
X0014935Y0306863D01*
X0014957Y0306740D01*
X0014974Y0306616D01*
X0014988Y0306492D01*
X0014998Y0306368D01*
X0015004Y0306243D01*
X0015006Y0306118D01*
X0015004Y0305993D01*
X0014998Y0305868D01*
X0014988Y0305744D01*
X0014974Y0305620D01*
X0014957Y0305496D01*
X0014935Y0305373D01*
X0014909Y0305251D01*
X0014880Y0305129D01*
X0014847Y0305009D01*
X0014809Y0304890D01*
X0014769Y0304771D01*
X0014724Y0304655D01*
X0014676Y0304540D01*
X0014624Y0304426D01*
X0014568Y0304314D01*
X0014509Y0304204D01*
X0014447Y0304096D01*
X0014381Y0303989D01*
X0014312Y0303885D01*
X0014239Y0303784D01*
X0014164Y0303684D01*
X0014085Y0303587D01*
X0014003Y0303493D01*
X0013918Y0303401D01*
X0013831Y0303312D01*
X0013740Y0303226D01*
X0013647Y0303143D01*
X0013551Y0303062D01*
X0013453Y0302985D01*
X0013353Y0302911D01*
X0013250Y0302840D01*
X0013145Y0302773D01*
X0013037Y0302708D01*
X0012928Y0302648D01*
X0012817Y0302590D01*
X0012704Y0302537D01*
X0012590Y0302487D01*
X0012474Y0302440D01*
X0012357Y0302398D01*
X0012238Y0302359D01*
X0012118Y0302323D01*
X0011997Y0302292D01*
X0011875Y0302264D01*
X0011753Y0302241D01*
X0011629Y0302221D01*
X0011505Y0302205D01*
X0011381Y0302193D01*
X0011256Y0302185D01*
X0011131Y0302181D01*
X0011007Y0302181D01*
X0010882Y0302185D01*
X0010757Y0302193D01*
X0010633Y0302205D01*
X0010509Y0302221D01*
X0010385Y0302241D01*
X0010263Y0302264D01*
X0010141Y0302292D01*
X0010020Y0302323D01*
X0009900Y0302359D01*
X0009781Y0302398D01*
X0009664Y0302440D01*
X0009548Y0302487D01*
X0009434Y0302537D01*
X0009321Y0302590D01*
X0009210Y0302648D01*
X0009100Y0302708D01*
X0008993Y0302773D01*
X0008888Y0302840D01*
X0008785Y0302911D01*
X0008685Y0302985D01*
X0008587Y0303062D01*
X0008491Y0303143D01*
X0008398Y0303226D01*
X0008307Y0303312D01*
X0008220Y0303401D01*
X0008135Y0303493D01*
X0008053Y0303587D01*
X0007974Y0303684D01*
X0007899Y0303784D01*
X0007826Y0303885D01*
X0007757Y0303989D01*
X0007691Y0304096D01*
X0007629Y0304204D01*
X0007570Y0304314D01*
X0007514Y0304426D01*
X0007462Y0304540D01*
X0007414Y0304655D01*
X0007369Y0304771D01*
X0007329Y0304890D01*
X0007291Y0305009D01*
X0007258Y0305129D01*
X0007229Y0305251D01*
X0007203Y0305373D01*
X0007181Y0305496D01*
X0007164Y0305620D01*
X0007150Y0305744D01*
X0007140Y0305868D01*
X0007134Y0305993D01*
X0007132Y0306118D01*
D11*
X0015849Y0306777D02*
X0019552Y0306777D01*
X0015849Y0304308D01*
X0019552Y0304308D01*
X0018935Y0303094D02*
X0019552Y0302477D01*
X0019552Y0301242D01*
X0018935Y0300625D01*
X0016466Y0300625D01*
X0015849Y0301242D01*
X0015849Y0302477D01*
X0016466Y0303094D01*
X0016466Y0307992D02*
X0015849Y0308609D01*
X0015849Y0309843D01*
X0016466Y0310460D01*
X0017084Y0310460D01*
X0019552Y0307992D01*
X0019552Y0310460D01*
X0018935Y0296119D02*
X0019552Y0295502D01*
X0019552Y0294267D01*
X0018935Y0293650D01*
X0018318Y0293650D01*
X0017701Y0294267D01*
X0017701Y0295502D01*
X0018318Y0296119D01*
X0018935Y0296119D01*
X0017701Y0295502D02*
X0017084Y0296119D01*
X0016466Y0296119D01*
X0015849Y0295502D01*
X0015849Y0294267D01*
X0016466Y0293650D01*
X0017084Y0293650D01*
X0017701Y0294267D01*
X0019552Y0292436D02*
X0019552Y0289967D01*
X0019552Y0291201D02*
X0015849Y0291201D01*
X0017084Y0289967D01*
X0016466Y0286119D02*
X0018935Y0283650D01*
X0019552Y0283650D01*
X0019552Y0282436D02*
X0019552Y0279967D01*
X0019552Y0281201D02*
X0015849Y0281201D01*
X0017084Y0279967D01*
X0015849Y0283650D02*
X0015849Y0286119D01*
X0016466Y0286119D01*
X0022349Y0286201D02*
X0026052Y0286201D01*
X0026052Y0284967D02*
X0026052Y0287436D01*
X0025435Y0288650D02*
X0024818Y0288650D01*
X0024201Y0289267D01*
X0024201Y0290502D01*
X0024818Y0291119D01*
X0025435Y0291119D01*
X0026052Y0290502D01*
X0026052Y0289267D01*
X0025435Y0288650D01*
X0024201Y0289267D02*
X0023584Y0288650D01*
X0022966Y0288650D01*
X0022349Y0289267D01*
X0022349Y0290502D01*
X0022966Y0291119D01*
X0023584Y0291119D01*
X0024201Y0290502D01*
X0022349Y0286201D02*
X0023584Y0284967D01*
X0022966Y0281119D02*
X0025435Y0278650D01*
X0026052Y0278650D01*
X0026052Y0277436D02*
X0026052Y0274967D01*
X0026052Y0276201D02*
X0022349Y0276201D01*
X0023584Y0274967D01*
X0022349Y0278650D02*
X0022349Y0281119D01*
X0022966Y0281119D01*
X0018935Y0276119D02*
X0018318Y0276119D01*
X0017701Y0275502D01*
X0017701Y0273650D01*
X0018935Y0273650D01*
X0019552Y0274267D01*
X0019552Y0275502D01*
X0018935Y0276119D01*
X0016466Y0274884D02*
X0015849Y0276119D01*
X0016466Y0274884D02*
X0017701Y0273650D01*
X0019552Y0272436D02*
X0019552Y0269967D01*
X0019552Y0271201D02*
X0015849Y0271201D01*
X0017084Y0269967D01*
X0022349Y0271119D02*
X0022966Y0269884D01*
X0024201Y0268650D01*
X0024201Y0270502D01*
X0024818Y0271119D01*
X0025435Y0271119D01*
X0026052Y0270502D01*
X0026052Y0269267D01*
X0025435Y0268650D01*
X0024201Y0268650D01*
X0026052Y0267436D02*
X0026052Y0264967D01*
X0026052Y0266201D02*
X0022349Y0266201D01*
X0023584Y0264967D01*
X0024201Y0261119D02*
X0025435Y0261119D01*
X0026052Y0260502D01*
X0026052Y0259267D01*
X0025435Y0258650D01*
X0024201Y0258650D02*
X0023584Y0259884D01*
X0023584Y0260502D01*
X0024201Y0261119D01*
X0022349Y0261119D02*
X0022349Y0258650D01*
X0024201Y0258650D01*
X0026052Y0257436D02*
X0026052Y0254967D01*
X0026052Y0256201D02*
X0022349Y0256201D01*
X0023584Y0254967D01*
X0024201Y0251119D02*
X0024201Y0248650D01*
X0022349Y0250502D01*
X0026052Y0250502D01*
X0026052Y0247436D02*
X0026052Y0244967D01*
X0026052Y0246201D02*
X0022349Y0246201D01*
X0023584Y0244967D01*
X0023584Y0241119D02*
X0022966Y0241119D01*
X0022349Y0240502D01*
X0022349Y0239267D01*
X0022966Y0238650D01*
X0024201Y0239884D02*
X0024201Y0240502D01*
X0024818Y0241119D01*
X0025435Y0241119D01*
X0026052Y0240502D01*
X0026052Y0239267D01*
X0025435Y0238650D01*
X0026052Y0237436D02*
X0026052Y0234967D01*
X0026052Y0236201D02*
X0022349Y0236201D01*
X0023584Y0234967D01*
X0019552Y0236119D02*
X0019552Y0233650D01*
X0017084Y0236119D01*
X0016466Y0236119D01*
X0015849Y0235502D01*
X0015849Y0234267D01*
X0016466Y0233650D01*
X0015849Y0231201D02*
X0019552Y0231201D01*
X0019552Y0229967D02*
X0019552Y0232436D01*
X0022349Y0230502D02*
X0022349Y0229267D01*
X0022966Y0228650D01*
X0022349Y0230502D02*
X0022966Y0231119D01*
X0023584Y0231119D01*
X0026052Y0228650D01*
X0026052Y0231119D01*
X0026052Y0227436D02*
X0026052Y0224967D01*
X0026052Y0226201D02*
X0022349Y0226201D01*
X0023584Y0224967D01*
X0019552Y0224884D02*
X0015849Y0224884D01*
X0017084Y0223650D01*
X0019552Y0223650D02*
X0019552Y0226119D01*
X0019552Y0222436D02*
X0019552Y0219967D01*
X0019552Y0221201D02*
X0015849Y0221201D01*
X0017084Y0219967D01*
X0016466Y0216119D02*
X0018935Y0213650D01*
X0019552Y0214267D01*
X0019552Y0215502D01*
X0018935Y0216119D01*
X0016466Y0216119D01*
X0015849Y0215502D01*
X0015849Y0214267D01*
X0016466Y0213650D01*
X0018935Y0213650D01*
X0019552Y0212436D02*
X0019552Y0209967D01*
X0019552Y0211201D02*
X0015849Y0211201D01*
X0017084Y0209967D01*
X0022349Y0210502D02*
X0022966Y0211119D01*
X0025435Y0208650D01*
X0026052Y0209267D01*
X0026052Y0210502D01*
X0025435Y0211119D01*
X0022966Y0211119D01*
X0022349Y0210502D02*
X0022349Y0209267D01*
X0022966Y0208650D01*
X0025435Y0208650D01*
X0026052Y0207436D02*
X0026052Y0204967D01*
X0026052Y0206201D02*
X0022349Y0206201D01*
X0023584Y0204967D01*
X0019552Y0203660D02*
X0019552Y0202426D01*
X0018935Y0201808D01*
X0017701Y0202426D02*
X0017701Y0204277D01*
X0018935Y0204277D02*
X0016466Y0204277D01*
X0015849Y0203660D01*
X0015849Y0202426D01*
X0016466Y0201808D01*
X0017084Y0201808D01*
X0017701Y0202426D01*
X0019552Y0203660D02*
X0018935Y0204277D01*
X0022966Y0199277D02*
X0022349Y0198660D01*
X0022349Y0197426D01*
X0022966Y0196808D01*
X0023584Y0196808D01*
X0024201Y0197426D01*
X0024201Y0199277D01*
X0025435Y0199277D02*
X0022966Y0199277D01*
X0025435Y0199277D02*
X0026052Y0198660D01*
X0026052Y0197426D01*
X0025435Y0196808D01*
X0019552Y0193660D02*
X0019552Y0192426D01*
X0018935Y0191808D01*
X0018318Y0191808D01*
X0017701Y0192426D01*
X0017701Y0193660D01*
X0018318Y0194277D01*
X0018935Y0194277D01*
X0019552Y0193660D01*
X0017701Y0193660D02*
X0017084Y0194277D01*
X0016466Y0194277D01*
X0015849Y0193660D01*
X0015849Y0192426D01*
X0016466Y0191808D01*
X0017084Y0191808D01*
X0017701Y0192426D01*
X0022349Y0188660D02*
X0022966Y0189277D01*
X0023584Y0189277D01*
X0024201Y0188660D01*
X0024201Y0187426D01*
X0023584Y0186808D01*
X0022966Y0186808D01*
X0022349Y0187426D01*
X0022349Y0188660D01*
X0024201Y0188660D02*
X0024818Y0189277D01*
X0025435Y0189277D01*
X0026052Y0188660D01*
X0026052Y0187426D01*
X0025435Y0186808D01*
X0024818Y0186808D01*
X0024201Y0187426D01*
X0019552Y0181808D02*
X0018935Y0181808D01*
X0016466Y0184277D01*
X0015849Y0184277D01*
X0015849Y0181808D01*
X0022349Y0179277D02*
X0022966Y0179277D01*
X0025435Y0176808D01*
X0026052Y0176808D01*
X0022349Y0176808D02*
X0022349Y0179277D01*
X0018935Y0174277D02*
X0018318Y0174277D01*
X0017701Y0173660D01*
X0017701Y0171808D01*
X0018935Y0171808D01*
X0019552Y0172426D01*
X0019552Y0173660D01*
X0018935Y0174277D01*
X0016466Y0173043D02*
X0017701Y0171808D01*
X0016466Y0173043D02*
X0015849Y0174277D01*
X0022349Y0169277D02*
X0022966Y0168043D01*
X0024201Y0166808D01*
X0024201Y0168660D01*
X0024818Y0169277D01*
X0025435Y0169277D01*
X0026052Y0168660D01*
X0026052Y0167426D01*
X0025435Y0166808D01*
X0024201Y0166808D01*
X0019552Y0163660D02*
X0019552Y0162426D01*
X0018935Y0161808D01*
X0017701Y0161808D02*
X0017084Y0163043D01*
X0017084Y0163660D01*
X0017701Y0164277D01*
X0018935Y0164277D01*
X0019552Y0163660D01*
X0017701Y0161808D02*
X0015849Y0161808D01*
X0015849Y0164277D01*
X0022349Y0159277D02*
X0022349Y0156808D01*
X0024201Y0156808D01*
X0023584Y0158043D01*
X0023584Y0158660D01*
X0024201Y0159277D01*
X0025435Y0159277D01*
X0026052Y0158660D01*
X0026052Y0157426D01*
X0025435Y0156808D01*
X0019552Y0153660D02*
X0015849Y0153660D01*
X0017701Y0151808D01*
X0017701Y0154277D01*
X0022349Y0148660D02*
X0024201Y0146808D01*
X0024201Y0149277D01*
X0026052Y0148660D02*
X0022349Y0148660D01*
X0018935Y0144277D02*
X0019552Y0143660D01*
X0019552Y0142426D01*
X0018935Y0141808D01*
X0017701Y0143043D02*
X0017701Y0143660D01*
X0018318Y0144277D01*
X0018935Y0144277D01*
X0017701Y0143660D02*
X0017084Y0144277D01*
X0016466Y0144277D01*
X0015849Y0143660D01*
X0015849Y0142426D01*
X0016466Y0141808D01*
X0022349Y0138660D02*
X0022966Y0139277D01*
X0023584Y0139277D01*
X0024201Y0138660D01*
X0024818Y0139277D01*
X0025435Y0139277D01*
X0026052Y0138660D01*
X0026052Y0137426D01*
X0025435Y0136808D01*
X0024201Y0138043D02*
X0024201Y0138660D01*
X0022349Y0138660D02*
X0022349Y0137426D01*
X0022966Y0136808D01*
X0019552Y0134277D02*
X0019552Y0131808D01*
X0017084Y0134277D01*
X0016466Y0134277D01*
X0015849Y0133660D01*
X0015849Y0132426D01*
X0016466Y0131808D01*
X0022349Y0128660D02*
X0022349Y0127426D01*
X0022966Y0126808D01*
X0022349Y0128660D02*
X0022966Y0129277D01*
X0023584Y0129277D01*
X0026052Y0126808D01*
X0026052Y0129277D01*
X0019552Y0124277D02*
X0019552Y0121808D01*
X0019552Y0123043D02*
X0015849Y0123043D01*
X0017084Y0121808D01*
X0022349Y0118043D02*
X0026052Y0118043D01*
X0026052Y0119277D02*
X0026052Y0116808D01*
X0023584Y0116808D02*
X0022349Y0118043D01*
X0023584Y0214967D02*
X0022349Y0216201D01*
X0026052Y0216201D01*
X0026052Y0214967D02*
X0026052Y0217436D01*
X0026052Y0218650D02*
X0026052Y0221119D01*
X0026052Y0219884D02*
X0022349Y0219884D01*
X0023584Y0218650D01*
X0017084Y0229967D02*
X0015849Y0231201D01*
X0017084Y0239967D02*
X0015849Y0241201D01*
X0019552Y0241201D01*
X0019552Y0239967D02*
X0019552Y0242436D01*
X0018935Y0243650D02*
X0019552Y0244267D01*
X0019552Y0245502D01*
X0018935Y0246119D01*
X0018318Y0246119D01*
X0017701Y0245502D01*
X0017701Y0244884D01*
X0017701Y0245502D02*
X0017084Y0246119D01*
X0016466Y0246119D01*
X0015849Y0245502D01*
X0015849Y0244267D01*
X0016466Y0243650D01*
X0017084Y0249967D02*
X0015849Y0251201D01*
X0019552Y0251201D01*
X0019552Y0249967D02*
X0019552Y0252436D01*
X0017701Y0253650D02*
X0017701Y0256119D01*
X0019552Y0255502D02*
X0015849Y0255502D01*
X0017701Y0253650D01*
X0017084Y0259967D02*
X0015849Y0261201D01*
X0019552Y0261201D01*
X0019552Y0259967D02*
X0019552Y0262436D01*
X0018935Y0263650D02*
X0019552Y0264267D01*
X0019552Y0265502D01*
X0018935Y0266119D01*
X0017701Y0266119D01*
X0017084Y0265502D01*
X0017084Y0264884D01*
X0017701Y0263650D01*
X0015849Y0263650D01*
X0015849Y0266119D01*
X0023584Y0241119D02*
X0024201Y0240502D01*
X0164349Y0239277D02*
X0164966Y0238043D01*
X0166201Y0236808D01*
X0166201Y0238660D01*
X0166818Y0239277D01*
X0167435Y0239277D01*
X0168052Y0238660D01*
X0168052Y0237426D01*
X0167435Y0236808D01*
X0166201Y0236808D01*
X0171849Y0236777D02*
X0171849Y0234308D01*
X0171849Y0236777D02*
X0172466Y0236777D01*
X0174935Y0234308D01*
X0175552Y0234308D01*
X0174935Y0226777D02*
X0175552Y0226160D01*
X0175552Y0224926D01*
X0174935Y0224308D01*
X0174318Y0224308D01*
X0173701Y0224926D01*
X0173701Y0226160D01*
X0174318Y0226777D01*
X0174935Y0226777D01*
X0173701Y0226160D02*
X0173084Y0226777D01*
X0172466Y0226777D01*
X0171849Y0226160D01*
X0171849Y0224926D01*
X0172466Y0224308D01*
X0173084Y0224308D01*
X0173701Y0224926D01*
X0168052Y0226808D02*
X0167435Y0226808D01*
X0164966Y0229277D01*
X0164349Y0229277D01*
X0164349Y0226808D01*
X0164966Y0219277D02*
X0165584Y0219277D01*
X0166201Y0218660D01*
X0166201Y0217426D01*
X0165584Y0216808D01*
X0164966Y0216808D01*
X0164349Y0217426D01*
X0164349Y0218660D01*
X0164966Y0219277D01*
X0166201Y0218660D02*
X0166818Y0219277D01*
X0167435Y0219277D01*
X0168052Y0218660D01*
X0168052Y0217426D01*
X0167435Y0216808D01*
X0166818Y0216808D01*
X0166201Y0217426D01*
X0171849Y0216160D02*
X0171849Y0214926D01*
X0172466Y0214308D01*
X0173084Y0214308D01*
X0173701Y0214926D01*
X0173701Y0216777D01*
X0174935Y0216777D02*
X0172466Y0216777D01*
X0171849Y0216160D01*
X0174935Y0216777D02*
X0175552Y0216160D01*
X0175552Y0214926D01*
X0174935Y0214308D01*
X0174935Y0208619D02*
X0172466Y0208619D01*
X0174935Y0206150D01*
X0175552Y0206767D01*
X0175552Y0208002D01*
X0174935Y0208619D01*
X0172466Y0208619D02*
X0171849Y0208002D01*
X0171849Y0206767D01*
X0172466Y0206150D01*
X0174935Y0206150D01*
X0175552Y0204936D02*
X0175552Y0202467D01*
X0175552Y0203701D02*
X0171849Y0203701D01*
X0173084Y0202467D01*
X0175552Y0198619D02*
X0175552Y0196150D01*
X0175552Y0194936D02*
X0175552Y0192467D01*
X0175552Y0193701D02*
X0171849Y0193701D01*
X0173084Y0192467D01*
X0173084Y0196150D02*
X0171849Y0197384D01*
X0175552Y0197384D01*
X0168052Y0197436D02*
X0168052Y0194967D01*
X0168052Y0196201D02*
X0164349Y0196201D01*
X0165584Y0194967D01*
X0164966Y0198650D02*
X0164349Y0199267D01*
X0164349Y0200502D01*
X0164966Y0201119D01*
X0167435Y0198650D01*
X0168052Y0199267D01*
X0168052Y0200502D01*
X0167435Y0201119D01*
X0164966Y0201119D01*
X0164966Y0198650D02*
X0167435Y0198650D01*
X0168052Y0191119D02*
X0168052Y0188650D01*
X0168052Y0187436D02*
X0168052Y0184967D01*
X0168052Y0186201D02*
X0164349Y0186201D01*
X0165584Y0184967D01*
X0165584Y0188650D02*
X0164349Y0189884D01*
X0168052Y0189884D01*
X0171849Y0188002D02*
X0171849Y0186767D01*
X0172466Y0186150D01*
X0171849Y0188002D02*
X0172466Y0188619D01*
X0173084Y0188619D01*
X0175552Y0186150D01*
X0175552Y0188619D01*
X0175552Y0184936D02*
X0175552Y0182467D01*
X0175552Y0183701D02*
X0171849Y0183701D01*
X0173084Y0182467D01*
X0173084Y0178619D02*
X0173701Y0178002D01*
X0174318Y0178619D01*
X0174935Y0178619D01*
X0175552Y0178002D01*
X0175552Y0176767D01*
X0174935Y0176150D01*
X0175552Y0174936D02*
X0175552Y0172467D01*
X0175552Y0173701D02*
X0171849Y0173701D01*
X0173084Y0172467D01*
X0172466Y0176150D02*
X0171849Y0176767D01*
X0171849Y0178002D01*
X0172466Y0178619D01*
X0173084Y0178619D01*
X0173701Y0178002D02*
X0173701Y0177384D01*
X0168052Y0177436D02*
X0168052Y0174967D01*
X0168052Y0176201D02*
X0164349Y0176201D01*
X0165584Y0174967D01*
X0164966Y0178650D02*
X0164349Y0179267D01*
X0164349Y0180502D01*
X0164966Y0181119D01*
X0165584Y0181119D01*
X0168052Y0178650D01*
X0168052Y0181119D01*
X0167435Y0171119D02*
X0168052Y0170502D01*
X0168052Y0169267D01*
X0167435Y0168650D01*
X0168052Y0167436D02*
X0168052Y0164967D01*
X0168052Y0166201D02*
X0164349Y0166201D01*
X0165584Y0164967D01*
X0164966Y0168650D02*
X0164349Y0169267D01*
X0164349Y0170502D01*
X0164966Y0171119D01*
X0165584Y0171119D01*
X0166201Y0170502D01*
X0166818Y0171119D01*
X0167435Y0171119D01*
X0166201Y0170502D02*
X0166201Y0169884D01*
X0171849Y0168002D02*
X0173701Y0166150D01*
X0173701Y0168619D01*
X0175552Y0168002D02*
X0171849Y0168002D01*
X0171849Y0163701D02*
X0175552Y0163701D01*
X0175552Y0162467D02*
X0175552Y0164936D01*
X0173084Y0162467D02*
X0171849Y0163701D01*
X0168052Y0160502D02*
X0164349Y0160502D01*
X0166201Y0158650D01*
X0166201Y0161119D01*
X0168052Y0157436D02*
X0168052Y0154967D01*
X0168052Y0156201D02*
X0164349Y0156201D01*
X0165584Y0154967D01*
X0166201Y0151119D02*
X0165584Y0150502D01*
X0165584Y0149884D01*
X0166201Y0148650D01*
X0164349Y0148650D01*
X0164349Y0151119D01*
X0166201Y0151119D02*
X0167435Y0151119D01*
X0168052Y0150502D01*
X0168052Y0149267D01*
X0167435Y0148650D01*
X0168052Y0147436D02*
X0168052Y0144967D01*
X0168052Y0146201D02*
X0164349Y0146201D01*
X0165584Y0144967D01*
X0166818Y0141119D02*
X0166201Y0140502D01*
X0166201Y0138650D01*
X0167435Y0138650D01*
X0168052Y0139267D01*
X0168052Y0140502D01*
X0167435Y0141119D01*
X0166818Y0141119D01*
X0164966Y0139884D02*
X0166201Y0138650D01*
X0164966Y0139884D02*
X0164349Y0141119D01*
X0168052Y0137436D02*
X0168052Y0134967D01*
X0168052Y0136201D02*
X0164349Y0136201D01*
X0165584Y0134967D01*
X0164966Y0131119D02*
X0167435Y0128650D01*
X0168052Y0128650D01*
X0168052Y0127436D02*
X0168052Y0124967D01*
X0168052Y0126201D02*
X0164349Y0126201D01*
X0165584Y0124967D01*
X0165584Y0121119D02*
X0166201Y0120502D01*
X0166201Y0119267D01*
X0165584Y0118650D01*
X0164966Y0118650D01*
X0164349Y0119267D01*
X0164349Y0120502D01*
X0164966Y0121119D01*
X0165584Y0121119D01*
X0166201Y0120502D02*
X0166818Y0121119D01*
X0167435Y0121119D01*
X0168052Y0120502D01*
X0168052Y0119267D01*
X0167435Y0118650D01*
X0166818Y0118650D01*
X0166201Y0119267D01*
X0168052Y0117436D02*
X0168052Y0114967D01*
X0168052Y0116201D02*
X0164349Y0116201D01*
X0165584Y0114967D01*
X0173084Y0122467D02*
X0171849Y0123701D01*
X0175552Y0123701D01*
X0175552Y0122467D02*
X0175552Y0124936D01*
X0174935Y0126150D02*
X0174318Y0126150D01*
X0173701Y0126767D01*
X0173701Y0128002D01*
X0174318Y0128619D01*
X0174935Y0128619D01*
X0175552Y0128002D01*
X0175552Y0126767D01*
X0174935Y0126150D01*
X0173701Y0126767D02*
X0173084Y0126150D01*
X0172466Y0126150D01*
X0171849Y0126767D01*
X0171849Y0128002D01*
X0172466Y0128619D01*
X0173084Y0128619D01*
X0173701Y0128002D01*
X0173084Y0132467D02*
X0171849Y0133701D01*
X0175552Y0133701D01*
X0175552Y0132467D02*
X0175552Y0134936D01*
X0175552Y0136150D02*
X0174935Y0136150D01*
X0172466Y0138619D01*
X0171849Y0138619D01*
X0171849Y0136150D01*
X0173084Y0142467D02*
X0171849Y0143701D01*
X0175552Y0143701D01*
X0175552Y0142467D02*
X0175552Y0144936D01*
X0174935Y0146150D02*
X0173701Y0146150D01*
X0173701Y0148002D01*
X0174318Y0148619D01*
X0174935Y0148619D01*
X0175552Y0148002D01*
X0175552Y0146767D01*
X0174935Y0146150D01*
X0173701Y0146150D02*
X0172466Y0147384D01*
X0171849Y0148619D01*
X0173084Y0152467D02*
X0171849Y0153701D01*
X0175552Y0153701D01*
X0175552Y0152467D02*
X0175552Y0154936D01*
X0174935Y0156150D02*
X0175552Y0156767D01*
X0175552Y0158002D01*
X0174935Y0158619D01*
X0173701Y0158619D01*
X0173084Y0158002D01*
X0173084Y0157384D01*
X0173701Y0156150D01*
X0171849Y0156150D01*
X0171849Y0158619D01*
X0164966Y0131119D02*
X0164349Y0131119D01*
X0164349Y0128650D01*
X0185750Y0092855D02*
X0188652Y0092855D01*
X0188652Y0093822D02*
X0188652Y0091887D01*
X0188652Y0090898D02*
X0188652Y0090414D01*
X0188169Y0090414D01*
X0188169Y0090898D01*
X0188652Y0090898D01*
X0188169Y0089403D02*
X0188652Y0088919D01*
X0188652Y0087951D01*
X0188169Y0087468D01*
X0186234Y0089403D01*
X0188169Y0089403D01*
X0188169Y0087468D02*
X0186234Y0087468D01*
X0185750Y0087951D01*
X0185750Y0088919D01*
X0186234Y0089403D01*
X0186717Y0091887D02*
X0185750Y0092855D01*
X0186717Y0086456D02*
X0188652Y0085489D01*
X0186717Y0084521D01*
X0186234Y0080563D02*
X0185750Y0080079D01*
X0185750Y0078628D01*
X0188652Y0078628D01*
X0188652Y0080079D01*
X0188169Y0080563D01*
X0186234Y0080563D01*
X0188652Y0077617D02*
X0188652Y0075682D01*
X0185750Y0075682D01*
X0185750Y0074670D02*
X0185750Y0072735D01*
X0188652Y0072735D01*
X0188652Y0074670D01*
X0187201Y0073703D02*
X0187201Y0072735D01*
X0185750Y0071738D02*
X0185750Y0070771D01*
X0185750Y0071254D02*
X0188652Y0071254D01*
X0188652Y0070771D02*
X0188652Y0071738D01*
X0188652Y0069759D02*
X0185750Y0069759D01*
X0187201Y0069759D02*
X0187201Y0067824D01*
X0187685Y0066813D02*
X0188169Y0066813D01*
X0188652Y0066329D01*
X0188652Y0065361D01*
X0188169Y0064878D01*
X0187201Y0065361D02*
X0187201Y0066329D01*
X0187685Y0066813D01*
X0188652Y0067824D02*
X0185750Y0067824D01*
X0186234Y0066813D02*
X0185750Y0066329D01*
X0185750Y0065361D01*
X0186234Y0064878D01*
X0186717Y0064878D01*
X0187201Y0065361D01*
X0187201Y0063866D02*
X0187201Y0061931D01*
X0185750Y0060920D02*
X0185750Y0058985D01*
X0185750Y0059952D02*
X0188652Y0059952D01*
X0188169Y0057973D02*
X0186234Y0057973D01*
X0185750Y0057489D01*
X0185750Y0056522D01*
X0186234Y0056038D01*
X0188169Y0056038D01*
X0188652Y0056522D01*
X0188652Y0057489D01*
X0188169Y0057973D01*
X0188652Y0055027D02*
X0187685Y0054059D01*
X0187685Y0054543D02*
X0187685Y0053092D01*
X0188652Y0053092D02*
X0185750Y0053092D01*
X0185750Y0054543D01*
X0186234Y0055027D01*
X0187201Y0055027D01*
X0187685Y0054543D01*
X0187201Y0052080D02*
X0187685Y0051596D01*
X0187685Y0050145D01*
X0188652Y0050145D02*
X0185750Y0050145D01*
X0185750Y0051596D01*
X0186234Y0052080D01*
X0187201Y0052080D01*
X0187201Y0049134D02*
X0187201Y0047199D01*
X0188652Y0046187D02*
X0185750Y0046187D01*
X0185750Y0044252D02*
X0188652Y0046187D01*
X0188652Y0044252D02*
X0185750Y0044252D01*
X0185750Y0043241D02*
X0188652Y0043241D01*
X0188652Y0041306D02*
X0185750Y0041306D01*
X0186717Y0042273D01*
X0185750Y0043241D01*
X0186234Y0040294D02*
X0187201Y0040294D01*
X0187685Y0039810D01*
X0187685Y0038359D01*
X0188652Y0038359D02*
X0185750Y0038359D01*
X0185750Y0039810D01*
X0186234Y0040294D01*
X0187685Y0039327D02*
X0188652Y0040294D01*
X0188652Y0037348D02*
X0185750Y0037348D01*
X0187201Y0037348D02*
X0187201Y0035413D01*
X0186234Y0034401D02*
X0185750Y0033917D01*
X0185750Y0032950D01*
X0186234Y0032466D01*
X0188169Y0032466D01*
X0188652Y0032950D01*
X0188652Y0033917D01*
X0188169Y0034401D01*
X0188652Y0035413D02*
X0185750Y0035413D01*
X0218584Y0116808D02*
X0217349Y0118043D01*
X0221052Y0118043D01*
X0221052Y0119277D02*
X0221052Y0116808D01*
X0214552Y0121808D02*
X0214552Y0124277D01*
X0214552Y0123043D02*
X0210849Y0123043D01*
X0212084Y0121808D01*
X0217349Y0127426D02*
X0217966Y0126808D01*
X0217349Y0127426D02*
X0217349Y0128660D01*
X0217966Y0129277D01*
X0218584Y0129277D01*
X0221052Y0126808D01*
X0221052Y0129277D01*
X0214552Y0131808D02*
X0214552Y0134277D01*
X0212084Y0134277D02*
X0214552Y0131808D01*
X0211466Y0131808D02*
X0210849Y0132426D01*
X0210849Y0133660D01*
X0211466Y0134277D01*
X0212084Y0134277D01*
X0217349Y0137426D02*
X0217349Y0138660D01*
X0217966Y0139277D01*
X0218584Y0139277D01*
X0219201Y0138660D01*
X0219818Y0139277D01*
X0220435Y0139277D01*
X0221052Y0138660D01*
X0221052Y0137426D01*
X0220435Y0136808D01*
X0219201Y0138043D02*
X0219201Y0138660D01*
X0217349Y0137426D02*
X0217966Y0136808D01*
X0213935Y0141808D02*
X0214552Y0142426D01*
X0214552Y0143660D01*
X0213935Y0144277D01*
X0213318Y0144277D01*
X0212701Y0143660D01*
X0212701Y0143043D01*
X0212701Y0143660D02*
X0212084Y0144277D01*
X0211466Y0144277D01*
X0210849Y0143660D01*
X0210849Y0142426D01*
X0211466Y0141808D01*
X0217349Y0148660D02*
X0219201Y0146808D01*
X0219201Y0149277D01*
X0221052Y0148660D02*
X0217349Y0148660D01*
X0212701Y0151808D02*
X0212701Y0154277D01*
X0214552Y0153660D02*
X0210849Y0153660D01*
X0212701Y0151808D01*
X0217349Y0156808D02*
X0219201Y0156808D01*
X0218584Y0158043D01*
X0218584Y0158660D01*
X0219201Y0159277D01*
X0220435Y0159277D01*
X0221052Y0158660D01*
X0221052Y0157426D01*
X0220435Y0156808D01*
X0217349Y0156808D02*
X0217349Y0159277D01*
X0214552Y0162426D02*
X0213935Y0161808D01*
X0214552Y0162426D02*
X0214552Y0163660D01*
X0213935Y0164277D01*
X0212701Y0164277D01*
X0212084Y0163660D01*
X0212084Y0163043D01*
X0212701Y0161808D01*
X0210849Y0161808D01*
X0210849Y0164277D01*
X0217966Y0168043D02*
X0219201Y0166808D01*
X0219201Y0168660D01*
X0219818Y0169277D01*
X0220435Y0169277D01*
X0221052Y0168660D01*
X0221052Y0167426D01*
X0220435Y0166808D01*
X0219201Y0166808D01*
X0217966Y0168043D02*
X0217349Y0169277D01*
X0214552Y0172426D02*
X0214552Y0173660D01*
X0213935Y0174277D01*
X0213318Y0174277D01*
X0212701Y0173660D01*
X0212701Y0171808D01*
X0213935Y0171808D01*
X0214552Y0172426D01*
X0212701Y0171808D02*
X0211466Y0173043D01*
X0210849Y0174277D01*
X0217349Y0176808D02*
X0217349Y0179277D01*
X0217966Y0179277D01*
X0220435Y0176808D01*
X0221052Y0176808D01*
X0214552Y0181808D02*
X0213935Y0181808D01*
X0211466Y0184277D01*
X0210849Y0184277D01*
X0210849Y0181808D01*
X0217349Y0187426D02*
X0217349Y0188660D01*
X0217966Y0189277D01*
X0218584Y0189277D01*
X0219201Y0188660D01*
X0219201Y0187426D01*
X0218584Y0186808D01*
X0217966Y0186808D01*
X0217349Y0187426D01*
X0219201Y0187426D02*
X0219818Y0186808D01*
X0220435Y0186808D01*
X0221052Y0187426D01*
X0221052Y0188660D01*
X0220435Y0189277D01*
X0219818Y0189277D01*
X0219201Y0188660D01*
X0214552Y0192426D02*
X0213935Y0191808D01*
X0213318Y0191808D01*
X0212701Y0192426D01*
X0212701Y0193660D01*
X0213318Y0194277D01*
X0213935Y0194277D01*
X0214552Y0193660D01*
X0214552Y0192426D01*
X0212701Y0192426D02*
X0212084Y0191808D01*
X0211466Y0191808D01*
X0210849Y0192426D01*
X0210849Y0193660D01*
X0211466Y0194277D01*
X0212084Y0194277D01*
X0212701Y0193660D01*
X0217349Y0197426D02*
X0217966Y0196808D01*
X0218584Y0196808D01*
X0219201Y0197426D01*
X0219201Y0199277D01*
X0220435Y0199277D02*
X0217966Y0199277D01*
X0217349Y0198660D01*
X0217349Y0197426D01*
X0220435Y0196808D02*
X0221052Y0197426D01*
X0221052Y0198660D01*
X0220435Y0199277D01*
X0221052Y0204967D02*
X0221052Y0207436D01*
X0221052Y0206201D02*
X0217349Y0206201D01*
X0218584Y0204967D01*
X0217966Y0208650D02*
X0217349Y0209267D01*
X0217349Y0210502D01*
X0217966Y0211119D01*
X0220435Y0208650D01*
X0221052Y0209267D01*
X0221052Y0210502D01*
X0220435Y0211119D01*
X0217966Y0211119D01*
X0217966Y0208650D02*
X0220435Y0208650D01*
X0214552Y0209967D02*
X0214552Y0212436D01*
X0214552Y0211201D02*
X0210849Y0211201D01*
X0212084Y0209967D01*
X0211466Y0213650D02*
X0210849Y0214267D01*
X0210849Y0215502D01*
X0211466Y0216119D01*
X0213935Y0213650D01*
X0214552Y0214267D01*
X0214552Y0215502D01*
X0213935Y0216119D01*
X0211466Y0216119D01*
X0211466Y0213650D02*
X0213935Y0213650D01*
X0217349Y0216201D02*
X0221052Y0216201D01*
X0221052Y0214967D02*
X0221052Y0217436D01*
X0221052Y0218650D02*
X0221052Y0221119D01*
X0221052Y0219884D02*
X0217349Y0219884D01*
X0218584Y0218650D01*
X0217349Y0216201D02*
X0218584Y0214967D01*
X0214552Y0219967D02*
X0214552Y0222436D01*
X0214552Y0223650D02*
X0214552Y0226119D01*
X0214552Y0224884D02*
X0210849Y0224884D01*
X0212084Y0223650D01*
X0210849Y0221201D02*
X0214552Y0221201D01*
X0212084Y0219967D02*
X0210849Y0221201D01*
X0217349Y0226201D02*
X0221052Y0226201D01*
X0221052Y0224967D02*
X0221052Y0227436D01*
X0221052Y0228650D02*
X0218584Y0231119D01*
X0217966Y0231119D01*
X0217349Y0230502D01*
X0217349Y0229267D01*
X0217966Y0228650D01*
X0217349Y0226201D02*
X0218584Y0224967D01*
X0221052Y0228650D02*
X0221052Y0231119D01*
X0221052Y0234967D02*
X0221052Y0237436D01*
X0221052Y0236201D02*
X0217349Y0236201D01*
X0218584Y0234967D01*
X0217966Y0238650D02*
X0217349Y0239267D01*
X0217349Y0240502D01*
X0217966Y0241119D01*
X0218584Y0241119D01*
X0219201Y0240502D01*
X0219818Y0241119D01*
X0220435Y0241119D01*
X0221052Y0240502D01*
X0221052Y0239267D01*
X0220435Y0238650D01*
X0219201Y0239884D02*
X0219201Y0240502D01*
X0214552Y0239967D02*
X0214552Y0242436D01*
X0214552Y0241201D02*
X0210849Y0241201D01*
X0212084Y0239967D01*
X0211466Y0243650D02*
X0210849Y0244267D01*
X0210849Y0245502D01*
X0211466Y0246119D01*
X0212084Y0246119D01*
X0212701Y0245502D01*
X0213318Y0246119D01*
X0213935Y0246119D01*
X0214552Y0245502D01*
X0214552Y0244267D01*
X0213935Y0243650D01*
X0212701Y0244884D02*
X0212701Y0245502D01*
X0212084Y0249967D02*
X0210849Y0251201D01*
X0214552Y0251201D01*
X0214552Y0249967D02*
X0214552Y0252436D01*
X0212701Y0253650D02*
X0210849Y0255502D01*
X0214552Y0255502D01*
X0212701Y0256119D02*
X0212701Y0253650D01*
X0217349Y0256201D02*
X0221052Y0256201D01*
X0221052Y0254967D02*
X0221052Y0257436D01*
X0220435Y0258650D02*
X0221052Y0259267D01*
X0221052Y0260502D01*
X0220435Y0261119D01*
X0219201Y0261119D01*
X0218584Y0260502D01*
X0218584Y0259884D01*
X0219201Y0258650D01*
X0217349Y0258650D01*
X0217349Y0261119D01*
X0214552Y0261201D02*
X0210849Y0261201D01*
X0212084Y0259967D01*
X0214552Y0259967D02*
X0214552Y0262436D01*
X0213935Y0263650D02*
X0214552Y0264267D01*
X0214552Y0265502D01*
X0213935Y0266119D01*
X0212701Y0266119D01*
X0212084Y0265502D01*
X0212084Y0264884D01*
X0212701Y0263650D01*
X0210849Y0263650D01*
X0210849Y0266119D01*
X0212084Y0269967D02*
X0210849Y0271201D01*
X0214552Y0271201D01*
X0214552Y0269967D02*
X0214552Y0272436D01*
X0213935Y0273650D02*
X0214552Y0274267D01*
X0214552Y0275502D01*
X0213935Y0276119D01*
X0213318Y0276119D01*
X0212701Y0275502D01*
X0212701Y0273650D01*
X0213935Y0273650D01*
X0212701Y0273650D02*
X0211466Y0274884D01*
X0210849Y0276119D01*
X0212084Y0279967D02*
X0210849Y0281201D01*
X0214552Y0281201D01*
X0214552Y0279967D02*
X0214552Y0282436D01*
X0214552Y0283650D02*
X0213935Y0283650D01*
X0211466Y0286119D01*
X0210849Y0286119D01*
X0210849Y0283650D01*
X0212084Y0289967D02*
X0210849Y0291201D01*
X0214552Y0291201D01*
X0214552Y0289967D02*
X0214552Y0292436D01*
X0213935Y0293650D02*
X0213318Y0293650D01*
X0212701Y0294267D01*
X0212701Y0295502D01*
X0213318Y0296119D01*
X0213935Y0296119D01*
X0214552Y0295502D01*
X0214552Y0294267D01*
X0213935Y0293650D01*
X0212701Y0294267D02*
X0212084Y0293650D01*
X0211466Y0293650D01*
X0210849Y0294267D01*
X0210849Y0295502D01*
X0211466Y0296119D01*
X0212084Y0296119D01*
X0212701Y0295502D01*
X0211466Y0300625D02*
X0213935Y0300625D01*
X0214552Y0301242D01*
X0214552Y0302477D01*
X0213935Y0303094D01*
X0214552Y0304308D02*
X0210849Y0304308D01*
X0214552Y0306777D01*
X0210849Y0306777D01*
X0211466Y0307992D02*
X0210849Y0308609D01*
X0210849Y0309843D01*
X0211466Y0310460D01*
X0212084Y0310460D01*
X0214552Y0307992D01*
X0214552Y0310460D01*
X0211466Y0303094D02*
X0210849Y0302477D01*
X0210849Y0301242D01*
X0211466Y0300625D01*
X0217966Y0291119D02*
X0218584Y0291119D01*
X0219201Y0290502D01*
X0219201Y0289267D01*
X0218584Y0288650D01*
X0217966Y0288650D01*
X0217349Y0289267D01*
X0217349Y0290502D01*
X0217966Y0291119D01*
X0219201Y0290502D02*
X0219818Y0291119D01*
X0220435Y0291119D01*
X0221052Y0290502D01*
X0221052Y0289267D01*
X0220435Y0288650D01*
X0219818Y0288650D01*
X0219201Y0289267D01*
X0221052Y0287436D02*
X0221052Y0284967D01*
X0221052Y0286201D02*
X0217349Y0286201D01*
X0218584Y0284967D01*
X0217966Y0281119D02*
X0220435Y0278650D01*
X0221052Y0278650D01*
X0221052Y0277436D02*
X0221052Y0274967D01*
X0221052Y0276201D02*
X0217349Y0276201D01*
X0218584Y0274967D01*
X0217349Y0278650D02*
X0217349Y0281119D01*
X0217966Y0281119D01*
X0217349Y0271119D02*
X0217966Y0269884D01*
X0219201Y0268650D01*
X0219201Y0270502D01*
X0219818Y0271119D01*
X0220435Y0271119D01*
X0221052Y0270502D01*
X0221052Y0269267D01*
X0220435Y0268650D01*
X0219201Y0268650D01*
X0221052Y0267436D02*
X0221052Y0264967D01*
X0221052Y0266201D02*
X0217349Y0266201D01*
X0218584Y0264967D01*
X0217349Y0256201D02*
X0218584Y0254967D01*
X0219201Y0251119D02*
X0219201Y0248650D01*
X0217349Y0250502D01*
X0221052Y0250502D01*
X0221052Y0247436D02*
X0221052Y0244967D01*
X0221052Y0246201D02*
X0217349Y0246201D01*
X0218584Y0244967D01*
X0214552Y0236119D02*
X0214552Y0233650D01*
X0212084Y0236119D01*
X0211466Y0236119D01*
X0210849Y0235502D01*
X0210849Y0234267D01*
X0211466Y0233650D01*
X0210849Y0231201D02*
X0214552Y0231201D01*
X0214552Y0229967D02*
X0214552Y0232436D01*
X0212084Y0229967D02*
X0210849Y0231201D01*
X0211466Y0204277D02*
X0210849Y0203660D01*
X0210849Y0202426D01*
X0211466Y0201808D01*
X0212084Y0201808D01*
X0212701Y0202426D01*
X0212701Y0204277D01*
X0213935Y0204277D02*
X0211466Y0204277D01*
X0213935Y0204277D02*
X0214552Y0203660D01*
X0214552Y0202426D01*
X0213935Y0201808D01*
X0168052Y0207426D02*
X0168052Y0208660D01*
X0167435Y0209277D01*
X0164966Y0209277D01*
X0164349Y0208660D01*
X0164349Y0207426D01*
X0164966Y0206808D01*
X0165584Y0206808D01*
X0166201Y0207426D01*
X0166201Y0209277D01*
X0168052Y0207426D02*
X0167435Y0206808D01*
X0173701Y0244308D02*
X0173701Y0246160D01*
X0174318Y0246777D01*
X0174935Y0246777D01*
X0175552Y0246160D01*
X0175552Y0244926D01*
X0174935Y0244308D01*
X0173701Y0244308D01*
X0172466Y0245543D01*
X0171849Y0246777D01*
X0168052Y0247426D02*
X0167435Y0246808D01*
X0168052Y0247426D02*
X0168052Y0248660D01*
X0167435Y0249277D01*
X0166201Y0249277D01*
X0165584Y0248660D01*
X0165584Y0248043D01*
X0166201Y0246808D01*
X0164349Y0246808D01*
X0164349Y0249277D01*
X0171849Y0254308D02*
X0173701Y0254308D01*
X0173084Y0255543D01*
X0173084Y0256160D01*
X0173701Y0256777D01*
X0174935Y0256777D01*
X0175552Y0256160D01*
X0175552Y0254926D01*
X0174935Y0254308D01*
X0171849Y0254308D02*
X0171849Y0256777D01*
X0168052Y0258660D02*
X0164349Y0258660D01*
X0166201Y0256808D01*
X0166201Y0259277D01*
X0171849Y0266160D02*
X0173701Y0264308D01*
X0173701Y0266777D01*
X0175552Y0266160D02*
X0171849Y0266160D01*
X0168052Y0267426D02*
X0167435Y0266808D01*
X0168052Y0267426D02*
X0168052Y0268660D01*
X0167435Y0269277D01*
X0166818Y0269277D01*
X0166201Y0268660D01*
X0166201Y0268043D01*
X0166201Y0268660D02*
X0165584Y0269277D01*
X0164966Y0269277D01*
X0164349Y0268660D01*
X0164349Y0267426D01*
X0164966Y0266808D01*
X0172466Y0274308D02*
X0171849Y0274926D01*
X0171849Y0276160D01*
X0172466Y0276777D01*
X0173084Y0276777D01*
X0173701Y0276160D01*
X0174318Y0276777D01*
X0174935Y0276777D01*
X0175552Y0276160D01*
X0175552Y0274926D01*
X0174935Y0274308D01*
X0173701Y0275543D02*
X0173701Y0276160D01*
X0168052Y0276808D02*
X0168052Y0279277D01*
X0165584Y0279277D02*
X0168052Y0276808D01*
X0164966Y0276808D02*
X0164349Y0277426D01*
X0164349Y0278660D01*
X0164966Y0279277D01*
X0165584Y0279277D01*
X0165584Y0286808D02*
X0164349Y0288043D01*
X0168052Y0288043D01*
X0168052Y0289277D02*
X0168052Y0286808D01*
X0171849Y0286160D02*
X0171849Y0284926D01*
X0172466Y0284308D01*
X0171849Y0286160D02*
X0172466Y0286777D01*
X0173084Y0286777D01*
X0175552Y0284308D01*
X0175552Y0286777D01*
X0175552Y0294308D02*
X0175552Y0296777D01*
X0175552Y0295543D02*
X0171849Y0295543D01*
X0173084Y0294308D01*
X0172966Y0300625D02*
X0175435Y0300625D01*
X0176052Y0301242D01*
X0176052Y0302477D01*
X0175435Y0303094D01*
X0176052Y0304308D02*
X0172349Y0304308D01*
X0176052Y0306777D01*
X0172349Y0306777D01*
X0173584Y0307992D02*
X0172349Y0309226D01*
X0176052Y0309226D01*
X0176052Y0307992D02*
X0176052Y0310460D01*
X0172966Y0303094D02*
X0172349Y0302477D01*
X0172349Y0301242D01*
X0172966Y0300625D01*
X0359349Y0288043D02*
X0363052Y0288043D01*
X0363052Y0289277D02*
X0363052Y0286808D01*
X0360584Y0286808D02*
X0359349Y0288043D01*
X0366849Y0286160D02*
X0366849Y0284926D01*
X0367466Y0284308D01*
X0366849Y0286160D02*
X0367466Y0286777D01*
X0368084Y0286777D01*
X0370552Y0284308D01*
X0370552Y0286777D01*
X0370552Y0294308D02*
X0370552Y0296777D01*
X0370552Y0295543D02*
X0366849Y0295543D01*
X0368084Y0294308D01*
X0367966Y0300625D02*
X0370435Y0300625D01*
X0371052Y0301242D01*
X0371052Y0302477D01*
X0370435Y0303094D01*
X0371052Y0304308D02*
X0367349Y0304308D01*
X0371052Y0306777D01*
X0367349Y0306777D01*
X0368584Y0307992D02*
X0367349Y0309226D01*
X0371052Y0309226D01*
X0371052Y0307992D02*
X0371052Y0310460D01*
X0367966Y0303094D02*
X0367349Y0302477D01*
X0367349Y0301242D01*
X0367966Y0300625D01*
X0363052Y0279277D02*
X0363052Y0276808D01*
X0360584Y0279277D01*
X0359966Y0279277D01*
X0359349Y0278660D01*
X0359349Y0277426D01*
X0359966Y0276808D01*
X0366849Y0276160D02*
X0366849Y0274926D01*
X0367466Y0274308D01*
X0368701Y0275543D02*
X0368701Y0276160D01*
X0369318Y0276777D01*
X0369935Y0276777D01*
X0370552Y0276160D01*
X0370552Y0274926D01*
X0369935Y0274308D01*
X0368701Y0276160D02*
X0368084Y0276777D01*
X0367466Y0276777D01*
X0366849Y0276160D01*
X0362435Y0269277D02*
X0363052Y0268660D01*
X0363052Y0267426D01*
X0362435Y0266808D01*
X0361201Y0268043D02*
X0361201Y0268660D01*
X0361818Y0269277D01*
X0362435Y0269277D01*
X0361201Y0268660D02*
X0360584Y0269277D01*
X0359966Y0269277D01*
X0359349Y0268660D01*
X0359349Y0267426D01*
X0359966Y0266808D01*
X0366849Y0266160D02*
X0368701Y0264308D01*
X0368701Y0266777D01*
X0370552Y0266160D02*
X0366849Y0266160D01*
X0363052Y0258660D02*
X0359349Y0258660D01*
X0361201Y0256808D01*
X0361201Y0259277D01*
X0366849Y0256777D02*
X0366849Y0254308D01*
X0368701Y0254308D01*
X0368084Y0255543D01*
X0368084Y0256160D01*
X0368701Y0256777D01*
X0369935Y0256777D01*
X0370552Y0256160D01*
X0370552Y0254926D01*
X0369935Y0254308D01*
X0363052Y0248660D02*
X0363052Y0247426D01*
X0362435Y0246808D01*
X0361201Y0246808D02*
X0360584Y0248043D01*
X0360584Y0248660D01*
X0361201Y0249277D01*
X0362435Y0249277D01*
X0363052Y0248660D01*
X0361201Y0246808D02*
X0359349Y0246808D01*
X0359349Y0249277D01*
X0366849Y0246777D02*
X0367466Y0245543D01*
X0368701Y0244308D01*
X0368701Y0246160D01*
X0369318Y0246777D01*
X0369935Y0246777D01*
X0370552Y0246160D01*
X0370552Y0244926D01*
X0369935Y0244308D01*
X0368701Y0244308D01*
X0363052Y0238660D02*
X0362435Y0239277D01*
X0361818Y0239277D01*
X0361201Y0238660D01*
X0361201Y0236808D01*
X0362435Y0236808D01*
X0363052Y0237426D01*
X0363052Y0238660D01*
X0361201Y0236808D02*
X0359966Y0238043D01*
X0359349Y0239277D01*
X0366849Y0236777D02*
X0366849Y0234308D01*
X0366849Y0236777D02*
X0367466Y0236777D01*
X0369935Y0234308D01*
X0370552Y0234308D01*
X0369935Y0226777D02*
X0370552Y0226160D01*
X0370552Y0224926D01*
X0369935Y0224308D01*
X0369318Y0224308D01*
X0368701Y0224926D01*
X0368701Y0226160D01*
X0369318Y0226777D01*
X0369935Y0226777D01*
X0368701Y0226160D02*
X0368084Y0226777D01*
X0367466Y0226777D01*
X0366849Y0226160D01*
X0366849Y0224926D01*
X0367466Y0224308D01*
X0368084Y0224308D01*
X0368701Y0224926D01*
X0363052Y0226808D02*
X0362435Y0226808D01*
X0359966Y0229277D01*
X0359349Y0229277D01*
X0359349Y0226808D01*
X0359966Y0219277D02*
X0360584Y0219277D01*
X0361201Y0218660D01*
X0361201Y0217426D01*
X0360584Y0216808D01*
X0359966Y0216808D01*
X0359349Y0217426D01*
X0359349Y0218660D01*
X0359966Y0219277D01*
X0361201Y0218660D02*
X0361818Y0219277D01*
X0362435Y0219277D01*
X0363052Y0218660D01*
X0363052Y0217426D01*
X0362435Y0216808D01*
X0361818Y0216808D01*
X0361201Y0217426D01*
X0366849Y0216160D02*
X0366849Y0214926D01*
X0367466Y0214308D01*
X0368084Y0214308D01*
X0368701Y0214926D01*
X0368701Y0216777D01*
X0369935Y0216777D02*
X0367466Y0216777D01*
X0366849Y0216160D01*
X0369935Y0216777D02*
X0370552Y0216160D01*
X0370552Y0214926D01*
X0369935Y0214308D01*
X0369935Y0208619D02*
X0370552Y0208002D01*
X0370552Y0206767D01*
X0369935Y0206150D01*
X0367466Y0208619D01*
X0369935Y0208619D01*
X0367466Y0208619D02*
X0366849Y0208002D01*
X0366849Y0206767D01*
X0367466Y0206150D01*
X0369935Y0206150D01*
X0370552Y0204936D02*
X0370552Y0202467D01*
X0370552Y0203701D02*
X0366849Y0203701D01*
X0368084Y0202467D01*
X0370552Y0198619D02*
X0370552Y0196150D01*
X0370552Y0194936D02*
X0370552Y0192467D01*
X0370552Y0193701D02*
X0366849Y0193701D01*
X0368084Y0192467D01*
X0368084Y0196150D02*
X0366849Y0197384D01*
X0370552Y0197384D01*
X0363052Y0197436D02*
X0363052Y0194967D01*
X0363052Y0196201D02*
X0359349Y0196201D01*
X0360584Y0194967D01*
X0359966Y0198650D02*
X0359349Y0199267D01*
X0359349Y0200502D01*
X0359966Y0201119D01*
X0362435Y0198650D01*
X0363052Y0199267D01*
X0363052Y0200502D01*
X0362435Y0201119D01*
X0359966Y0201119D01*
X0359966Y0198650D02*
X0362435Y0198650D01*
X0363052Y0191119D02*
X0363052Y0188650D01*
X0363052Y0187436D02*
X0363052Y0184967D01*
X0363052Y0186201D02*
X0359349Y0186201D01*
X0360584Y0184967D01*
X0360584Y0188650D02*
X0359349Y0189884D01*
X0363052Y0189884D01*
X0366849Y0188002D02*
X0366849Y0186767D01*
X0367466Y0186150D01*
X0366849Y0188002D02*
X0367466Y0188619D01*
X0368084Y0188619D01*
X0370552Y0186150D01*
X0370552Y0188619D01*
X0370552Y0184936D02*
X0370552Y0182467D01*
X0370552Y0183701D02*
X0366849Y0183701D01*
X0368084Y0182467D01*
X0368084Y0178619D02*
X0368701Y0178002D01*
X0369318Y0178619D01*
X0369935Y0178619D01*
X0370552Y0178002D01*
X0370552Y0176767D01*
X0369935Y0176150D01*
X0370552Y0174936D02*
X0370552Y0172467D01*
X0370552Y0173701D02*
X0366849Y0173701D01*
X0368084Y0172467D01*
X0367466Y0176150D02*
X0366849Y0176767D01*
X0366849Y0178002D01*
X0367466Y0178619D01*
X0368084Y0178619D01*
X0368701Y0178002D02*
X0368701Y0177384D01*
X0363052Y0177436D02*
X0363052Y0174967D01*
X0363052Y0176201D02*
X0359349Y0176201D01*
X0360584Y0174967D01*
X0359966Y0178650D02*
X0359349Y0179267D01*
X0359349Y0180502D01*
X0359966Y0181119D01*
X0360584Y0181119D01*
X0363052Y0178650D01*
X0363052Y0181119D01*
X0362435Y0171119D02*
X0363052Y0170502D01*
X0363052Y0169267D01*
X0362435Y0168650D01*
X0363052Y0167436D02*
X0363052Y0164967D01*
X0363052Y0166201D02*
X0359349Y0166201D01*
X0360584Y0164967D01*
X0359966Y0168650D02*
X0359349Y0169267D01*
X0359349Y0170502D01*
X0359966Y0171119D01*
X0360584Y0171119D01*
X0361201Y0170502D01*
X0361818Y0171119D01*
X0362435Y0171119D01*
X0361201Y0170502D02*
X0361201Y0169884D01*
X0366849Y0168002D02*
X0368701Y0166150D01*
X0368701Y0168619D01*
X0370552Y0168002D02*
X0366849Y0168002D01*
X0366849Y0163701D02*
X0370552Y0163701D01*
X0370552Y0162467D02*
X0370552Y0164936D01*
X0368084Y0162467D02*
X0366849Y0163701D01*
X0363052Y0160502D02*
X0359349Y0160502D01*
X0361201Y0158650D01*
X0361201Y0161119D01*
X0363052Y0157436D02*
X0363052Y0154967D01*
X0363052Y0156201D02*
X0359349Y0156201D01*
X0360584Y0154967D01*
X0361201Y0151119D02*
X0362435Y0151119D01*
X0363052Y0150502D01*
X0363052Y0149267D01*
X0362435Y0148650D01*
X0361201Y0148650D02*
X0360584Y0149884D01*
X0360584Y0150502D01*
X0361201Y0151119D01*
X0359349Y0151119D02*
X0359349Y0148650D01*
X0361201Y0148650D01*
X0363052Y0147436D02*
X0363052Y0144967D01*
X0363052Y0146201D02*
X0359349Y0146201D01*
X0360584Y0144967D01*
X0361818Y0141119D02*
X0361201Y0140502D01*
X0361201Y0138650D01*
X0362435Y0138650D01*
X0363052Y0139267D01*
X0363052Y0140502D01*
X0362435Y0141119D01*
X0361818Y0141119D01*
X0359966Y0139884D02*
X0361201Y0138650D01*
X0359966Y0139884D02*
X0359349Y0141119D01*
X0363052Y0137436D02*
X0363052Y0134967D01*
X0363052Y0136201D02*
X0359349Y0136201D01*
X0360584Y0134967D01*
X0359966Y0131119D02*
X0359349Y0131119D01*
X0359349Y0128650D01*
X0359349Y0126201D02*
X0363052Y0126201D01*
X0363052Y0124967D02*
X0363052Y0127436D01*
X0363052Y0128650D02*
X0362435Y0128650D01*
X0359966Y0131119D01*
X0366849Y0133701D02*
X0370552Y0133701D01*
X0370552Y0132467D02*
X0370552Y0134936D01*
X0370552Y0136150D02*
X0369935Y0136150D01*
X0367466Y0138619D01*
X0366849Y0138619D01*
X0366849Y0136150D01*
X0366849Y0133701D02*
X0368084Y0132467D01*
X0368084Y0128619D02*
X0368701Y0128002D01*
X0368701Y0126767D01*
X0368084Y0126150D01*
X0367466Y0126150D01*
X0366849Y0126767D01*
X0366849Y0128002D01*
X0367466Y0128619D01*
X0368084Y0128619D01*
X0368701Y0128002D02*
X0369318Y0128619D01*
X0369935Y0128619D01*
X0370552Y0128002D01*
X0370552Y0126767D01*
X0369935Y0126150D01*
X0369318Y0126150D01*
X0368701Y0126767D01*
X0370552Y0124936D02*
X0370552Y0122467D01*
X0370552Y0123701D02*
X0366849Y0123701D01*
X0368084Y0122467D01*
X0363052Y0120502D02*
X0363052Y0119267D01*
X0362435Y0118650D01*
X0361818Y0118650D01*
X0361201Y0119267D01*
X0361201Y0120502D01*
X0361818Y0121119D01*
X0362435Y0121119D01*
X0363052Y0120502D01*
X0361201Y0120502D02*
X0360584Y0121119D01*
X0359966Y0121119D01*
X0359349Y0120502D01*
X0359349Y0119267D01*
X0359966Y0118650D01*
X0360584Y0118650D01*
X0361201Y0119267D01*
X0363052Y0117436D02*
X0363052Y0114967D01*
X0363052Y0116201D02*
X0359349Y0116201D01*
X0360584Y0114967D01*
X0360584Y0124967D02*
X0359349Y0126201D01*
X0368084Y0142467D02*
X0366849Y0143701D01*
X0370552Y0143701D01*
X0370552Y0142467D02*
X0370552Y0144936D01*
X0369935Y0146150D02*
X0370552Y0146767D01*
X0370552Y0148002D01*
X0369935Y0148619D01*
X0369318Y0148619D01*
X0368701Y0148002D01*
X0368701Y0146150D01*
X0369935Y0146150D01*
X0368701Y0146150D02*
X0367466Y0147384D01*
X0366849Y0148619D01*
X0368084Y0152467D02*
X0366849Y0153701D01*
X0370552Y0153701D01*
X0370552Y0152467D02*
X0370552Y0154936D01*
X0369935Y0156150D02*
X0370552Y0156767D01*
X0370552Y0158002D01*
X0369935Y0158619D01*
X0368701Y0158619D01*
X0368084Y0158002D01*
X0368084Y0157384D01*
X0368701Y0156150D01*
X0366849Y0156150D01*
X0366849Y0158619D01*
X0362435Y0206808D02*
X0363052Y0207426D01*
X0363052Y0208660D01*
X0362435Y0209277D01*
X0359966Y0209277D01*
X0359349Y0208660D01*
X0359349Y0207426D01*
X0359966Y0206808D01*
X0360584Y0206808D01*
X0361201Y0207426D01*
X0361201Y0209277D01*
X0383652Y0093822D02*
X0383652Y0091887D01*
X0383652Y0092855D02*
X0380750Y0092855D01*
X0381717Y0091887D01*
X0383169Y0090898D02*
X0383652Y0090898D01*
X0383652Y0090414D01*
X0383169Y0090414D01*
X0383169Y0090898D01*
X0383169Y0089403D02*
X0383652Y0088919D01*
X0383652Y0087951D01*
X0383169Y0087468D01*
X0381234Y0089403D01*
X0383169Y0089403D01*
X0383169Y0087468D02*
X0381234Y0087468D01*
X0380750Y0087951D01*
X0380750Y0088919D01*
X0381234Y0089403D01*
X0381717Y0086456D02*
X0383652Y0085489D01*
X0381717Y0084521D01*
X0381234Y0080563D02*
X0380750Y0080079D01*
X0380750Y0078628D01*
X0383652Y0078628D01*
X0383652Y0080079D01*
X0383169Y0080563D01*
X0381234Y0080563D01*
X0383652Y0077617D02*
X0383652Y0075682D01*
X0380750Y0075682D01*
X0380750Y0074670D02*
X0380750Y0072735D01*
X0383652Y0072735D01*
X0383652Y0074670D01*
X0382201Y0073703D02*
X0382201Y0072735D01*
X0380750Y0071738D02*
X0380750Y0070771D01*
X0380750Y0071254D02*
X0383652Y0071254D01*
X0383652Y0070771D02*
X0383652Y0071738D01*
X0383652Y0069759D02*
X0380750Y0069759D01*
X0382201Y0069759D02*
X0382201Y0067824D01*
X0382685Y0066813D02*
X0382201Y0066329D01*
X0382201Y0065361D01*
X0381717Y0064878D01*
X0381234Y0064878D01*
X0380750Y0065361D01*
X0380750Y0066329D01*
X0381234Y0066813D01*
X0380750Y0067824D02*
X0383652Y0067824D01*
X0383169Y0066813D02*
X0383652Y0066329D01*
X0383652Y0065361D01*
X0383169Y0064878D01*
X0382201Y0063866D02*
X0382201Y0061931D01*
X0380750Y0060920D02*
X0380750Y0058985D01*
X0380750Y0059952D02*
X0383652Y0059952D01*
X0383169Y0057973D02*
X0381234Y0057973D01*
X0380750Y0057489D01*
X0380750Y0056522D01*
X0381234Y0056038D01*
X0383169Y0056038D01*
X0383652Y0056522D01*
X0383652Y0057489D01*
X0383169Y0057973D01*
X0383652Y0055027D02*
X0382685Y0054059D01*
X0382685Y0054543D02*
X0382685Y0053092D01*
X0383652Y0053092D02*
X0380750Y0053092D01*
X0380750Y0054543D01*
X0381234Y0055027D01*
X0382201Y0055027D01*
X0382685Y0054543D01*
X0382201Y0052080D02*
X0382685Y0051596D01*
X0382685Y0050145D01*
X0383652Y0050145D02*
X0380750Y0050145D01*
X0380750Y0051596D01*
X0381234Y0052080D01*
X0382201Y0052080D01*
X0382201Y0049134D02*
X0382201Y0047199D01*
X0383652Y0046187D02*
X0380750Y0046187D01*
X0380750Y0044252D02*
X0383652Y0046187D01*
X0383652Y0044252D02*
X0380750Y0044252D01*
X0380750Y0043241D02*
X0383652Y0043241D01*
X0383652Y0041306D02*
X0380750Y0041306D01*
X0381717Y0042273D01*
X0380750Y0043241D01*
X0381234Y0040294D02*
X0382201Y0040294D01*
X0382685Y0039810D01*
X0382685Y0038359D01*
X0383652Y0038359D02*
X0380750Y0038359D01*
X0380750Y0039810D01*
X0381234Y0040294D01*
X0382685Y0039327D02*
X0383652Y0040294D01*
X0383652Y0037348D02*
X0380750Y0037348D01*
X0382201Y0037348D02*
X0382201Y0035413D01*
X0381234Y0034401D02*
X0380750Y0033917D01*
X0380750Y0032950D01*
X0381234Y0032466D01*
X0383169Y0032466D01*
X0383652Y0032950D01*
X0383652Y0033917D01*
X0383169Y0034401D01*
X0383652Y0035413D02*
X0380750Y0035413D01*
X0382685Y0066813D02*
X0383169Y0066813D01*
D12*
X0379828Y0120862D02*
X0374828Y0120862D01*
X0372328Y0123362D01*
X0372328Y0128362D01*
X0374828Y0130862D01*
X0372328Y0133362D01*
X0372328Y0138362D01*
X0374828Y0140862D01*
X0372328Y0143362D01*
X0372328Y0148362D01*
X0374828Y0150862D01*
X0372328Y0153362D01*
X0372328Y0158362D01*
X0374828Y0160862D01*
X0372328Y0163362D01*
X0372328Y0168362D01*
X0374828Y0170862D01*
X0372328Y0173362D01*
X0372328Y0178362D01*
X0374828Y0180862D01*
X0372328Y0183362D01*
X0372328Y0188362D01*
X0374828Y0190862D01*
X0372328Y0193362D01*
X0372328Y0198362D01*
X0374828Y0200862D01*
X0372328Y0203362D01*
X0372328Y0208362D01*
X0374828Y0210862D01*
X0372328Y0213362D01*
X0372328Y0218362D01*
X0374828Y0220862D01*
X0372328Y0223362D01*
X0372328Y0228362D01*
X0374828Y0230862D01*
X0372328Y0233362D01*
X0372328Y0238362D01*
X0374828Y0240862D01*
X0372328Y0243362D01*
X0372328Y0248362D01*
X0374828Y0250862D01*
X0372328Y0253362D01*
X0372328Y0258362D01*
X0374828Y0260862D01*
X0372328Y0263362D01*
X0372328Y0268362D01*
X0374828Y0270862D01*
X0372328Y0273362D01*
X0372328Y0278362D01*
X0374828Y0280862D01*
X0372328Y0283362D01*
X0372328Y0288362D01*
X0374828Y0290862D01*
X0372328Y0293362D01*
X0372328Y0298362D01*
X0374828Y0300862D01*
X0379828Y0300862D01*
X0382328Y0298362D01*
X0382328Y0293362D01*
X0379828Y0290862D01*
X0382328Y0288362D01*
X0382328Y0283362D01*
X0379828Y0280862D01*
X0374828Y0280862D01*
X0379828Y0280862D02*
X0382328Y0278362D01*
X0382328Y0273362D01*
X0379828Y0270862D01*
X0382328Y0268362D01*
X0382328Y0263362D01*
X0379828Y0260862D01*
X0382328Y0258362D01*
X0382328Y0253362D01*
X0379828Y0250862D01*
X0374828Y0250862D01*
X0379828Y0250862D02*
X0382328Y0248362D01*
X0382328Y0243362D01*
X0379828Y0240862D01*
X0382328Y0238362D01*
X0382328Y0233362D01*
X0379828Y0230862D01*
X0382328Y0228362D01*
X0382328Y0223362D01*
X0379828Y0220862D01*
X0374828Y0220862D01*
X0379828Y0220862D02*
X0382328Y0218362D01*
X0382328Y0213362D01*
X0379828Y0210862D01*
X0382328Y0208362D01*
X0382328Y0203362D01*
X0379828Y0200862D01*
X0382328Y0198362D01*
X0382328Y0193362D01*
X0379828Y0190862D01*
X0374828Y0190862D01*
X0379828Y0190862D02*
X0382328Y0188362D01*
X0382328Y0183362D01*
X0379828Y0180862D01*
X0382328Y0178362D01*
X0382328Y0173362D01*
X0379828Y0170862D01*
X0382328Y0168362D01*
X0382328Y0163362D01*
X0379828Y0160862D01*
X0374828Y0160862D01*
X0379828Y0160862D02*
X0382328Y0158362D01*
X0382328Y0153362D01*
X0379828Y0150862D01*
X0382328Y0148362D01*
X0382328Y0143362D01*
X0379828Y0140862D01*
X0382328Y0138362D01*
X0382328Y0133362D01*
X0379828Y0130862D01*
X0382328Y0128362D01*
X0382328Y0123362D01*
X0379828Y0120862D01*
X0379828Y0130862D02*
X0374828Y0130862D01*
X0374828Y0140862D02*
X0379828Y0140862D01*
X0379828Y0150862D02*
X0374828Y0150862D01*
X0374828Y0170862D02*
X0379828Y0170862D01*
X0379828Y0180862D02*
X0374828Y0180862D01*
X0374828Y0200862D02*
X0379828Y0200862D01*
X0379828Y0210862D02*
X0374828Y0210862D01*
X0374828Y0230862D02*
X0379828Y0230862D01*
X0379828Y0240862D02*
X0374828Y0240862D01*
X0374828Y0260862D02*
X0379828Y0260862D01*
X0379828Y0270862D02*
X0374828Y0270862D01*
X0374828Y0290862D02*
X0379828Y0290862D01*
X0209100Y0290961D02*
X0206600Y0288461D01*
X0209100Y0285961D01*
X0209100Y0280961D01*
X0206600Y0278461D01*
X0209100Y0275961D01*
X0209100Y0270961D01*
X0206600Y0268461D01*
X0209100Y0265961D01*
X0209100Y0260961D01*
X0206600Y0258461D01*
X0209100Y0255961D01*
X0209100Y0250961D01*
X0206600Y0248461D01*
X0209100Y0245961D01*
X0209100Y0240961D01*
X0206600Y0238461D01*
X0209100Y0235961D01*
X0209100Y0230961D01*
X0206600Y0228461D01*
X0209100Y0225961D01*
X0209100Y0220961D01*
X0206600Y0218461D01*
X0209100Y0215961D01*
X0209100Y0210961D01*
X0206600Y0208461D01*
X0209100Y0205961D01*
X0209100Y0200961D01*
X0206600Y0198461D01*
X0209100Y0195961D01*
X0209100Y0190961D01*
X0206600Y0188461D01*
X0209100Y0185961D01*
X0209100Y0180961D01*
X0206600Y0178461D01*
X0209100Y0175961D01*
X0209100Y0170961D01*
X0206600Y0168461D01*
X0209100Y0165961D01*
X0209100Y0160961D01*
X0206600Y0158461D01*
X0209100Y0155961D01*
X0209100Y0150961D01*
X0206600Y0148461D01*
X0209100Y0145961D01*
X0209100Y0140961D01*
X0206600Y0138461D01*
X0209100Y0135961D01*
X0209100Y0130961D01*
X0206600Y0128461D01*
X0209100Y0125961D01*
X0209100Y0120961D01*
X0206600Y0118461D01*
X0201600Y0118461D01*
X0199100Y0120961D01*
X0199100Y0125961D01*
X0201600Y0128461D01*
X0199100Y0130961D01*
X0199100Y0135961D01*
X0201600Y0138461D01*
X0206600Y0138461D01*
X0201600Y0138461D02*
X0199100Y0140961D01*
X0199100Y0145961D01*
X0201600Y0148461D01*
X0199100Y0150961D01*
X0199100Y0155961D01*
X0201600Y0158461D01*
X0199100Y0160961D01*
X0199100Y0165961D01*
X0201600Y0168461D01*
X0206600Y0168461D01*
X0201600Y0168461D02*
X0199100Y0170961D01*
X0199100Y0175961D01*
X0201600Y0178461D01*
X0199100Y0180961D01*
X0199100Y0185961D01*
X0201600Y0188461D01*
X0199100Y0190961D01*
X0199100Y0195961D01*
X0201600Y0198461D01*
X0206600Y0198461D01*
X0201600Y0198461D02*
X0199100Y0200961D01*
X0199100Y0205961D01*
X0201600Y0208461D01*
X0199100Y0210961D01*
X0199100Y0215961D01*
X0201600Y0218461D01*
X0199100Y0220961D01*
X0199100Y0225961D01*
X0201600Y0228461D01*
X0206600Y0228461D01*
X0201600Y0228461D02*
X0199100Y0230961D01*
X0199100Y0235961D01*
X0201600Y0238461D01*
X0199100Y0240961D01*
X0199100Y0245961D01*
X0201600Y0248461D01*
X0199100Y0250961D01*
X0199100Y0255961D01*
X0201600Y0258461D01*
X0206600Y0258461D01*
X0201600Y0258461D02*
X0199100Y0260961D01*
X0199100Y0265961D01*
X0201600Y0268461D01*
X0199100Y0270961D01*
X0199100Y0275961D01*
X0201600Y0278461D01*
X0199100Y0280961D01*
X0199100Y0285961D01*
X0201600Y0288461D01*
X0199100Y0290961D01*
X0199100Y0295961D01*
X0201600Y0298461D01*
X0206600Y0298461D01*
X0209100Y0295961D01*
X0209100Y0290961D01*
X0206600Y0288461D02*
X0201600Y0288461D01*
X0201600Y0278461D02*
X0206600Y0278461D01*
X0206600Y0268461D02*
X0201600Y0268461D01*
X0187328Y0268362D02*
X0187328Y0263362D01*
X0184828Y0260862D01*
X0187328Y0258362D01*
X0187328Y0253362D01*
X0184828Y0250862D01*
X0179828Y0250862D01*
X0177328Y0253362D01*
X0177328Y0258362D01*
X0179828Y0260862D01*
X0177328Y0263362D01*
X0177328Y0268362D01*
X0179828Y0270862D01*
X0177328Y0273362D01*
X0177328Y0278362D01*
X0179828Y0280862D01*
X0177328Y0283362D01*
X0177328Y0288362D01*
X0179828Y0290862D01*
X0177328Y0293362D01*
X0177328Y0298362D01*
X0179828Y0300862D01*
X0184828Y0300862D01*
X0187328Y0298362D01*
X0187328Y0293362D01*
X0184828Y0290862D01*
X0187328Y0288362D01*
X0187328Y0283362D01*
X0184828Y0280862D01*
X0179828Y0280862D01*
X0184828Y0280862D02*
X0187328Y0278362D01*
X0187328Y0273362D01*
X0184828Y0270862D01*
X0187328Y0268362D01*
X0184828Y0270862D02*
X0179828Y0270862D01*
X0179828Y0260862D02*
X0184828Y0260862D01*
X0184828Y0250862D02*
X0187328Y0248362D01*
X0187328Y0243362D01*
X0184828Y0240862D01*
X0187328Y0238362D01*
X0187328Y0233362D01*
X0184828Y0230862D01*
X0187328Y0228362D01*
X0187328Y0223362D01*
X0184828Y0220862D01*
X0179828Y0220862D01*
X0177328Y0223362D01*
X0177328Y0228362D01*
X0179828Y0230862D01*
X0177328Y0233362D01*
X0177328Y0238362D01*
X0179828Y0240862D01*
X0177328Y0243362D01*
X0177328Y0248362D01*
X0179828Y0250862D01*
X0179828Y0240862D02*
X0184828Y0240862D01*
X0184828Y0230862D02*
X0179828Y0230862D01*
X0179828Y0220862D02*
X0177328Y0218362D01*
X0177328Y0213362D01*
X0179828Y0210862D01*
X0177328Y0208362D01*
X0177328Y0203362D01*
X0179828Y0200862D01*
X0177328Y0198362D01*
X0177328Y0193362D01*
X0179828Y0190862D01*
X0184828Y0190862D01*
X0187328Y0193362D01*
X0187328Y0198362D01*
X0184828Y0200862D01*
X0179828Y0200862D01*
X0184828Y0200862D02*
X0187328Y0203362D01*
X0187328Y0208362D01*
X0184828Y0210862D01*
X0179828Y0210862D01*
X0184828Y0210862D02*
X0187328Y0213362D01*
X0187328Y0218362D01*
X0184828Y0220862D01*
X0201600Y0218461D02*
X0206600Y0218461D01*
X0206600Y0208461D02*
X0201600Y0208461D01*
X0184828Y0190862D02*
X0187328Y0188362D01*
X0187328Y0183362D01*
X0184828Y0180862D01*
X0187328Y0178362D01*
X0187328Y0173362D01*
X0184828Y0170862D01*
X0187328Y0168362D01*
X0187328Y0163362D01*
X0184828Y0160862D01*
X0179828Y0160862D01*
X0177328Y0163362D01*
X0177328Y0168362D01*
X0179828Y0170862D01*
X0177328Y0173362D01*
X0177328Y0178362D01*
X0179828Y0180862D01*
X0177328Y0183362D01*
X0177328Y0188362D01*
X0179828Y0190862D01*
X0179828Y0180862D02*
X0184828Y0180862D01*
X0184828Y0170862D02*
X0179828Y0170862D01*
X0179828Y0160862D02*
X0177328Y0158362D01*
X0177328Y0153362D01*
X0179828Y0150862D01*
X0177328Y0148362D01*
X0177328Y0143362D01*
X0179828Y0140862D01*
X0177328Y0138362D01*
X0177328Y0133362D01*
X0179828Y0130862D01*
X0177328Y0128362D01*
X0177328Y0123362D01*
X0179828Y0120862D01*
X0184828Y0120862D01*
X0187328Y0123362D01*
X0187328Y0128362D01*
X0184828Y0130862D01*
X0179828Y0130862D01*
X0184828Y0130862D02*
X0187328Y0133362D01*
X0187328Y0138362D01*
X0184828Y0140862D01*
X0179828Y0140862D01*
X0184828Y0140862D02*
X0187328Y0143362D01*
X0187328Y0148362D01*
X0184828Y0150862D01*
X0179828Y0150862D01*
X0184828Y0150862D02*
X0187328Y0153362D01*
X0187328Y0158362D01*
X0184828Y0160862D01*
X0201600Y0158461D02*
X0206600Y0158461D01*
X0206600Y0148461D02*
X0201600Y0148461D01*
X0201600Y0128461D02*
X0206600Y0128461D01*
X0206600Y0178461D02*
X0201600Y0178461D01*
X0201600Y0188461D02*
X0206600Y0188461D01*
X0206600Y0238461D02*
X0201600Y0238461D01*
X0201600Y0248461D02*
X0206600Y0248461D01*
X0184828Y0290862D02*
X0179828Y0290862D01*
X0014100Y0290961D02*
X0011600Y0288461D01*
X0014100Y0285961D01*
X0014100Y0280961D01*
X0011600Y0278461D01*
X0014100Y0275961D01*
X0014100Y0270961D01*
X0011600Y0268461D01*
X0014100Y0265961D01*
X0014100Y0260961D01*
X0011600Y0258461D01*
X0014100Y0255961D01*
X0014100Y0250961D01*
X0011600Y0248461D01*
X0014100Y0245961D01*
X0014100Y0240961D01*
X0011600Y0238461D01*
X0014100Y0235961D01*
X0014100Y0230961D01*
X0011600Y0228461D01*
X0014100Y0225961D01*
X0014100Y0220961D01*
X0011600Y0218461D01*
X0014100Y0215961D01*
X0014100Y0210961D01*
X0011600Y0208461D01*
X0014100Y0205961D01*
X0014100Y0200961D01*
X0011600Y0198461D01*
X0014100Y0195961D01*
X0014100Y0190961D01*
X0011600Y0188461D01*
X0014100Y0185961D01*
X0014100Y0180961D01*
X0011600Y0178461D01*
X0014100Y0175961D01*
X0014100Y0170961D01*
X0011600Y0168461D01*
X0014100Y0165961D01*
X0014100Y0160961D01*
X0011600Y0158461D01*
X0014100Y0155961D01*
X0014100Y0150961D01*
X0011600Y0148461D01*
X0014100Y0145961D01*
X0014100Y0140961D01*
X0011600Y0138461D01*
X0014100Y0135961D01*
X0014100Y0130961D01*
X0011600Y0128461D01*
X0014100Y0125961D01*
X0014100Y0120961D01*
X0011600Y0118461D01*
X0006600Y0118461D01*
X0004100Y0120961D01*
X0004100Y0125961D01*
X0006600Y0128461D01*
X0004100Y0130961D01*
X0004100Y0135961D01*
X0006600Y0138461D01*
X0011600Y0138461D01*
X0006600Y0138461D02*
X0004100Y0140961D01*
X0004100Y0145961D01*
X0006600Y0148461D01*
X0004100Y0150961D01*
X0004100Y0155961D01*
X0006600Y0158461D01*
X0004100Y0160961D01*
X0004100Y0165961D01*
X0006600Y0168461D01*
X0011600Y0168461D01*
X0006600Y0168461D02*
X0004100Y0170961D01*
X0004100Y0175961D01*
X0006600Y0178461D01*
X0004100Y0180961D01*
X0004100Y0185961D01*
X0006600Y0188461D01*
X0004100Y0190961D01*
X0004100Y0195961D01*
X0006600Y0198461D01*
X0011600Y0198461D01*
X0006600Y0198461D02*
X0004100Y0200961D01*
X0004100Y0205961D01*
X0006600Y0208461D01*
X0004100Y0210961D01*
X0004100Y0215961D01*
X0006600Y0218461D01*
X0004100Y0220961D01*
X0004100Y0225961D01*
X0006600Y0228461D01*
X0011600Y0228461D01*
X0006600Y0228461D02*
X0004100Y0230961D01*
X0004100Y0235961D01*
X0006600Y0238461D01*
X0004100Y0240961D01*
X0004100Y0245961D01*
X0006600Y0248461D01*
X0004100Y0250961D01*
X0004100Y0255961D01*
X0006600Y0258461D01*
X0011600Y0258461D01*
X0006600Y0258461D02*
X0004100Y0260961D01*
X0004100Y0265961D01*
X0006600Y0268461D01*
X0004100Y0270961D01*
X0004100Y0275961D01*
X0006600Y0278461D01*
X0004100Y0280961D01*
X0004100Y0285961D01*
X0006600Y0288461D01*
X0004100Y0290961D01*
X0004100Y0295961D01*
X0006600Y0298461D01*
X0011600Y0298461D01*
X0014100Y0295961D01*
X0014100Y0290961D01*
X0011600Y0288461D02*
X0006600Y0288461D01*
X0006600Y0278461D02*
X0011600Y0278461D01*
X0011600Y0268461D02*
X0006600Y0268461D01*
X0006600Y0248461D02*
X0011600Y0248461D01*
X0011600Y0238461D02*
X0006600Y0238461D01*
X0006600Y0218461D02*
X0011600Y0218461D01*
X0011600Y0208461D02*
X0006600Y0208461D01*
X0006600Y0188461D02*
X0011600Y0188461D01*
X0011600Y0178461D02*
X0006600Y0178461D01*
X0006600Y0158461D02*
X0011600Y0158461D01*
X0011600Y0148461D02*
X0006600Y0148461D01*
X0006600Y0128461D02*
X0011600Y0128461D01*
M02*
