G75*
%MOIN*%
%OFA0B0*%
%FSLAX25Y25*%
%IPPOS*%
%LPD*%
%AMOC8*
5,1,8,0,0,1.08239X$1,22.5*
%
%ADD10C,0.00000*%
%ADD11C,0.08674*%
%ADD12C,0.06800*%
%ADD13C,0.07800*%
D10*
X0001202Y0006000D02*
X0006202Y0001000D01*
X0185202Y0001000D01*
X0190202Y0006000D01*
X0190202Y0017250D01*
X0190204Y0017318D01*
X0190209Y0017385D01*
X0190218Y0017452D01*
X0190231Y0017519D01*
X0190248Y0017584D01*
X0190267Y0017649D01*
X0190291Y0017713D01*
X0190318Y0017775D01*
X0190348Y0017836D01*
X0190381Y0017894D01*
X0190417Y0017951D01*
X0190457Y0018006D01*
X0190499Y0018059D01*
X0190545Y0018110D01*
X0190592Y0018157D01*
X0190643Y0018203D01*
X0190696Y0018245D01*
X0190751Y0018285D01*
X0190808Y0018321D01*
X0190866Y0018354D01*
X0190927Y0018384D01*
X0190989Y0018411D01*
X0191053Y0018435D01*
X0191118Y0018454D01*
X0191183Y0018471D01*
X0191250Y0018484D01*
X0191317Y0018493D01*
X0191384Y0018498D01*
X0191452Y0018500D01*
X0194952Y0018500D01*
X0195020Y0018498D01*
X0195087Y0018493D01*
X0195154Y0018484D01*
X0195221Y0018471D01*
X0195286Y0018454D01*
X0195351Y0018435D01*
X0195415Y0018411D01*
X0195477Y0018384D01*
X0195538Y0018354D01*
X0195596Y0018321D01*
X0195653Y0018285D01*
X0195708Y0018245D01*
X0195761Y0018203D01*
X0195812Y0018157D01*
X0195859Y0018110D01*
X0195905Y0018059D01*
X0195947Y0018006D01*
X0195987Y0017951D01*
X0196023Y0017894D01*
X0196056Y0017836D01*
X0196086Y0017775D01*
X0196113Y0017713D01*
X0196137Y0017649D01*
X0196156Y0017584D01*
X0196173Y0017519D01*
X0196186Y0017452D01*
X0196195Y0017385D01*
X0196200Y0017318D01*
X0196202Y0017250D01*
X0196202Y0006000D01*
X0201202Y0001000D01*
X0380202Y0001000D01*
X0385202Y0006000D01*
X0385202Y0311000D01*
X0380202Y0316000D01*
X0201202Y0316000D01*
X0196202Y0311000D01*
X0196202Y0027250D01*
X0196200Y0027182D01*
X0196195Y0027115D01*
X0196186Y0027048D01*
X0196173Y0026981D01*
X0196156Y0026916D01*
X0196137Y0026851D01*
X0196113Y0026787D01*
X0196086Y0026725D01*
X0196056Y0026664D01*
X0196023Y0026606D01*
X0195987Y0026549D01*
X0195947Y0026494D01*
X0195905Y0026441D01*
X0195859Y0026390D01*
X0195812Y0026343D01*
X0195761Y0026297D01*
X0195708Y0026255D01*
X0195653Y0026215D01*
X0195596Y0026179D01*
X0195538Y0026146D01*
X0195477Y0026116D01*
X0195415Y0026089D01*
X0195351Y0026065D01*
X0195286Y0026046D01*
X0195221Y0026029D01*
X0195154Y0026016D01*
X0195087Y0026007D01*
X0195020Y0026002D01*
X0194952Y0026000D01*
X0191452Y0026000D01*
X0191384Y0026002D01*
X0191317Y0026007D01*
X0191250Y0026016D01*
X0191183Y0026029D01*
X0191118Y0026046D01*
X0191053Y0026065D01*
X0190989Y0026089D01*
X0190927Y0026116D01*
X0190866Y0026146D01*
X0190808Y0026179D01*
X0190751Y0026215D01*
X0190696Y0026255D01*
X0190643Y0026297D01*
X0190592Y0026343D01*
X0190545Y0026390D01*
X0190499Y0026441D01*
X0190457Y0026494D01*
X0190417Y0026549D01*
X0190381Y0026606D01*
X0190348Y0026664D01*
X0190318Y0026725D01*
X0190291Y0026787D01*
X0190267Y0026851D01*
X0190248Y0026916D01*
X0190231Y0026981D01*
X0190218Y0027048D01*
X0190209Y0027115D01*
X0190204Y0027182D01*
X0190202Y0027250D01*
X0190202Y0311000D01*
X0185202Y0316000D01*
X0006202Y0316000D01*
X0001202Y0311000D01*
X0001202Y0006000D01*
X0176423Y0010843D02*
X0176425Y0010968D01*
X0176431Y0011093D01*
X0176441Y0011217D01*
X0176455Y0011341D01*
X0176472Y0011465D01*
X0176494Y0011588D01*
X0176520Y0011710D01*
X0176549Y0011832D01*
X0176582Y0011952D01*
X0176620Y0012071D01*
X0176660Y0012190D01*
X0176705Y0012306D01*
X0176753Y0012421D01*
X0176805Y0012535D01*
X0176861Y0012647D01*
X0176920Y0012757D01*
X0176982Y0012865D01*
X0177048Y0012972D01*
X0177117Y0013076D01*
X0177190Y0013177D01*
X0177265Y0013277D01*
X0177344Y0013374D01*
X0177426Y0013468D01*
X0177511Y0013560D01*
X0177598Y0013649D01*
X0177689Y0013735D01*
X0177782Y0013818D01*
X0177878Y0013899D01*
X0177976Y0013976D01*
X0178076Y0014050D01*
X0178179Y0014121D01*
X0178284Y0014188D01*
X0178392Y0014253D01*
X0178501Y0014313D01*
X0178612Y0014371D01*
X0178725Y0014424D01*
X0178839Y0014474D01*
X0178955Y0014521D01*
X0179072Y0014563D01*
X0179191Y0014602D01*
X0179311Y0014638D01*
X0179432Y0014669D01*
X0179554Y0014697D01*
X0179676Y0014720D01*
X0179800Y0014740D01*
X0179924Y0014756D01*
X0180048Y0014768D01*
X0180173Y0014776D01*
X0180298Y0014780D01*
X0180422Y0014780D01*
X0180547Y0014776D01*
X0180672Y0014768D01*
X0180796Y0014756D01*
X0180920Y0014740D01*
X0181044Y0014720D01*
X0181166Y0014697D01*
X0181288Y0014669D01*
X0181409Y0014638D01*
X0181529Y0014602D01*
X0181648Y0014563D01*
X0181765Y0014521D01*
X0181881Y0014474D01*
X0181995Y0014424D01*
X0182108Y0014371D01*
X0182219Y0014313D01*
X0182329Y0014253D01*
X0182436Y0014188D01*
X0182541Y0014121D01*
X0182644Y0014050D01*
X0182744Y0013976D01*
X0182842Y0013899D01*
X0182938Y0013818D01*
X0183031Y0013735D01*
X0183122Y0013649D01*
X0183209Y0013560D01*
X0183294Y0013468D01*
X0183376Y0013374D01*
X0183455Y0013277D01*
X0183530Y0013177D01*
X0183603Y0013076D01*
X0183672Y0012972D01*
X0183738Y0012865D01*
X0183800Y0012757D01*
X0183859Y0012647D01*
X0183915Y0012535D01*
X0183967Y0012421D01*
X0184015Y0012306D01*
X0184060Y0012190D01*
X0184100Y0012071D01*
X0184138Y0011952D01*
X0184171Y0011832D01*
X0184200Y0011710D01*
X0184226Y0011588D01*
X0184248Y0011465D01*
X0184265Y0011341D01*
X0184279Y0011217D01*
X0184289Y0011093D01*
X0184295Y0010968D01*
X0184297Y0010843D01*
X0184295Y0010718D01*
X0184289Y0010593D01*
X0184279Y0010469D01*
X0184265Y0010345D01*
X0184248Y0010221D01*
X0184226Y0010098D01*
X0184200Y0009976D01*
X0184171Y0009854D01*
X0184138Y0009734D01*
X0184100Y0009615D01*
X0184060Y0009496D01*
X0184015Y0009380D01*
X0183967Y0009265D01*
X0183915Y0009151D01*
X0183859Y0009039D01*
X0183800Y0008929D01*
X0183738Y0008821D01*
X0183672Y0008714D01*
X0183603Y0008610D01*
X0183530Y0008509D01*
X0183455Y0008409D01*
X0183376Y0008312D01*
X0183294Y0008218D01*
X0183209Y0008126D01*
X0183122Y0008037D01*
X0183031Y0007951D01*
X0182938Y0007868D01*
X0182842Y0007787D01*
X0182744Y0007710D01*
X0182644Y0007636D01*
X0182541Y0007565D01*
X0182436Y0007498D01*
X0182328Y0007433D01*
X0182219Y0007373D01*
X0182108Y0007315D01*
X0181995Y0007262D01*
X0181881Y0007212D01*
X0181765Y0007165D01*
X0181648Y0007123D01*
X0181529Y0007084D01*
X0181409Y0007048D01*
X0181288Y0007017D01*
X0181166Y0006989D01*
X0181044Y0006966D01*
X0180920Y0006946D01*
X0180796Y0006930D01*
X0180672Y0006918D01*
X0180547Y0006910D01*
X0180422Y0006906D01*
X0180298Y0006906D01*
X0180173Y0006910D01*
X0180048Y0006918D01*
X0179924Y0006930D01*
X0179800Y0006946D01*
X0179676Y0006966D01*
X0179554Y0006989D01*
X0179432Y0007017D01*
X0179311Y0007048D01*
X0179191Y0007084D01*
X0179072Y0007123D01*
X0178955Y0007165D01*
X0178839Y0007212D01*
X0178725Y0007262D01*
X0178612Y0007315D01*
X0178501Y0007373D01*
X0178391Y0007433D01*
X0178284Y0007498D01*
X0178179Y0007565D01*
X0178076Y0007636D01*
X0177976Y0007710D01*
X0177878Y0007787D01*
X0177782Y0007868D01*
X0177689Y0007951D01*
X0177598Y0008037D01*
X0177511Y0008126D01*
X0177426Y0008218D01*
X0177344Y0008312D01*
X0177265Y0008409D01*
X0177190Y0008509D01*
X0177117Y0008610D01*
X0177048Y0008714D01*
X0176982Y0008821D01*
X0176920Y0008929D01*
X0176861Y0009039D01*
X0176805Y0009151D01*
X0176753Y0009265D01*
X0176705Y0009380D01*
X0176660Y0009496D01*
X0176620Y0009615D01*
X0176582Y0009734D01*
X0176549Y0009854D01*
X0176520Y0009976D01*
X0176494Y0010098D01*
X0176472Y0010221D01*
X0176455Y0010345D01*
X0176441Y0010469D01*
X0176431Y0010593D01*
X0176425Y0010718D01*
X0176423Y0010843D01*
X0371423Y0010843D02*
X0371425Y0010968D01*
X0371431Y0011093D01*
X0371441Y0011217D01*
X0371455Y0011341D01*
X0371472Y0011465D01*
X0371494Y0011588D01*
X0371520Y0011710D01*
X0371549Y0011832D01*
X0371582Y0011952D01*
X0371620Y0012071D01*
X0371660Y0012190D01*
X0371705Y0012306D01*
X0371753Y0012421D01*
X0371805Y0012535D01*
X0371861Y0012647D01*
X0371920Y0012757D01*
X0371982Y0012865D01*
X0372048Y0012972D01*
X0372117Y0013076D01*
X0372190Y0013177D01*
X0372265Y0013277D01*
X0372344Y0013374D01*
X0372426Y0013468D01*
X0372511Y0013560D01*
X0372598Y0013649D01*
X0372689Y0013735D01*
X0372782Y0013818D01*
X0372878Y0013899D01*
X0372976Y0013976D01*
X0373076Y0014050D01*
X0373179Y0014121D01*
X0373284Y0014188D01*
X0373392Y0014253D01*
X0373501Y0014313D01*
X0373612Y0014371D01*
X0373725Y0014424D01*
X0373839Y0014474D01*
X0373955Y0014521D01*
X0374072Y0014563D01*
X0374191Y0014602D01*
X0374311Y0014638D01*
X0374432Y0014669D01*
X0374554Y0014697D01*
X0374676Y0014720D01*
X0374800Y0014740D01*
X0374924Y0014756D01*
X0375048Y0014768D01*
X0375173Y0014776D01*
X0375298Y0014780D01*
X0375422Y0014780D01*
X0375547Y0014776D01*
X0375672Y0014768D01*
X0375796Y0014756D01*
X0375920Y0014740D01*
X0376044Y0014720D01*
X0376166Y0014697D01*
X0376288Y0014669D01*
X0376409Y0014638D01*
X0376529Y0014602D01*
X0376648Y0014563D01*
X0376765Y0014521D01*
X0376881Y0014474D01*
X0376995Y0014424D01*
X0377108Y0014371D01*
X0377219Y0014313D01*
X0377329Y0014253D01*
X0377436Y0014188D01*
X0377541Y0014121D01*
X0377644Y0014050D01*
X0377744Y0013976D01*
X0377842Y0013899D01*
X0377938Y0013818D01*
X0378031Y0013735D01*
X0378122Y0013649D01*
X0378209Y0013560D01*
X0378294Y0013468D01*
X0378376Y0013374D01*
X0378455Y0013277D01*
X0378530Y0013177D01*
X0378603Y0013076D01*
X0378672Y0012972D01*
X0378738Y0012865D01*
X0378800Y0012757D01*
X0378859Y0012647D01*
X0378915Y0012535D01*
X0378967Y0012421D01*
X0379015Y0012306D01*
X0379060Y0012190D01*
X0379100Y0012071D01*
X0379138Y0011952D01*
X0379171Y0011832D01*
X0379200Y0011710D01*
X0379226Y0011588D01*
X0379248Y0011465D01*
X0379265Y0011341D01*
X0379279Y0011217D01*
X0379289Y0011093D01*
X0379295Y0010968D01*
X0379297Y0010843D01*
X0379295Y0010718D01*
X0379289Y0010593D01*
X0379279Y0010469D01*
X0379265Y0010345D01*
X0379248Y0010221D01*
X0379226Y0010098D01*
X0379200Y0009976D01*
X0379171Y0009854D01*
X0379138Y0009734D01*
X0379100Y0009615D01*
X0379060Y0009496D01*
X0379015Y0009380D01*
X0378967Y0009265D01*
X0378915Y0009151D01*
X0378859Y0009039D01*
X0378800Y0008929D01*
X0378738Y0008821D01*
X0378672Y0008714D01*
X0378603Y0008610D01*
X0378530Y0008509D01*
X0378455Y0008409D01*
X0378376Y0008312D01*
X0378294Y0008218D01*
X0378209Y0008126D01*
X0378122Y0008037D01*
X0378031Y0007951D01*
X0377938Y0007868D01*
X0377842Y0007787D01*
X0377744Y0007710D01*
X0377644Y0007636D01*
X0377541Y0007565D01*
X0377436Y0007498D01*
X0377328Y0007433D01*
X0377219Y0007373D01*
X0377108Y0007315D01*
X0376995Y0007262D01*
X0376881Y0007212D01*
X0376765Y0007165D01*
X0376648Y0007123D01*
X0376529Y0007084D01*
X0376409Y0007048D01*
X0376288Y0007017D01*
X0376166Y0006989D01*
X0376044Y0006966D01*
X0375920Y0006946D01*
X0375796Y0006930D01*
X0375672Y0006918D01*
X0375547Y0006910D01*
X0375422Y0006906D01*
X0375298Y0006906D01*
X0375173Y0006910D01*
X0375048Y0006918D01*
X0374924Y0006930D01*
X0374800Y0006946D01*
X0374676Y0006966D01*
X0374554Y0006989D01*
X0374432Y0007017D01*
X0374311Y0007048D01*
X0374191Y0007084D01*
X0374072Y0007123D01*
X0373955Y0007165D01*
X0373839Y0007212D01*
X0373725Y0007262D01*
X0373612Y0007315D01*
X0373501Y0007373D01*
X0373391Y0007433D01*
X0373284Y0007498D01*
X0373179Y0007565D01*
X0373076Y0007636D01*
X0372976Y0007710D01*
X0372878Y0007787D01*
X0372782Y0007868D01*
X0372689Y0007951D01*
X0372598Y0008037D01*
X0372511Y0008126D01*
X0372426Y0008218D01*
X0372344Y0008312D01*
X0372265Y0008409D01*
X0372190Y0008509D01*
X0372117Y0008610D01*
X0372048Y0008714D01*
X0371982Y0008821D01*
X0371920Y0008929D01*
X0371861Y0009039D01*
X0371805Y0009151D01*
X0371753Y0009265D01*
X0371705Y0009380D01*
X0371660Y0009496D01*
X0371620Y0009615D01*
X0371582Y0009734D01*
X0371549Y0009854D01*
X0371520Y0009976D01*
X0371494Y0010098D01*
X0371472Y0010221D01*
X0371455Y0010345D01*
X0371441Y0010469D01*
X0371431Y0010593D01*
X0371425Y0010718D01*
X0371423Y0010843D01*
X0202132Y0306118D02*
X0202134Y0306243D01*
X0202140Y0306368D01*
X0202150Y0306492D01*
X0202164Y0306616D01*
X0202181Y0306740D01*
X0202203Y0306863D01*
X0202229Y0306985D01*
X0202258Y0307107D01*
X0202291Y0307227D01*
X0202329Y0307346D01*
X0202369Y0307465D01*
X0202414Y0307581D01*
X0202462Y0307696D01*
X0202514Y0307810D01*
X0202570Y0307922D01*
X0202629Y0308032D01*
X0202691Y0308140D01*
X0202757Y0308247D01*
X0202826Y0308351D01*
X0202899Y0308452D01*
X0202974Y0308552D01*
X0203053Y0308649D01*
X0203135Y0308743D01*
X0203220Y0308835D01*
X0203307Y0308924D01*
X0203398Y0309010D01*
X0203491Y0309093D01*
X0203587Y0309174D01*
X0203685Y0309251D01*
X0203785Y0309325D01*
X0203888Y0309396D01*
X0203993Y0309463D01*
X0204101Y0309528D01*
X0204210Y0309588D01*
X0204321Y0309646D01*
X0204434Y0309699D01*
X0204548Y0309749D01*
X0204664Y0309796D01*
X0204781Y0309838D01*
X0204900Y0309877D01*
X0205020Y0309913D01*
X0205141Y0309944D01*
X0205263Y0309972D01*
X0205385Y0309995D01*
X0205509Y0310015D01*
X0205633Y0310031D01*
X0205757Y0310043D01*
X0205882Y0310051D01*
X0206007Y0310055D01*
X0206131Y0310055D01*
X0206256Y0310051D01*
X0206381Y0310043D01*
X0206505Y0310031D01*
X0206629Y0310015D01*
X0206753Y0309995D01*
X0206875Y0309972D01*
X0206997Y0309944D01*
X0207118Y0309913D01*
X0207238Y0309877D01*
X0207357Y0309838D01*
X0207474Y0309796D01*
X0207590Y0309749D01*
X0207704Y0309699D01*
X0207817Y0309646D01*
X0207928Y0309588D01*
X0208038Y0309528D01*
X0208145Y0309463D01*
X0208250Y0309396D01*
X0208353Y0309325D01*
X0208453Y0309251D01*
X0208551Y0309174D01*
X0208647Y0309093D01*
X0208740Y0309010D01*
X0208831Y0308924D01*
X0208918Y0308835D01*
X0209003Y0308743D01*
X0209085Y0308649D01*
X0209164Y0308552D01*
X0209239Y0308452D01*
X0209312Y0308351D01*
X0209381Y0308247D01*
X0209447Y0308140D01*
X0209509Y0308032D01*
X0209568Y0307922D01*
X0209624Y0307810D01*
X0209676Y0307696D01*
X0209724Y0307581D01*
X0209769Y0307465D01*
X0209809Y0307346D01*
X0209847Y0307227D01*
X0209880Y0307107D01*
X0209909Y0306985D01*
X0209935Y0306863D01*
X0209957Y0306740D01*
X0209974Y0306616D01*
X0209988Y0306492D01*
X0209998Y0306368D01*
X0210004Y0306243D01*
X0210006Y0306118D01*
X0210004Y0305993D01*
X0209998Y0305868D01*
X0209988Y0305744D01*
X0209974Y0305620D01*
X0209957Y0305496D01*
X0209935Y0305373D01*
X0209909Y0305251D01*
X0209880Y0305129D01*
X0209847Y0305009D01*
X0209809Y0304890D01*
X0209769Y0304771D01*
X0209724Y0304655D01*
X0209676Y0304540D01*
X0209624Y0304426D01*
X0209568Y0304314D01*
X0209509Y0304204D01*
X0209447Y0304096D01*
X0209381Y0303989D01*
X0209312Y0303885D01*
X0209239Y0303784D01*
X0209164Y0303684D01*
X0209085Y0303587D01*
X0209003Y0303493D01*
X0208918Y0303401D01*
X0208831Y0303312D01*
X0208740Y0303226D01*
X0208647Y0303143D01*
X0208551Y0303062D01*
X0208453Y0302985D01*
X0208353Y0302911D01*
X0208250Y0302840D01*
X0208145Y0302773D01*
X0208037Y0302708D01*
X0207928Y0302648D01*
X0207817Y0302590D01*
X0207704Y0302537D01*
X0207590Y0302487D01*
X0207474Y0302440D01*
X0207357Y0302398D01*
X0207238Y0302359D01*
X0207118Y0302323D01*
X0206997Y0302292D01*
X0206875Y0302264D01*
X0206753Y0302241D01*
X0206629Y0302221D01*
X0206505Y0302205D01*
X0206381Y0302193D01*
X0206256Y0302185D01*
X0206131Y0302181D01*
X0206007Y0302181D01*
X0205882Y0302185D01*
X0205757Y0302193D01*
X0205633Y0302205D01*
X0205509Y0302221D01*
X0205385Y0302241D01*
X0205263Y0302264D01*
X0205141Y0302292D01*
X0205020Y0302323D01*
X0204900Y0302359D01*
X0204781Y0302398D01*
X0204664Y0302440D01*
X0204548Y0302487D01*
X0204434Y0302537D01*
X0204321Y0302590D01*
X0204210Y0302648D01*
X0204100Y0302708D01*
X0203993Y0302773D01*
X0203888Y0302840D01*
X0203785Y0302911D01*
X0203685Y0302985D01*
X0203587Y0303062D01*
X0203491Y0303143D01*
X0203398Y0303226D01*
X0203307Y0303312D01*
X0203220Y0303401D01*
X0203135Y0303493D01*
X0203053Y0303587D01*
X0202974Y0303684D01*
X0202899Y0303784D01*
X0202826Y0303885D01*
X0202757Y0303989D01*
X0202691Y0304096D01*
X0202629Y0304204D01*
X0202570Y0304314D01*
X0202514Y0304426D01*
X0202462Y0304540D01*
X0202414Y0304655D01*
X0202369Y0304771D01*
X0202329Y0304890D01*
X0202291Y0305009D01*
X0202258Y0305129D01*
X0202229Y0305251D01*
X0202203Y0305373D01*
X0202181Y0305496D01*
X0202164Y0305620D01*
X0202150Y0305744D01*
X0202140Y0305868D01*
X0202134Y0305993D01*
X0202132Y0306118D01*
X0007132Y0306118D02*
X0007134Y0306243D01*
X0007140Y0306368D01*
X0007150Y0306492D01*
X0007164Y0306616D01*
X0007181Y0306740D01*
X0007203Y0306863D01*
X0007229Y0306985D01*
X0007258Y0307107D01*
X0007291Y0307227D01*
X0007329Y0307346D01*
X0007369Y0307465D01*
X0007414Y0307581D01*
X0007462Y0307696D01*
X0007514Y0307810D01*
X0007570Y0307922D01*
X0007629Y0308032D01*
X0007691Y0308140D01*
X0007757Y0308247D01*
X0007826Y0308351D01*
X0007899Y0308452D01*
X0007974Y0308552D01*
X0008053Y0308649D01*
X0008135Y0308743D01*
X0008220Y0308835D01*
X0008307Y0308924D01*
X0008398Y0309010D01*
X0008491Y0309093D01*
X0008587Y0309174D01*
X0008685Y0309251D01*
X0008785Y0309325D01*
X0008888Y0309396D01*
X0008993Y0309463D01*
X0009101Y0309528D01*
X0009210Y0309588D01*
X0009321Y0309646D01*
X0009434Y0309699D01*
X0009548Y0309749D01*
X0009664Y0309796D01*
X0009781Y0309838D01*
X0009900Y0309877D01*
X0010020Y0309913D01*
X0010141Y0309944D01*
X0010263Y0309972D01*
X0010385Y0309995D01*
X0010509Y0310015D01*
X0010633Y0310031D01*
X0010757Y0310043D01*
X0010882Y0310051D01*
X0011007Y0310055D01*
X0011131Y0310055D01*
X0011256Y0310051D01*
X0011381Y0310043D01*
X0011505Y0310031D01*
X0011629Y0310015D01*
X0011753Y0309995D01*
X0011875Y0309972D01*
X0011997Y0309944D01*
X0012118Y0309913D01*
X0012238Y0309877D01*
X0012357Y0309838D01*
X0012474Y0309796D01*
X0012590Y0309749D01*
X0012704Y0309699D01*
X0012817Y0309646D01*
X0012928Y0309588D01*
X0013038Y0309528D01*
X0013145Y0309463D01*
X0013250Y0309396D01*
X0013353Y0309325D01*
X0013453Y0309251D01*
X0013551Y0309174D01*
X0013647Y0309093D01*
X0013740Y0309010D01*
X0013831Y0308924D01*
X0013918Y0308835D01*
X0014003Y0308743D01*
X0014085Y0308649D01*
X0014164Y0308552D01*
X0014239Y0308452D01*
X0014312Y0308351D01*
X0014381Y0308247D01*
X0014447Y0308140D01*
X0014509Y0308032D01*
X0014568Y0307922D01*
X0014624Y0307810D01*
X0014676Y0307696D01*
X0014724Y0307581D01*
X0014769Y0307465D01*
X0014809Y0307346D01*
X0014847Y0307227D01*
X0014880Y0307107D01*
X0014909Y0306985D01*
X0014935Y0306863D01*
X0014957Y0306740D01*
X0014974Y0306616D01*
X0014988Y0306492D01*
X0014998Y0306368D01*
X0015004Y0306243D01*
X0015006Y0306118D01*
X0015004Y0305993D01*
X0014998Y0305868D01*
X0014988Y0305744D01*
X0014974Y0305620D01*
X0014957Y0305496D01*
X0014935Y0305373D01*
X0014909Y0305251D01*
X0014880Y0305129D01*
X0014847Y0305009D01*
X0014809Y0304890D01*
X0014769Y0304771D01*
X0014724Y0304655D01*
X0014676Y0304540D01*
X0014624Y0304426D01*
X0014568Y0304314D01*
X0014509Y0304204D01*
X0014447Y0304096D01*
X0014381Y0303989D01*
X0014312Y0303885D01*
X0014239Y0303784D01*
X0014164Y0303684D01*
X0014085Y0303587D01*
X0014003Y0303493D01*
X0013918Y0303401D01*
X0013831Y0303312D01*
X0013740Y0303226D01*
X0013647Y0303143D01*
X0013551Y0303062D01*
X0013453Y0302985D01*
X0013353Y0302911D01*
X0013250Y0302840D01*
X0013145Y0302773D01*
X0013037Y0302708D01*
X0012928Y0302648D01*
X0012817Y0302590D01*
X0012704Y0302537D01*
X0012590Y0302487D01*
X0012474Y0302440D01*
X0012357Y0302398D01*
X0012238Y0302359D01*
X0012118Y0302323D01*
X0011997Y0302292D01*
X0011875Y0302264D01*
X0011753Y0302241D01*
X0011629Y0302221D01*
X0011505Y0302205D01*
X0011381Y0302193D01*
X0011256Y0302185D01*
X0011131Y0302181D01*
X0011007Y0302181D01*
X0010882Y0302185D01*
X0010757Y0302193D01*
X0010633Y0302205D01*
X0010509Y0302221D01*
X0010385Y0302241D01*
X0010263Y0302264D01*
X0010141Y0302292D01*
X0010020Y0302323D01*
X0009900Y0302359D01*
X0009781Y0302398D01*
X0009664Y0302440D01*
X0009548Y0302487D01*
X0009434Y0302537D01*
X0009321Y0302590D01*
X0009210Y0302648D01*
X0009100Y0302708D01*
X0008993Y0302773D01*
X0008888Y0302840D01*
X0008785Y0302911D01*
X0008685Y0302985D01*
X0008587Y0303062D01*
X0008491Y0303143D01*
X0008398Y0303226D01*
X0008307Y0303312D01*
X0008220Y0303401D01*
X0008135Y0303493D01*
X0008053Y0303587D01*
X0007974Y0303684D01*
X0007899Y0303784D01*
X0007826Y0303885D01*
X0007757Y0303989D01*
X0007691Y0304096D01*
X0007629Y0304204D01*
X0007570Y0304314D01*
X0007514Y0304426D01*
X0007462Y0304540D01*
X0007414Y0304655D01*
X0007369Y0304771D01*
X0007329Y0304890D01*
X0007291Y0305009D01*
X0007258Y0305129D01*
X0007229Y0305251D01*
X0007203Y0305373D01*
X0007181Y0305496D01*
X0007164Y0305620D01*
X0007150Y0305744D01*
X0007140Y0305868D01*
X0007134Y0305993D01*
X0007132Y0306118D01*
D11*
X0011069Y0306118D03*
X0206069Y0306118D03*
X0180360Y0010843D03*
X0375360Y0010843D03*
D12*
X0374328Y0125862D02*
X0380328Y0125862D01*
X0380328Y0135862D02*
X0374328Y0135862D01*
X0374328Y0145862D02*
X0380328Y0145862D01*
X0380328Y0155862D02*
X0374328Y0155862D01*
X0374328Y0165862D02*
X0380328Y0165862D01*
X0380328Y0175862D02*
X0374328Y0175862D01*
X0374328Y0185862D02*
X0380328Y0185862D01*
X0380328Y0195862D02*
X0374328Y0195862D01*
X0374328Y0205862D02*
X0380328Y0205862D01*
X0380328Y0215862D02*
X0374328Y0215862D01*
X0374328Y0225862D02*
X0380328Y0225862D01*
X0380328Y0235862D02*
X0374328Y0235862D01*
X0374328Y0245862D02*
X0380328Y0245862D01*
X0380328Y0255862D02*
X0374328Y0255862D01*
X0374328Y0265862D02*
X0380328Y0265862D01*
X0380328Y0275862D02*
X0374328Y0275862D01*
X0374328Y0285862D02*
X0380328Y0285862D01*
X0380328Y0295862D02*
X0374328Y0295862D01*
X0207100Y0293461D02*
X0201100Y0293461D01*
X0201100Y0283461D02*
X0207100Y0283461D01*
X0207100Y0273461D02*
X0201100Y0273461D01*
X0201100Y0263461D02*
X0207100Y0263461D01*
X0207100Y0253461D02*
X0201100Y0253461D01*
X0201100Y0243461D02*
X0207100Y0243461D01*
X0207100Y0233461D02*
X0201100Y0233461D01*
X0201100Y0223461D02*
X0207100Y0223461D01*
X0207100Y0213461D02*
X0201100Y0213461D01*
X0201100Y0203461D02*
X0207100Y0203461D01*
X0207100Y0193461D02*
X0201100Y0193461D01*
X0201100Y0183461D02*
X0207100Y0183461D01*
X0207100Y0173461D02*
X0201100Y0173461D01*
X0201100Y0163461D02*
X0207100Y0163461D01*
X0207100Y0153461D02*
X0201100Y0153461D01*
X0201100Y0143461D02*
X0207100Y0143461D01*
X0207100Y0133461D02*
X0201100Y0133461D01*
X0201100Y0123461D02*
X0207100Y0123461D01*
X0185328Y0125862D02*
X0179328Y0125862D01*
X0179328Y0135862D02*
X0185328Y0135862D01*
X0185328Y0145862D02*
X0179328Y0145862D01*
X0179328Y0155862D02*
X0185328Y0155862D01*
X0185328Y0165862D02*
X0179328Y0165862D01*
X0179328Y0175862D02*
X0185328Y0175862D01*
X0185328Y0185862D02*
X0179328Y0185862D01*
X0179328Y0195862D02*
X0185328Y0195862D01*
X0185328Y0205862D02*
X0179328Y0205862D01*
X0179328Y0215862D02*
X0185328Y0215862D01*
X0185328Y0225862D02*
X0179328Y0225862D01*
X0179328Y0235862D02*
X0185328Y0235862D01*
X0185328Y0245862D02*
X0179328Y0245862D01*
X0179328Y0255862D02*
X0185328Y0255862D01*
X0185328Y0265862D02*
X0179328Y0265862D01*
X0179328Y0275862D02*
X0185328Y0275862D01*
X0185328Y0285862D02*
X0179328Y0285862D01*
X0179328Y0295862D02*
X0185328Y0295862D01*
X0012100Y0293461D02*
X0006100Y0293461D01*
X0006100Y0283461D02*
X0012100Y0283461D01*
X0012100Y0273461D02*
X0006100Y0273461D01*
X0006100Y0263461D02*
X0012100Y0263461D01*
X0012100Y0253461D02*
X0006100Y0253461D01*
X0006100Y0243461D02*
X0012100Y0243461D01*
X0012100Y0233461D02*
X0006100Y0233461D01*
X0006100Y0223461D02*
X0012100Y0223461D01*
X0012100Y0213461D02*
X0006100Y0213461D01*
X0006100Y0203461D02*
X0012100Y0203461D01*
X0012100Y0193461D02*
X0006100Y0193461D01*
X0006100Y0183461D02*
X0012100Y0183461D01*
X0012100Y0173461D02*
X0006100Y0173461D01*
X0006100Y0163461D02*
X0012100Y0163461D01*
X0012100Y0153461D02*
X0006100Y0153461D01*
X0006100Y0143461D02*
X0012100Y0143461D01*
X0012100Y0133461D02*
X0006100Y0133461D01*
X0006100Y0123461D02*
X0012100Y0123461D01*
D13*
X0010202Y0108500D03*
X0010202Y0098500D03*
X0020202Y0098500D03*
X0030202Y0098500D03*
X0030202Y0108500D03*
X0020202Y0108500D03*
X0030202Y0118500D03*
X0030202Y0128500D03*
X0030202Y0138500D03*
X0030202Y0148500D03*
X0040202Y0148500D03*
X0050202Y0148500D03*
X0050202Y0138500D03*
X0040202Y0138500D03*
X0040202Y0128500D03*
X0050202Y0128500D03*
X0050202Y0118500D03*
X0040202Y0118500D03*
X0040202Y0108500D03*
X0050202Y0108500D03*
X0050202Y0098500D03*
X0040202Y0098500D03*
X0040202Y0088500D03*
X0050202Y0088500D03*
X0050202Y0078500D03*
X0040202Y0078500D03*
X0030202Y0078500D03*
X0020202Y0078500D03*
X0010202Y0078500D03*
X0010202Y0068500D03*
X0010202Y0058500D03*
X0010202Y0048500D03*
X0010202Y0038500D03*
X0020202Y0038500D03*
X0030202Y0038500D03*
X0030202Y0048500D03*
X0020202Y0048500D03*
X0020202Y0058500D03*
X0030202Y0058500D03*
X0030202Y0068500D03*
X0020202Y0068500D03*
X0040202Y0068500D03*
X0050202Y0068500D03*
X0050202Y0058500D03*
X0040202Y0058500D03*
X0040202Y0048500D03*
X0050202Y0048500D03*
X0050202Y0038500D03*
X0040202Y0038500D03*
X0040202Y0028500D03*
X0050202Y0028500D03*
X0050202Y0018500D03*
X0040202Y0018500D03*
X0030202Y0018500D03*
X0020202Y0018500D03*
X0010202Y0018500D03*
X0010202Y0008500D03*
X0020202Y0008500D03*
X0030202Y0008500D03*
X0040202Y0008500D03*
X0050202Y0008500D03*
X0060202Y0008500D03*
X0060202Y0018500D03*
X0060202Y0028500D03*
X0070202Y0028500D03*
X0080202Y0028500D03*
X0080202Y0018500D03*
X0070202Y0018500D03*
X0070202Y0008500D03*
X0080202Y0008500D03*
X0090202Y0008500D03*
X0100202Y0008500D03*
X0100202Y0018500D03*
X0090202Y0018500D03*
X0090202Y0028500D03*
X0100202Y0028500D03*
X0110202Y0028500D03*
X0110202Y0018500D03*
X0110202Y0008500D03*
X0120202Y0008500D03*
X0130202Y0008500D03*
X0130202Y0018500D03*
X0120202Y0018500D03*
X0120202Y0028500D03*
X0130202Y0028500D03*
X0140202Y0028500D03*
X0150202Y0028500D03*
X0150202Y0018500D03*
X0140202Y0018500D03*
X0140202Y0008500D03*
X0150202Y0008500D03*
X0160202Y0008500D03*
X0160202Y0018500D03*
X0160202Y0028500D03*
X0170202Y0028500D03*
X0180202Y0028500D03*
X0170202Y0018500D03*
X0170202Y0008500D03*
X0205202Y0008500D03*
X0215202Y0008500D03*
X0215202Y0018500D03*
X0205202Y0018500D03*
X0205202Y0028500D03*
X0215202Y0028500D03*
X0225202Y0028500D03*
X0235202Y0028500D03*
X0235202Y0018500D03*
X0225202Y0018500D03*
X0225202Y0008500D03*
X0235202Y0008500D03*
X0245202Y0008500D03*
X0245202Y0018500D03*
X0245202Y0028500D03*
X0255202Y0028500D03*
X0265202Y0028500D03*
X0265202Y0018500D03*
X0255202Y0018500D03*
X0255202Y0008500D03*
X0265202Y0008500D03*
X0275202Y0008500D03*
X0285202Y0008500D03*
X0285202Y0018500D03*
X0275202Y0018500D03*
X0275202Y0028500D03*
X0285202Y0028500D03*
X0295202Y0028500D03*
X0305202Y0028500D03*
X0305202Y0018500D03*
X0295202Y0018500D03*
X0295202Y0008500D03*
X0305202Y0008500D03*
X0315202Y0008500D03*
X0315202Y0018500D03*
X0315202Y0028500D03*
X0325202Y0028500D03*
X0335202Y0028500D03*
X0335202Y0018500D03*
X0325202Y0018500D03*
X0325202Y0008500D03*
X0335202Y0008500D03*
X0345202Y0008500D03*
X0355202Y0008500D03*
X0355202Y0018500D03*
X0345202Y0018500D03*
X0345202Y0028500D03*
X0355202Y0028500D03*
X0365202Y0028500D03*
X0365202Y0018500D03*
X0365202Y0008500D03*
X0375202Y0028500D03*
X0375202Y0038500D03*
X0365202Y0038500D03*
X0355202Y0038500D03*
X0345202Y0038500D03*
X0335202Y0038500D03*
X0325202Y0038500D03*
X0315202Y0038500D03*
X0305202Y0038500D03*
X0295202Y0038500D03*
X0285202Y0038500D03*
X0275202Y0038500D03*
X0265202Y0038500D03*
X0255202Y0038500D03*
X0245202Y0038500D03*
X0235202Y0038500D03*
X0225202Y0038500D03*
X0215202Y0038500D03*
X0205202Y0038500D03*
X0205202Y0048500D03*
X0215202Y0048500D03*
X0215202Y0058500D03*
X0205202Y0058500D03*
X0205202Y0068500D03*
X0215202Y0068500D03*
X0215202Y0078500D03*
X0205202Y0078500D03*
X0205202Y0088500D03*
X0215202Y0088500D03*
X0225202Y0088500D03*
X0235202Y0088500D03*
X0235202Y0078500D03*
X0225202Y0078500D03*
X0225202Y0068500D03*
X0235202Y0068500D03*
X0235202Y0058500D03*
X0225202Y0058500D03*
X0225202Y0048500D03*
X0235202Y0048500D03*
X0245202Y0048500D03*
X0245202Y0058500D03*
X0245202Y0068500D03*
X0245202Y0078500D03*
X0245202Y0088500D03*
X0255202Y0088500D03*
X0265202Y0088500D03*
X0265202Y0078500D03*
X0255202Y0078500D03*
X0255202Y0068500D03*
X0265202Y0068500D03*
X0265202Y0058500D03*
X0255202Y0058500D03*
X0255202Y0048500D03*
X0265202Y0048500D03*
X0275202Y0048500D03*
X0285202Y0048500D03*
X0285202Y0058500D03*
X0275202Y0058500D03*
X0275202Y0068500D03*
X0285202Y0068500D03*
X0285202Y0078500D03*
X0275202Y0078500D03*
X0275202Y0088500D03*
X0285202Y0088500D03*
X0295202Y0088500D03*
X0305202Y0088500D03*
X0305202Y0078500D03*
X0295202Y0078500D03*
X0295202Y0068500D03*
X0305202Y0068500D03*
X0305202Y0058500D03*
X0295202Y0058500D03*
X0295202Y0048500D03*
X0305202Y0048500D03*
X0315202Y0048500D03*
X0315202Y0058500D03*
X0315202Y0068500D03*
X0315202Y0078500D03*
X0315202Y0088500D03*
X0325202Y0088500D03*
X0335202Y0088500D03*
X0335202Y0078500D03*
X0325202Y0078500D03*
X0325202Y0068500D03*
X0335202Y0068500D03*
X0335202Y0058500D03*
X0325202Y0058500D03*
X0325202Y0048500D03*
X0335202Y0048500D03*
X0345202Y0048500D03*
X0355202Y0048500D03*
X0355202Y0058500D03*
X0345202Y0058500D03*
X0345202Y0068500D03*
X0355202Y0068500D03*
X0355202Y0078500D03*
X0345202Y0078500D03*
X0345202Y0088500D03*
X0355202Y0088500D03*
X0365202Y0088500D03*
X0365202Y0078500D03*
X0365202Y0068500D03*
X0365202Y0058500D03*
X0365202Y0048500D03*
X0375202Y0048500D03*
X0375202Y0058500D03*
X0375202Y0068500D03*
X0375202Y0078500D03*
X0375202Y0088500D03*
X0375202Y0098500D03*
X0365202Y0098500D03*
X0355202Y0098500D03*
X0345202Y0098500D03*
X0335202Y0098500D03*
X0325202Y0098500D03*
X0315202Y0098500D03*
X0305202Y0098500D03*
X0295202Y0098500D03*
X0285202Y0098500D03*
X0275202Y0098500D03*
X0265202Y0098500D03*
X0255202Y0098500D03*
X0245202Y0098500D03*
X0235202Y0098500D03*
X0225202Y0098500D03*
X0215202Y0098500D03*
X0205202Y0098500D03*
X0205202Y0108500D03*
X0215202Y0108500D03*
X0225202Y0108500D03*
X0235202Y0108500D03*
X0235202Y0118500D03*
X0225202Y0118500D03*
X0225202Y0128500D03*
X0235202Y0128500D03*
X0235202Y0138500D03*
X0225202Y0138500D03*
X0225202Y0148500D03*
X0235202Y0148500D03*
X0245202Y0148500D03*
X0245202Y0138500D03*
X0245202Y0128500D03*
X0245202Y0118500D03*
X0245202Y0108500D03*
X0255202Y0108500D03*
X0265202Y0108500D03*
X0265202Y0118500D03*
X0255202Y0118500D03*
X0255202Y0128500D03*
X0265202Y0128500D03*
X0265202Y0138500D03*
X0255202Y0138500D03*
X0255202Y0148500D03*
X0265202Y0148500D03*
X0275202Y0148500D03*
X0285202Y0148500D03*
X0285202Y0138500D03*
X0275202Y0138500D03*
X0275202Y0128500D03*
X0285202Y0128500D03*
X0285202Y0118500D03*
X0275202Y0118500D03*
X0275202Y0108500D03*
X0285202Y0108500D03*
X0295202Y0108500D03*
X0305202Y0108500D03*
X0305202Y0118500D03*
X0295202Y0118500D03*
X0295202Y0128500D03*
X0305202Y0128500D03*
X0305202Y0138500D03*
X0295202Y0138500D03*
X0295202Y0148500D03*
X0305202Y0148500D03*
X0315202Y0148500D03*
X0315202Y0138500D03*
X0315202Y0128500D03*
X0315202Y0118500D03*
X0315202Y0108500D03*
X0325202Y0108500D03*
X0335202Y0108500D03*
X0335202Y0118500D03*
X0325202Y0118500D03*
X0325202Y0128500D03*
X0335202Y0128500D03*
X0335202Y0138500D03*
X0325202Y0138500D03*
X0325202Y0148500D03*
X0335202Y0148500D03*
X0345202Y0148500D03*
X0355202Y0148500D03*
X0355202Y0138500D03*
X0345202Y0138500D03*
X0345202Y0128500D03*
X0355202Y0128500D03*
X0355202Y0118500D03*
X0345202Y0118500D03*
X0345202Y0108500D03*
X0355202Y0108500D03*
X0365202Y0108500D03*
X0375202Y0108500D03*
X0355202Y0158500D03*
X0345202Y0158500D03*
X0335202Y0158500D03*
X0325202Y0158500D03*
X0315202Y0158500D03*
X0305202Y0158500D03*
X0295202Y0158500D03*
X0285202Y0158500D03*
X0275202Y0158500D03*
X0265202Y0158500D03*
X0255202Y0158500D03*
X0245202Y0158500D03*
X0235202Y0158500D03*
X0225202Y0158500D03*
X0225202Y0168500D03*
X0235202Y0168500D03*
X0235202Y0178500D03*
X0225202Y0178500D03*
X0225202Y0188500D03*
X0235202Y0188500D03*
X0235202Y0198500D03*
X0225202Y0198500D03*
X0225202Y0208500D03*
X0235202Y0208500D03*
X0235202Y0218500D03*
X0225202Y0218500D03*
X0225202Y0228500D03*
X0235202Y0228500D03*
X0235202Y0238500D03*
X0225202Y0238500D03*
X0225202Y0248500D03*
X0235202Y0248500D03*
X0235202Y0258500D03*
X0225202Y0258500D03*
X0225202Y0268500D03*
X0235202Y0268500D03*
X0235202Y0278500D03*
X0225202Y0278500D03*
X0225202Y0288500D03*
X0235202Y0288500D03*
X0235202Y0298500D03*
X0225202Y0298500D03*
X0225202Y0308500D03*
X0235202Y0308500D03*
X0245202Y0308500D03*
X0245202Y0298500D03*
X0245202Y0288500D03*
X0255202Y0288500D03*
X0265202Y0288500D03*
X0265202Y0298500D03*
X0255202Y0298500D03*
X0255202Y0308500D03*
X0265202Y0308500D03*
X0275202Y0308500D03*
X0285202Y0308500D03*
X0285202Y0298500D03*
X0275202Y0298500D03*
X0275202Y0288500D03*
X0285202Y0288500D03*
X0295202Y0288500D03*
X0305202Y0288500D03*
X0305202Y0298500D03*
X0295202Y0298500D03*
X0295202Y0308500D03*
X0305202Y0308500D03*
X0315202Y0308500D03*
X0315202Y0298500D03*
X0315202Y0288500D03*
X0325202Y0288500D03*
X0335202Y0288500D03*
X0335202Y0298500D03*
X0325202Y0298500D03*
X0325202Y0308500D03*
X0335202Y0308500D03*
X0345202Y0308500D03*
X0355202Y0308500D03*
X0355202Y0298500D03*
X0345202Y0298500D03*
X0345202Y0288500D03*
X0355202Y0288500D03*
X0355202Y0278500D03*
X0345202Y0278500D03*
X0335202Y0278500D03*
X0325202Y0278500D03*
X0315202Y0278500D03*
X0305202Y0278500D03*
X0295202Y0278500D03*
X0285202Y0278500D03*
X0275202Y0278500D03*
X0265202Y0278500D03*
X0255202Y0278500D03*
X0245202Y0278500D03*
X0245202Y0268500D03*
X0245202Y0258500D03*
X0245202Y0248500D03*
X0245202Y0238500D03*
X0245202Y0228500D03*
X0255202Y0228500D03*
X0265202Y0228500D03*
X0265202Y0238500D03*
X0255202Y0238500D03*
X0255202Y0248500D03*
X0265202Y0248500D03*
X0265202Y0258500D03*
X0255202Y0258500D03*
X0255202Y0268500D03*
X0265202Y0268500D03*
X0275202Y0268500D03*
X0285202Y0268500D03*
X0285202Y0258500D03*
X0275202Y0258500D03*
X0275202Y0248500D03*
X0285202Y0248500D03*
X0285202Y0238500D03*
X0275202Y0238500D03*
X0275202Y0228500D03*
X0285202Y0228500D03*
X0295202Y0228500D03*
X0305202Y0228500D03*
X0305202Y0238500D03*
X0295202Y0238500D03*
X0295202Y0248500D03*
X0305202Y0248500D03*
X0305202Y0258500D03*
X0295202Y0258500D03*
X0295202Y0268500D03*
X0305202Y0268500D03*
X0315202Y0268500D03*
X0315202Y0258500D03*
X0315202Y0248500D03*
X0315202Y0238500D03*
X0315202Y0228500D03*
X0325202Y0228500D03*
X0335202Y0228500D03*
X0335202Y0238500D03*
X0325202Y0238500D03*
X0325202Y0248500D03*
X0335202Y0248500D03*
X0335202Y0258500D03*
X0325202Y0258500D03*
X0325202Y0268500D03*
X0335202Y0268500D03*
X0345202Y0268500D03*
X0355202Y0268500D03*
X0355202Y0258500D03*
X0345202Y0258500D03*
X0345202Y0248500D03*
X0355202Y0248500D03*
X0355202Y0238500D03*
X0345202Y0238500D03*
X0345202Y0228500D03*
X0355202Y0228500D03*
X0355202Y0218500D03*
X0345202Y0218500D03*
X0335202Y0218500D03*
X0325202Y0218500D03*
X0315202Y0218500D03*
X0305202Y0218500D03*
X0295202Y0218500D03*
X0285202Y0218500D03*
X0275202Y0218500D03*
X0265202Y0218500D03*
X0255202Y0218500D03*
X0245202Y0218500D03*
X0245202Y0208500D03*
X0245202Y0198500D03*
X0245202Y0188500D03*
X0245202Y0178500D03*
X0245202Y0168500D03*
X0255202Y0168500D03*
X0265202Y0168500D03*
X0265202Y0178500D03*
X0255202Y0178500D03*
X0255202Y0188500D03*
X0265202Y0188500D03*
X0265202Y0198500D03*
X0255202Y0198500D03*
X0255202Y0208500D03*
X0265202Y0208500D03*
X0275202Y0208500D03*
X0285202Y0208500D03*
X0285202Y0198500D03*
X0275202Y0198500D03*
X0275202Y0188500D03*
X0285202Y0188500D03*
X0285202Y0178500D03*
X0275202Y0178500D03*
X0275202Y0168500D03*
X0285202Y0168500D03*
X0295202Y0168500D03*
X0305202Y0168500D03*
X0305202Y0178500D03*
X0295202Y0178500D03*
X0295202Y0188500D03*
X0305202Y0188500D03*
X0305202Y0198500D03*
X0295202Y0198500D03*
X0295202Y0208500D03*
X0305202Y0208500D03*
X0315202Y0208500D03*
X0315202Y0198500D03*
X0315202Y0188500D03*
X0315202Y0178500D03*
X0315202Y0168500D03*
X0325202Y0168500D03*
X0335202Y0168500D03*
X0335202Y0178500D03*
X0325202Y0178500D03*
X0325202Y0188500D03*
X0335202Y0188500D03*
X0335202Y0198500D03*
X0325202Y0198500D03*
X0325202Y0208500D03*
X0335202Y0208500D03*
X0345202Y0208500D03*
X0355202Y0208500D03*
X0355202Y0198500D03*
X0345202Y0198500D03*
X0345202Y0188500D03*
X0355202Y0188500D03*
X0355202Y0178500D03*
X0345202Y0178500D03*
X0345202Y0168500D03*
X0355202Y0168500D03*
X0180202Y0108500D03*
X0170202Y0108500D03*
X0160202Y0108500D03*
X0150202Y0108500D03*
X0140202Y0108500D03*
X0130202Y0108500D03*
X0120202Y0108500D03*
X0110202Y0108500D03*
X0100202Y0108500D03*
X0090202Y0108500D03*
X0080202Y0108500D03*
X0070202Y0108500D03*
X0060202Y0108500D03*
X0060202Y0098500D03*
X0070202Y0098500D03*
X0080202Y0098500D03*
X0090202Y0098500D03*
X0100202Y0098500D03*
X0110202Y0098500D03*
X0120202Y0098500D03*
X0130202Y0098500D03*
X0140202Y0098500D03*
X0150202Y0098500D03*
X0160202Y0098500D03*
X0170202Y0098500D03*
X0180202Y0098500D03*
X0180202Y0088500D03*
X0170202Y0088500D03*
X0160202Y0088500D03*
X0150202Y0088500D03*
X0140202Y0088500D03*
X0130202Y0088500D03*
X0120202Y0088500D03*
X0110202Y0088500D03*
X0100202Y0088500D03*
X0090202Y0088500D03*
X0080202Y0088500D03*
X0070202Y0088500D03*
X0060202Y0088500D03*
X0060202Y0078500D03*
X0060202Y0068500D03*
X0060202Y0058500D03*
X0060202Y0048500D03*
X0060202Y0038500D03*
X0070202Y0038500D03*
X0080202Y0038500D03*
X0080202Y0048500D03*
X0070202Y0048500D03*
X0070202Y0058500D03*
X0080202Y0058500D03*
X0080202Y0068500D03*
X0070202Y0068500D03*
X0070202Y0078500D03*
X0080202Y0078500D03*
X0090202Y0078500D03*
X0100202Y0078500D03*
X0100202Y0068500D03*
X0090202Y0068500D03*
X0090202Y0058500D03*
X0100202Y0058500D03*
X0100202Y0048500D03*
X0090202Y0048500D03*
X0090202Y0038500D03*
X0100202Y0038500D03*
X0110202Y0038500D03*
X0110202Y0048500D03*
X0110202Y0058500D03*
X0110202Y0068500D03*
X0110202Y0078500D03*
X0120202Y0078500D03*
X0130202Y0078500D03*
X0130202Y0068500D03*
X0120202Y0068500D03*
X0120202Y0058500D03*
X0130202Y0058500D03*
X0130202Y0048500D03*
X0120202Y0048500D03*
X0120202Y0038500D03*
X0130202Y0038500D03*
X0140202Y0038500D03*
X0150202Y0038500D03*
X0150202Y0048500D03*
X0140202Y0048500D03*
X0140202Y0058500D03*
X0150202Y0058500D03*
X0150202Y0068500D03*
X0140202Y0068500D03*
X0140202Y0078500D03*
X0150202Y0078500D03*
X0160202Y0078500D03*
X0160202Y0068500D03*
X0160202Y0058500D03*
X0160202Y0048500D03*
X0160202Y0038500D03*
X0170202Y0038500D03*
X0180202Y0038500D03*
X0180202Y0048500D03*
X0170202Y0048500D03*
X0170202Y0058500D03*
X0180202Y0058500D03*
X0180202Y0068500D03*
X0170202Y0068500D03*
X0170202Y0078500D03*
X0180202Y0078500D03*
X0160202Y0118500D03*
X0150202Y0118500D03*
X0140202Y0118500D03*
X0130202Y0118500D03*
X0120202Y0118500D03*
X0110202Y0118500D03*
X0100202Y0118500D03*
X0090202Y0118500D03*
X0080202Y0118500D03*
X0070202Y0118500D03*
X0060202Y0118500D03*
X0060202Y0128500D03*
X0060202Y0138500D03*
X0060202Y0148500D03*
X0070202Y0148500D03*
X0080202Y0148500D03*
X0080202Y0138500D03*
X0070202Y0138500D03*
X0070202Y0128500D03*
X0080202Y0128500D03*
X0090202Y0128500D03*
X0100202Y0128500D03*
X0100202Y0138500D03*
X0090202Y0138500D03*
X0090202Y0148500D03*
X0100202Y0148500D03*
X0110202Y0148500D03*
X0110202Y0138500D03*
X0110202Y0128500D03*
X0120202Y0128500D03*
X0130202Y0128500D03*
X0130202Y0138500D03*
X0120202Y0138500D03*
X0120202Y0148500D03*
X0130202Y0148500D03*
X0140202Y0148500D03*
X0150202Y0148500D03*
X0150202Y0138500D03*
X0140202Y0138500D03*
X0140202Y0128500D03*
X0150202Y0128500D03*
X0160202Y0128500D03*
X0160202Y0138500D03*
X0160202Y0148500D03*
X0160202Y0158500D03*
X0150202Y0158500D03*
X0140202Y0158500D03*
X0130202Y0158500D03*
X0120202Y0158500D03*
X0110202Y0158500D03*
X0100202Y0158500D03*
X0090202Y0158500D03*
X0080202Y0158500D03*
X0070202Y0158500D03*
X0060202Y0158500D03*
X0050202Y0158500D03*
X0040202Y0158500D03*
X0030202Y0158500D03*
X0030202Y0168500D03*
X0030202Y0178500D03*
X0030202Y0188500D03*
X0030202Y0198500D03*
X0030202Y0208500D03*
X0030202Y0218500D03*
X0040202Y0218500D03*
X0050202Y0218500D03*
X0050202Y0208500D03*
X0040202Y0208500D03*
X0040202Y0198500D03*
X0050202Y0198500D03*
X0050202Y0188500D03*
X0040202Y0188500D03*
X0040202Y0178500D03*
X0050202Y0178500D03*
X0050202Y0168500D03*
X0040202Y0168500D03*
X0060202Y0168500D03*
X0060202Y0178500D03*
X0060202Y0188500D03*
X0060202Y0198500D03*
X0060202Y0208500D03*
X0060202Y0218500D03*
X0070202Y0218500D03*
X0080202Y0218500D03*
X0080202Y0208500D03*
X0070202Y0208500D03*
X0070202Y0198500D03*
X0080202Y0198500D03*
X0080202Y0188500D03*
X0070202Y0188500D03*
X0070202Y0178500D03*
X0080202Y0178500D03*
X0080202Y0168500D03*
X0070202Y0168500D03*
X0090202Y0168500D03*
X0100202Y0168500D03*
X0100202Y0178500D03*
X0090202Y0178500D03*
X0090202Y0188500D03*
X0100202Y0188500D03*
X0100202Y0198500D03*
X0090202Y0198500D03*
X0090202Y0208500D03*
X0100202Y0208500D03*
X0100202Y0218500D03*
X0090202Y0218500D03*
X0090202Y0228500D03*
X0100202Y0228500D03*
X0100202Y0238500D03*
X0090202Y0238500D03*
X0080202Y0238500D03*
X0070202Y0238500D03*
X0060202Y0238500D03*
X0050202Y0238500D03*
X0040202Y0238500D03*
X0030202Y0238500D03*
X0030202Y0228500D03*
X0040202Y0228500D03*
X0050202Y0228500D03*
X0060202Y0228500D03*
X0070202Y0228500D03*
X0080202Y0228500D03*
X0080202Y0248500D03*
X0070202Y0248500D03*
X0060202Y0248500D03*
X0050202Y0248500D03*
X0040202Y0248500D03*
X0030202Y0248500D03*
X0030202Y0258500D03*
X0030202Y0268500D03*
X0030202Y0278500D03*
X0040202Y0278500D03*
X0050202Y0278500D03*
X0050202Y0268500D03*
X0040202Y0268500D03*
X0040202Y0258500D03*
X0050202Y0258500D03*
X0060202Y0258500D03*
X0060202Y0268500D03*
X0060202Y0278500D03*
X0070202Y0278500D03*
X0080202Y0278500D03*
X0080202Y0268500D03*
X0070202Y0268500D03*
X0070202Y0258500D03*
X0080202Y0258500D03*
X0090202Y0258500D03*
X0100202Y0258500D03*
X0100202Y0248500D03*
X0090202Y0248500D03*
X0110202Y0248500D03*
X0110202Y0238500D03*
X0110202Y0228500D03*
X0120202Y0228500D03*
X0130202Y0228500D03*
X0130202Y0238500D03*
X0120202Y0238500D03*
X0120202Y0248500D03*
X0130202Y0248500D03*
X0130202Y0258500D03*
X0120202Y0258500D03*
X0110202Y0258500D03*
X0110202Y0268500D03*
X0100202Y0268500D03*
X0090202Y0268500D03*
X0090202Y0278500D03*
X0100202Y0278500D03*
X0110202Y0278500D03*
X0120202Y0278500D03*
X0130202Y0278500D03*
X0130202Y0268500D03*
X0120202Y0268500D03*
X0140202Y0268500D03*
X0150202Y0268500D03*
X0150202Y0258500D03*
X0140202Y0258500D03*
X0140202Y0248500D03*
X0150202Y0248500D03*
X0150202Y0238500D03*
X0140202Y0238500D03*
X0140202Y0228500D03*
X0150202Y0228500D03*
X0160202Y0228500D03*
X0160202Y0238500D03*
X0160202Y0248500D03*
X0160202Y0258500D03*
X0160202Y0268500D03*
X0160202Y0278500D03*
X0150202Y0278500D03*
X0140202Y0278500D03*
X0140202Y0288500D03*
X0150202Y0288500D03*
X0150202Y0298500D03*
X0140202Y0298500D03*
X0130202Y0298500D03*
X0120202Y0298500D03*
X0110202Y0298500D03*
X0100202Y0298500D03*
X0090202Y0298500D03*
X0080202Y0298500D03*
X0070202Y0298500D03*
X0060202Y0298500D03*
X0050202Y0298500D03*
X0040202Y0298500D03*
X0030202Y0298500D03*
X0030202Y0288500D03*
X0040202Y0288500D03*
X0050202Y0288500D03*
X0060202Y0288500D03*
X0070202Y0288500D03*
X0080202Y0288500D03*
X0090202Y0288500D03*
X0100202Y0288500D03*
X0110202Y0288500D03*
X0120202Y0288500D03*
X0130202Y0288500D03*
X0130202Y0308500D03*
X0120202Y0308500D03*
X0110202Y0308500D03*
X0100202Y0308500D03*
X0090202Y0308500D03*
X0080202Y0308500D03*
X0070202Y0308500D03*
X0060202Y0308500D03*
X0050202Y0308500D03*
X0040202Y0308500D03*
X0030202Y0308500D03*
X0140202Y0308500D03*
X0150202Y0308500D03*
X0160202Y0308500D03*
X0160202Y0298500D03*
X0160202Y0288500D03*
X0160202Y0218500D03*
X0150202Y0218500D03*
X0140202Y0218500D03*
X0130202Y0218500D03*
X0120202Y0218500D03*
X0110202Y0218500D03*
X0110202Y0208500D03*
X0110202Y0198500D03*
X0110202Y0188500D03*
X0110202Y0178500D03*
X0110202Y0168500D03*
X0120202Y0168500D03*
X0130202Y0168500D03*
X0130202Y0178500D03*
X0120202Y0178500D03*
X0120202Y0188500D03*
X0130202Y0188500D03*
X0130202Y0198500D03*
X0120202Y0198500D03*
X0120202Y0208500D03*
X0130202Y0208500D03*
X0140202Y0208500D03*
X0150202Y0208500D03*
X0150202Y0198500D03*
X0140202Y0198500D03*
X0140202Y0188500D03*
X0150202Y0188500D03*
X0150202Y0178500D03*
X0140202Y0178500D03*
X0140202Y0168500D03*
X0150202Y0168500D03*
X0160202Y0168500D03*
X0160202Y0178500D03*
X0160202Y0188500D03*
X0160202Y0198500D03*
X0160202Y0208500D03*
X0030202Y0088500D03*
X0020202Y0088500D03*
X0010202Y0088500D03*
X0010202Y0028500D03*
X0020202Y0028500D03*
X0030202Y0028500D03*
M02*
