%
M48
M72
T01C0.04000
T02C0.07874
%
T01
X10202Y8500
X10202Y18500
X10202Y28500
X20202Y28500
X30202Y28500
X30202Y18500
X20202Y18500
X20202Y8500
X30202Y8500
X40202Y8500
X50202Y8500
X50202Y18500
X40202Y18500
X40202Y28500
X50202Y28500
X60202Y28500
X60202Y18500
X60202Y8500
X70202Y8500
X80202Y8500
X80202Y18500
X70202Y18500
X70202Y28500
X80202Y28500
X90202Y28500
X100202Y28500
X100202Y18500
X90202Y18500
X90202Y8500
X100202Y8500
X110202Y8500
X110202Y18500
X110202Y28500
X120202Y28500
X130202Y28500
X130202Y18500
X120202Y18500
X120202Y8500
X130202Y8500
X140202Y8500
X150202Y8500
X150202Y18500
X140202Y18500
X140202Y28500
X150202Y28500
X160202Y28500
X160202Y18500
X160202Y8500
X170202Y8500
X170202Y18500
X170202Y28500
X180202Y28500
X180202Y38500
X170202Y38500
X160202Y38500
X150202Y38500
X140202Y38500
X130202Y38500
X120202Y38500
X110202Y38500
X100202Y38500
X90202Y38500
X80202Y38500
X70202Y38500
X60202Y38500
X50202Y38500
X40202Y38500
X30202Y38500
X20202Y38500
X10202Y38500
X10202Y48500
X10202Y58500
X10202Y68500
X10202Y78500
X10202Y88500
X20202Y88500
X30202Y88500
X30202Y78500
X20202Y78500
X20202Y68500
X30202Y68500
X30202Y58500
X20202Y58500
X20202Y48500
X30202Y48500
X40202Y48500
X50202Y48500
X50202Y58500
X40202Y58500
X40202Y68500
X50202Y68500
X50202Y78500
X40202Y78500
X40202Y88500
X50202Y88500
X60202Y88500
X60202Y78500
X60202Y68500
X60202Y58500
X60202Y48500
X70202Y48500
X80202Y48500
X80202Y58500
X70202Y58500
X70202Y68500
X80202Y68500
X80202Y78500
X70202Y78500
X70202Y88500
X80202Y88500
X90202Y88500
X100202Y88500
X100202Y78500
X90202Y78500
X90202Y68500
X100202Y68500
X100202Y58500
X90202Y58500
X90202Y48500
X100202Y48500
X110202Y48500
X110202Y58500
X110202Y68500
X110202Y78500
X110202Y88500
X120202Y88500
X130202Y88500
X130202Y78500
X120202Y78500
X120202Y68500
X130202Y68500
X130202Y58500
X120202Y58500
X120202Y48500
X130202Y48500
X140202Y48500
X150202Y48500
X150202Y58500
X140202Y58500
X140202Y68500
X150202Y68500
X150202Y78500
X140202Y78500
X140202Y88500
X150202Y88500
X160202Y88500
X160202Y78500
X160202Y68500
X160202Y58500
X160202Y48500
X170202Y48500
X180202Y48500
X180202Y58500
X170202Y58500
X170202Y68500
X180202Y68500
X180202Y78500
X170202Y78500
X170202Y88500
X180202Y88500
X180202Y98500
X170202Y98500
X160202Y98500
X150202Y98500
X140202Y98500
X130202Y98500
X120202Y98500
X110202Y98500
X100202Y98500
X90202Y98500
X80202Y98500
X70202Y98500
X60202Y98500
X50202Y98500
X40202Y98500
X30202Y98500
X20202Y98500
X10202Y98500
X10202Y108500
X20202Y108500
X30202Y108500
X30202Y118500
X30202Y128500
X30202Y138500
X30202Y148500
X40202Y148500
X50202Y148500
X50202Y138500
X40202Y138500
X40202Y128500
X50202Y128500
X50202Y118500
X40202Y118500
X40202Y108500
X50202Y108500
X60202Y108500
X60202Y118500
X60202Y128500
X60202Y138500
X60202Y148500
X70202Y148500
X80202Y148500
X80202Y138500
X70202Y138500
X70202Y128500
X80202Y128500
X80202Y118500
X70202Y118500
X70202Y108500
X80202Y108500
X90202Y108500
X100202Y108500
X100202Y118500
X90202Y118500
X90202Y128500
X100202Y128500
X100202Y138500
X90202Y138500
X90202Y148500
X100202Y148500
X110202Y148500
X110202Y138500
X110202Y128500
X110202Y118500
X110202Y108500
X120202Y108500
X130202Y108500
X130202Y118500
X120202Y118500
X120202Y128500
X130202Y128500
X130202Y138500
X120202Y138500
X120202Y148500
X130202Y148500
X140202Y148500
X150202Y148500
X150202Y138500
X140202Y138500
X140202Y128500
X150202Y128500
X150202Y118500
X140202Y118500
X140202Y108500
X150202Y108500
X160202Y108500
X160202Y118500
X160202Y128500
X160202Y138500
X160202Y148500
X160202Y158500
X150202Y158500
X140202Y158500
X130202Y158500
X120202Y158500
X110202Y158500
X100202Y158500
X90202Y158500
X80202Y158500
X70202Y158500
X60202Y158500
X50202Y158500
X40202Y158500
X30202Y158500
X30202Y168500
X30202Y178500
X30202Y188500
X30202Y198500
X30202Y208500
X30202Y218500
X40202Y218500
X50202Y218500
X50202Y208500
X40202Y208500
X40202Y198500
X50202Y198500
X50202Y188500
X40202Y188500
X40202Y178500
X50202Y178500
X50202Y168500
X40202Y168500
X60202Y168500
X60202Y178500
X60202Y188500
X60202Y198500
X60202Y208500
X60202Y218500
X70202Y218500
X80202Y218500
X80202Y208500
X70202Y208500
X70202Y198500
X80202Y198500
X80202Y188500
X70202Y188500
X70202Y178500
X80202Y178500
X80202Y168500
X70202Y168500
X90202Y168500
X100202Y168500
X100202Y178500
X90202Y178500
X90202Y188500
X100202Y188500
X100202Y198500
X90202Y198500
X90202Y208500
X100202Y208500
X100202Y218500
X90202Y218500
X90202Y228500
X100202Y228500
X100202Y238500
X90202Y238500
X80202Y238500
X70202Y238500
X60202Y238500
X50202Y238500
X40202Y238500
X30202Y238500
X30202Y228500
X40202Y228500
X50202Y228500
X60202Y228500
X70202Y228500
X80202Y228500
X80202Y248500
X70202Y248500
X60202Y248500
X50202Y248500
X40202Y248500
X30202Y248500
X30202Y258500
X30202Y268500
X30202Y278500
X40202Y278500
X50202Y278500
X50202Y268500
X40202Y268500
X40202Y258500
X50202Y258500
X60202Y258500
X60202Y268500
X60202Y278500
X70202Y278500
X80202Y278500
X80202Y268500
X70202Y268500
X70202Y258500
X80202Y258500
X90202Y258500
X100202Y258500
X100202Y248500
X90202Y248500
X110202Y248500
X110202Y238500
X110202Y228500
X120202Y228500
X130202Y228500
X130202Y238500
X120202Y238500
X120202Y248500
X130202Y248500
X130202Y258500
X120202Y258500
X110202Y258500
X110202Y268500
X100202Y268500
X90202Y268500
X90202Y278500
X100202Y278500
X110202Y278500
X120202Y278500
X130202Y278500
X130202Y268500
X120202Y268500
X140202Y268500
X150202Y268500
X150202Y258500
X140202Y258500
X140202Y248500
X150202Y248500
X150202Y238500
X140202Y238500
X140202Y228500
X150202Y228500
X160202Y228500
X160202Y238500
X160202Y248500
X160202Y258500
X160202Y268500
X160202Y278500
X150202Y278500
X140202Y278500
X140202Y288500
X150202Y288500
X150202Y298500
X140202Y298500
X130202Y298500
X120202Y298500
X110202Y298500
X100202Y298500
X90202Y298500
X80202Y298500
X70202Y298500
X60202Y298500
X50202Y298500
X40202Y298500
X30202Y298500
X30202Y288500
X40202Y288500
X50202Y288500
X60202Y288500
X70202Y288500
X80202Y288500
X90202Y288500
X100202Y288500
X110202Y288500
X120202Y288500
X130202Y288500
X130202Y308500
X120202Y308500
X110202Y308500
X100202Y308500
X90202Y308500
X80202Y308500
X70202Y308500
X60202Y308500
X50202Y308500
X40202Y308500
X30202Y308500
X9100Y293461
X9100Y283461
X9100Y273461
X9100Y263461
X9100Y253461
X9100Y243461
X9100Y233461
X9100Y223461
X9100Y213461
X9100Y203461
X9100Y193461
X9100Y183461
X9100Y173461
X9100Y163461
X9100Y153461
X9100Y143461
X9100Y133461
X9100Y123461
X110202Y168500
X110202Y178500
X110202Y188500
X110202Y198500
X110202Y208500
X110202Y218500
X120202Y218500
X130202Y218500
X130202Y208500
X120202Y208500
X120202Y198500
X130202Y198500
X130202Y188500
X120202Y188500
X120202Y178500
X130202Y178500
X130202Y168500
X120202Y168500
X140202Y168500
X150202Y168500
X150202Y178500
X140202Y178500
X140202Y188500
X150202Y188500
X150202Y198500
X140202Y198500
X140202Y208500
X150202Y208500
X150202Y218500
X140202Y218500
X160202Y218500
X160202Y208500
X160202Y198500
X160202Y188500
X160202Y178500
X160202Y168500
X182328Y165862
X182328Y155862
X182328Y145862
X182328Y135862
X182328Y125862
X180202Y108500
X170202Y108500
X204100Y123461
X204100Y133461
X204100Y143461
X204100Y153461
X204100Y163461
X204100Y173461
X204100Y183461
X204100Y193461
X204100Y203461
X204100Y213461
X204100Y223461
X204100Y233461
X204100Y243461
X204100Y253461
X204100Y263461
X204100Y273461
X204100Y283461
X204100Y293461
X182328Y295862
X182328Y285862
X182328Y275862
X182328Y265862
X182328Y255862
X182328Y245862
X182328Y235862
X182328Y225862
X182328Y215862
X182328Y205862
X182328Y195862
X182328Y185862
X182328Y175862
X225202Y178500
X235202Y178500
X235202Y168500
X225202Y168500
X225202Y158500
X235202Y158500
X245202Y158500
X245202Y168500
X245202Y178500
X245202Y188500
X235202Y188500
X225202Y188500
X225202Y198500
X235202Y198500
X235202Y208500
X225202Y208500
X225202Y218500
X235202Y218500
X245202Y218500
X245202Y208500
X245202Y198500
X255202Y198500
X265202Y198500
X265202Y188500
X255202Y188500
X255202Y178500
X265202Y178500
X265202Y168500
X255202Y168500
X255202Y158500
X265202Y158500
X275202Y158500
X285202Y158500
X285202Y168500
X275202Y168500
X275202Y178500
X285202Y178500
X285202Y188500
X275202Y188500
X275202Y198500
X285202Y198500
X285202Y208500
X275202Y208500
X265202Y208500
X255202Y208500
X255202Y218500
X265202Y218500
X275202Y218500
X285202Y218500
X295202Y218500
X305202Y218500
X305202Y208500
X295202Y208500
X295202Y198500
X305202Y198500
X305202Y188500
X295202Y188500
X295202Y178500
X305202Y178500
X305202Y168500
X295202Y168500
X295202Y158500
X305202Y158500
X315202Y158500
X315202Y168500
X315202Y178500
X315202Y188500
X315202Y198500
X315202Y208500
X315202Y218500
X325202Y218500
X335202Y218500
X335202Y208500
X325202Y208500
X325202Y198500
X335202Y198500
X335202Y188500
X325202Y188500
X325202Y178500
X335202Y178500
X335202Y168500
X325202Y168500
X325202Y158500
X335202Y158500
X345202Y158500
X355202Y158500
X355202Y168500
X345202Y168500
X345202Y178500
X355202Y178500
X355202Y188500
X345202Y188500
X345202Y198500
X355202Y198500
X355202Y208500
X345202Y208500
X345202Y218500
X355202Y218500
X355202Y228500
X345202Y228500
X335202Y228500
X325202Y228500
X315202Y228500
X305202Y228500
X295202Y228500
X285202Y228500
X275202Y228500
X265202Y228500
X255202Y228500
X245202Y228500
X235202Y228500
X225202Y228500
X225202Y238500
X235202Y238500
X235202Y248500
X225202Y248500
X225202Y258500
X235202Y258500
X235202Y268500
X225202Y268500
X225202Y278500
X235202Y278500
X245202Y278500
X245202Y268500
X245202Y258500
X245202Y248500
X245202Y238500
X255202Y238500
X265202Y238500
X265202Y248500
X255202Y248500
X255202Y258500
X265202Y258500
X265202Y268500
X255202Y268500
X255202Y278500
X265202Y278500
X275202Y278500
X285202Y278500
X285202Y268500
X275202Y268500
X275202Y258500
X285202Y258500
X285202Y248500
X275202Y248500
X275202Y238500
X285202Y238500
X295202Y238500
X305202Y238500
X305202Y248500
X295202Y248500
X295202Y258500
X305202Y258500
X305202Y268500
X295202Y268500
X295202Y278500
X305202Y278500
X315202Y278500
X315202Y268500
X315202Y258500
X315202Y248500
X315202Y238500
X325202Y238500
X335202Y238500
X335202Y248500
X325202Y248500
X325202Y258500
X335202Y258500
X335202Y268500
X325202Y268500
X325202Y278500
X335202Y278500
X345202Y278500
X355202Y278500
X355202Y268500
X345202Y268500
X345202Y258500
X355202Y258500
X355202Y248500
X345202Y248500
X345202Y238500
X355202Y238500
X377328Y235862
X377328Y225862
X377328Y215862
X377328Y205862
X377328Y195862
X377328Y185862
X377328Y175862
X377328Y165862
X377328Y155862
X377328Y145862
X377328Y135862
X377328Y125862
X375202Y108500
X365202Y108500
X355202Y108500
X345202Y108500
X335202Y108500
X325202Y108500
X315202Y108500
X305202Y108500
X295202Y108500
X285202Y108500
X275202Y108500
X265202Y108500
X255202Y108500
X245202Y108500
X235202Y108500
X225202Y108500
X215202Y108500
X205202Y108500
X205202Y98500
X215202Y98500
X225202Y98500
X235202Y98500
X245202Y98500
X255202Y98500
X265202Y98500
X275202Y98500
X285202Y98500
X295202Y98500
X305202Y98500
X315202Y98500
X325202Y98500
X335202Y98500
X345202Y98500
X355202Y98500
X365202Y98500
X375202Y98500
X375202Y88500
X365202Y88500
X355202Y88500
X345202Y88500
X335202Y88500
X325202Y88500
X315202Y88500
X305202Y88500
X295202Y88500
X285202Y88500
X275202Y88500
X265202Y88500
X255202Y88500
X245202Y88500
X235202Y88500
X225202Y88500
X215202Y88500
X205202Y88500
X205202Y78500
X215202Y78500
X215202Y68500
X205202Y68500
X205202Y58500
X215202Y58500
X215202Y48500
X205202Y48500
X205202Y38500
X215202Y38500
X225202Y38500
X235202Y38500
X235202Y48500
X225202Y48500
X225202Y58500
X235202Y58500
X235202Y68500
X225202Y68500
X225202Y78500
X235202Y78500
X245202Y78500
X245202Y68500
X245202Y58500
X245202Y48500
X245202Y38500
X255202Y38500
X265202Y38500
X265202Y48500
X255202Y48500
X255202Y58500
X265202Y58500
X265202Y68500
X255202Y68500
X255202Y78500
X265202Y78500
X275202Y78500
X285202Y78500
X285202Y68500
X275202Y68500
X275202Y58500
X285202Y58500
X285202Y48500
X275202Y48500
X275202Y38500
X285202Y38500
X295202Y38500
X305202Y38500
X305202Y48500
X295202Y48500
X295202Y58500
X305202Y58500
X305202Y68500
X295202Y68500
X295202Y78500
X305202Y78500
X315202Y78500
X315202Y68500
X315202Y58500
X315202Y48500
X315202Y38500
X325202Y38500
X335202Y38500
X335202Y48500
X325202Y48500
X325202Y58500
X335202Y58500
X335202Y68500
X325202Y68500
X325202Y78500
X335202Y78500
X345202Y78500
X355202Y78500
X355202Y68500
X345202Y68500
X345202Y58500
X355202Y58500
X355202Y48500
X345202Y48500
X345202Y38500
X355202Y38500
X365202Y38500
X365202Y48500
X365202Y58500
X365202Y68500
X365202Y78500
X375202Y78500
X375202Y68500
X375202Y58500
X375202Y48500
X375202Y38500
X375202Y28500
X365202Y28500
X355202Y28500
X345202Y28500
X335202Y28500
X325202Y28500
X315202Y28500
X305202Y28500
X295202Y28500
X285202Y28500
X275202Y28500
X265202Y28500
X255202Y28500
X245202Y28500
X235202Y28500
X225202Y28500
X215202Y28500
X205202Y28500
X205202Y18500
X215202Y18500
X215202Y8500
X205202Y8500
X225202Y8500
X235202Y8500
X235202Y18500
X225202Y18500
X245202Y18500
X245202Y8500
X255202Y8500
X265202Y8500
X265202Y18500
X255202Y18500
X275202Y18500
X285202Y18500
X285202Y8500
X275202Y8500
X295202Y8500
X305202Y8500
X305202Y18500
X295202Y18500
X315202Y18500
X315202Y8500
X325202Y8500
X335202Y8500
X335202Y18500
X325202Y18500
X345202Y18500
X355202Y18500
X355202Y8500
X345202Y8500
X365202Y8500
X365202Y18500
X355202Y118500
X345202Y118500
X335202Y118500
X325202Y118500
X315202Y118500
X305202Y118500
X295202Y118500
X285202Y118500
X275202Y118500
X265202Y118500
X255202Y118500
X245202Y118500
X235202Y118500
X225202Y118500
X225202Y128500
X235202Y128500
X235202Y138500
X225202Y138500
X225202Y148500
X235202Y148500
X245202Y148500
X245202Y138500
X245202Y128500
X255202Y128500
X265202Y128500
X265202Y138500
X255202Y138500
X255202Y148500
X265202Y148500
X275202Y148500
X285202Y148500
X285202Y138500
X275202Y138500
X275202Y128500
X285202Y128500
X295202Y128500
X305202Y128500
X305202Y138500
X295202Y138500
X295202Y148500
X305202Y148500
X315202Y148500
X315202Y138500
X315202Y128500
X325202Y128500
X335202Y128500
X335202Y138500
X325202Y138500
X325202Y148500
X335202Y148500
X345202Y148500
X355202Y148500
X355202Y138500
X345202Y138500
X345202Y128500
X355202Y128500
X377328Y245862
X377328Y255862
X377328Y265862
X377328Y275862
X377328Y285862
X377328Y295862
X355202Y298500
X345202Y298500
X335202Y298500
X325202Y298500
X315202Y298500
X305202Y298500
X295202Y298500
X285202Y298500
X275202Y298500
X265202Y298500
X255202Y298500
X245202Y298500
X235202Y298500
X225202Y298500
X225202Y288500
X235202Y288500
X245202Y288500
X255202Y288500
X265202Y288500
X275202Y288500
X285202Y288500
X295202Y288500
X305202Y288500
X315202Y288500
X325202Y288500
X335202Y288500
X345202Y288500
X355202Y288500
X355202Y308500
X345202Y308500
X335202Y308500
X325202Y308500
X315202Y308500
X305202Y308500
X295202Y308500
X285202Y308500
X275202Y308500
X265202Y308500
X255202Y308500
X245202Y308500
X235202Y308500
X225202Y308500
X160202Y308500
X150202Y308500
X140202Y308500
X160202Y298500
X160202Y288500
T02
X206069Y306118
X11069Y306118
X180360Y10843
X375360Y10843
M30
