G75*
%MOIN*%
%OFA0B0*%
%FSLAX25Y25*%
%IPPOS*%
%LPD*%
%AMOC8*
5,1,8,0,0,1.08239X$1,22.5*
%
%ADD10C,0.00000*%
%ADD11C,0.00300*%
%ADD12C,0.04100*%
D10*
X0001202Y0006000D02*
X0006202Y0001000D01*
X0185202Y0001000D01*
X0190202Y0006000D01*
X0190202Y0017250D01*
X0190204Y0017318D01*
X0190209Y0017385D01*
X0190218Y0017452D01*
X0190231Y0017519D01*
X0190248Y0017584D01*
X0190267Y0017649D01*
X0190291Y0017713D01*
X0190318Y0017775D01*
X0190348Y0017836D01*
X0190381Y0017894D01*
X0190417Y0017951D01*
X0190457Y0018006D01*
X0190499Y0018059D01*
X0190545Y0018110D01*
X0190592Y0018157D01*
X0190643Y0018203D01*
X0190696Y0018245D01*
X0190751Y0018285D01*
X0190808Y0018321D01*
X0190866Y0018354D01*
X0190927Y0018384D01*
X0190989Y0018411D01*
X0191053Y0018435D01*
X0191118Y0018454D01*
X0191183Y0018471D01*
X0191250Y0018484D01*
X0191317Y0018493D01*
X0191384Y0018498D01*
X0191452Y0018500D01*
X0194952Y0018500D01*
X0195020Y0018498D01*
X0195087Y0018493D01*
X0195154Y0018484D01*
X0195221Y0018471D01*
X0195286Y0018454D01*
X0195351Y0018435D01*
X0195415Y0018411D01*
X0195477Y0018384D01*
X0195538Y0018354D01*
X0195596Y0018321D01*
X0195653Y0018285D01*
X0195708Y0018245D01*
X0195761Y0018203D01*
X0195812Y0018157D01*
X0195859Y0018110D01*
X0195905Y0018059D01*
X0195947Y0018006D01*
X0195987Y0017951D01*
X0196023Y0017894D01*
X0196056Y0017836D01*
X0196086Y0017775D01*
X0196113Y0017713D01*
X0196137Y0017649D01*
X0196156Y0017584D01*
X0196173Y0017519D01*
X0196186Y0017452D01*
X0196195Y0017385D01*
X0196200Y0017318D01*
X0196202Y0017250D01*
X0196202Y0006000D01*
X0201202Y0001000D01*
X0380202Y0001000D01*
X0385202Y0006000D01*
X0385202Y0311000D01*
X0380202Y0316000D01*
X0201202Y0316000D01*
X0196202Y0311000D01*
X0196202Y0027250D01*
X0196200Y0027182D01*
X0196195Y0027115D01*
X0196186Y0027048D01*
X0196173Y0026981D01*
X0196156Y0026916D01*
X0196137Y0026851D01*
X0196113Y0026787D01*
X0196086Y0026725D01*
X0196056Y0026664D01*
X0196023Y0026606D01*
X0195987Y0026549D01*
X0195947Y0026494D01*
X0195905Y0026441D01*
X0195859Y0026390D01*
X0195812Y0026343D01*
X0195761Y0026297D01*
X0195708Y0026255D01*
X0195653Y0026215D01*
X0195596Y0026179D01*
X0195538Y0026146D01*
X0195477Y0026116D01*
X0195415Y0026089D01*
X0195351Y0026065D01*
X0195286Y0026046D01*
X0195221Y0026029D01*
X0195154Y0026016D01*
X0195087Y0026007D01*
X0195020Y0026002D01*
X0194952Y0026000D01*
X0191452Y0026000D01*
X0191384Y0026002D01*
X0191317Y0026007D01*
X0191250Y0026016D01*
X0191183Y0026029D01*
X0191118Y0026046D01*
X0191053Y0026065D01*
X0190989Y0026089D01*
X0190927Y0026116D01*
X0190866Y0026146D01*
X0190808Y0026179D01*
X0190751Y0026215D01*
X0190696Y0026255D01*
X0190643Y0026297D01*
X0190592Y0026343D01*
X0190545Y0026390D01*
X0190499Y0026441D01*
X0190457Y0026494D01*
X0190417Y0026549D01*
X0190381Y0026606D01*
X0190348Y0026664D01*
X0190318Y0026725D01*
X0190291Y0026787D01*
X0190267Y0026851D01*
X0190248Y0026916D01*
X0190231Y0026981D01*
X0190218Y0027048D01*
X0190209Y0027115D01*
X0190204Y0027182D01*
X0190202Y0027250D01*
X0190202Y0311000D01*
X0185202Y0316000D01*
X0006202Y0316000D01*
X0001202Y0311000D01*
X0001202Y0006000D01*
X0176423Y0010843D02*
X0176425Y0010968D01*
X0176431Y0011093D01*
X0176441Y0011217D01*
X0176455Y0011341D01*
X0176472Y0011465D01*
X0176494Y0011588D01*
X0176520Y0011710D01*
X0176549Y0011832D01*
X0176582Y0011952D01*
X0176620Y0012071D01*
X0176660Y0012190D01*
X0176705Y0012306D01*
X0176753Y0012421D01*
X0176805Y0012535D01*
X0176861Y0012647D01*
X0176920Y0012757D01*
X0176982Y0012865D01*
X0177048Y0012972D01*
X0177117Y0013076D01*
X0177190Y0013177D01*
X0177265Y0013277D01*
X0177344Y0013374D01*
X0177426Y0013468D01*
X0177511Y0013560D01*
X0177598Y0013649D01*
X0177689Y0013735D01*
X0177782Y0013818D01*
X0177878Y0013899D01*
X0177976Y0013976D01*
X0178076Y0014050D01*
X0178179Y0014121D01*
X0178284Y0014188D01*
X0178392Y0014253D01*
X0178501Y0014313D01*
X0178612Y0014371D01*
X0178725Y0014424D01*
X0178839Y0014474D01*
X0178955Y0014521D01*
X0179072Y0014563D01*
X0179191Y0014602D01*
X0179311Y0014638D01*
X0179432Y0014669D01*
X0179554Y0014697D01*
X0179676Y0014720D01*
X0179800Y0014740D01*
X0179924Y0014756D01*
X0180048Y0014768D01*
X0180173Y0014776D01*
X0180298Y0014780D01*
X0180422Y0014780D01*
X0180547Y0014776D01*
X0180672Y0014768D01*
X0180796Y0014756D01*
X0180920Y0014740D01*
X0181044Y0014720D01*
X0181166Y0014697D01*
X0181288Y0014669D01*
X0181409Y0014638D01*
X0181529Y0014602D01*
X0181648Y0014563D01*
X0181765Y0014521D01*
X0181881Y0014474D01*
X0181995Y0014424D01*
X0182108Y0014371D01*
X0182219Y0014313D01*
X0182329Y0014253D01*
X0182436Y0014188D01*
X0182541Y0014121D01*
X0182644Y0014050D01*
X0182744Y0013976D01*
X0182842Y0013899D01*
X0182938Y0013818D01*
X0183031Y0013735D01*
X0183122Y0013649D01*
X0183209Y0013560D01*
X0183294Y0013468D01*
X0183376Y0013374D01*
X0183455Y0013277D01*
X0183530Y0013177D01*
X0183603Y0013076D01*
X0183672Y0012972D01*
X0183738Y0012865D01*
X0183800Y0012757D01*
X0183859Y0012647D01*
X0183915Y0012535D01*
X0183967Y0012421D01*
X0184015Y0012306D01*
X0184060Y0012190D01*
X0184100Y0012071D01*
X0184138Y0011952D01*
X0184171Y0011832D01*
X0184200Y0011710D01*
X0184226Y0011588D01*
X0184248Y0011465D01*
X0184265Y0011341D01*
X0184279Y0011217D01*
X0184289Y0011093D01*
X0184295Y0010968D01*
X0184297Y0010843D01*
X0184295Y0010718D01*
X0184289Y0010593D01*
X0184279Y0010469D01*
X0184265Y0010345D01*
X0184248Y0010221D01*
X0184226Y0010098D01*
X0184200Y0009976D01*
X0184171Y0009854D01*
X0184138Y0009734D01*
X0184100Y0009615D01*
X0184060Y0009496D01*
X0184015Y0009380D01*
X0183967Y0009265D01*
X0183915Y0009151D01*
X0183859Y0009039D01*
X0183800Y0008929D01*
X0183738Y0008821D01*
X0183672Y0008714D01*
X0183603Y0008610D01*
X0183530Y0008509D01*
X0183455Y0008409D01*
X0183376Y0008312D01*
X0183294Y0008218D01*
X0183209Y0008126D01*
X0183122Y0008037D01*
X0183031Y0007951D01*
X0182938Y0007868D01*
X0182842Y0007787D01*
X0182744Y0007710D01*
X0182644Y0007636D01*
X0182541Y0007565D01*
X0182436Y0007498D01*
X0182328Y0007433D01*
X0182219Y0007373D01*
X0182108Y0007315D01*
X0181995Y0007262D01*
X0181881Y0007212D01*
X0181765Y0007165D01*
X0181648Y0007123D01*
X0181529Y0007084D01*
X0181409Y0007048D01*
X0181288Y0007017D01*
X0181166Y0006989D01*
X0181044Y0006966D01*
X0180920Y0006946D01*
X0180796Y0006930D01*
X0180672Y0006918D01*
X0180547Y0006910D01*
X0180422Y0006906D01*
X0180298Y0006906D01*
X0180173Y0006910D01*
X0180048Y0006918D01*
X0179924Y0006930D01*
X0179800Y0006946D01*
X0179676Y0006966D01*
X0179554Y0006989D01*
X0179432Y0007017D01*
X0179311Y0007048D01*
X0179191Y0007084D01*
X0179072Y0007123D01*
X0178955Y0007165D01*
X0178839Y0007212D01*
X0178725Y0007262D01*
X0178612Y0007315D01*
X0178501Y0007373D01*
X0178391Y0007433D01*
X0178284Y0007498D01*
X0178179Y0007565D01*
X0178076Y0007636D01*
X0177976Y0007710D01*
X0177878Y0007787D01*
X0177782Y0007868D01*
X0177689Y0007951D01*
X0177598Y0008037D01*
X0177511Y0008126D01*
X0177426Y0008218D01*
X0177344Y0008312D01*
X0177265Y0008409D01*
X0177190Y0008509D01*
X0177117Y0008610D01*
X0177048Y0008714D01*
X0176982Y0008821D01*
X0176920Y0008929D01*
X0176861Y0009039D01*
X0176805Y0009151D01*
X0176753Y0009265D01*
X0176705Y0009380D01*
X0176660Y0009496D01*
X0176620Y0009615D01*
X0176582Y0009734D01*
X0176549Y0009854D01*
X0176520Y0009976D01*
X0176494Y0010098D01*
X0176472Y0010221D01*
X0176455Y0010345D01*
X0176441Y0010469D01*
X0176431Y0010593D01*
X0176425Y0010718D01*
X0176423Y0010843D01*
X0371423Y0010843D02*
X0371425Y0010968D01*
X0371431Y0011093D01*
X0371441Y0011217D01*
X0371455Y0011341D01*
X0371472Y0011465D01*
X0371494Y0011588D01*
X0371520Y0011710D01*
X0371549Y0011832D01*
X0371582Y0011952D01*
X0371620Y0012071D01*
X0371660Y0012190D01*
X0371705Y0012306D01*
X0371753Y0012421D01*
X0371805Y0012535D01*
X0371861Y0012647D01*
X0371920Y0012757D01*
X0371982Y0012865D01*
X0372048Y0012972D01*
X0372117Y0013076D01*
X0372190Y0013177D01*
X0372265Y0013277D01*
X0372344Y0013374D01*
X0372426Y0013468D01*
X0372511Y0013560D01*
X0372598Y0013649D01*
X0372689Y0013735D01*
X0372782Y0013818D01*
X0372878Y0013899D01*
X0372976Y0013976D01*
X0373076Y0014050D01*
X0373179Y0014121D01*
X0373284Y0014188D01*
X0373392Y0014253D01*
X0373501Y0014313D01*
X0373612Y0014371D01*
X0373725Y0014424D01*
X0373839Y0014474D01*
X0373955Y0014521D01*
X0374072Y0014563D01*
X0374191Y0014602D01*
X0374311Y0014638D01*
X0374432Y0014669D01*
X0374554Y0014697D01*
X0374676Y0014720D01*
X0374800Y0014740D01*
X0374924Y0014756D01*
X0375048Y0014768D01*
X0375173Y0014776D01*
X0375298Y0014780D01*
X0375422Y0014780D01*
X0375547Y0014776D01*
X0375672Y0014768D01*
X0375796Y0014756D01*
X0375920Y0014740D01*
X0376044Y0014720D01*
X0376166Y0014697D01*
X0376288Y0014669D01*
X0376409Y0014638D01*
X0376529Y0014602D01*
X0376648Y0014563D01*
X0376765Y0014521D01*
X0376881Y0014474D01*
X0376995Y0014424D01*
X0377108Y0014371D01*
X0377219Y0014313D01*
X0377329Y0014253D01*
X0377436Y0014188D01*
X0377541Y0014121D01*
X0377644Y0014050D01*
X0377744Y0013976D01*
X0377842Y0013899D01*
X0377938Y0013818D01*
X0378031Y0013735D01*
X0378122Y0013649D01*
X0378209Y0013560D01*
X0378294Y0013468D01*
X0378376Y0013374D01*
X0378455Y0013277D01*
X0378530Y0013177D01*
X0378603Y0013076D01*
X0378672Y0012972D01*
X0378738Y0012865D01*
X0378800Y0012757D01*
X0378859Y0012647D01*
X0378915Y0012535D01*
X0378967Y0012421D01*
X0379015Y0012306D01*
X0379060Y0012190D01*
X0379100Y0012071D01*
X0379138Y0011952D01*
X0379171Y0011832D01*
X0379200Y0011710D01*
X0379226Y0011588D01*
X0379248Y0011465D01*
X0379265Y0011341D01*
X0379279Y0011217D01*
X0379289Y0011093D01*
X0379295Y0010968D01*
X0379297Y0010843D01*
X0379295Y0010718D01*
X0379289Y0010593D01*
X0379279Y0010469D01*
X0379265Y0010345D01*
X0379248Y0010221D01*
X0379226Y0010098D01*
X0379200Y0009976D01*
X0379171Y0009854D01*
X0379138Y0009734D01*
X0379100Y0009615D01*
X0379060Y0009496D01*
X0379015Y0009380D01*
X0378967Y0009265D01*
X0378915Y0009151D01*
X0378859Y0009039D01*
X0378800Y0008929D01*
X0378738Y0008821D01*
X0378672Y0008714D01*
X0378603Y0008610D01*
X0378530Y0008509D01*
X0378455Y0008409D01*
X0378376Y0008312D01*
X0378294Y0008218D01*
X0378209Y0008126D01*
X0378122Y0008037D01*
X0378031Y0007951D01*
X0377938Y0007868D01*
X0377842Y0007787D01*
X0377744Y0007710D01*
X0377644Y0007636D01*
X0377541Y0007565D01*
X0377436Y0007498D01*
X0377328Y0007433D01*
X0377219Y0007373D01*
X0377108Y0007315D01*
X0376995Y0007262D01*
X0376881Y0007212D01*
X0376765Y0007165D01*
X0376648Y0007123D01*
X0376529Y0007084D01*
X0376409Y0007048D01*
X0376288Y0007017D01*
X0376166Y0006989D01*
X0376044Y0006966D01*
X0375920Y0006946D01*
X0375796Y0006930D01*
X0375672Y0006918D01*
X0375547Y0006910D01*
X0375422Y0006906D01*
X0375298Y0006906D01*
X0375173Y0006910D01*
X0375048Y0006918D01*
X0374924Y0006930D01*
X0374800Y0006946D01*
X0374676Y0006966D01*
X0374554Y0006989D01*
X0374432Y0007017D01*
X0374311Y0007048D01*
X0374191Y0007084D01*
X0374072Y0007123D01*
X0373955Y0007165D01*
X0373839Y0007212D01*
X0373725Y0007262D01*
X0373612Y0007315D01*
X0373501Y0007373D01*
X0373391Y0007433D01*
X0373284Y0007498D01*
X0373179Y0007565D01*
X0373076Y0007636D01*
X0372976Y0007710D01*
X0372878Y0007787D01*
X0372782Y0007868D01*
X0372689Y0007951D01*
X0372598Y0008037D01*
X0372511Y0008126D01*
X0372426Y0008218D01*
X0372344Y0008312D01*
X0372265Y0008409D01*
X0372190Y0008509D01*
X0372117Y0008610D01*
X0372048Y0008714D01*
X0371982Y0008821D01*
X0371920Y0008929D01*
X0371861Y0009039D01*
X0371805Y0009151D01*
X0371753Y0009265D01*
X0371705Y0009380D01*
X0371660Y0009496D01*
X0371620Y0009615D01*
X0371582Y0009734D01*
X0371549Y0009854D01*
X0371520Y0009976D01*
X0371494Y0010098D01*
X0371472Y0010221D01*
X0371455Y0010345D01*
X0371441Y0010469D01*
X0371431Y0010593D01*
X0371425Y0010718D01*
X0371423Y0010843D01*
X0202132Y0306118D02*
X0202134Y0306243D01*
X0202140Y0306368D01*
X0202150Y0306492D01*
X0202164Y0306616D01*
X0202181Y0306740D01*
X0202203Y0306863D01*
X0202229Y0306985D01*
X0202258Y0307107D01*
X0202291Y0307227D01*
X0202329Y0307346D01*
X0202369Y0307465D01*
X0202414Y0307581D01*
X0202462Y0307696D01*
X0202514Y0307810D01*
X0202570Y0307922D01*
X0202629Y0308032D01*
X0202691Y0308140D01*
X0202757Y0308247D01*
X0202826Y0308351D01*
X0202899Y0308452D01*
X0202974Y0308552D01*
X0203053Y0308649D01*
X0203135Y0308743D01*
X0203220Y0308835D01*
X0203307Y0308924D01*
X0203398Y0309010D01*
X0203491Y0309093D01*
X0203587Y0309174D01*
X0203685Y0309251D01*
X0203785Y0309325D01*
X0203888Y0309396D01*
X0203993Y0309463D01*
X0204101Y0309528D01*
X0204210Y0309588D01*
X0204321Y0309646D01*
X0204434Y0309699D01*
X0204548Y0309749D01*
X0204664Y0309796D01*
X0204781Y0309838D01*
X0204900Y0309877D01*
X0205020Y0309913D01*
X0205141Y0309944D01*
X0205263Y0309972D01*
X0205385Y0309995D01*
X0205509Y0310015D01*
X0205633Y0310031D01*
X0205757Y0310043D01*
X0205882Y0310051D01*
X0206007Y0310055D01*
X0206131Y0310055D01*
X0206256Y0310051D01*
X0206381Y0310043D01*
X0206505Y0310031D01*
X0206629Y0310015D01*
X0206753Y0309995D01*
X0206875Y0309972D01*
X0206997Y0309944D01*
X0207118Y0309913D01*
X0207238Y0309877D01*
X0207357Y0309838D01*
X0207474Y0309796D01*
X0207590Y0309749D01*
X0207704Y0309699D01*
X0207817Y0309646D01*
X0207928Y0309588D01*
X0208038Y0309528D01*
X0208145Y0309463D01*
X0208250Y0309396D01*
X0208353Y0309325D01*
X0208453Y0309251D01*
X0208551Y0309174D01*
X0208647Y0309093D01*
X0208740Y0309010D01*
X0208831Y0308924D01*
X0208918Y0308835D01*
X0209003Y0308743D01*
X0209085Y0308649D01*
X0209164Y0308552D01*
X0209239Y0308452D01*
X0209312Y0308351D01*
X0209381Y0308247D01*
X0209447Y0308140D01*
X0209509Y0308032D01*
X0209568Y0307922D01*
X0209624Y0307810D01*
X0209676Y0307696D01*
X0209724Y0307581D01*
X0209769Y0307465D01*
X0209809Y0307346D01*
X0209847Y0307227D01*
X0209880Y0307107D01*
X0209909Y0306985D01*
X0209935Y0306863D01*
X0209957Y0306740D01*
X0209974Y0306616D01*
X0209988Y0306492D01*
X0209998Y0306368D01*
X0210004Y0306243D01*
X0210006Y0306118D01*
X0210004Y0305993D01*
X0209998Y0305868D01*
X0209988Y0305744D01*
X0209974Y0305620D01*
X0209957Y0305496D01*
X0209935Y0305373D01*
X0209909Y0305251D01*
X0209880Y0305129D01*
X0209847Y0305009D01*
X0209809Y0304890D01*
X0209769Y0304771D01*
X0209724Y0304655D01*
X0209676Y0304540D01*
X0209624Y0304426D01*
X0209568Y0304314D01*
X0209509Y0304204D01*
X0209447Y0304096D01*
X0209381Y0303989D01*
X0209312Y0303885D01*
X0209239Y0303784D01*
X0209164Y0303684D01*
X0209085Y0303587D01*
X0209003Y0303493D01*
X0208918Y0303401D01*
X0208831Y0303312D01*
X0208740Y0303226D01*
X0208647Y0303143D01*
X0208551Y0303062D01*
X0208453Y0302985D01*
X0208353Y0302911D01*
X0208250Y0302840D01*
X0208145Y0302773D01*
X0208037Y0302708D01*
X0207928Y0302648D01*
X0207817Y0302590D01*
X0207704Y0302537D01*
X0207590Y0302487D01*
X0207474Y0302440D01*
X0207357Y0302398D01*
X0207238Y0302359D01*
X0207118Y0302323D01*
X0206997Y0302292D01*
X0206875Y0302264D01*
X0206753Y0302241D01*
X0206629Y0302221D01*
X0206505Y0302205D01*
X0206381Y0302193D01*
X0206256Y0302185D01*
X0206131Y0302181D01*
X0206007Y0302181D01*
X0205882Y0302185D01*
X0205757Y0302193D01*
X0205633Y0302205D01*
X0205509Y0302221D01*
X0205385Y0302241D01*
X0205263Y0302264D01*
X0205141Y0302292D01*
X0205020Y0302323D01*
X0204900Y0302359D01*
X0204781Y0302398D01*
X0204664Y0302440D01*
X0204548Y0302487D01*
X0204434Y0302537D01*
X0204321Y0302590D01*
X0204210Y0302648D01*
X0204100Y0302708D01*
X0203993Y0302773D01*
X0203888Y0302840D01*
X0203785Y0302911D01*
X0203685Y0302985D01*
X0203587Y0303062D01*
X0203491Y0303143D01*
X0203398Y0303226D01*
X0203307Y0303312D01*
X0203220Y0303401D01*
X0203135Y0303493D01*
X0203053Y0303587D01*
X0202974Y0303684D01*
X0202899Y0303784D01*
X0202826Y0303885D01*
X0202757Y0303989D01*
X0202691Y0304096D01*
X0202629Y0304204D01*
X0202570Y0304314D01*
X0202514Y0304426D01*
X0202462Y0304540D01*
X0202414Y0304655D01*
X0202369Y0304771D01*
X0202329Y0304890D01*
X0202291Y0305009D01*
X0202258Y0305129D01*
X0202229Y0305251D01*
X0202203Y0305373D01*
X0202181Y0305496D01*
X0202164Y0305620D01*
X0202150Y0305744D01*
X0202140Y0305868D01*
X0202134Y0305993D01*
X0202132Y0306118D01*
X0007132Y0306118D02*
X0007134Y0306243D01*
X0007140Y0306368D01*
X0007150Y0306492D01*
X0007164Y0306616D01*
X0007181Y0306740D01*
X0007203Y0306863D01*
X0007229Y0306985D01*
X0007258Y0307107D01*
X0007291Y0307227D01*
X0007329Y0307346D01*
X0007369Y0307465D01*
X0007414Y0307581D01*
X0007462Y0307696D01*
X0007514Y0307810D01*
X0007570Y0307922D01*
X0007629Y0308032D01*
X0007691Y0308140D01*
X0007757Y0308247D01*
X0007826Y0308351D01*
X0007899Y0308452D01*
X0007974Y0308552D01*
X0008053Y0308649D01*
X0008135Y0308743D01*
X0008220Y0308835D01*
X0008307Y0308924D01*
X0008398Y0309010D01*
X0008491Y0309093D01*
X0008587Y0309174D01*
X0008685Y0309251D01*
X0008785Y0309325D01*
X0008888Y0309396D01*
X0008993Y0309463D01*
X0009101Y0309528D01*
X0009210Y0309588D01*
X0009321Y0309646D01*
X0009434Y0309699D01*
X0009548Y0309749D01*
X0009664Y0309796D01*
X0009781Y0309838D01*
X0009900Y0309877D01*
X0010020Y0309913D01*
X0010141Y0309944D01*
X0010263Y0309972D01*
X0010385Y0309995D01*
X0010509Y0310015D01*
X0010633Y0310031D01*
X0010757Y0310043D01*
X0010882Y0310051D01*
X0011007Y0310055D01*
X0011131Y0310055D01*
X0011256Y0310051D01*
X0011381Y0310043D01*
X0011505Y0310031D01*
X0011629Y0310015D01*
X0011753Y0309995D01*
X0011875Y0309972D01*
X0011997Y0309944D01*
X0012118Y0309913D01*
X0012238Y0309877D01*
X0012357Y0309838D01*
X0012474Y0309796D01*
X0012590Y0309749D01*
X0012704Y0309699D01*
X0012817Y0309646D01*
X0012928Y0309588D01*
X0013038Y0309528D01*
X0013145Y0309463D01*
X0013250Y0309396D01*
X0013353Y0309325D01*
X0013453Y0309251D01*
X0013551Y0309174D01*
X0013647Y0309093D01*
X0013740Y0309010D01*
X0013831Y0308924D01*
X0013918Y0308835D01*
X0014003Y0308743D01*
X0014085Y0308649D01*
X0014164Y0308552D01*
X0014239Y0308452D01*
X0014312Y0308351D01*
X0014381Y0308247D01*
X0014447Y0308140D01*
X0014509Y0308032D01*
X0014568Y0307922D01*
X0014624Y0307810D01*
X0014676Y0307696D01*
X0014724Y0307581D01*
X0014769Y0307465D01*
X0014809Y0307346D01*
X0014847Y0307227D01*
X0014880Y0307107D01*
X0014909Y0306985D01*
X0014935Y0306863D01*
X0014957Y0306740D01*
X0014974Y0306616D01*
X0014988Y0306492D01*
X0014998Y0306368D01*
X0015004Y0306243D01*
X0015006Y0306118D01*
X0015004Y0305993D01*
X0014998Y0305868D01*
X0014988Y0305744D01*
X0014974Y0305620D01*
X0014957Y0305496D01*
X0014935Y0305373D01*
X0014909Y0305251D01*
X0014880Y0305129D01*
X0014847Y0305009D01*
X0014809Y0304890D01*
X0014769Y0304771D01*
X0014724Y0304655D01*
X0014676Y0304540D01*
X0014624Y0304426D01*
X0014568Y0304314D01*
X0014509Y0304204D01*
X0014447Y0304096D01*
X0014381Y0303989D01*
X0014312Y0303885D01*
X0014239Y0303784D01*
X0014164Y0303684D01*
X0014085Y0303587D01*
X0014003Y0303493D01*
X0013918Y0303401D01*
X0013831Y0303312D01*
X0013740Y0303226D01*
X0013647Y0303143D01*
X0013551Y0303062D01*
X0013453Y0302985D01*
X0013353Y0302911D01*
X0013250Y0302840D01*
X0013145Y0302773D01*
X0013037Y0302708D01*
X0012928Y0302648D01*
X0012817Y0302590D01*
X0012704Y0302537D01*
X0012590Y0302487D01*
X0012474Y0302440D01*
X0012357Y0302398D01*
X0012238Y0302359D01*
X0012118Y0302323D01*
X0011997Y0302292D01*
X0011875Y0302264D01*
X0011753Y0302241D01*
X0011629Y0302221D01*
X0011505Y0302205D01*
X0011381Y0302193D01*
X0011256Y0302185D01*
X0011131Y0302181D01*
X0011007Y0302181D01*
X0010882Y0302185D01*
X0010757Y0302193D01*
X0010633Y0302205D01*
X0010509Y0302221D01*
X0010385Y0302241D01*
X0010263Y0302264D01*
X0010141Y0302292D01*
X0010020Y0302323D01*
X0009900Y0302359D01*
X0009781Y0302398D01*
X0009664Y0302440D01*
X0009548Y0302487D01*
X0009434Y0302537D01*
X0009321Y0302590D01*
X0009210Y0302648D01*
X0009100Y0302708D01*
X0008993Y0302773D01*
X0008888Y0302840D01*
X0008785Y0302911D01*
X0008685Y0302985D01*
X0008587Y0303062D01*
X0008491Y0303143D01*
X0008398Y0303226D01*
X0008307Y0303312D01*
X0008220Y0303401D01*
X0008135Y0303493D01*
X0008053Y0303587D01*
X0007974Y0303684D01*
X0007899Y0303784D01*
X0007826Y0303885D01*
X0007757Y0303989D01*
X0007691Y0304096D01*
X0007629Y0304204D01*
X0007570Y0304314D01*
X0007514Y0304426D01*
X0007462Y0304540D01*
X0007414Y0304655D01*
X0007369Y0304771D01*
X0007329Y0304890D01*
X0007291Y0305009D01*
X0007258Y0305129D01*
X0007229Y0305251D01*
X0007203Y0305373D01*
X0007181Y0305496D01*
X0007164Y0305620D01*
X0007150Y0305744D01*
X0007140Y0305868D01*
X0007134Y0305993D01*
X0007132Y0306118D01*
D11*
X0015852Y0306777D02*
X0019556Y0306777D01*
X0018938Y0307992D02*
X0019556Y0308609D01*
X0019556Y0309843D01*
X0018938Y0310460D01*
X0018321Y0310460D01*
X0015852Y0307992D01*
X0015852Y0310460D01*
X0015852Y0306777D02*
X0019556Y0304308D01*
X0015852Y0304308D01*
X0016470Y0303094D02*
X0015852Y0302477D01*
X0015852Y0301242D01*
X0016470Y0300625D01*
X0018938Y0300625D01*
X0019556Y0301242D01*
X0019556Y0302477D01*
X0018938Y0303094D01*
X0018938Y0296119D02*
X0018321Y0296119D01*
X0017704Y0295502D01*
X0017704Y0294267D01*
X0018321Y0293650D01*
X0018938Y0293650D01*
X0019556Y0294267D01*
X0019556Y0295502D01*
X0018938Y0296119D01*
X0017704Y0295502D02*
X0017087Y0296119D01*
X0016470Y0296119D01*
X0015852Y0295502D01*
X0015852Y0294267D01*
X0016470Y0293650D01*
X0017087Y0293650D01*
X0017704Y0294267D01*
X0015852Y0292436D02*
X0015852Y0289967D01*
X0015852Y0291201D02*
X0019556Y0291201D01*
X0018321Y0289967D01*
X0018938Y0286119D02*
X0016470Y0283650D01*
X0015852Y0283650D01*
X0015852Y0282436D02*
X0015852Y0279967D01*
X0015852Y0281201D02*
X0019556Y0281201D01*
X0018321Y0279967D01*
X0019556Y0283650D02*
X0019556Y0286119D01*
X0018938Y0286119D01*
X0022352Y0286201D02*
X0026056Y0286201D01*
X0024821Y0284967D01*
X0022352Y0284967D02*
X0022352Y0287436D01*
X0022970Y0288650D02*
X0023587Y0288650D01*
X0024204Y0289267D01*
X0024204Y0290502D01*
X0023587Y0291119D01*
X0022970Y0291119D01*
X0022352Y0290502D01*
X0022352Y0289267D01*
X0022970Y0288650D01*
X0024204Y0289267D02*
X0024821Y0288650D01*
X0025438Y0288650D01*
X0026056Y0289267D01*
X0026056Y0290502D01*
X0025438Y0291119D01*
X0024821Y0291119D01*
X0024204Y0290502D01*
X0025438Y0281119D02*
X0022970Y0278650D01*
X0022352Y0278650D01*
X0022352Y0277436D02*
X0022352Y0274967D01*
X0022352Y0276201D02*
X0026056Y0276201D01*
X0024821Y0274967D01*
X0026056Y0278650D02*
X0026056Y0281119D01*
X0025438Y0281119D01*
X0019556Y0276119D02*
X0018938Y0274884D01*
X0017704Y0273650D01*
X0017704Y0275502D01*
X0017087Y0276119D01*
X0016470Y0276119D01*
X0015852Y0275502D01*
X0015852Y0274267D01*
X0016470Y0273650D01*
X0017704Y0273650D01*
X0015852Y0272436D02*
X0015852Y0269967D01*
X0015852Y0271201D02*
X0019556Y0271201D01*
X0018321Y0269967D01*
X0022352Y0270502D02*
X0022352Y0269267D01*
X0022970Y0268650D01*
X0024204Y0268650D01*
X0024204Y0270502D01*
X0023587Y0271119D01*
X0022970Y0271119D01*
X0022352Y0270502D01*
X0024204Y0268650D02*
X0025438Y0269884D01*
X0026056Y0271119D01*
X0022352Y0267436D02*
X0022352Y0264967D01*
X0022352Y0266201D02*
X0026056Y0266201D01*
X0024821Y0264967D01*
X0024204Y0261119D02*
X0022970Y0261119D01*
X0022352Y0260502D01*
X0022352Y0259267D01*
X0022970Y0258650D01*
X0024204Y0258650D02*
X0024821Y0259884D01*
X0024821Y0260502D01*
X0024204Y0261119D01*
X0026056Y0261119D02*
X0026056Y0258650D01*
X0024204Y0258650D01*
X0022352Y0257436D02*
X0022352Y0254967D01*
X0022352Y0256201D02*
X0026056Y0256201D01*
X0024821Y0254967D01*
X0024204Y0251119D02*
X0024204Y0248650D01*
X0026056Y0250502D01*
X0022352Y0250502D01*
X0019556Y0251201D02*
X0015852Y0251201D01*
X0015852Y0249967D02*
X0015852Y0252436D01*
X0017704Y0253650D02*
X0017704Y0256119D01*
X0019556Y0255502D02*
X0017704Y0253650D01*
X0015852Y0255502D02*
X0019556Y0255502D01*
X0019556Y0251201D02*
X0018321Y0249967D01*
X0018321Y0246119D02*
X0017704Y0245502D01*
X0017087Y0246119D01*
X0016470Y0246119D01*
X0015852Y0245502D01*
X0015852Y0244267D01*
X0016470Y0243650D01*
X0015852Y0242436D02*
X0015852Y0239967D01*
X0015852Y0241201D02*
X0019556Y0241201D01*
X0018321Y0239967D01*
X0018938Y0243650D02*
X0019556Y0244267D01*
X0019556Y0245502D01*
X0018938Y0246119D01*
X0018321Y0246119D01*
X0017704Y0245502D02*
X0017704Y0244884D01*
X0022352Y0244967D02*
X0022352Y0247436D01*
X0022352Y0246201D02*
X0026056Y0246201D01*
X0024821Y0244967D01*
X0024821Y0241119D02*
X0024204Y0240502D01*
X0023587Y0241119D01*
X0022970Y0241119D01*
X0022352Y0240502D01*
X0022352Y0239267D01*
X0022970Y0238650D01*
X0022352Y0237436D02*
X0022352Y0234967D01*
X0022352Y0236201D02*
X0026056Y0236201D01*
X0024821Y0234967D01*
X0025438Y0238650D02*
X0026056Y0239267D01*
X0026056Y0240502D01*
X0025438Y0241119D01*
X0024821Y0241119D01*
X0024204Y0240502D02*
X0024204Y0239884D01*
X0019556Y0235502D02*
X0019556Y0234267D01*
X0018938Y0233650D01*
X0019556Y0235502D02*
X0018938Y0236119D01*
X0018321Y0236119D01*
X0015852Y0233650D01*
X0015852Y0236119D01*
X0015852Y0232436D02*
X0015852Y0229967D01*
X0015852Y0231201D02*
X0019556Y0231201D01*
X0018321Y0229967D01*
X0022352Y0231119D02*
X0022352Y0228650D01*
X0024821Y0231119D01*
X0025438Y0231119D01*
X0026056Y0230502D01*
X0026056Y0229267D01*
X0025438Y0228650D01*
X0026056Y0226201D02*
X0022352Y0226201D01*
X0022352Y0224967D02*
X0022352Y0227436D01*
X0024821Y0224967D02*
X0026056Y0226201D01*
X0019556Y0224884D02*
X0015852Y0224884D01*
X0015852Y0223650D02*
X0015852Y0226119D01*
X0018321Y0223650D02*
X0019556Y0224884D01*
X0019556Y0221201D02*
X0015852Y0221201D01*
X0015852Y0219967D02*
X0015852Y0222436D01*
X0018321Y0219967D02*
X0019556Y0221201D01*
X0022352Y0221119D02*
X0022352Y0218650D01*
X0022352Y0217436D02*
X0022352Y0214967D01*
X0022352Y0216201D02*
X0026056Y0216201D01*
X0024821Y0214967D01*
X0024821Y0218650D02*
X0026056Y0219884D01*
X0022352Y0219884D01*
X0018938Y0216119D02*
X0016470Y0213650D01*
X0015852Y0214267D01*
X0015852Y0215502D01*
X0016470Y0216119D01*
X0018938Y0216119D01*
X0019556Y0215502D01*
X0019556Y0214267D01*
X0018938Y0213650D01*
X0016470Y0213650D01*
X0015852Y0212436D02*
X0015852Y0209967D01*
X0015852Y0211201D02*
X0019556Y0211201D01*
X0018321Y0209967D01*
X0022352Y0210502D02*
X0022352Y0209267D01*
X0022970Y0208650D01*
X0025438Y0211119D01*
X0022970Y0211119D01*
X0022352Y0210502D01*
X0022970Y0208650D02*
X0025438Y0208650D01*
X0026056Y0209267D01*
X0026056Y0210502D01*
X0025438Y0211119D01*
X0022352Y0207436D02*
X0022352Y0204967D01*
X0022352Y0206201D02*
X0026056Y0206201D01*
X0024821Y0204967D01*
X0019556Y0203660D02*
X0019556Y0202426D01*
X0018938Y0201808D01*
X0018321Y0201808D01*
X0017704Y0202426D01*
X0017704Y0204277D01*
X0018938Y0204277D02*
X0019556Y0203660D01*
X0018938Y0204277D02*
X0016470Y0204277D01*
X0015852Y0203660D01*
X0015852Y0202426D01*
X0016470Y0201808D01*
X0022352Y0198660D02*
X0022970Y0199277D01*
X0025438Y0199277D01*
X0026056Y0198660D01*
X0026056Y0197426D01*
X0025438Y0196808D01*
X0024821Y0196808D01*
X0024204Y0197426D01*
X0024204Y0199277D01*
X0022352Y0198660D02*
X0022352Y0197426D01*
X0022970Y0196808D01*
X0019556Y0193660D02*
X0018938Y0194277D01*
X0018321Y0194277D01*
X0017704Y0193660D01*
X0017704Y0192426D01*
X0018321Y0191808D01*
X0018938Y0191808D01*
X0019556Y0192426D01*
X0019556Y0193660D01*
X0017704Y0193660D02*
X0017087Y0194277D01*
X0016470Y0194277D01*
X0015852Y0193660D01*
X0015852Y0192426D01*
X0016470Y0191808D01*
X0017087Y0191808D01*
X0017704Y0192426D01*
X0022352Y0188660D02*
X0022352Y0187426D01*
X0022970Y0186808D01*
X0023587Y0186808D01*
X0024204Y0187426D01*
X0024204Y0188660D01*
X0023587Y0189277D01*
X0022970Y0189277D01*
X0022352Y0188660D01*
X0024204Y0188660D02*
X0024821Y0189277D01*
X0025438Y0189277D01*
X0026056Y0188660D01*
X0026056Y0187426D01*
X0025438Y0186808D01*
X0024821Y0186808D01*
X0024204Y0187426D01*
X0019556Y0184277D02*
X0018938Y0184277D01*
X0016470Y0181808D01*
X0015852Y0181808D01*
X0019556Y0181808D02*
X0019556Y0184277D01*
X0025438Y0179277D02*
X0022970Y0176808D01*
X0022352Y0176808D01*
X0026056Y0176808D02*
X0026056Y0179277D01*
X0025438Y0179277D01*
X0019556Y0174277D02*
X0018938Y0173043D01*
X0017704Y0171808D01*
X0017704Y0173660D01*
X0017087Y0174277D01*
X0016470Y0174277D01*
X0015852Y0173660D01*
X0015852Y0172426D01*
X0016470Y0171808D01*
X0017704Y0171808D01*
X0022352Y0168660D02*
X0022970Y0169277D01*
X0023587Y0169277D01*
X0024204Y0168660D01*
X0024204Y0166808D01*
X0022970Y0166808D01*
X0022352Y0167426D01*
X0022352Y0168660D01*
X0024204Y0166808D02*
X0025438Y0168043D01*
X0026056Y0169277D01*
X0019556Y0164277D02*
X0019556Y0161808D01*
X0017704Y0161808D01*
X0018321Y0163043D01*
X0018321Y0163660D01*
X0017704Y0164277D01*
X0016470Y0164277D01*
X0015852Y0163660D01*
X0015852Y0162426D01*
X0016470Y0161808D01*
X0022352Y0158660D02*
X0022352Y0157426D01*
X0022970Y0156808D01*
X0024204Y0156808D02*
X0024821Y0158043D01*
X0024821Y0158660D01*
X0024204Y0159277D01*
X0022970Y0159277D01*
X0022352Y0158660D01*
X0024204Y0156808D02*
X0026056Y0156808D01*
X0026056Y0159277D01*
X0019556Y0153660D02*
X0015852Y0153660D01*
X0017704Y0154277D02*
X0017704Y0151808D01*
X0019556Y0153660D01*
X0024204Y0149277D02*
X0024204Y0146808D01*
X0026056Y0148660D01*
X0022352Y0148660D01*
X0018938Y0144277D02*
X0018321Y0144277D01*
X0017704Y0143660D01*
X0017087Y0144277D01*
X0016470Y0144277D01*
X0015852Y0143660D01*
X0015852Y0142426D01*
X0016470Y0141808D01*
X0017704Y0143043D02*
X0017704Y0143660D01*
X0018938Y0144277D02*
X0019556Y0143660D01*
X0019556Y0142426D01*
X0018938Y0141808D01*
X0022352Y0138660D02*
X0022352Y0137426D01*
X0022970Y0136808D01*
X0024204Y0138043D02*
X0024204Y0138660D01*
X0023587Y0139277D01*
X0022970Y0139277D01*
X0022352Y0138660D01*
X0024204Y0138660D02*
X0024821Y0139277D01*
X0025438Y0139277D01*
X0026056Y0138660D01*
X0026056Y0137426D01*
X0025438Y0136808D01*
X0019556Y0133660D02*
X0019556Y0132426D01*
X0018938Y0131808D01*
X0019556Y0133660D02*
X0018938Y0134277D01*
X0018321Y0134277D01*
X0015852Y0131808D01*
X0015852Y0134277D01*
X0022352Y0129277D02*
X0022352Y0126808D01*
X0024821Y0129277D01*
X0025438Y0129277D01*
X0026056Y0128660D01*
X0026056Y0127426D01*
X0025438Y0126808D01*
X0019556Y0123043D02*
X0015852Y0123043D01*
X0015852Y0124277D02*
X0015852Y0121808D01*
X0018321Y0121808D02*
X0019556Y0123043D01*
X0022352Y0119277D02*
X0022352Y0116808D01*
X0022352Y0118043D02*
X0026056Y0118043D01*
X0024821Y0116808D01*
X0164352Y0116201D02*
X0168056Y0116201D01*
X0166821Y0114967D01*
X0164352Y0114967D02*
X0164352Y0117436D01*
X0164970Y0118650D02*
X0165587Y0118650D01*
X0166204Y0119267D01*
X0166204Y0120502D01*
X0165587Y0121119D01*
X0164970Y0121119D01*
X0164352Y0120502D01*
X0164352Y0119267D01*
X0164970Y0118650D01*
X0166204Y0119267D02*
X0166821Y0118650D01*
X0167438Y0118650D01*
X0168056Y0119267D01*
X0168056Y0120502D01*
X0167438Y0121119D01*
X0166821Y0121119D01*
X0166204Y0120502D01*
X0166821Y0124967D02*
X0168056Y0126201D01*
X0164352Y0126201D01*
X0164352Y0124967D02*
X0164352Y0127436D01*
X0164352Y0128650D02*
X0164970Y0128650D01*
X0167438Y0131119D01*
X0168056Y0131119D01*
X0168056Y0128650D01*
X0171852Y0128002D02*
X0171852Y0126767D01*
X0172470Y0126150D01*
X0173087Y0126150D01*
X0173704Y0126767D01*
X0173704Y0128002D01*
X0173087Y0128619D01*
X0172470Y0128619D01*
X0171852Y0128002D01*
X0173704Y0128002D02*
X0174321Y0128619D01*
X0174938Y0128619D01*
X0175556Y0128002D01*
X0175556Y0126767D01*
X0174938Y0126150D01*
X0174321Y0126150D01*
X0173704Y0126767D01*
X0171852Y0124936D02*
X0171852Y0122467D01*
X0171852Y0123701D02*
X0175556Y0123701D01*
X0174321Y0122467D01*
X0174321Y0132467D02*
X0175556Y0133701D01*
X0171852Y0133701D01*
X0171852Y0132467D02*
X0171852Y0134936D01*
X0171852Y0136150D02*
X0172470Y0136150D01*
X0174938Y0138619D01*
X0175556Y0138619D01*
X0175556Y0136150D01*
X0174321Y0142467D02*
X0175556Y0143701D01*
X0171852Y0143701D01*
X0171852Y0142467D02*
X0171852Y0144936D01*
X0172470Y0146150D02*
X0171852Y0146767D01*
X0171852Y0148002D01*
X0172470Y0148619D01*
X0173087Y0148619D01*
X0173704Y0148002D01*
X0173704Y0146150D01*
X0172470Y0146150D01*
X0173704Y0146150D02*
X0174938Y0147384D01*
X0175556Y0148619D01*
X0174321Y0152467D02*
X0175556Y0153701D01*
X0171852Y0153701D01*
X0171852Y0152467D02*
X0171852Y0154936D01*
X0172470Y0156150D02*
X0171852Y0156767D01*
X0171852Y0158002D01*
X0172470Y0158619D01*
X0173704Y0158619D01*
X0174321Y0158002D01*
X0174321Y0157384D01*
X0173704Y0156150D01*
X0175556Y0156150D01*
X0175556Y0158619D01*
X0174321Y0162467D02*
X0175556Y0163701D01*
X0171852Y0163701D01*
X0171852Y0162467D02*
X0171852Y0164936D01*
X0173704Y0166150D02*
X0173704Y0168619D01*
X0175556Y0168002D02*
X0173704Y0166150D01*
X0171852Y0168002D02*
X0175556Y0168002D01*
X0174321Y0172467D02*
X0175556Y0173701D01*
X0171852Y0173701D01*
X0171852Y0172467D02*
X0171852Y0174936D01*
X0172470Y0176150D02*
X0171852Y0176767D01*
X0171852Y0178002D01*
X0172470Y0178619D01*
X0173087Y0178619D01*
X0173704Y0178002D01*
X0173704Y0177384D01*
X0173704Y0178002D02*
X0174321Y0178619D01*
X0174938Y0178619D01*
X0175556Y0178002D01*
X0175556Y0176767D01*
X0174938Y0176150D01*
X0174321Y0182467D02*
X0175556Y0183701D01*
X0171852Y0183701D01*
X0171852Y0182467D02*
X0171852Y0184936D01*
X0171852Y0186150D02*
X0174321Y0188619D01*
X0174938Y0188619D01*
X0175556Y0188002D01*
X0175556Y0186767D01*
X0174938Y0186150D01*
X0171852Y0186150D02*
X0171852Y0188619D01*
X0171852Y0192467D02*
X0171852Y0194936D01*
X0171852Y0196150D02*
X0171852Y0198619D01*
X0171852Y0197384D02*
X0175556Y0197384D01*
X0174321Y0196150D01*
X0175556Y0193701D02*
X0171852Y0193701D01*
X0174321Y0192467D02*
X0175556Y0193701D01*
X0168056Y0196201D02*
X0164352Y0196201D01*
X0164352Y0194967D02*
X0164352Y0197436D01*
X0164970Y0198650D02*
X0167438Y0201119D01*
X0164970Y0201119D01*
X0164352Y0200502D01*
X0164352Y0199267D01*
X0164970Y0198650D01*
X0167438Y0198650D01*
X0168056Y0199267D01*
X0168056Y0200502D01*
X0167438Y0201119D01*
X0171852Y0202467D02*
X0171852Y0204936D01*
X0171852Y0203701D02*
X0175556Y0203701D01*
X0174321Y0202467D01*
X0174938Y0206150D02*
X0172470Y0206150D01*
X0174938Y0208619D01*
X0172470Y0208619D01*
X0171852Y0208002D01*
X0171852Y0206767D01*
X0172470Y0206150D01*
X0174938Y0206150D02*
X0175556Y0206767D01*
X0175556Y0208002D01*
X0174938Y0208619D01*
X0174938Y0214308D02*
X0174321Y0214308D01*
X0173704Y0214926D01*
X0173704Y0216777D01*
X0172470Y0216777D02*
X0174938Y0216777D01*
X0175556Y0216160D01*
X0175556Y0214926D01*
X0174938Y0214308D01*
X0172470Y0214308D02*
X0171852Y0214926D01*
X0171852Y0216160D01*
X0172470Y0216777D01*
X0168056Y0217426D02*
X0168056Y0218660D01*
X0167438Y0219277D01*
X0166821Y0219277D01*
X0166204Y0218660D01*
X0166204Y0217426D01*
X0166821Y0216808D01*
X0167438Y0216808D01*
X0168056Y0217426D01*
X0166204Y0217426D02*
X0165587Y0216808D01*
X0164970Y0216808D01*
X0164352Y0217426D01*
X0164352Y0218660D01*
X0164970Y0219277D01*
X0165587Y0219277D01*
X0166204Y0218660D01*
X0172470Y0224308D02*
X0173087Y0224308D01*
X0173704Y0224926D01*
X0173704Y0226160D01*
X0173087Y0226777D01*
X0172470Y0226777D01*
X0171852Y0226160D01*
X0171852Y0224926D01*
X0172470Y0224308D01*
X0173704Y0224926D02*
X0174321Y0224308D01*
X0174938Y0224308D01*
X0175556Y0224926D01*
X0175556Y0226160D01*
X0174938Y0226777D01*
X0174321Y0226777D01*
X0173704Y0226160D01*
X0168056Y0226808D02*
X0168056Y0229277D01*
X0167438Y0229277D01*
X0164970Y0226808D01*
X0164352Y0226808D01*
X0171852Y0234308D02*
X0172470Y0234308D01*
X0174938Y0236777D01*
X0175556Y0236777D01*
X0175556Y0234308D01*
X0167438Y0238043D02*
X0166204Y0236808D01*
X0166204Y0238660D01*
X0165587Y0239277D01*
X0164970Y0239277D01*
X0164352Y0238660D01*
X0164352Y0237426D01*
X0164970Y0236808D01*
X0166204Y0236808D01*
X0167438Y0238043D02*
X0168056Y0239277D01*
X0172470Y0244308D02*
X0171852Y0244926D01*
X0171852Y0246160D01*
X0172470Y0246777D01*
X0173087Y0246777D01*
X0173704Y0246160D01*
X0173704Y0244308D01*
X0172470Y0244308D01*
X0173704Y0244308D02*
X0174938Y0245543D01*
X0175556Y0246777D01*
X0168056Y0246808D02*
X0166204Y0246808D01*
X0166821Y0248043D01*
X0166821Y0248660D01*
X0166204Y0249277D01*
X0164970Y0249277D01*
X0164352Y0248660D01*
X0164352Y0247426D01*
X0164970Y0246808D01*
X0168056Y0246808D02*
X0168056Y0249277D01*
X0172470Y0254308D02*
X0171852Y0254926D01*
X0171852Y0256160D01*
X0172470Y0256777D01*
X0173704Y0256777D01*
X0174321Y0256160D01*
X0174321Y0255543D01*
X0173704Y0254308D01*
X0175556Y0254308D01*
X0175556Y0256777D01*
X0168056Y0258660D02*
X0166204Y0256808D01*
X0166204Y0259277D01*
X0164352Y0258660D02*
X0168056Y0258660D01*
X0173704Y0264308D02*
X0173704Y0266777D01*
X0175556Y0266160D02*
X0173704Y0264308D01*
X0171852Y0266160D02*
X0175556Y0266160D01*
X0168056Y0267426D02*
X0168056Y0268660D01*
X0167438Y0269277D01*
X0166821Y0269277D01*
X0166204Y0268660D01*
X0165587Y0269277D01*
X0164970Y0269277D01*
X0164352Y0268660D01*
X0164352Y0267426D01*
X0164970Y0266808D01*
X0166204Y0268043D02*
X0166204Y0268660D01*
X0167438Y0266808D02*
X0168056Y0267426D01*
X0172470Y0274308D02*
X0171852Y0274926D01*
X0171852Y0276160D01*
X0172470Y0276777D01*
X0173087Y0276777D01*
X0173704Y0276160D01*
X0173704Y0275543D01*
X0173704Y0276160D02*
X0174321Y0276777D01*
X0174938Y0276777D01*
X0175556Y0276160D01*
X0175556Y0274926D01*
X0174938Y0274308D01*
X0168056Y0277426D02*
X0167438Y0276808D01*
X0168056Y0277426D02*
X0168056Y0278660D01*
X0167438Y0279277D01*
X0166821Y0279277D01*
X0164352Y0276808D01*
X0164352Y0279277D01*
X0164352Y0286808D02*
X0164352Y0289277D01*
X0164352Y0288043D02*
X0168056Y0288043D01*
X0166821Y0286808D01*
X0171852Y0286777D02*
X0171852Y0284308D01*
X0174321Y0286777D01*
X0174938Y0286777D01*
X0175556Y0286160D01*
X0175556Y0284926D01*
X0174938Y0284308D01*
X0174321Y0294308D02*
X0175556Y0295543D01*
X0171852Y0295543D01*
X0171852Y0296777D02*
X0171852Y0294308D01*
X0172970Y0300625D02*
X0172352Y0301242D01*
X0172352Y0302477D01*
X0172970Y0303094D01*
X0172352Y0304308D02*
X0176056Y0304308D01*
X0172352Y0306777D01*
X0176056Y0306777D01*
X0174821Y0307992D02*
X0176056Y0309226D01*
X0172352Y0309226D01*
X0172352Y0307992D02*
X0172352Y0310460D01*
X0175438Y0303094D02*
X0176056Y0302477D01*
X0176056Y0301242D01*
X0175438Y0300625D01*
X0172970Y0300625D01*
X0210852Y0301242D02*
X0211470Y0300625D01*
X0213938Y0300625D01*
X0214556Y0301242D01*
X0214556Y0302477D01*
X0213938Y0303094D01*
X0214556Y0304308D02*
X0210852Y0306777D01*
X0214556Y0306777D01*
X0213938Y0307992D02*
X0214556Y0308609D01*
X0214556Y0309843D01*
X0213938Y0310460D01*
X0213321Y0310460D01*
X0210852Y0307992D01*
X0210852Y0310460D01*
X0210852Y0304308D02*
X0214556Y0304308D01*
X0211470Y0303094D02*
X0210852Y0302477D01*
X0210852Y0301242D01*
X0211470Y0296119D02*
X0210852Y0295502D01*
X0210852Y0294267D01*
X0211470Y0293650D01*
X0212087Y0293650D01*
X0212704Y0294267D01*
X0212704Y0295502D01*
X0212087Y0296119D01*
X0211470Y0296119D01*
X0212704Y0295502D02*
X0213321Y0296119D01*
X0213938Y0296119D01*
X0214556Y0295502D01*
X0214556Y0294267D01*
X0213938Y0293650D01*
X0213321Y0293650D01*
X0212704Y0294267D01*
X0210852Y0292436D02*
X0210852Y0289967D01*
X0210852Y0291201D02*
X0214556Y0291201D01*
X0213321Y0289967D01*
X0213938Y0286119D02*
X0211470Y0283650D01*
X0210852Y0283650D01*
X0210852Y0282436D02*
X0210852Y0279967D01*
X0210852Y0281201D02*
X0214556Y0281201D01*
X0213321Y0279967D01*
X0214556Y0283650D02*
X0214556Y0286119D01*
X0213938Y0286119D01*
X0217352Y0286201D02*
X0221056Y0286201D01*
X0219821Y0284967D01*
X0217352Y0284967D02*
X0217352Y0287436D01*
X0217970Y0288650D02*
X0218587Y0288650D01*
X0219204Y0289267D01*
X0219204Y0290502D01*
X0218587Y0291119D01*
X0217970Y0291119D01*
X0217352Y0290502D01*
X0217352Y0289267D01*
X0217970Y0288650D01*
X0219204Y0289267D02*
X0219821Y0288650D01*
X0220438Y0288650D01*
X0221056Y0289267D01*
X0221056Y0290502D01*
X0220438Y0291119D01*
X0219821Y0291119D01*
X0219204Y0290502D01*
X0220438Y0281119D02*
X0217970Y0278650D01*
X0217352Y0278650D01*
X0217352Y0277436D02*
X0217352Y0274967D01*
X0217352Y0276201D02*
X0221056Y0276201D01*
X0219821Y0274967D01*
X0221056Y0278650D02*
X0221056Y0281119D01*
X0220438Y0281119D01*
X0214556Y0276119D02*
X0213938Y0274884D01*
X0212704Y0273650D01*
X0212704Y0275502D01*
X0212087Y0276119D01*
X0211470Y0276119D01*
X0210852Y0275502D01*
X0210852Y0274267D01*
X0211470Y0273650D01*
X0212704Y0273650D01*
X0210852Y0272436D02*
X0210852Y0269967D01*
X0210852Y0271201D02*
X0214556Y0271201D01*
X0213321Y0269967D01*
X0217352Y0270502D02*
X0217352Y0269267D01*
X0217970Y0268650D01*
X0219204Y0268650D01*
X0219204Y0270502D01*
X0218587Y0271119D01*
X0217970Y0271119D01*
X0217352Y0270502D01*
X0219204Y0268650D02*
X0220438Y0269884D01*
X0221056Y0271119D01*
X0217352Y0267436D02*
X0217352Y0264967D01*
X0217352Y0266201D02*
X0221056Y0266201D01*
X0219821Y0264967D01*
X0219204Y0261119D02*
X0217970Y0261119D01*
X0217352Y0260502D01*
X0217352Y0259267D01*
X0217970Y0258650D01*
X0219204Y0258650D02*
X0219821Y0259884D01*
X0219821Y0260502D01*
X0219204Y0261119D01*
X0221056Y0261119D02*
X0221056Y0258650D01*
X0219204Y0258650D01*
X0217352Y0257436D02*
X0217352Y0254967D01*
X0217352Y0256201D02*
X0221056Y0256201D01*
X0219821Y0254967D01*
X0219204Y0251119D02*
X0219204Y0248650D01*
X0221056Y0250502D01*
X0217352Y0250502D01*
X0214556Y0251201D02*
X0213321Y0249967D01*
X0214556Y0251201D02*
X0210852Y0251201D01*
X0210852Y0249967D02*
X0210852Y0252436D01*
X0212704Y0253650D02*
X0212704Y0256119D01*
X0214556Y0255502D02*
X0212704Y0253650D01*
X0210852Y0255502D02*
X0214556Y0255502D01*
X0213321Y0259967D02*
X0214556Y0261201D01*
X0210852Y0261201D01*
X0210852Y0259967D02*
X0210852Y0262436D01*
X0211470Y0263650D02*
X0210852Y0264267D01*
X0210852Y0265502D01*
X0211470Y0266119D01*
X0212704Y0266119D01*
X0213321Y0265502D01*
X0213321Y0264884D01*
X0212704Y0263650D01*
X0214556Y0263650D01*
X0214556Y0266119D01*
X0217352Y0247436D02*
X0217352Y0244967D01*
X0217352Y0246201D02*
X0221056Y0246201D01*
X0219821Y0244967D01*
X0219821Y0241119D02*
X0219204Y0240502D01*
X0218587Y0241119D01*
X0217970Y0241119D01*
X0217352Y0240502D01*
X0217352Y0239267D01*
X0217970Y0238650D01*
X0217352Y0237436D02*
X0217352Y0234967D01*
X0217352Y0236201D02*
X0221056Y0236201D01*
X0219821Y0234967D01*
X0220438Y0238650D02*
X0221056Y0239267D01*
X0221056Y0240502D01*
X0220438Y0241119D01*
X0219821Y0241119D01*
X0219204Y0240502D02*
X0219204Y0239884D01*
X0214556Y0241201D02*
X0210852Y0241201D01*
X0210852Y0239967D02*
X0210852Y0242436D01*
X0211470Y0243650D02*
X0210852Y0244267D01*
X0210852Y0245502D01*
X0211470Y0246119D01*
X0212087Y0246119D01*
X0212704Y0245502D01*
X0212704Y0244884D01*
X0212704Y0245502D02*
X0213321Y0246119D01*
X0213938Y0246119D01*
X0214556Y0245502D01*
X0214556Y0244267D01*
X0213938Y0243650D01*
X0214556Y0241201D02*
X0213321Y0239967D01*
X0213321Y0236119D02*
X0213938Y0236119D01*
X0214556Y0235502D01*
X0214556Y0234267D01*
X0213938Y0233650D01*
X0214556Y0231201D02*
X0210852Y0231201D01*
X0210852Y0229967D02*
X0210852Y0232436D01*
X0210852Y0233650D02*
X0213321Y0236119D01*
X0210852Y0236119D02*
X0210852Y0233650D01*
X0213321Y0229967D02*
X0214556Y0231201D01*
X0217352Y0231119D02*
X0217352Y0228650D01*
X0219821Y0231119D01*
X0220438Y0231119D01*
X0221056Y0230502D01*
X0221056Y0229267D01*
X0220438Y0228650D01*
X0221056Y0226201D02*
X0217352Y0226201D01*
X0217352Y0224967D02*
X0217352Y0227436D01*
X0219821Y0224967D02*
X0221056Y0226201D01*
X0217352Y0221119D02*
X0217352Y0218650D01*
X0217352Y0217436D02*
X0217352Y0214967D01*
X0217352Y0216201D02*
X0221056Y0216201D01*
X0219821Y0214967D01*
X0219821Y0218650D02*
X0221056Y0219884D01*
X0217352Y0219884D01*
X0214556Y0221201D02*
X0210852Y0221201D01*
X0210852Y0219967D02*
X0210852Y0222436D01*
X0210852Y0223650D02*
X0210852Y0226119D01*
X0210852Y0224884D02*
X0214556Y0224884D01*
X0213321Y0223650D01*
X0214556Y0221201D02*
X0213321Y0219967D01*
X0213938Y0216119D02*
X0211470Y0216119D01*
X0210852Y0215502D01*
X0210852Y0214267D01*
X0211470Y0213650D01*
X0213938Y0216119D01*
X0214556Y0215502D01*
X0214556Y0214267D01*
X0213938Y0213650D01*
X0211470Y0213650D01*
X0210852Y0212436D02*
X0210852Y0209967D01*
X0210852Y0211201D02*
X0214556Y0211201D01*
X0213321Y0209967D01*
X0217352Y0210502D02*
X0217352Y0209267D01*
X0217970Y0208650D01*
X0220438Y0211119D01*
X0217970Y0211119D01*
X0217352Y0210502D01*
X0217970Y0208650D02*
X0220438Y0208650D01*
X0221056Y0209267D01*
X0221056Y0210502D01*
X0220438Y0211119D01*
X0217352Y0207436D02*
X0217352Y0204967D01*
X0217352Y0206201D02*
X0221056Y0206201D01*
X0219821Y0204967D01*
X0214556Y0203660D02*
X0214556Y0202426D01*
X0213938Y0201808D01*
X0213321Y0201808D01*
X0212704Y0202426D01*
X0212704Y0204277D01*
X0213938Y0204277D02*
X0214556Y0203660D01*
X0213938Y0204277D02*
X0211470Y0204277D01*
X0210852Y0203660D01*
X0210852Y0202426D01*
X0211470Y0201808D01*
X0217352Y0198660D02*
X0217970Y0199277D01*
X0220438Y0199277D01*
X0221056Y0198660D01*
X0221056Y0197426D01*
X0220438Y0196808D01*
X0219821Y0196808D01*
X0219204Y0197426D01*
X0219204Y0199277D01*
X0217352Y0198660D02*
X0217352Y0197426D01*
X0217970Y0196808D01*
X0214556Y0193660D02*
X0213938Y0194277D01*
X0213321Y0194277D01*
X0212704Y0193660D01*
X0212704Y0192426D01*
X0213321Y0191808D01*
X0213938Y0191808D01*
X0214556Y0192426D01*
X0214556Y0193660D01*
X0212704Y0193660D02*
X0212087Y0194277D01*
X0211470Y0194277D01*
X0210852Y0193660D01*
X0210852Y0192426D01*
X0211470Y0191808D01*
X0212087Y0191808D01*
X0212704Y0192426D01*
X0217352Y0188660D02*
X0217352Y0187426D01*
X0217970Y0186808D01*
X0218587Y0186808D01*
X0219204Y0187426D01*
X0219204Y0188660D01*
X0218587Y0189277D01*
X0217970Y0189277D01*
X0217352Y0188660D01*
X0219204Y0188660D02*
X0219821Y0189277D01*
X0220438Y0189277D01*
X0221056Y0188660D01*
X0221056Y0187426D01*
X0220438Y0186808D01*
X0219821Y0186808D01*
X0219204Y0187426D01*
X0214556Y0184277D02*
X0213938Y0184277D01*
X0211470Y0181808D01*
X0210852Y0181808D01*
X0214556Y0181808D02*
X0214556Y0184277D01*
X0220438Y0179277D02*
X0217970Y0176808D01*
X0217352Y0176808D01*
X0221056Y0176808D02*
X0221056Y0179277D01*
X0220438Y0179277D01*
X0214556Y0174277D02*
X0213938Y0173043D01*
X0212704Y0171808D01*
X0212704Y0173660D01*
X0212087Y0174277D01*
X0211470Y0174277D01*
X0210852Y0173660D01*
X0210852Y0172426D01*
X0211470Y0171808D01*
X0212704Y0171808D01*
X0217352Y0168660D02*
X0217970Y0169277D01*
X0218587Y0169277D01*
X0219204Y0168660D01*
X0219204Y0166808D01*
X0217970Y0166808D01*
X0217352Y0167426D01*
X0217352Y0168660D01*
X0219204Y0166808D02*
X0220438Y0168043D01*
X0221056Y0169277D01*
X0214556Y0164277D02*
X0214556Y0161808D01*
X0212704Y0161808D01*
X0213321Y0163043D01*
X0213321Y0163660D01*
X0212704Y0164277D01*
X0211470Y0164277D01*
X0210852Y0163660D01*
X0210852Y0162426D01*
X0211470Y0161808D01*
X0217352Y0158660D02*
X0217352Y0157426D01*
X0217970Y0156808D01*
X0219204Y0156808D02*
X0219821Y0158043D01*
X0219821Y0158660D01*
X0219204Y0159277D01*
X0217970Y0159277D01*
X0217352Y0158660D01*
X0219204Y0156808D02*
X0221056Y0156808D01*
X0221056Y0159277D01*
X0214556Y0153660D02*
X0212704Y0151808D01*
X0212704Y0154277D01*
X0210852Y0153660D02*
X0214556Y0153660D01*
X0219204Y0149277D02*
X0219204Y0146808D01*
X0221056Y0148660D01*
X0217352Y0148660D01*
X0213938Y0144277D02*
X0213321Y0144277D01*
X0212704Y0143660D01*
X0212087Y0144277D01*
X0211470Y0144277D01*
X0210852Y0143660D01*
X0210852Y0142426D01*
X0211470Y0141808D01*
X0212704Y0143043D02*
X0212704Y0143660D01*
X0213938Y0144277D02*
X0214556Y0143660D01*
X0214556Y0142426D01*
X0213938Y0141808D01*
X0217352Y0138660D02*
X0217352Y0137426D01*
X0217970Y0136808D01*
X0219204Y0138043D02*
X0219204Y0138660D01*
X0218587Y0139277D01*
X0217970Y0139277D01*
X0217352Y0138660D01*
X0219204Y0138660D02*
X0219821Y0139277D01*
X0220438Y0139277D01*
X0221056Y0138660D01*
X0221056Y0137426D01*
X0220438Y0136808D01*
X0214556Y0133660D02*
X0214556Y0132426D01*
X0213938Y0131808D01*
X0214556Y0133660D02*
X0213938Y0134277D01*
X0213321Y0134277D01*
X0210852Y0131808D01*
X0210852Y0134277D01*
X0217352Y0129277D02*
X0217352Y0126808D01*
X0219821Y0129277D01*
X0220438Y0129277D01*
X0221056Y0128660D01*
X0221056Y0127426D01*
X0220438Y0126808D01*
X0214556Y0123043D02*
X0210852Y0123043D01*
X0210852Y0124277D02*
X0210852Y0121808D01*
X0213321Y0121808D02*
X0214556Y0123043D01*
X0217352Y0119277D02*
X0217352Y0116808D01*
X0217352Y0118043D02*
X0221056Y0118043D01*
X0219821Y0116808D01*
X0188655Y0093339D02*
X0188655Y0092371D01*
X0188171Y0091887D01*
X0188655Y0093339D02*
X0188171Y0093822D01*
X0187687Y0093822D01*
X0185752Y0091887D01*
X0185752Y0093822D01*
X0185752Y0090898D02*
X0185752Y0090414D01*
X0186236Y0090414D01*
X0186236Y0090898D01*
X0185752Y0090898D01*
X0186236Y0089403D02*
X0185752Y0088919D01*
X0185752Y0087951D01*
X0186236Y0087468D01*
X0188171Y0089403D01*
X0186236Y0089403D01*
X0188171Y0089403D02*
X0188655Y0088919D01*
X0188655Y0087951D01*
X0188171Y0087468D01*
X0186236Y0087468D01*
X0187687Y0086456D02*
X0185752Y0085489D01*
X0187687Y0084521D01*
X0188171Y0080563D02*
X0188655Y0080079D01*
X0188655Y0078628D01*
X0185752Y0078628D01*
X0185752Y0080079D01*
X0186236Y0080563D01*
X0188171Y0080563D01*
X0185752Y0077617D02*
X0185752Y0075682D01*
X0188655Y0075682D01*
X0188655Y0074670D02*
X0188655Y0072735D01*
X0185752Y0072735D01*
X0185752Y0074670D01*
X0187204Y0073703D02*
X0187204Y0072735D01*
X0188655Y0071738D02*
X0188655Y0070771D01*
X0188655Y0071254D02*
X0185752Y0071254D01*
X0185752Y0070771D02*
X0185752Y0071738D01*
X0185752Y0069759D02*
X0188655Y0069759D01*
X0187204Y0069759D02*
X0187204Y0067824D01*
X0186720Y0066813D02*
X0186236Y0066813D01*
X0185752Y0066329D01*
X0185752Y0065361D01*
X0186236Y0064878D01*
X0187204Y0065361D02*
X0187204Y0066329D01*
X0186720Y0066813D01*
X0185752Y0067824D02*
X0188655Y0067824D01*
X0188171Y0066813D02*
X0188655Y0066329D01*
X0188655Y0065361D01*
X0188171Y0064878D01*
X0187687Y0064878D01*
X0187204Y0065361D01*
X0187204Y0063866D02*
X0187204Y0061931D01*
X0188655Y0060920D02*
X0188655Y0058985D01*
X0188655Y0059952D02*
X0185752Y0059952D01*
X0186236Y0057973D02*
X0188171Y0057973D01*
X0188655Y0057489D01*
X0188655Y0056522D01*
X0188171Y0056038D01*
X0186236Y0056038D01*
X0185752Y0056522D01*
X0185752Y0057489D01*
X0186236Y0057973D01*
X0185752Y0055027D02*
X0186720Y0054059D01*
X0186720Y0054543D02*
X0186720Y0053092D01*
X0185752Y0053092D02*
X0188655Y0053092D01*
X0188655Y0054543D01*
X0188171Y0055027D01*
X0187204Y0055027D01*
X0186720Y0054543D01*
X0187204Y0052080D02*
X0186720Y0051596D01*
X0186720Y0050145D01*
X0185752Y0050145D02*
X0188655Y0050145D01*
X0188655Y0051596D01*
X0188171Y0052080D01*
X0187204Y0052080D01*
X0187204Y0049134D02*
X0187204Y0047199D01*
X0185752Y0046187D02*
X0188655Y0046187D01*
X0188655Y0044252D02*
X0185752Y0046187D01*
X0185752Y0044252D02*
X0188655Y0044252D01*
X0188655Y0043241D02*
X0185752Y0043241D01*
X0185752Y0041306D02*
X0188655Y0041306D01*
X0187687Y0042273D01*
X0188655Y0043241D01*
X0188171Y0040294D02*
X0187204Y0040294D01*
X0186720Y0039810D01*
X0186720Y0038359D01*
X0186720Y0039327D02*
X0185752Y0040294D01*
X0185752Y0038359D02*
X0188655Y0038359D01*
X0188655Y0039810D01*
X0188171Y0040294D01*
X0188655Y0037348D02*
X0185752Y0037348D01*
X0187204Y0037348D02*
X0187204Y0035413D01*
X0188171Y0034401D02*
X0188655Y0033917D01*
X0188655Y0032950D01*
X0188171Y0032466D01*
X0186236Y0032466D01*
X0185752Y0032950D01*
X0185752Y0033917D01*
X0186236Y0034401D01*
X0185752Y0035413D02*
X0188655Y0035413D01*
X0166821Y0134967D02*
X0168056Y0136201D01*
X0164352Y0136201D01*
X0164352Y0134967D02*
X0164352Y0137436D01*
X0164970Y0138650D02*
X0164352Y0139267D01*
X0164352Y0140502D01*
X0164970Y0141119D01*
X0165587Y0141119D01*
X0166204Y0140502D01*
X0166204Y0138650D01*
X0164970Y0138650D01*
X0166204Y0138650D02*
X0167438Y0139884D01*
X0168056Y0141119D01*
X0166821Y0144967D02*
X0168056Y0146201D01*
X0164352Y0146201D01*
X0164352Y0144967D02*
X0164352Y0147436D01*
X0164970Y0148650D02*
X0164352Y0149267D01*
X0164352Y0150502D01*
X0164970Y0151119D01*
X0166204Y0151119D01*
X0166821Y0150502D01*
X0166821Y0149884D01*
X0166204Y0148650D01*
X0168056Y0148650D01*
X0168056Y0151119D01*
X0166821Y0154967D02*
X0168056Y0156201D01*
X0164352Y0156201D01*
X0164352Y0154967D02*
X0164352Y0157436D01*
X0166204Y0158650D02*
X0166204Y0161119D01*
X0168056Y0160502D02*
X0166204Y0158650D01*
X0164352Y0160502D02*
X0168056Y0160502D01*
X0166821Y0164967D02*
X0168056Y0166201D01*
X0164352Y0166201D01*
X0164352Y0164967D02*
X0164352Y0167436D01*
X0164970Y0168650D02*
X0164352Y0169267D01*
X0164352Y0170502D01*
X0164970Y0171119D01*
X0165587Y0171119D01*
X0166204Y0170502D01*
X0166204Y0169884D01*
X0166204Y0170502D02*
X0166821Y0171119D01*
X0167438Y0171119D01*
X0168056Y0170502D01*
X0168056Y0169267D01*
X0167438Y0168650D01*
X0166821Y0174967D02*
X0168056Y0176201D01*
X0164352Y0176201D01*
X0164352Y0174967D02*
X0164352Y0177436D01*
X0164352Y0178650D02*
X0166821Y0181119D01*
X0167438Y0181119D01*
X0168056Y0180502D01*
X0168056Y0179267D01*
X0167438Y0178650D01*
X0164352Y0178650D02*
X0164352Y0181119D01*
X0164352Y0184967D02*
X0164352Y0187436D01*
X0164352Y0188650D02*
X0164352Y0191119D01*
X0164352Y0189884D02*
X0168056Y0189884D01*
X0166821Y0188650D01*
X0168056Y0186201D02*
X0164352Y0186201D01*
X0166821Y0184967D02*
X0168056Y0186201D01*
X0166821Y0194967D02*
X0168056Y0196201D01*
X0167438Y0206808D02*
X0166821Y0206808D01*
X0166204Y0207426D01*
X0166204Y0209277D01*
X0167438Y0209277D02*
X0168056Y0208660D01*
X0168056Y0207426D01*
X0167438Y0206808D01*
X0164970Y0206808D02*
X0164352Y0207426D01*
X0164352Y0208660D01*
X0164970Y0209277D01*
X0167438Y0209277D01*
X0019556Y0261201D02*
X0015852Y0261201D01*
X0015852Y0259967D02*
X0015852Y0262436D01*
X0016470Y0263650D02*
X0015852Y0264267D01*
X0015852Y0265502D01*
X0016470Y0266119D01*
X0017704Y0266119D01*
X0018321Y0265502D01*
X0018321Y0264884D01*
X0017704Y0263650D01*
X0019556Y0263650D01*
X0019556Y0266119D01*
X0019556Y0261201D02*
X0018321Y0259967D01*
X0359352Y0258660D02*
X0363056Y0258660D01*
X0361204Y0256808D01*
X0361204Y0259277D01*
X0366852Y0256160D02*
X0366852Y0254926D01*
X0367470Y0254308D01*
X0368704Y0254308D02*
X0369321Y0255543D01*
X0369321Y0256160D01*
X0368704Y0256777D01*
X0367470Y0256777D01*
X0366852Y0256160D01*
X0368704Y0254308D02*
X0370556Y0254308D01*
X0370556Y0256777D01*
X0368704Y0264308D02*
X0368704Y0266777D01*
X0366852Y0266160D02*
X0370556Y0266160D01*
X0368704Y0264308D01*
X0363056Y0267426D02*
X0363056Y0268660D01*
X0362438Y0269277D01*
X0361821Y0269277D01*
X0361204Y0268660D01*
X0360587Y0269277D01*
X0359970Y0269277D01*
X0359352Y0268660D01*
X0359352Y0267426D01*
X0359970Y0266808D01*
X0361204Y0268043D02*
X0361204Y0268660D01*
X0362438Y0266808D02*
X0363056Y0267426D01*
X0367470Y0274308D02*
X0366852Y0274926D01*
X0366852Y0276160D01*
X0367470Y0276777D01*
X0368087Y0276777D01*
X0368704Y0276160D01*
X0368704Y0275543D01*
X0368704Y0276160D02*
X0369321Y0276777D01*
X0369938Y0276777D01*
X0370556Y0276160D01*
X0370556Y0274926D01*
X0369938Y0274308D01*
X0363056Y0277426D02*
X0362438Y0276808D01*
X0363056Y0277426D02*
X0363056Y0278660D01*
X0362438Y0279277D01*
X0361821Y0279277D01*
X0359352Y0276808D01*
X0359352Y0279277D01*
X0359352Y0286808D02*
X0359352Y0289277D01*
X0359352Y0288043D02*
X0363056Y0288043D01*
X0361821Y0286808D01*
X0366852Y0286777D02*
X0366852Y0284308D01*
X0369321Y0286777D01*
X0369938Y0286777D01*
X0370556Y0286160D01*
X0370556Y0284926D01*
X0369938Y0284308D01*
X0369321Y0294308D02*
X0370556Y0295543D01*
X0366852Y0295543D01*
X0366852Y0296777D02*
X0366852Y0294308D01*
X0367970Y0300625D02*
X0367352Y0301242D01*
X0367352Y0302477D01*
X0367970Y0303094D01*
X0367352Y0304308D02*
X0371056Y0304308D01*
X0367352Y0306777D01*
X0371056Y0306777D01*
X0369821Y0307992D02*
X0371056Y0309226D01*
X0367352Y0309226D01*
X0367352Y0307992D02*
X0367352Y0310460D01*
X0370438Y0303094D02*
X0371056Y0302477D01*
X0371056Y0301242D01*
X0370438Y0300625D01*
X0367970Y0300625D01*
X0363056Y0249277D02*
X0363056Y0246808D01*
X0361204Y0246808D01*
X0361821Y0248043D01*
X0361821Y0248660D01*
X0361204Y0249277D01*
X0359970Y0249277D01*
X0359352Y0248660D01*
X0359352Y0247426D01*
X0359970Y0246808D01*
X0366852Y0246160D02*
X0367470Y0246777D01*
X0368087Y0246777D01*
X0368704Y0246160D01*
X0368704Y0244308D01*
X0367470Y0244308D01*
X0366852Y0244926D01*
X0366852Y0246160D01*
X0368704Y0244308D02*
X0369938Y0245543D01*
X0370556Y0246777D01*
X0363056Y0239277D02*
X0362438Y0238043D01*
X0361204Y0236808D01*
X0361204Y0238660D01*
X0360587Y0239277D01*
X0359970Y0239277D01*
X0359352Y0238660D01*
X0359352Y0237426D01*
X0359970Y0236808D01*
X0361204Y0236808D01*
X0366852Y0234308D02*
X0367470Y0234308D01*
X0369938Y0236777D01*
X0370556Y0236777D01*
X0370556Y0234308D01*
X0369938Y0226777D02*
X0369321Y0226777D01*
X0368704Y0226160D01*
X0368704Y0224926D01*
X0369321Y0224308D01*
X0369938Y0224308D01*
X0370556Y0224926D01*
X0370556Y0226160D01*
X0369938Y0226777D01*
X0368704Y0226160D02*
X0368087Y0226777D01*
X0367470Y0226777D01*
X0366852Y0226160D01*
X0366852Y0224926D01*
X0367470Y0224308D01*
X0368087Y0224308D01*
X0368704Y0224926D01*
X0363056Y0226808D02*
X0363056Y0229277D01*
X0362438Y0229277D01*
X0359970Y0226808D01*
X0359352Y0226808D01*
X0359970Y0219277D02*
X0359352Y0218660D01*
X0359352Y0217426D01*
X0359970Y0216808D01*
X0360587Y0216808D01*
X0361204Y0217426D01*
X0361204Y0218660D01*
X0360587Y0219277D01*
X0359970Y0219277D01*
X0361204Y0218660D02*
X0361821Y0219277D01*
X0362438Y0219277D01*
X0363056Y0218660D01*
X0363056Y0217426D01*
X0362438Y0216808D01*
X0361821Y0216808D01*
X0361204Y0217426D01*
X0366852Y0216160D02*
X0366852Y0214926D01*
X0367470Y0214308D01*
X0368704Y0214926D02*
X0368704Y0216777D01*
X0369938Y0216777D02*
X0370556Y0216160D01*
X0370556Y0214926D01*
X0369938Y0214308D01*
X0369321Y0214308D01*
X0368704Y0214926D01*
X0367470Y0216777D02*
X0369938Y0216777D01*
X0367470Y0216777D02*
X0366852Y0216160D01*
X0362438Y0209277D02*
X0363056Y0208660D01*
X0363056Y0207426D01*
X0362438Y0206808D01*
X0361821Y0206808D01*
X0361204Y0207426D01*
X0361204Y0209277D01*
X0359970Y0209277D02*
X0362438Y0209277D01*
X0359970Y0209277D02*
X0359352Y0208660D01*
X0359352Y0207426D01*
X0359970Y0206808D01*
X0366852Y0206767D02*
X0367470Y0206150D01*
X0369938Y0208619D01*
X0367470Y0208619D01*
X0366852Y0208002D01*
X0366852Y0206767D01*
X0367470Y0206150D02*
X0369938Y0206150D01*
X0370556Y0206767D01*
X0370556Y0208002D01*
X0369938Y0208619D01*
X0366852Y0204936D02*
X0366852Y0202467D01*
X0366852Y0203701D02*
X0370556Y0203701D01*
X0369321Y0202467D01*
X0366852Y0198619D02*
X0366852Y0196150D01*
X0366852Y0194936D02*
X0366852Y0192467D01*
X0366852Y0193701D02*
X0370556Y0193701D01*
X0369321Y0192467D01*
X0369321Y0196150D02*
X0370556Y0197384D01*
X0366852Y0197384D01*
X0363056Y0196201D02*
X0359352Y0196201D01*
X0359352Y0194967D02*
X0359352Y0197436D01*
X0359970Y0198650D02*
X0359352Y0199267D01*
X0359352Y0200502D01*
X0359970Y0201119D01*
X0362438Y0201119D01*
X0359970Y0198650D01*
X0362438Y0198650D01*
X0363056Y0199267D01*
X0363056Y0200502D01*
X0362438Y0201119D01*
X0363056Y0196201D02*
X0361821Y0194967D01*
X0359352Y0191119D02*
X0359352Y0188650D01*
X0359352Y0187436D02*
X0359352Y0184967D01*
X0359352Y0186201D02*
X0363056Y0186201D01*
X0361821Y0184967D01*
X0361821Y0188650D02*
X0363056Y0189884D01*
X0359352Y0189884D01*
X0366852Y0188619D02*
X0366852Y0186150D01*
X0369321Y0188619D01*
X0369938Y0188619D01*
X0370556Y0188002D01*
X0370556Y0186767D01*
X0369938Y0186150D01*
X0370556Y0183701D02*
X0366852Y0183701D01*
X0366852Y0182467D02*
X0366852Y0184936D01*
X0369321Y0182467D02*
X0370556Y0183701D01*
X0369938Y0178619D02*
X0369321Y0178619D01*
X0368704Y0178002D01*
X0368087Y0178619D01*
X0367470Y0178619D01*
X0366852Y0178002D01*
X0366852Y0176767D01*
X0367470Y0176150D01*
X0366852Y0174936D02*
X0366852Y0172467D01*
X0366852Y0173701D02*
X0370556Y0173701D01*
X0369321Y0172467D01*
X0369938Y0176150D02*
X0370556Y0176767D01*
X0370556Y0178002D01*
X0369938Y0178619D01*
X0368704Y0178002D02*
X0368704Y0177384D01*
X0363056Y0176201D02*
X0359352Y0176201D01*
X0359352Y0174967D02*
X0359352Y0177436D01*
X0359352Y0178650D02*
X0361821Y0181119D01*
X0362438Y0181119D01*
X0363056Y0180502D01*
X0363056Y0179267D01*
X0362438Y0178650D01*
X0363056Y0176201D02*
X0361821Y0174967D01*
X0359352Y0178650D02*
X0359352Y0181119D01*
X0359970Y0171119D02*
X0359352Y0170502D01*
X0359352Y0169267D01*
X0359970Y0168650D01*
X0359352Y0167436D02*
X0359352Y0164967D01*
X0359352Y0166201D02*
X0363056Y0166201D01*
X0361821Y0164967D01*
X0362438Y0168650D02*
X0363056Y0169267D01*
X0363056Y0170502D01*
X0362438Y0171119D01*
X0361821Y0171119D01*
X0361204Y0170502D01*
X0360587Y0171119D01*
X0359970Y0171119D01*
X0361204Y0170502D02*
X0361204Y0169884D01*
X0366852Y0168002D02*
X0370556Y0168002D01*
X0368704Y0166150D01*
X0368704Y0168619D01*
X0366852Y0164936D02*
X0366852Y0162467D01*
X0366852Y0163701D02*
X0370556Y0163701D01*
X0369321Y0162467D01*
X0368704Y0158619D02*
X0367470Y0158619D01*
X0366852Y0158002D01*
X0366852Y0156767D01*
X0367470Y0156150D01*
X0368704Y0156150D02*
X0369321Y0157384D01*
X0369321Y0158002D01*
X0368704Y0158619D01*
X0370556Y0158619D02*
X0370556Y0156150D01*
X0368704Y0156150D01*
X0366852Y0154936D02*
X0366852Y0152467D01*
X0366852Y0153701D02*
X0370556Y0153701D01*
X0369321Y0152467D01*
X0368087Y0148619D02*
X0368704Y0148002D01*
X0368704Y0146150D01*
X0367470Y0146150D01*
X0366852Y0146767D01*
X0366852Y0148002D01*
X0367470Y0148619D01*
X0368087Y0148619D01*
X0369938Y0147384D02*
X0368704Y0146150D01*
X0369938Y0147384D02*
X0370556Y0148619D01*
X0370556Y0143701D02*
X0366852Y0143701D01*
X0366852Y0142467D02*
X0366852Y0144936D01*
X0369321Y0142467D02*
X0370556Y0143701D01*
X0370556Y0138619D02*
X0369938Y0138619D01*
X0367470Y0136150D01*
X0366852Y0136150D01*
X0366852Y0134936D02*
X0366852Y0132467D01*
X0366852Y0133701D02*
X0370556Y0133701D01*
X0369321Y0132467D01*
X0369321Y0128619D02*
X0368704Y0128002D01*
X0368704Y0126767D01*
X0369321Y0126150D01*
X0369938Y0126150D01*
X0370556Y0126767D01*
X0370556Y0128002D01*
X0369938Y0128619D01*
X0369321Y0128619D01*
X0368704Y0128002D02*
X0368087Y0128619D01*
X0367470Y0128619D01*
X0366852Y0128002D01*
X0366852Y0126767D01*
X0367470Y0126150D01*
X0368087Y0126150D01*
X0368704Y0126767D01*
X0366852Y0124936D02*
X0366852Y0122467D01*
X0366852Y0123701D02*
X0370556Y0123701D01*
X0369321Y0122467D01*
X0363056Y0120502D02*
X0363056Y0119267D01*
X0362438Y0118650D01*
X0361821Y0118650D01*
X0361204Y0119267D01*
X0361204Y0120502D01*
X0360587Y0121119D01*
X0359970Y0121119D01*
X0359352Y0120502D01*
X0359352Y0119267D01*
X0359970Y0118650D01*
X0360587Y0118650D01*
X0361204Y0119267D01*
X0361204Y0120502D02*
X0361821Y0121119D01*
X0362438Y0121119D01*
X0363056Y0120502D01*
X0361821Y0124967D02*
X0363056Y0126201D01*
X0359352Y0126201D01*
X0359352Y0124967D02*
X0359352Y0127436D01*
X0359352Y0128650D02*
X0359970Y0128650D01*
X0362438Y0131119D01*
X0363056Y0131119D01*
X0363056Y0128650D01*
X0361821Y0134967D02*
X0363056Y0136201D01*
X0359352Y0136201D01*
X0359352Y0134967D02*
X0359352Y0137436D01*
X0359970Y0138650D02*
X0359352Y0139267D01*
X0359352Y0140502D01*
X0359970Y0141119D01*
X0360587Y0141119D01*
X0361204Y0140502D01*
X0361204Y0138650D01*
X0359970Y0138650D01*
X0361204Y0138650D02*
X0362438Y0139884D01*
X0363056Y0141119D01*
X0361821Y0144967D02*
X0363056Y0146201D01*
X0359352Y0146201D01*
X0359352Y0144967D02*
X0359352Y0147436D01*
X0359970Y0148650D02*
X0359352Y0149267D01*
X0359352Y0150502D01*
X0359970Y0151119D01*
X0361204Y0151119D01*
X0361821Y0150502D01*
X0361821Y0149884D01*
X0361204Y0148650D01*
X0363056Y0148650D01*
X0363056Y0151119D01*
X0361821Y0154967D02*
X0363056Y0156201D01*
X0359352Y0156201D01*
X0359352Y0154967D02*
X0359352Y0157436D01*
X0361204Y0158650D02*
X0361204Y0161119D01*
X0363056Y0160502D02*
X0361204Y0158650D01*
X0359352Y0160502D02*
X0363056Y0160502D01*
X0370556Y0138619D02*
X0370556Y0136150D01*
X0359352Y0117436D02*
X0359352Y0114967D01*
X0359352Y0116201D02*
X0363056Y0116201D01*
X0361821Y0114967D01*
X0380752Y0093822D02*
X0380752Y0091887D01*
X0382687Y0093822D01*
X0383171Y0093822D01*
X0383655Y0093339D01*
X0383655Y0092371D01*
X0383171Y0091887D01*
X0381236Y0090898D02*
X0380752Y0090898D01*
X0380752Y0090414D01*
X0381236Y0090414D01*
X0381236Y0090898D01*
X0381236Y0089403D02*
X0380752Y0088919D01*
X0380752Y0087951D01*
X0381236Y0087468D01*
X0383171Y0089403D01*
X0381236Y0089403D01*
X0383171Y0089403D02*
X0383655Y0088919D01*
X0383655Y0087951D01*
X0383171Y0087468D01*
X0381236Y0087468D01*
X0382687Y0086456D02*
X0380752Y0085489D01*
X0382687Y0084521D01*
X0383171Y0080563D02*
X0381236Y0080563D01*
X0380752Y0080079D01*
X0380752Y0078628D01*
X0383655Y0078628D01*
X0383655Y0080079D01*
X0383171Y0080563D01*
X0380752Y0077617D02*
X0380752Y0075682D01*
X0383655Y0075682D01*
X0383655Y0074670D02*
X0383655Y0072735D01*
X0380752Y0072735D01*
X0380752Y0074670D01*
X0382204Y0073703D02*
X0382204Y0072735D01*
X0383655Y0071738D02*
X0383655Y0070771D01*
X0383655Y0071254D02*
X0380752Y0071254D01*
X0380752Y0070771D02*
X0380752Y0071738D01*
X0380752Y0069759D02*
X0383655Y0069759D01*
X0382204Y0069759D02*
X0382204Y0067824D01*
X0381720Y0066813D02*
X0381236Y0066813D01*
X0380752Y0066329D01*
X0380752Y0065361D01*
X0381236Y0064878D01*
X0382204Y0065361D02*
X0382204Y0066329D01*
X0381720Y0066813D01*
X0380752Y0067824D02*
X0383655Y0067824D01*
X0383171Y0066813D02*
X0383655Y0066329D01*
X0383655Y0065361D01*
X0383171Y0064878D01*
X0382687Y0064878D01*
X0382204Y0065361D01*
X0382204Y0063866D02*
X0382204Y0061931D01*
X0383655Y0060920D02*
X0383655Y0058985D01*
X0383655Y0059952D02*
X0380752Y0059952D01*
X0381236Y0057973D02*
X0383171Y0057973D01*
X0383655Y0057489D01*
X0383655Y0056522D01*
X0383171Y0056038D01*
X0381236Y0056038D01*
X0380752Y0056522D01*
X0380752Y0057489D01*
X0381236Y0057973D01*
X0380752Y0055027D02*
X0381720Y0054059D01*
X0381720Y0054543D02*
X0381720Y0053092D01*
X0380752Y0053092D02*
X0383655Y0053092D01*
X0383655Y0054543D01*
X0383171Y0055027D01*
X0382204Y0055027D01*
X0381720Y0054543D01*
X0382204Y0052080D02*
X0381720Y0051596D01*
X0381720Y0050145D01*
X0380752Y0050145D02*
X0383655Y0050145D01*
X0383655Y0051596D01*
X0383171Y0052080D01*
X0382204Y0052080D01*
X0382204Y0049134D02*
X0382204Y0047199D01*
X0380752Y0046187D02*
X0383655Y0046187D01*
X0383655Y0044252D02*
X0380752Y0044252D01*
X0380752Y0043241D02*
X0383655Y0043241D01*
X0382687Y0042273D01*
X0383655Y0041306D01*
X0380752Y0041306D01*
X0380752Y0040294D02*
X0381720Y0039327D01*
X0381720Y0039810D02*
X0381720Y0038359D01*
X0380752Y0038359D02*
X0383655Y0038359D01*
X0383655Y0039810D01*
X0383171Y0040294D01*
X0382204Y0040294D01*
X0381720Y0039810D01*
X0382204Y0037348D02*
X0382204Y0035413D01*
X0383171Y0034401D02*
X0383655Y0033917D01*
X0383655Y0032950D01*
X0383171Y0032466D01*
X0381236Y0032466D01*
X0380752Y0032950D01*
X0380752Y0033917D01*
X0381236Y0034401D01*
X0380752Y0035413D02*
X0383655Y0035413D01*
X0383655Y0037348D02*
X0380752Y0037348D01*
X0383655Y0044252D02*
X0380752Y0046187D01*
D12*
X0343293Y0067190D02*
X0296152Y0067190D01*
X0296152Y0090760D01*
X0304009Y0098617D01*
X0319723Y0098617D01*
X0327579Y0090760D01*
X0327579Y0067190D01*
X0304009Y0114334D02*
X0311866Y0122191D01*
X0311866Y0145761D01*
X0319723Y0145761D02*
X0296152Y0145761D01*
X0296152Y0122191D01*
X0304009Y0114334D01*
X0327579Y0122191D02*
X0327579Y0137905D01*
X0319723Y0145761D01*
X0319723Y0161479D02*
X0304009Y0161479D01*
X0296152Y0169335D01*
X0296152Y0192906D01*
X0296152Y0208623D02*
X0343293Y0208623D01*
X0327579Y0192906D02*
X0327579Y0169335D01*
X0319723Y0161479D01*
X0311866Y0208623D02*
X0327579Y0232193D01*
X0311866Y0208623D02*
X0296152Y0232193D01*
X0148293Y0208623D02*
X0101152Y0208623D01*
X0116866Y0208623D02*
X0132579Y0232193D01*
X0116866Y0208623D02*
X0101152Y0232193D01*
X0101152Y0192906D02*
X0101152Y0169335D01*
X0109009Y0161479D01*
X0124723Y0161479D01*
X0132579Y0169335D01*
X0132579Y0192906D01*
X0124723Y0145761D02*
X0101152Y0145761D01*
X0101152Y0122191D01*
X0109009Y0114334D01*
X0116866Y0122191D01*
X0116866Y0145761D01*
X0124723Y0145761D02*
X0132579Y0137905D01*
X0132579Y0122191D01*
X0124723Y0098617D02*
X0109009Y0098617D01*
X0101152Y0090760D01*
X0101152Y0067190D01*
X0148293Y0067190D01*
X0132579Y0067190D02*
X0132579Y0090760D01*
X0124723Y0098617D01*
M02*
